OFF
59 100 0
0.229897834271041 0.259985768376226 0
0.388054255256562 -0.571119274704285 0
-0.340699499689887 0.0622186485616612 0
-0.621533349770747 -0.191874510466516 0
1 0 0
-0.76316066204345 0.0268143166275785 0
-0.18649802981656 -0.0196538079449746 0
0.431395837555558 0.238502870261808 0
-0.0559508408742952 -0.132292962415966 0
-0.203905619792675 -0.978990550627004 0
-0.734703532314581 0.257153897512316 0
0.474652206405957 -0.0450641552139767 0
-0.138527868296815 0.99035853593794 0
0.140369071608318 -0.756464880956493 0
0.715898791102002 0.698204068234131 0
-0.329738995209095 -0.185064640514525 0
0.718018653445835 -0.291325909626334 0
-0.195971124660177 0.528836116904495 0
0.434081167910064 0.643620166638363 0
0.003419252950981 0.0725195805702105 0
0.337003965957121 0.476747377514908 0
-0.629648519017446 -0.776880133932602 0
-0.422889648633679 0.228605593388745 0
-0.123363778192095 0.292269028113117 0
0.117341851140733 -0.286080608709188 0
0.0322930727575263 -0.497020158010017 0
-0.483289503911196 -0.554625041778629 0
0.0890206816227635 0.210969654794737 0
0.336648282275881 -0.283161432886353 0
0.0435711646016774 0.432954700767768 0
0.268118770107032 0.0744821659646212 0
-0.797375153170439 0.603483939393932 0
0.261591403245752 0.965178707674345 0
0.230854627394768 -0.513235981334075 0
0.894726357560995 0.446614761383492 0
-0.8581658380061 -0.513372568880816 0
0.893927611808997 -0.448211361798721 0
-0.525791210064098 0.52595564284326 0
-0.555686226969192 0.0340200558044726 0
0.626584901580906 0.34405932279894 0
0.715713060680926 0.087250324731128 0
0.553409174990133 -0.447770698071104 0
-0.342117297030029 0.399963973016791 0
0.621055464626149 -0.783766616958134 0
-0.696128767082956 -0.401734992089512 0
-0.23183589415603 -0.669675735966947 0
0.277817428266067 -0.960633893089156 0
0.549880808442001 -0.164398998943756 0
-0.403187979044277 -0.354061466255352 0
-0.190426157090338 0.195341401839536 0
-0.338625633317708 0.729706034964448 0
-0.0821301678767911 0.752944229817376 0
0.16817004898897 -0.110973676544101 0
0.0525230198696216 0.623232945188927 0
0.51297407097548 0.858404102102758 0
-0.124542880030411 -0.366494173002332 0
-0.975314735489188 0.220819307891442 0
-0.530765059387445 0.847518997859896 0
-0.980581705136092 -0.196110987842075 0
3 31 56 10
3 7 30 11
3 23 17 42
3 55 48 45
3 52 8 24
3 50 57 37
3 58 3 5
3 47 16 40
3 24 33 28
3 27 19 30
3 39 34 14
3 40 4 34
3 20 0 7
3 12 50 51
3 56 5 10
3 17 53 51
3 22 49 42
3 55 25 24
3 43 41 1
3 40 34 39
3 30 52 11
3 15 8 6
3 7 0 30
3 27 23 19
3 48 3 44
3 2 6 49
3 8 15 55
3 41 16 47
3 46 13 9
3 20 18 53
3 41 43 36
3 1 46 43
3 25 45 13
3 26 21 45
3 16 36 4
3 24 28 52
3 10 5 38
3 17 51 50
3 19 8 52
3 7 39 20
3 51 53 32
3 50 42 17
3 15 2 38
3 2 22 38
3 29 17 23
3 24 25 33
3 21 44 35
3 58 44 3
3 40 7 11
3 18 14 54
3 1 13 46
3 38 3 15
3 19 52 30
3 32 53 18
3 39 7 40
3 49 22 2
3 44 26 48
3 18 20 14
3 14 20 39
3 29 20 53
3 9 45 21
3 48 15 3
3 40 16 4
3 1 33 13
3 1 41 28
3 1 28 33
3 42 49 23
3 55 24 8
3 49 6 19
3 6 8 19
3 45 48 26
3 42 50 37
3 10 38 22
3 25 13 33
3 3 38 5
3 57 50 12
3 32 12 51
3 21 26 44
3 40 11 47
3 28 11 52
3 49 19 23
3 2 15 6
3 29 23 27
3 44 58 35
3 48 55 15
3 5 56 58
3 28 47 11
3 41 36 16
3 57 31 37
3 27 30 0
3 28 41 47
3 32 18 54
3 31 10 37
3 10 22 37
3 9 13 45
3 37 22 42
3 55 45 25
3 0 29 27
3 17 29 53
3 20 29 0
