OFF
59 100 0
0.5915409 0.1683755 0.7981499 
0.0175923 -0.9381708 0.3622015 
-0.4523 0.4210145 0.7960101 
-0.8805867 0.2480781 0.4082055 
0.8533654 -0.5432011 0.00538184 
-0.7919263 0.5522457 0.2670906 
-0.3290766 0.1627086 0.9522317 
0.7871786 -0.05256753 0.6259295 
-0.2365003 -0.1590333 0.9651207 
-0.7034828 -0.7146516 0.002197798 
-0.5967404 0.7679549 0.2541168 
0.615804 -0.4778596 0.6426018 
0.4258288 0.9176757 0.00468866 
-0.3687766 -0.898125 0.2649931 
0.9869153 0.2050151 0.02797263 
-0.6650012 0.04309302 0.7635176 
0.5620561 -0.7888353 0.256693 
0.1829197 0.8339053 0.5276062 
0.8850318 0.3867786 0.2785401 
0.08077551 0.1155223 0.9967208 
0.8098046 0.3259416 0.5118387 
-0.9571 -0.31214 0.00328747 
-0.3771246 0.6862515 0.633668 
0.0991063 0.570259 0.8339615 
-0.1063423 -0.5552746 0.8344697 
-0.3961139 -0.6982523 0.6083604 
-0.9181603 -0.2643217 0.3021565 
0.3543165 0.2437084 0.9086555 
0.2156276 -0.7060742 0.6869037 
0.455119 0.5692387 0.6950443 
0.4939101 -0.1553984 0.8743914 
-0.3450198 0.9501221 0.03453903 
0.7494376 0.6771821 0.02383777 
-0.1322191 -0.8438213 0.5255899 
0.999808 -0.1040093 0.008516105 
-0.9941524 0.0364784 0.002924156 
0.5122896 -0.8588985 0.007217047 
-0.1979983 0.932927 0.3040927 
-0.682276 0.5065905 0.5366701 
0.9362972 -0.06468971 0.3424506 
0.8636293 -0.4153804 0.3277404 
0.2983369 -0.9029466 0.3334024 
-0.1092891 0.8159144 0.5782365 
0.09844401 -0.9957212 0.01463939 
-0.9801325 0.04881737 0.2221299 
-0.7503226 -0.5872064 0.3365262 
-0.2892466 -0.9703893 0.008645659 
0.5672365 -0.6520595 0.5127735 
-0.8234557 -0.1229169 0.5618799 
-0.1018033 0.4948089 0.8686917 
0.1390425 0.9687989 0.2171605 
0.4326859 0.8616734 0.2826428 
0.1554693 -0.3548272 0.9323073 
0.5528832 0.7157437 0.4541501 
0.8961776 0.4466825 0.003880745 
-0.5351543 -0.4198163 0.7457948 
-0.7040211 0.7245989 0.002037418 
0.01330572 0.9990984 -0.001280839 
-0.9334404 0.3727544 0.004572892 
3 31 56 10 
3 7 30 11 
3 23 17 42 
3 55 48 45 
3 52 8 24 
3 50 57 37 
3 58 3 5 
3 47 16 40 
3 24 33 28 
3 27 19 30 
3 39 34 14 
3 40 4 34 
3 20 0 7 
3 12 50 51 
3 56 5 10 
3 17 53 51 
3 22 49 42 
3 55 25 24 
3 43 41 1 
3 40 34 39 
3 30 52 11 
3 15 8 6 
3 7 0 30 
3 27 23 19 
3 48 3 44 
3 2 6 49 
3 8 15 55 
3 41 16 47 
3 46 13 9 
3 20 18 53 
3 41 43 36 
3 1 46 43 
3 25 45 13 
3 26 21 45 
3 16 36 4 
3 24 28 52 
3 10 5 38 
3 17 51 50 
3 19 8 52 
3 7 39 20 
3 51 53 32 
3 50 42 17 
3 15 2 38 
3 2 22 38 
3 29 17 23 
3 24 25 33 
3 21 44 35 
3 58 44 3 
3 40 7 11 
3 18 14 54 
3 1 13 46 
3 38 3 15 
3 19 52 30 
3 32 53 18 
3 39 7 40 
3 49 22 2 
3 44 26 48 
3 18 20 14 
3 14 20 39 
3 29 20 53 
3 9 45 21 
3 48 15 3 
3 40 16 4 
3 1 33 13 
3 1 41 28 
3 1 28 33 
3 42 49 23 
3 55 24 8 
3 49 6 19 
3 6 8 19 
3 45 48 26 
3 42 50 37 
3 10 38 22 
3 25 13 33 
3 3 38 5 
3 57 50 12 
3 32 12 51 
3 21 26 44 
3 40 11 47 
3 28 11 52 
3 49 19 23 
3 2 15 6 
3 29 23 27 
3 44 58 35 
3 48 55 15 
3 5 56 58 
3 28 47 11 
3 41 36 16 
3 57 31 37 
3 27 30 0 
3 28 41 47 
3 32 18 54 
3 31 10 37 
3 10 22 37 
3 9 13 45 
3 37 22 42 
3 55 45 25 
3 0 29 27 
3 17 29 53 
3 20 29 0 
