OFF
270 500 0
-0.4952215 0.854982 0.01488052 
-0.8722534 0.1388427 0.1041922 
-0.09579385 -0.7753716 0.2100392 
0.07386997 -0.6231266 0.5156367 
0.203965 -0.8000455 0.1603291 
0.501506 -0.8565719 0.01566887 
0.8307434 -0.1823178 0.1272106 
0.994744 0.0003619047 0.01380635 
-0.5044495 0.1877522 0.6473808 
-0.2256525 -0.1062713 0.8713422 
0.03274336 0.7130908 0.3029193 
-0.5561685 -0.6788472 0.1133364 
0.4098438 -0.2422867 0.7255327 
-0.0243106 0.4257213 0.7613791 
0.822256 -0.02318036 0.1556687 
0.2964399 0.6654627 0.2691423 
0.4120417 0.3674 0.6209139 
-0.3163026 -0.7198754 0.2067739 
-0.1525178 -0.151455 0.8847908 
-0.6170039 -0.03183829 0.5305734 
-0.7883941 -0.1498195 0.1832358 
-0.3681523 0.4764781 0.5453808 
0.3842792 -0.4838501 0.5323654 
-0.1448738 0.7843935 0.1805621 
0.5383475 0.08681899 0.6355709 
-0.6097288 0.5069845 0.184021 
-0.6185791 0.08006705 0.5107968 
-0.2375386 -0.8081731 0.1423762 
-0.1059178 -0.7192259 0.2975605 
-0.007832607 -0.7565866 0.2474262 
0.5480805 -0.7116252 0.09127883 
0.04341488 -0.09873317 0.9092377 
-0.4738503 0.3509052 0.5666246 
0.8149881 0.07277284 0.1589154 
-0.7741092 -0.2484524 0.1736382 
0.6043086 0.5067065 0.1832181 
0.4013176 -0.6419531 0.2510646 
0.6880551 0.1297326 0.3347524 
0.2148579 -0.0468852 0.8831293 
-0.8088495 0.02342135 0.1720914 
-0.2259844 0.4046344 0.7259328 
-0.103036 0.7187346 0.2808796 
-0.6906288 0.156452 0.3223109 
-0.6045045 -0.1633491 0.5127774 
-0.4663939 0.7767289 0.07797196 
0.4666592 -0.714151 0.1317376 
-0.6910262 -0.264795 0.275768 
0.6149694 0.3458413 0.3153834 
0.2092552 -0.165659 0.8643111 
-0.3291636 0.2021071 0.7954538 
0.4291509 -0.7810192 0.09807384 
0.5587586 -0.3031742 0.4888923 
0.5163898 0.1833829 0.6262336 
-0.4949732 -0.6059005 0.2150596 
-0.7060803 0.06604048 0.3237017 
-0.2106151 0.2095411 0.8469259 
-0.2678005 -0.3046919 0.7862017 
-0.3980768 0.08983016 0.7817039 
0.370574 0.6211264 0.2764244 
-0.5840322 -0.04853543 0.5868022 
-0.2465929 0.07597931 0.8673444 
0.5923185 0.1542779 0.5254816 
-0.6523588 0.2747295 0.3206866 
0.3997786 -0.1330608 0.7716055 
0.2112204 0.7970625 0.1480822 
0.3000168 -0.4384727 0.6648652 
0.7809817 -0.08940681 0.2010413 
-0.3225976 0.8218144 0.09745645 
-0.347286 0.69643 0.20448 
0.3436092 0.0690985 0.8205834 
0.6559918 -0.3761111 0.2475333 
0.6307807 -0.4474966 0.2207992 
0.3772476 0.7923864 0.09646837 
0.1260812 -0.5853137 0.5691875 
0.04469362 0.5011892 0.6828389 
-0.09342252 0.3002755 0.8372394 
-0.3590922 -0.418245 0.6385824 
0.1402334 -0.4037426 0.7716496 
0.1188265 0.6061318 0.5062702 
0.1524641 0.2153334 0.8639756 
0.6021417 -0.5344225 0.1837619 
0.8782958 -0.03929693 0.1014088 
0.4932953 0.855195 0.01463021 
0.7532662 -0.2650598 0.1906467 
-0.6395229 -0.3974561 0.2549759 
-0.503988 0.2998543 0.5706042 
0.453738 -0.8550721 0.03721922 
0.5286665 -0.1273807 0.639585 
0.01992331 -0.509461 0.6929495 
0.09813119 0.7047234 0.3019339 
-0.291807 -0.5461703 0.530853 
0.4694684 0.529493 0.3091796 
0.05198873 0.4024833 0.776355 
0.3115547 -0.3089398 0.7602875 
-0.3781552 -0.3329599 0.6992738 
0.8207055 -0.09055404 0.151956 
0.1401878 0.5318509 0.623224 
0.4979165 -0.1642971 0.6679917 
0.5086781 -0.4895856 0.3408582 
0.0352075 0.3213782 0.8304231 
0.8886454 0.0457835 0.09348297 
0.3018572 0.2601551 0.7832694 
0.5889092 -0.2206236 0.5028984 
-0.1150964 0.5733536 0.5713155 
0.1288513 -0.7212216 0.2906615 
0.8420714 0.1695722 0.1182388 
-0.2881785 -0.009250513 0.8534104 
0.6668464 0.2460428 0.3078718 
-0.1207833 -0.543116 0.6336691 
0.5568211 0.007359167 0.6242464 
0.5737721 -0.4185222 0.3307085 
-0.3846813 0.3273804 0.6862966 
-0.3628003 -0.4912703 0.5461057 
-0.4946389 0.06862371 0.6942855 
0.533766 0.3257574 0.4951327 
-0.05319801 -0.2749727 0.8634897 
-0.1691246 -0.6073649 0.5090995 
-0.06494292 -0.08986806 0.9094712 
0.08096622 0.007537345 0.9128017 
-0.7704076 0.1148825 0.2039881 
-0.3008119 -0.1649487 0.8275756 
0.4755057 0.7255136 0.1063081 
-0.3614297 0.5352608 0.4543911 
0.6404265 0.2145939 0.385602 
0.3913179 0.2708254 0.7112725 
-0.0268396 0.03814507 0.9158995 
-0.06063922 -0.382402 0.8017011 
0.5153659 0.604184 0.1770874 
0.08006457 -0.1729303 0.8930098 
0.1579678 -0.7869661 0.1837649 
0.333157 -0.02080342 0.8325618 
-0.497925 -0.2460312 0.6316618 
-0.4728943 0.5041036 0.3549842 
-0.2417067 -0.365661 0.760457 
0.3796588 0.4896607 0.4979064 
0.2708245 -0.5362344 0.5656777 
-0.4963486 -0.1317963 0.6858599 
0.02721751 0.5741023 0.5868219 
-0.2776696 0.7586246 0.1678509 
-0.2260743 0.5666933 0.5248874 
-0.8256539 0.1288792 0.1437674 
-0.6959633 -0.00427292 0.356726 
-0.5528299 0.6782717 0.1018047 
0.6512792 0.3843816 0.2300796 
-0.3748476 -0.7530625 0.1452806 
-0.3061786 0.3639037 0.7160268 
-0.1447022 0.4819234 0.6846547 
0.3892778 0.1812567 0.7562566 
0.1882935 0.6856362 0.3024977 
-0.8867487 -0.01787228 0.09988005 
-0.1749054 0.3482659 0.7907864 
0.2827187 -0.7140133 0.2322732 
0.2947942 0.4275993 0.6633438 
0.4126924 -0.421547 0.5809362 
0.4574645 -0.6432991 0.2022483 
0.5506355 0.6853412 0.09636013 
0.2288075 -0.3621577 0.7708805 
0.4274031 0.6809042 0.1694483 
-0.224092 -0.2665124 0.8258342 
0.7622576 0.04715823 0.2274213 
-0.51653 -0.3245535 0.5501785 
-0.1685373 -0.03407353 0.8971872 
0.4587857 -0.3328581 0.6164413 
-0.005323997 0.7556893 0.2334611 
-0.1246822 0.6714691 0.3677028 
0.4341314 0.0255735 0.7564487 
-0.481549 0.6346958 0.180999 
-0.09800587 -0.2583148 0.8633112 
-0.282193 -0.6758074 0.291216 
-0.2033598 -0.72295 0.2548902 
0.6056881 -0.07357229 0.5370939 
0.2367283 0.2933878 0.7978166 
-0.5660815 -0.226119 0.548063 
0.6432883 -0.30276 0.3285881 
0.1064393 0.1411589 0.8942408 
-0.5561492 0.494413 0.2550103 
-0.4928376 0.4244845 0.4439582 
-0.3704308 -0.6294534 0.2932364 
-0.3630915 -0.0964039 0.8084425 
-0.04603121 0.5206847 0.6582654 
0.1605127 0.4312448 0.7284688 
0.1006505 -0.3030689 0.8425156 
0.02027289 -0.4325293 0.7649822 
0.4607757 0.2370452 0.6645753 
0.7515013 0.260387 0.179007 
0.323231 -0.1627682 0.8127294 
0.1077927 -0.5032983 0.6871513 
0.3383862 0.4741052 0.5711926 
-0.5303665 -0.5130813 0.2813568 
0.3623607 -0.7729121 0.1321362 
0.6043946 0.02818487 0.5443887 
-0.2147821 -0.1976225 0.8549403 
-0.4776114 0.5736762 0.2482448 
-0.3326209 0.6472408 0.2833764 
-0.07875271 0.4510055 0.7309604 
-0.2872608 0.4662808 0.6266171 
0.3291395 -0.7409821 0.1778535 
-0.2416685 -0.47103 0.6741796 
-0.5575554 0.1046838 0.6078937 
0.311847 0.7660117 0.1441812 
0.6804017 -0.2567785 0.2963951 
0.2453263 -0.2610371 0.8180002 
0.4288381 -0.5774836 0.3176395 
0.3595798 -0.5789683 0.3994271 
-0.4549687 -0.4146489 0.5424825 
-0.6667614 -0.2405967 0.332829 
-0.2218834 0.7396324 0.208692 
-0.01160643 -0.6050029 0.5615532 
0.5418468 0.2737273 0.5323609 
-0.3463298 -0.2208149 0.7827043 
-0.4502577 0.3153649 0.6305265 
0.4631602 0.4229081 0.4830248 
-0.7487393 0.001689484 0.2563939 
0.5942814 -0.1369103 0.5387124 
-0.04058412 0.1682753 0.8946692 
0.7435586 -0.1320916 0.2470097 
-0.07091416 0.6046289 0.5269176 
0.5608484 0.4401513 0.2960441 
-0.3832867 0.4295377 0.5892528 
-0.4433636 -0.5782446 0.3007071 
-0.6430505 0.4003375 0.232119 
-0.7307087 0.2102607 0.2318832 
-0.2283569 0.6698416 0.3163734 
0.2767113 0.1523084 0.8366502 
0.5277548 -0.2296362 0.5974087 
-0.650384 -0.3246426 0.2974324 
-0.217148 0.4902842 0.6430549 
-0.01965452 -0.1866176 0.8917931 
-0.2833967 0.2770102 0.7851685 
-0.4138086 0.004185766 0.7782037 
0.181402 -0.4903661 0.6782157 
-0.1483538 -0.3372977 0.8128864 
-0.5052846 -0.02973457 0.6915445 
0.4112922 -0.360679 0.6457062 
0.2223997 0.03864197 0.8795159 
-0.1051888 -0.4391851 0.7499681 
0.4747981 -0.04708654 0.7179255 
-0.7885866 0.2297068 0.1578423 
0.2323936 0.7358727 0.2094976 
0.01507949 0.2589015 0.8620913 
0.534972 -0.552376 0.230306 
0.2788732 0.5437551 0.5188574 
-0.4375704 -0.8526334 0.04382006 
-0.3972553 -0.2894704 0.7111647 
-0.5859598 0.3718367 0.3492413 
-0.3901719 0.7237509 0.1512524 
0.6979975 -0.09683964 0.34032 
0.7069209 0.0217744 0.3263498 
-0.1384659 0.1948946 0.8723872 
-0.4310628 0.2118181 0.7148659 
-0.1056147 0.06901124 0.9058124 
0.4933405 -0.4309352 0.454684 
-0.6986866 -0.1295542 0.3311361 
0.1015339 0.7754068 0.1957633 
0.7547199 0.176853 0.2031035 
0.1718187 0.6043515 0.4846784 
-0.7342595 -0.1360931 0.2623834 
0.1373023 0.3141038 0.8172857 
0.4515932 0.1186396 0.7236034 
-0.9970213 -0.0006882208 0.01289141 
0.2215396 -0.673279 0.3398649 
-0.2372075 0.5370845 0.5669063 
-0.5882379 -0.3795222 0.3572699 
0.2994275 0.3700603 0.7149916 
0.034203 -0.7173271 0.3174254 
0.2119275 0.480048 0.6559389 
0.5199702 -0.6290262 0.1719308 
-0.6992815 0.3277034 0.2134346 
-0.5816816 0.2197434 0.51395 
-0.5745738 -0.6279029 0.1341583 
3 84 269 188 
3 131 172 160 
3 10 137 78 
3 156 93 201 
3 10 89 163 
3 93 12 185 
3 11 53 269 
3 202 203 36 
3 43 172 59 
3 232 198 59 
3 149 34 20 
3 90 197 112 
3 202 22 203 
3 175 220 244 
3 234 174 118 
3 130 165 69 
3 96 241 255 
3 104 260 3 
3 261 103 139 
3 209 178 136 
3 119 212 54 
3 126 235 182 
3 189 50 45 
3 194 179 146 
3 255 89 78 
3 102 200 213 
3 27 144 242 
3 149 1 259 
3 18 167 117 
3 28 169 2 
3 27 17 144 
3 110 251 98 
3 56 209 243 
3 86 189 4 
3 86 5 50 
3 30 80 266 
3 83 200 70 
3 44 0 142 
3 58 15 241 
3 15 199 238 
3 76 204 112 
3 6 95 66 
3 57 229 106 
3 190 246 247 
3 191 18 9 
3 138 68 206 
3 223 69 147 
3 166 192 193 
3 239 79 99 
3 31 125 117 
3 197 90 108 
3 238 199 64 
3 144 53 11 
3 236 109 165 
3 110 173 51 
3 29 28 2 
3 49 111 249 
3 194 74 179 
3 45 266 154 
3 93 233 12 
3 123 107 47 
3 202 98 251 
3 94 243 131 
3 161 18 117 
3 184 254 105 
3 235 197 108 
3 183 124 147 
3 74 13 92 
3 161 125 250 
3 169 27 2 
3 158 231 167 
3 139 222 193 
3 162 233 153 
3 230 65 156 
3 131 136 172 
3 127 155 121 
3 197 94 76 
3 39 140 149 
3 94 204 76 
3 36 151 196 
3 87 170 109 
3 57 249 113 
3 90 168 116 
3 37 61 190 
3 100 7 105 
3 67 0 44 
3 162 51 224 
3 216 10 164 
3 14 159 66 
3 195 218 145 
3 145 218 111 
3 55 49 60 
3 17 168 177 
3 165 24 258 
3 257 180 92 
3 105 33 100 
3 48 201 185 
3 121 82 72 
3 157 91 127 
3 236 97 87 
3 234 118 38 
3 181 128 115 
3 23 41 163 
3 261 122 21 
3 209 120 178 
3 88 108 207 
3 20 34 46 
3 152 265 180 
3 34 84 225 
3 49 145 111 
3 165 130 63 
3 127 121 157 
3 43 205 172 
3 152 241 265 
3 222 206 193 
3 173 70 200 
3 209 136 243 
3 154 202 36 
3 33 105 254 
3 222 139 164 
3 32 85 210 
3 104 3 264 
3 186 88 73 
3 215 83 66 
3 262 225 84 
3 232 178 229 
3 196 151 4 
3 185 130 48 
3 187 134 241 
3 153 233 65 
3 172 205 225 
3 214 75 248 
3 85 268 8 
3 168 17 169 
3 77 230 156 
3 99 79 257 
3 31 118 125 
3 64 199 72 
3 25 220 175 
3 58 157 199 
3 60 161 250 
3 17 27 169 
3 210 111 218 
3 134 16 211 
3 99 13 75 
3 213 224 102 
3 251 110 51 
3 153 65 22 
3 26 19 59 
3 183 147 258 
3 39 256 212 
3 141 212 256 
3 133 231 56 
3 171 263 180 
3 91 58 134 
3 61 37 123 
3 24 190 61 
3 190 247 37 
3 39 212 119 
3 228 49 55 
3 233 162 12 
3 138 245 68 
3 217 35 91 
3 244 62 268 
3 30 266 45 
3 133 94 197 
3 246 200 215 
3 173 110 70 
3 43 59 19 
3 53 177 219 
3 136 59 172 
3 182 88 186 
3 224 97 12 
3 150 145 228 
3 205 43 252 
3 215 247 246 
3 57 106 60 
3 232 59 136 
3 166 142 25 
3 255 241 15 
3 191 9 120 
3 56 243 94 
3 75 150 55 
3 3 207 264 
3 61 208 52 
3 180 257 171 
3 126 182 181 
3 228 145 49 
3 256 252 141 
3 91 211 217 
3 51 173 102 
3 168 169 116 
3 14 95 81 
3 22 135 203 
3 103 261 226 
3 246 170 213 
3 128 181 48 
3 262 188 204 
3 21 122 132 
3 208 16 183 
3 229 57 113 
3 8 210 85 
3 42 26 268 
3 53 188 269 
3 6 7 81 
3 100 81 7 
3 48 130 38 
3 130 185 63 
3 263 16 152 
3 16 187 152 
3 170 87 213 
3 234 79 174 
3 202 154 240 
3 12 162 224 
3 143 35 217 
3 69 223 234 
3 140 39 119 
3 33 254 159 
3 183 52 208 
3 225 205 46 
3 214 239 75 
3 193 192 122 
3 86 50 189 
3 178 106 229 
3 9 18 161 
3 93 156 65 
3 161 117 125 
3 106 178 9 
3 207 28 264 
3 189 154 196 
3 21 195 261 
3 214 125 174 
3 174 125 118 
3 144 17 53 
3 38 128 48 
3 193 206 68 
3 201 93 185 
3 185 12 63 
3 56 158 209 
3 62 42 268 
3 162 153 251 
3 260 203 135 
3 46 205 256 
3 137 216 103 
3 111 210 249 
3 181 156 201 
3 15 58 199 
3 191 120 158 
3 158 120 209 
3 190 24 109 
3 32 210 218 
3 187 16 134 
3 83 6 66 
3 106 9 161 
3 79 171 257 
3 99 92 13 
3 239 214 174 
3 215 200 83 
3 141 26 54 
3 42 54 26 
3 98 240 110 
3 240 71 110 
3 151 129 4 
3 134 211 91 
3 54 42 119 
3 143 217 47 
3 266 240 154 
3 232 113 198 
3 194 13 74 
3 22 65 135 
3 30 50 5 
3 188 53 219 
3 26 59 198 
3 1 149 140 
3 60 248 55 
3 221 119 42 
3 75 13 150 
3 167 191 158 
3 115 227 167 
3 60 106 161 
3 20 256 39 
3 62 244 220 
3 56 231 158 
3 260 151 36 
3 171 101 263 
3 9 178 120 
3 157 121 72 
3 193 122 139 
3 107 143 47 
3 87 97 224 
3 87 224 213 
3 264 29 104 
3 104 29 129 
3 248 60 250 
3 160 204 94 
3 160 94 131 
3 101 147 124 
3 49 249 57 
3 88 182 235 
3 199 157 72 
3 225 46 34 
3 227 31 117 
3 192 132 122 
3 98 202 240 
3 250 125 214 
3 91 35 127 
3 188 262 84 
3 231 126 115 
3 155 127 35 
3 40 226 195 
3 45 154 189 
3 176 175 244 
3 194 146 150 
3 52 24 61 
3 234 38 130 
3 130 69 234 
3 183 16 124 
3 167 231 115 
3 248 75 55 
3 217 114 47 
3 140 237 1 
3 137 96 78 
3 180 265 96 
3 262 160 172 
3 159 14 33 
3 230 135 65 
3 66 159 247 
3 66 247 215 
3 266 80 240 
3 253 163 89 
3 57 60 49 
3 169 28 116 
3 118 31 128 
3 118 128 38 
3 144 11 242 
3 78 96 255 
3 12 97 63 
3 186 230 77 
3 104 129 151 
3 241 96 265 
3 148 15 238 
3 227 128 31 
3 67 138 23 
3 244 32 176 
3 68 245 166 
3 147 69 258 
3 252 43 19 
3 71 70 110 
3 258 69 165 
3 145 40 195 
3 65 233 93 
3 113 249 8 
3 182 186 77 
3 90 177 168 
3 100 33 81 
3 90 112 219 
3 90 219 177 
3 214 248 250 
3 240 80 71 
3 123 37 107 
3 245 142 166 
3 34 149 259 
3 195 226 261 
3 149 20 39 
3 226 40 146 
3 146 40 150 
3 146 179 103 
3 108 88 235 
3 219 112 204 
3 116 108 90 
3 196 154 36 
3 140 119 237 
3 41 23 206 
3 41 206 222 
3 64 253 238 
3 253 148 238 
3 193 68 166 
3 32 244 85 
3 85 244 268 
3 91 157 58 
3 21 132 176 
3 23 138 206 
3 150 40 145 
3 254 37 247 
3 148 255 15 
3 10 78 89 
3 89 255 148 
3 45 50 30 
3 95 14 66 
3 10 41 164 
3 142 245 44 
3 207 3 73 
3 198 268 26 
3 53 17 177 
3 165 109 24 
3 99 257 92 
3 176 132 175 
3 73 260 135 
3 262 172 225 
3 216 164 139 
3 148 253 89 
3 103 179 137 
3 82 121 155 
3 74 92 180 
3 74 180 96 
3 61 123 208 
3 123 114 208 
3 254 247 159 
3 109 236 87 
3 153 22 251 
3 202 251 22 
3 260 36 203 
3 223 79 234 
3 114 217 211 
3 261 139 122 
3 32 218 176 
3 268 198 8 
3 67 44 245 
3 63 97 236 
3 260 104 151 
3 21 218 195 
3 133 56 94 
3 235 126 231 
3 137 179 74 
3 137 74 96 
3 16 263 124 
3 263 152 180 
3 18 191 167 
3 150 228 55 
3 41 10 163 
3 77 181 182 
3 246 190 170 
3 128 227 115 
3 62 220 267 
3 236 165 63 
3 64 72 82 
3 24 52 258 
3 52 183 258 
3 222 164 41 
3 200 102 173 
3 190 109 170 
3 135 230 73 
3 194 150 13 
3 117 167 227 
3 249 210 8 
3 20 46 256 
3 152 187 241 
3 28 207 116 
3 224 51 102 
3 230 186 73 
3 204 188 219 
3 48 181 201 
3 133 235 231 
3 29 264 28 
3 107 37 254 
3 245 138 67 
3 171 79 223 
3 246 213 200 
3 147 101 223 
3 252 19 141 
3 123 47 114 
3 133 197 235 
3 25 175 192 
3 42 62 221 
3 62 267 221 
3 124 263 101 
3 108 116 207 
3 8 198 113 
3 146 103 226 
3 107 184 143 
3 184 107 254 
3 79 239 174 
3 239 99 75 
3 73 88 207 
3 139 103 216 
3 119 221 237 
3 101 171 223 
3 10 216 137 
3 112 197 76 
3 132 192 175 
3 260 73 3 
3 26 141 19 
3 156 181 77 
3 256 205 252 
3 208 114 16 
3 114 211 16 
3 232 136 178 
3 115 126 181 
3 243 136 131 
3 160 262 204 
3 241 134 58 
3 21 176 218 
3 232 229 113 
3 6 81 95 
3 33 14 81 
3 267 237 221 
3 196 4 189 
3 141 54 212 
3 162 251 51 
3 192 166 25 
