OFF
270 500 0
0.854982 0.4952215 4.329364e-08 
0.08659964 0.7888758 6.896571e-08 
-0.660424 0.08437192 7.376028e-09 
-0.4126842 -0.06132331 -5.361054e-09 
-0.7289577 -0.1820988 -1.591958e-08 
-0.8565719 -0.501506 -4.384304e-08 
-0.1279849 -0.7681222 -6.715138e-08 
0.03687304 -0.9316367 -8.144627e-08 
0.1065286 0.288216 2.519664e-08 
-0.05085932 0.09806225 8.572875e-09 
0.5862865 -0.0374446 -3.273511e-09 
-0.595807 0.4657848 4.07202e-08 
-0.1265631 -0.2365426 -2.067921e-08 
0.2281258 0.006262339 5.474711e-10 
0.007680162 -0.7410471 -6.47844e-08 
0.556483 -0.2539296 -2.219923e-08 
0.2267959 -0.2537956 -2.218752e-08 
-0.603836 0.2589076 2.263442e-08 
-0.0713537 0.06170921 5.39479e-09 
-0.02711617 0.3903769 3.412783e-08 
-0.1494608 0.6679893 5.839748e-08 
0.309401 0.235331 2.057329e-08 
-0.3127863 -0.2671838 -2.335795e-08 
0.7161394 0.1168361 1.021414e-08 
0.05995697 -0.3277304 -2.86511e-08 
0.4486712 0.5594235 4.890635e-08 
0.04511704 0.4039947 3.531834e-08 
-0.699124 0.2086021 1.823657e-08 
-0.5767738 0.07953401 6.953084e-09 
-0.6372077 0.007076825 6.186757e-10 
-0.679074 -0.5415788 -4.734633e-08 
-0.04407812 -0.03127505 -2.734152e-09 
0.2208433 0.295982 2.587557e-08 
0.08895953 -0.7306652 -6.387678e-08 
-0.2332958 0.6554051 5.729733e-08 
0.459917 -0.529885 -4.632402e-08 
-0.5498857 -0.3577366 -3.127432e-08 
0.1179632 -0.5492269 -4.801494e-08 
-0.01866696 -0.1136631 -9.936739e-09 
-0.006216335 0.7008924 6.127396e-08 
0.2228867 0.1175414 1.02758e-08 
0.6083862 0.0759792 6.642313e-09 
0.1096457 0.5466793 4.779222e-08 
-0.1140213 0.3863374 3.377469e-08 
0.7525593 0.4515876 3.947904e-08 
-0.6672443 -0.4484082 -3.920109e-08 
-0.2274262 0.546295 4.775863e-08 
0.2912197 -0.4971337 -4.34608e-08 
-0.07713186 -0.1137181 -9.941552e-09 
0.1034003 0.1615404 1.412231e-08 
-0.7453027 -0.4151225 -3.629116e-08 
-0.1992391 -0.3994963 -3.492508e-08 
0.1179829 -0.3169697 -2.771037e-08 
-0.5096908 0.3965504 3.466753e-08 
0.03720184 0.5523363 4.828678e-08 
0.1043605 0.09594727 8.387977e-09 
-0.156736 0.1254908 1.097075e-08 
0.04545369 0.1977354 1.728658e-08 
0.5183449 -0.311265 -2.721165e-08 
-0.03532857 0.3491863 3.052683e-08 
0.03726084 0.1102118 9.63502e-09 
0.1131856 -0.3972159 -3.472572e-08 
0.2068506 0.5243773 4.584252e-08 
-0.06411395 -0.2216543 -1.937763e-08 
0.7130879 -0.2064725 -1.80504e-08 
-0.2487622 -0.1874962 -1.639144e-08 
-0.04996692 -0.6913934 -6.044353e-08 
0.7918262 0.2989165 2.613212e-08 
0.6268699 0.3076465 2.689531e-08 
0.03971554 -0.1826035 -1.59637e-08 
-0.3023981 -0.5884745 -5.144608e-08 
-0.3786511 -0.5804066 -5.074076e-08 
0.7186965 -0.3524098 -3.080865e-08 
-0.3661476 -0.09157114 -8.005403e-09 
0.2878484 -0.03173084 -2.773998e-09 
0.1512607 0.03891101 3.401709e-09 
-0.2448919 0.1964522 1.717439e-08 
-0.2084362 -0.08651583 -7.563454e-09 
0.4132777 -0.08738276 -7.639244e-09 
0.1082034 -0.08277819 -7.236699e-09 
-0.4726672 -0.5693521 -4.977435e-08 
-0.003046554 -0.8082951 -7.06634e-08 
0.7897122 -0.4615721 -4.035191e-08 
-0.2013019 -0.6845483 -5.984511e-08 
-0.3391521 0.5087529 4.447659e-08 
0.1856643 0.3135413 2.741065e-08 
-0.8434513 -0.4452904 -3.892853e-08 
-0.0669627 -0.3247463 -2.839022e-08 
-0.2826357 -0.02434158 -2.128008e-09 
0.5791519 -0.09072557 -7.931481e-09 
-0.3521997 0.1745903 1.526317e-08 
0.434437 -0.3811955 -3.332517e-08 
0.2136878 -0.03416507 -2.986805e-09 
-0.1590516 -0.1782474 -1.558288e-08 
-0.1850094 0.1964006 1.716989e-08 
-0.04964771 -0.7446977 -6.510354e-08 
0.3227513 -0.09021777 -7.887088e-09 
-0.08704027 -0.2993307 -2.616832e-08 
-0.3828511 -0.4229451 -3.697504e-08 
0.1638013 -0.02543652 -2.223732e-09 
0.07037092 -0.8159225 -7.133021e-08 
0.1397863 -0.1650064 -1.442532e-08 
-0.1394865 -0.4121101 -3.602781e-08 
0.3655192 0.06724809 5.879015e-09 
-0.5918831 -0.1104832 -9.658751e-09 
0.1746712 -0.7660702 -6.697199e-08 
-0.004542278 0.1312819 1.147703e-08 
0.2137746 -0.5435906 -4.75222e-08 
-0.3184161 0.05790255 5.062001e-09 
0.0138315 -0.342646 -2.995506e-08 
-0.3230277 -0.4812584 -4.207295e-08 
0.1844472 0.2117411 1.851099e-08 
-0.3125467 0.2161037 1.889238e-08 
0.03579738 0.268534 2.347599e-08 
0.2293968 -0.3671941 -3.210113e-08 
-0.1315574 0.01372939 1.200262e-09 
-0.4007008 0.100056 8.747172e-09 
-0.04049474 0.01976672 1.728062e-09 
0.006360888 -0.04815076 -4.209473e-09 
0.07479399 0.6641703 5.806361e-08 
-0.08234894 0.1386906 1.212472e-08 
0.6590889 -0.4325269 -3.78127e-08 
0.3833075 0.2570978 2.24762e-08 
0.1752255 -0.489483 -4.279196e-08 
0.15577 -0.224527 -1.962877e-08 
0.01991567 0.002752613 2.40641e-10 
-0.1931679 0.01796423 1.570483e-09 
0.5395374 -0.4534236 -3.963956e-08 
-0.07960898 -0.04972746 -4.347313e-09 
-0.7030833 -0.1385029 -1.210831e-08 
-0.005542392 -0.1764986 -1.543e-08 
-0.1476937 0.2808119 2.454936e-08 
0.3951723 0.3749121 3.277586e-08 
-0.1918795 0.1143338 9.995378e-09 
0.3369165 -0.2634741 -2.303364e-08 
-0.3359157 -0.1867387 -1.632521e-08 
-0.07669553 0.2669742 2.333962e-08 
0.3586181 -0.02294622 -2.006023e-09 
0.7010967 0.247441 2.163198e-08 
0.3784335 0.1449253 1.266977e-08 
0.08260155 0.735128 6.426693e-08 
-0.01681589 0.5250181 4.589854e-08 
0.6419984 0.5334179 4.663288e-08 
0.3446078 -0.5611991 -4.906159e-08 
-0.6480588 0.3161094 2.763516e-08 
0.2010428 0.1628001 1.423243e-08 
0.2751513 0.07640772 6.679775e-09 
0.1023117 -0.2159975 -1.88831e-08 
0.5609663 -0.1632363 -1.427057e-08 
-0.04918819 0.7881261 6.890017e-08 
0.1814423 0.08343262 7.293912e-09 
-0.6208754 -0.2534517 -2.215745e-08 
0.2516204 -0.176979 -1.5472e-08 
-0.2589226 -0.2731844 -2.388254e-08 
-0.5723173 -0.4240974 -3.707577e-08 
0.6288785 -0.4976093 -4.350239e-08 
-0.1860821 -0.1330454 -1.16312e-08 
0.6034716 -0.3808344 -3.32936e-08 
-0.1324536 0.09964044 8.710844e-09 
0.06269041 -0.6598658 -5.76873e-08 
-0.2086273 0.3126115 2.732936e-08 
-0.0152031 0.06951941 6.07758e-09 
-0.1941295 -0.2913036 -2.546657e-08 
0.6589562 -0.01082074 -9.459793e-10 
0.5272522 0.08942889 7.818121e-09 
0.01980989 -0.2409939 -2.106835e-08 
0.575766 0.44009 3.847389e-08 
-0.123816 0.03557356 3.109939e-09 
-0.538029 0.2158604 1.887111e-08 
-0.5920683 0.1613913 1.410928e-08 
-0.03681451 -0.4049752 -3.540405e-08 
0.1546853 -0.1297238 -1.134082e-08 
-0.1476218 0.3467113 3.031047e-08 
-0.2242754 -0.5339792 -4.668194e-08 
0.07023387 -0.05968535 -5.217859e-09 
0.4164356 0.4814734 4.209175e-08 
0.3025262 0.3557507 3.110072e-08 
-0.5005472 0.2818083 2.463647e-08 
-0.04934891 0.1727591 1.510308e-08 
0.3055066 0.02063917 1.804334e-09 
0.2388451 -0.09449412 -8.260939e-09 
-0.1470992 -0.06232549 -5.448668e-09 
-0.2253057 -0.02389606 -2.08906e-09 
0.1435677 -0.273818 -2.393793e-08 
0.247046 -0.6671268 -5.832208e-08 
-0.07773706 -0.1760525 -1.5391e-08 
-0.2806826 -0.07433487 -6.49856e-09 
0.3044405 -0.2191141 -1.915556e-08 
-0.4167164 0.4073919 3.561533e-08 
-0.7215254 -0.3439406 -3.006824e-08 
0.02974982 -0.3991348 -3.489347e-08 
-0.09592389 0.093265 8.153485e-09 
0.4945573 0.4142734 3.621694e-08 
0.546509 0.2762807 2.415323e-08 
0.2480307 0.03663675 3.202887e-09 
0.2807825 0.1675354 1.464641e-08 
-0.6712037 -0.3048026 -2.664669e-08 
-0.2651277 0.12341 1.078884e-08 
0.05835228 0.330638 2.890529e-08 
0.6838247 -0.2902311 -2.537281e-08 
-0.1884429 -0.5753415 -5.029795e-08 
-0.1280757 -0.1363703 -1.192187e-08 
-0.4649562 -0.3642761 -3.184603e-08 
-0.4331993 -0.2848058 -2.489851e-08 
-0.2647347 0.2754321 2.407904e-08 
-0.199095 0.5036781 4.403294e-08 
0.6648752 0.1895056 1.656711e-08 
-0.3789918 -0.005972918 -5.22169e-10 
0.1880772 -0.3600139 -3.147342e-08 
-0.1147929 0.1669459 1.459487e-08 
0.1860996 0.2629939 2.299166e-08 
0.297982 -0.3235665 -2.828708e-08 
-0.0176455 0.6138086 5.366086e-08 
-0.07805117 -0.3980922 -3.480232e-08 
0.08209322 0.01050914 9.187384e-10 
-0.08643354 -0.6426842 -5.618523e-08 
0.4042471 0.04160831 3.637514e-09 
0.3699828 -0.4601724 -4.022955e-08 
0.266484 0.2331144 2.037951e-08 
-0.4584442 0.3350109 2.928759e-08 
0.333605 0.5664529 4.952089e-08 
0.1579428 0.6261703 5.474155e-08 
0.5512561 0.181581 1.587431e-08 
0.08022125 -0.1467371 -1.282817e-08 
-0.1333119 -0.3385515 -2.959711e-08 
-0.2695708 0.5023696 4.391855e-08 
0.291235 0.1231585 1.076686e-08 
-0.08694886 -0.002055125 -1.796647e-10 
0.1445156 0.1397325 1.22158e-08 
0.001074258 0.2055531 1.797002e-08 
-0.2753365 -0.1170636 -1.023403e-08 
-0.1689618 0.06221604 5.439099e-09 
-0.02004846 0.2726448 2.383537e-08 
-0.2062766 -0.2558431 -2.236651e-08 
0.02243607 -0.1170121 -1.022952e-08 
-0.2319808 0.04292718 3.752813e-09 
-0.01903754 -0.2722826 -2.38037e-08 
0.1743865 0.7084931 6.193843e-08 
0.638945 -0.2133933 -1.865543e-08 
0.1290869 -0.01548565 -1.353798e-09 
-0.4764915 -0.4891552 -4.276331e-08 
0.3646207 -0.190663 -1.666829e-08 
-0.7528424 0.3832699 3.350652e-08 
-0.1596342 0.2053329 1.795077e-08 
0.2836272 0.4633293 4.050554e-08 
0.6748377 0.3600607 3.147751e-08 
-0.05727717 -0.5604553 -4.899655e-08 
0.03513752 -0.570264 -4.985407e-08 
0.09576008 0.05867835 5.129825e-09 
0.1151385 0.2303547 2.013825e-08 
0.03401826 0.04021841 3.516005e-09 
-0.299382 -0.3689024 -3.225048e-08 
-0.1141967 0.5321961 4.652606e-08 
0.6843883 -0.1071325 -9.365817e-09 
0.1725233 -0.6621876 -5.789028e-08 
0.4203489 -0.1249069 -1.091971e-08 
-0.127908 0.5916112 5.17203e-08 
0.1624905 -0.07721272 -6.750151e-09 
0.07177208 -0.2564637 -2.242077e-08 
-0.04624479 0.9089298 7.946117e-08 
-0.5321449 -0.1847157 -1.614836e-08 
0.343713 0.1455178 1.272157e-08 
-0.2957576 0.4308339 3.766469e-08 
0.2086564 -0.1719701 -1.503411e-08 
-0.5724887 -0.03137369 -2.742775e-09 
0.2833965 -0.1296606 -1.133529e-08 
-0.5698989 -0.4920347 -4.301504e-08 
0.265911 0.6178902 5.401768e-08 
0.1398765 0.3826112 3.344893e-08 
-0.5507233 0.478581 4.183888e-08 
3 84 269 188 
3 131 172 160 
3 10 137 78 
3 156 93 201 
3 10 89 163 
3 93 12 185 
3 11 53 269 
3 202 203 36 
3 43 172 59 
3 232 198 59 
3 149 34 20 
3 90 197 112 
3 202 22 203 
3 175 220 244 
3 234 174 118 
3 130 165 69 
3 96 241 255 
3 104 260 3 
3 261 103 139 
3 209 178 136 
3 119 212 54 
3 126 235 182 
3 189 50 45 
3 194 179 146 
3 255 89 78 
3 102 200 213 
3 27 144 242 
3 149 1 259 
3 18 167 117 
3 28 169 2 
3 27 17 144 
3 110 251 98 
3 56 209 243 
3 86 189 4 
3 86 5 50 
3 30 80 266 
3 83 200 70 
3 44 0 142 
3 58 15 241 
3 15 199 238 
3 76 204 112 
3 6 95 66 
3 57 229 106 
3 190 246 247 
3 191 18 9 
3 138 68 206 
3 223 69 147 
3 166 192 193 
3 239 79 99 
3 31 125 117 
3 197 90 108 
3 238 199 64 
3 144 53 11 
3 236 109 165 
3 110 173 51 
3 29 28 2 
3 49 111 249 
3 194 74 179 
3 45 266 154 
3 93 233 12 
3 123 107 47 
3 202 98 251 
3 94 243 131 
3 161 18 117 
3 184 254 105 
3 235 197 108 
3 183 124 147 
3 74 13 92 
3 161 125 250 
3 169 27 2 
3 158 231 167 
3 139 222 193 
3 162 233 153 
3 230 65 156 
3 131 136 172 
3 127 155 121 
3 197 94 76 
3 39 140 149 
3 94 204 76 
3 36 151 196 
3 87 170 109 
3 57 249 113 
3 90 168 116 
3 37 61 190 
3 100 7 105 
3 67 0 44 
3 162 51 224 
3 216 10 164 
3 14 159 66 
3 195 218 145 
3 145 218 111 
3 55 49 60 
3 17 168 177 
3 165 24 258 
3 257 180 92 
3 105 33 100 
3 48 201 185 
3 121 82 72 
3 157 91 127 
3 236 97 87 
3 234 118 38 
3 181 128 115 
3 23 41 163 
3 261 122 21 
3 209 120 178 
3 88 108 207 
3 20 34 46 
3 152 265 180 
3 34 84 225 
3 49 145 111 
3 165 130 63 
3 127 121 157 
3 43 205 172 
3 152 241 265 
3 222 206 193 
3 173 70 200 
3 209 136 243 
3 154 202 36 
3 33 105 254 
3 222 139 164 
3 32 85 210 
3 104 3 264 
3 186 88 73 
3 215 83 66 
3 262 225 84 
3 232 178 229 
3 196 151 4 
3 185 130 48 
3 187 134 241 
3 153 233 65 
3 172 205 225 
3 214 75 248 
3 85 268 8 
3 168 17 169 
3 77 230 156 
3 99 79 257 
3 31 118 125 
3 64 199 72 
3 25 220 175 
3 58 157 199 
3 60 161 250 
3 17 27 169 
3 210 111 218 
3 134 16 211 
3 99 13 75 
3 213 224 102 
3 251 110 51 
3 153 65 22 
3 26 19 59 
3 183 147 258 
3 39 256 212 
3 141 212 256 
3 133 231 56 
3 171 263 180 
3 91 58 134 
3 61 37 123 
3 24 190 61 
3 190 247 37 
3 39 212 119 
3 228 49 55 
3 233 162 12 
3 138 245 68 
3 217 35 91 
3 244 62 268 
3 30 266 45 
3 133 94 197 
3 246 200 215 
3 173 110 70 
3 43 59 19 
3 53 177 219 
3 136 59 172 
3 182 88 186 
3 224 97 12 
3 150 145 228 
3 205 43 252 
3 215 247 246 
3 57 106 60 
3 232 59 136 
3 166 142 25 
3 255 241 15 
3 191 9 120 
3 56 243 94 
3 75 150 55 
3 3 207 264 
3 61 208 52 
3 180 257 171 
3 126 182 181 
3 228 145 49 
3 256 252 141 
3 91 211 217 
3 51 173 102 
3 168 169 116 
3 14 95 81 
3 22 135 203 
3 103 261 226 
3 246 170 213 
3 128 181 48 
3 262 188 204 
3 21 122 132 
3 208 16 183 
3 229 57 113 
3 8 210 85 
3 42 26 268 
3 53 188 269 
3 6 7 81 
3 100 81 7 
3 48 130 38 
3 130 185 63 
3 263 16 152 
3 16 187 152 
3 170 87 213 
3 234 79 174 
3 202 154 240 
3 12 162 224 
3 143 35 217 
3 69 223 234 
3 140 39 119 
3 33 254 159 
3 183 52 208 
3 225 205 46 
3 214 239 75 
3 193 192 122 
3 86 50 189 
3 178 106 229 
3 9 18 161 
3 93 156 65 
3 161 117 125 
3 106 178 9 
3 207 28 264 
3 189 154 196 
3 21 195 261 
3 214 125 174 
3 174 125 118 
3 144 17 53 
3 38 128 48 
3 193 206 68 
3 201 93 185 
3 185 12 63 
3 56 158 209 
3 62 42 268 
3 162 153 251 
3 260 203 135 
3 46 205 256 
3 137 216 103 
3 111 210 249 
3 181 156 201 
3 15 58 199 
3 191 120 158 
3 158 120 209 
3 190 24 109 
3 32 210 218 
3 187 16 134 
3 83 6 66 
3 106 9 161 
3 79 171 257 
3 99 92 13 
3 239 214 174 
3 215 200 83 
3 141 26 54 
3 42 54 26 
3 98 240 110 
3 240 71 110 
3 151 129 4 
3 134 211 91 
3 54 42 119 
3 143 217 47 
3 266 240 154 
3 232 113 198 
3 194 13 74 
3 22 65 135 
3 30 50 5 
3 188 53 219 
3 26 59 198 
3 1 149 140 
3 60 248 55 
3 221 119 42 
3 75 13 150 
3 167 191 158 
3 115 227 167 
3 60 106 161 
3 20 256 39 
3 62 244 220 
3 56 231 158 
3 260 151 36 
3 171 101 263 
3 9 178 120 
3 157 121 72 
3 193 122 139 
3 107 143 47 
3 87 97 224 
3 87 224 213 
3 264 29 104 
3 104 29 129 
3 248 60 250 
3 160 204 94 
3 160 94 131 
3 101 147 124 
3 49 249 57 
3 88 182 235 
3 199 157 72 
3 225 46 34 
3 227 31 117 
3 192 132 122 
3 98 202 240 
3 250 125 214 
3 91 35 127 
3 188 262 84 
3 231 126 115 
3 155 127 35 
3 40 226 195 
3 45 154 189 
3 176 175 244 
3 194 146 150 
3 52 24 61 
3 234 38 130 
3 130 69 234 
3 183 16 124 
3 167 231 115 
3 248 75 55 
3 217 114 47 
3 140 237 1 
3 137 96 78 
3 180 265 96 
3 262 160 172 
3 159 14 33 
3 230 135 65 
3 66 159 247 
3 66 247 215 
3 266 80 240 
3 253 163 89 
3 57 60 49 
3 169 28 116 
3 118 31 128 
3 118 128 38 
3 144 11 242 
3 78 96 255 
3 12 97 63 
3 186 230 77 
3 104 129 151 
3 241 96 265 
3 148 15 238 
3 227 128 31 
3 67 138 23 
3 244 32 176 
3 68 245 166 
3 147 69 258 
3 252 43 19 
3 71 70 110 
3 258 69 165 
3 145 40 195 
3 65 233 93 
3 113 249 8 
3 182 186 77 
3 90 177 168 
3 100 33 81 
3 90 112 219 
3 90 219 177 
3 214 248 250 
3 240 80 71 
3 123 37 107 
3 245 142 166 
3 34 149 259 
3 195 226 261 
3 149 20 39 
3 226 40 146 
3 146 40 150 
3 146 179 103 
3 108 88 235 
3 219 112 204 
3 116 108 90 
3 196 154 36 
3 140 119 237 
3 41 23 206 
3 41 206 222 
3 64 253 238 
3 253 148 238 
3 193 68 166 
3 32 244 85 
3 85 244 268 
3 91 157 58 
3 21 132 176 
3 23 138 206 
3 150 40 145 
3 254 37 247 
3 148 255 15 
3 10 78 89 
3 89 255 148 
3 45 50 30 
3 95 14 66 
3 10 41 164 
3 142 245 44 
3 207 3 73 
3 198 268 26 
3 53 17 177 
3 165 109 24 
3 99 257 92 
3 176 132 175 
3 73 260 135 
3 262 172 225 
3 216 164 139 
3 148 253 89 
3 103 179 137 
3 82 121 155 
3 74 92 180 
3 74 180 96 
3 61 123 208 
3 123 114 208 
3 254 247 159 
3 109 236 87 
3 153 22 251 
3 202 251 22 
3 260 36 203 
3 223 79 234 
3 114 217 211 
3 261 139 122 
3 32 218 176 
3 268 198 8 
3 67 44 245 
3 63 97 236 
3 260 104 151 
3 21 218 195 
3 133 56 94 
3 235 126 231 
3 137 179 74 
3 137 74 96 
3 16 263 124 
3 263 152 180 
3 18 191 167 
3 150 228 55 
3 41 10 163 
3 77 181 182 
3 246 190 170 
3 128 227 115 
3 62 220 267 
3 236 165 63 
3 64 72 82 
3 24 52 258 
3 52 183 258 
3 222 164 41 
3 200 102 173 
3 190 109 170 
3 135 230 73 
3 194 150 13 
3 117 167 227 
3 249 210 8 
3 20 46 256 
3 152 187 241 
3 28 207 116 
3 224 51 102 
3 230 186 73 
3 204 188 219 
3 48 181 201 
3 133 235 231 
3 29 264 28 
3 107 37 254 
3 245 138 67 
3 171 79 223 
3 246 213 200 
3 147 101 223 
3 252 19 141 
3 123 47 114 
3 133 197 235 
3 25 175 192 
3 42 62 221 
3 62 267 221 
3 124 263 101 
3 108 116 207 
3 8 198 113 
3 146 103 226 
3 107 184 143 
3 184 107 254 
3 79 239 174 
3 239 99 75 
3 73 88 207 
3 139 103 216 
3 119 221 237 
3 101 171 223 
3 10 216 137 
3 112 197 76 
3 132 192 175 
3 260 73 3 
3 26 141 19 
3 156 181 77 
3 256 205 252 
3 208 114 16 
3 114 211 16 
3 232 136 178 
3 115 126 181 
3 243 136 131 
3 160 262 204 
3 241 134 58 
3 21 176 218 
3 232 229 113 
3 6 81 95 
3 33 14 81 
3 267 237 221 
3 196 4 189 
3 141 54 212 
3 162 251 51 
3 192 166 25 
