OFF
776 1499 0
0.003888892 -1.001017 3.837407e-06 
-0.6260763 -0.7768629 0.07187773 
0.03875431 0.999633 2.119135e-06 
0.4852847 0.8721545 0.07356789 
0.9807299 0.1953685 0 
0.06965426 -0.9950055 0.08196627 
0.9411619 0.3020555 0.1591499 
0.9366333 -0.3067586 0.1714592 
-0.784861 -0.5998412 0.1616075 
-0.6826238 -0.6753701 0.2819413 
-0.06766564 0.9447704 0.3244965 
0.5078326 0.7839682 0.3592971 
0.893885 -0.2081843 0.3990782 
-0.5044489 -0.7460427 0.4363157 
-0.8818808 0.2210029 0.4195041 
-0.3519534 0.8347254 0.4252742 
0.3427395 0.8384557 0.4259402 
0.1191798 -0.8693389 0.481165 
-0.8779855 -0.07336945 0.4739025 
0.7905141 -0.2331356 0.5677878 
0.2738896 0.7331471 0.6234449 
0.462759 0.6885288 0.5598873 
0.1054614 -0.7751212 0.6238895 
-0.4659035 0.6106778 0.6415974 
0.7218925 -0.1141155 0.6835693 
-0.3721876 0.548839 0.7493844 
0.5402914 0.4120051 0.7350041 
0.5999792 -0.2528446 0.7599568 
0.3367536 -0.6003705 0.7268955 
-0.5854058 0.2011755 0.7866163 
0.2886288 -0.5458404 0.787333 
-0.1887992 -0.6000342 0.777968 
-0.6241462 -0.2145152 0.75295 
-0.5823933 -0.02162892 0.8135936 
-0.08538161 0.5663618 0.8205919 
-0.2305963 0.3617779 0.9038522 
-0.135375 0.3939727 0.9094165 
0.3344395 0.3171344 0.8883039 
0.116263 -0.4544533 0.8836925 
-0.295861 0.3065972 0.9056814 
-0.2416075 0.1653614 0.9566508 
0.3350216 0.01436477 0.9428089 
-0.2649138 -0.1511049 0.9523592 
0.07675394 0.2315906 0.9705993 
0.2084664 0.1992373 0.9582892 
0.2448532 -0.009880177 0.9704669 
-0.1699392 0.1227166 0.9786001 
0.1349895 0.04858571 0.9906335 
-0.211913 -0.09223342 0.9734704 
0.09839291 0.1438881 0.9859641 
0.08575832 -0.03855658 0.9963196 
0.0135117 -0.1320569 0.9917045 
-0.05860687 -0.9969555 0.06606355 
-0.1946671 -0.9823626 1.172715e-05 
-0.3120942 -0.9487205 0.0619165 
-0.8333942 -0.5546781 -1.045684e-05 
-0.8460116 -0.5330812 0.04854143 
-0.931466 -0.3638283 0 
-0.9996263 0.04193627 9.867675e-06 
-0.9806731 0.1882413 0.0596564 
-0.2250154 0.9747174 -1.017288e-05 
0.7863653 0.6193963 -4.966693e-05 
0.7277064 -0.6872733 1.18442e-06 
-0.5366857 0.8420798 0.06722304 
0.09193031 0.994221 0.07090504 
0.5516166 0.8172823 0.1708962 
0.5951123 0.7896457 0.1559417 
0.8782458 0.4589929 0.1425301 
0.7668349 -0.6371987 0.09187765 
0.6761993 -0.7328768 0.08423492 
0.1027497 -0.9815069 0.1639144 
-0.9400567 -0.3368798 0.05850496 
0.487759 0.8540092 0.1866047 
0.7864947 -0.5905036 0.1860306 
-0.6486353 -0.7298937 0.2173582 
-0.8429077 -0.4973208 0.2095074 
-0.9712686 -0.1397038 0.1945591 
-0.9538879 0.1373588 0.2702515 
-0.0260872 0.9784685 0.2079012 
0.1894473 0.956728 0.2232603 
0.3512738 -0.9068251 0.2354869 
-0.3615431 -0.8783269 0.3164288 
-0.7200595 -0.6515772 0.2397673 
-0.8439609 -0.433545 0.3191724 
-0.7704255 0.5519987 0.3207445 
-0.5179154 0.8070435 0.2861014 
0.9326648 0.1838112 0.3130494 
0.7749351 -0.5635104 0.2872329 
0.3895558 -0.8548331 0.3448774 
0.3069292 -0.8904951 0.3391111 
0.05979102 -0.9438671 0.3261145 
-0.8227708 0.4479526 0.3525337 
0.03489587 0.9306223 0.3651392 
0.3025489 0.8989247 0.3194353 
0.8376989 0.4480893 0.3144631 
0.09821966 -0.9033921 0.4192646 
-0.8704659 -0.3639858 0.3326207 
-0.909034 -0.286346 0.3045705 
-0.4327936 0.793357 0.4290611 
0.03569296 0.893667 0.4482496 
0.8339963 -0.4208401 0.3603463 
0.7774906 -0.4842052 0.4022361 
0.6876921 -0.5858175 0.4298036 
-0.3858227 -0.8095382 0.4441403 
-0.8063293 -0.4216238 0.4165017 
-0.8776649 -0.1880247 0.4421341 
-0.855731 0.1673003 0.4918911 
-0.7502669 0.4806212 0.4558645 
-0.3353136 0.7951041 0.506281 
-0.2775015 0.8334039 0.4794337 
0.08201915 0.8746722 0.4777252 
0.7374818 -0.4012235 0.5440179 
0.6626562 -0.553642 0.505241 
-0.7514985 0.3948398 0.5300404 
-0.4617745 0.6991289 0.5466417 
-0.2441383 0.7965634 0.553744 
-0.04719605 0.8647493 0.5021529 
0.8489472 0.1460514 0.5091715 
0.8309467 -0.07190998 0.5523365 
-0.585921 -0.5361844 0.6089576 
-0.7019727 -0.5008695 0.5075301 
-0.7737288 -0.3777562 0.5100862 
-0.7811452 0.3354949 0.5285896 
-0.6351479 0.4779889 0.6080731 
-0.2883571 0.7325317 0.6169578 
0.6679307 0.4226717 0.6142391 
0.7730682 0.3188904 0.5500086 
0.7879351 0.2140849 0.5788456 
0.7759526 -0.142897 0.6153582 
0.4439602 -0.6926501 0.5693794 
-0.2327909 -0.7727666 0.5916932 
-0.4155714 0.664766 0.6215007 
0.3229096 0.6626243 0.677659 
0.4555594 0.566193 0.6879287 
0.1801298 -0.7483357 0.6395597 
-0.1217662 -0.7343726 0.6684078 
-0.1764731 -0.7519804 0.6359191 
-0.4390523 -0.6720982 0.5976958 
-0.328894 0.6140142 0.7181247 
-0.03311433 0.7172648 0.6969738 
0.07115809 0.6824551 0.7288736 
0.1670303 0.7085932 0.6861067 
0.2312352 0.6917681 0.6844735 
0.4126107 0.5373567 0.7363462 
0.7297807 0.1908927 0.6577392 
0.4342635 -0.6222471 0.6526564 
-0.7077392 -0.218712 0.6738399 
-0.7023256 -0.0805776 0.708601 
-0.6776462 0.08613116 0.7308397 
-0.5973738 0.291704 0.7485366 
-0.270855 0.6375016 0.7216949 
-0.1706462 0.6746832 0.7185386 
0.7029856 0.05116944 0.7101867 
0.6686988 -0.0884073 0.7388824 
0.567928 -0.3566714 0.7429393 
0.1355468 -0.6907836 0.7116107 
-0.3719055 -0.603489 0.7072724 
-0.5809669 0.07188638 0.811949 
-0.4696698 0.3933035 0.7922065 
-0.3005427 0.5557464 0.7754839 
-0.008792069 0.6286453 0.7782108 
0.0946091 0.5982626 0.7961387 
0.1543687 0.6436828 0.7503986 
0.2361553 0.6286905 0.7417569 
0.4866241 0.4714125 0.736684 
0.6092398 0.04721194 0.7926242 
0.5902216 -0.05125361 0.8069957 
0.336924 -0.4924623 0.804005 
0.1733497 -0.5921525 0.7880917 
-0.006447352 -0.633626 0.7739206 
-0.4739738 -0.4027557 0.7834456 
-0.5647905 -0.2822677 0.7767143 
-0.2454048 0.5088658 0.8260314 
-0.1644703 0.6016295 0.7823706 
0.03015718 0.5583639 0.8302049 
0.5249754 -0.299967 0.79703 
0.2071476 -0.5168818 0.8314186 
-0.4264937 -0.3587224 0.8309323 
-0.4867787 0.1182591 0.8663712 
-0.3983105 0.3791726 0.8358148 
-0.0926993 0.4681394 0.8799127 
-0.006846729 0.4983028 0.8672602 
0.4450998 0.3367814 0.8303833 
0.4274748 -0.377208 0.822468 
-0.3267715 -0.3554671 0.8762572 
-0.4714652 -0.2577209 0.8442517 
-0.4365525 0.2084378 0.8757245 
0.07143349 0.4736986 0.8784167 
-0.1690763 -0.4579311 0.8734064 
-0.4728335 -0.1109282 0.8747988 
0.3335777 -0.2344737 0.9136009 
0.177391 -0.3288147 0.9287148 
-0.4115259 -0.186462 0.893136 
-0.353718 0.1463735 0.9251139 
0.3577425 0.1404506 0.9237197 
-0.2025648 -0.270505 0.9420733 
-0.2854778 -0.1986284 0.9380887 
-0.09490064 0.277018 0.9570449 
-0.004984106 0.2827231 0.9597329 
0.1303249 -0.2414471 0.9624289 
0.03636197 0.04467622 0.9989779 
-0.3494512 -0.9374837 1.096786e-05 
-0.9967892 -0.08568329 -4.176743e-07 
-0.9523088 0.306185 1.725257e-06 
-0.838183 0.5461234 1.44109e-05 
-0.5976124 0.8017851 0 
-0.4890537 0.873436 -1.307586e-06 
0.2937642 0.9562908 -1.930273e-06 
0.6445742 0.7653207 -7.863716e-06 
0.8590927 0.5128745 0.000268386 
0.9281775 0.3734395 0.000341841 
1.000516 -0.02686957 8.079516e-05 
0.9857944 -0.1760502 9.514185e-06 
0.6405578 -0.7690112 0.0003357485 
0.4640915 -0.8864942 -1.833516e-05 
0.1324813 -0.9916063 1.79313e-06 
-0.02408831 0.02374301 0.9998567 
-0.9890478 0.02276401 0.148389 
-0.9804267 0.1595067 0.1223661 
-0.9600586 0.2706065 0.08111253 
-0.9320981 0.3543786 0.08574329 
-0.8843424 0.4612678 0.08593676 
-0.6736889 0.7401701 0.0004178336 
-0.42198 0.9049139 0.07553399 
-0.1716377 0.9812258 0.09975699 
0.5874703 0.8074302 0.06351289 
0.7126153 0.6977068 0.08455971 
0.7686536 0.6357241 0.08009863 
0.8456619 0.5039859 0.1829437 
0.9406109 -0.3355502 0.06781666 
0.8885815 -0.4539435 0.07692788 
0.7323573 -0.6767794 0.08773159 
0.5709462 -0.818714 0.07748076 
-0.1389845 -0.9873373 0.08598216 
-0.4540496 -0.8924913 0.0003227093 
-0.5274807 -0.8464959 0.08687875 
-0.6909689 -0.718098 0.097126 
-0.7325087 -0.6766467 0.08398145 
-0.8687962 -0.4847461 0.1035738 
-0.9641166 -0.2590273 0.06898201 
-0.9933069 -0.0763751 0.09856041 
-0.8475898 0.5006611 0.181549 
-0.8026767 0.5807356 0.1397133 
-0.5873341 0.7826539 0.2087083 
-0.48069 0.8652955 0.1484879 
0.1465942 0.9774563 0.1554364 
0.2442961 0.9583452 0.1533114 
0.4244038 0.8952444 0.1394298 
0.913276 0.3908728 0.1182823 
0.9880753 -0.03194905 0.1543416 
0.96355 -0.2525592 0.1008968 
0.5435605 -0.8160205 0.1996269 
-0.01632416 -0.9906576 0.1401917 
-0.546312 -0.8261477 0.1435744 
-0.6354275 -0.7600847 0.1404836 
-0.7540342 -0.6437125 0.1323095 
-0.8215396 -0.5565113 0.1305085 
-0.8776954 -0.43936 0.1961508 
-0.9583555 -0.2264952 0.1767863 
-0.9738953 -0.01058058 0.2303776 
-0.3033164 0.9194993 0.2540634 
0.2862009 0.9296419 0.2344947 
0.3688007 0.8930476 0.2607852 
0.6642986 0.7274282 0.1742909 
0.7850154 0.5875769 0.2018369 
0.9140577 0.3126434 0.2614267 
0.9604533 -0.03234143 0.2790565 
0.9049283 -0.341859 0.2570754 
0.8633488 -0.4442404 0.2406421 
0.2597336 -0.9395687 0.2263365 
-0.01749387 -0.9746237 0.2245324 
-0.08522305 -0.979458 0.1857984 
-0.1687101 -0.9602462 0.2243754 
-0.2308256 -0.9515446 0.2079903 
-0.2421471 -0.9276927 0.2881441 
-0.4938276 -0.8268418 0.2728484 
-0.6034564 -0.7418331 0.2958083 
-0.9421657 -0.2268492 0.2491251 
-0.9551948 -0.1204907 0.2720422 
-0.9797068 -0.04277732 0.197834 
0.165006 0.9471368 0.2766589 
0.4266907 0.8572344 0.2896694 
0.5979617 0.7581851 0.2637126 
0.7523587 0.5765479 0.3193991 
0.9487491 0.06611428 0.3127469 
0.6207412 -0.7175608 0.317865 
0.5492774 -0.7914739 0.2698556 
-0.8957824 -0.3600317 0.2617917 
-0.9072362 0.2632328 0.3288711 
-0.6244856 0.6887746 0.3702729 
-0.2529732 0.9105293 0.3282883 
-0.1803376 0.9182058 0.3538788 
0.2551469 0.8905777 0.3785826 
0.4018846 0.8424798 0.3603535 
0.7959857 0.5247961 0.3047705 
0.9280081 -0.2185646 0.3044826 
0.8833602 -0.2769269 0.3796153 
0.7431665 -0.5481538 0.3853645 
0.7215613 -0.6022398 0.3431884 
0.5524873 -0.761326 0.3402998 
0.478465 -0.8091709 0.3434153 
-0.02009534 -0.9427795 0.3342236 
-0.1056079 -0.939722 0.3268962 
-0.202428 -0.9138848 0.3536429 
-0.3328074 -0.8562193 0.3960601 
-0.4214082 -0.8328618 0.3604889 
-0.7458036 -0.5955059 0.3008468 
-0.7896794 -0.5044948 0.3502662 
-0.9166439 0.01278529 0.4011788 
-0.6664374 0.6124034 0.4272231 
-0.527234 0.752799 0.3975912 
-0.1638038 0.8873357 0.4320805 
-0.1006162 0.9016514 0.4238302 
-0.03194502 0.9133133 0.4079482 
0.4588394 0.7747101 0.4373184 
0.8147919 0.4093095 0.411533 
0.6583656 -0.6558278 0.3738503 
0.0166415 -0.8931849 0.4506542 
-0.1278533 -0.8981701 0.4218871 
-0.8601714 -0.3087819 0.4072636 
-0.80047 0.4159004 0.431973 
0.3544533 0.7970855 0.4909345 
0.7090129 0.5282898 0.4674434 
0.8740583 -0.07291784 0.4815077 
0.8188282 -0.2858569 0.4994477 
0.7281436 -0.4969977 0.4736052 
-0.6144509 -0.6499022 0.4489349 
-0.8223757 0.1416836 0.5529667 
0.05900908 0.845964 0.5307229 
0.6046668 0.6025525 0.5227572 
0.8497663 0.2096132 0.4852656 
0.7585291 -0.3151671 0.5712935 
0.5382859 -0.6967804 0.4762992 
-0.1491367 -0.8611951 0.4869868 
-0.257293 -0.8344387 0.48935 
-0.4264133 -0.7456566 0.5136059 
-0.5352682 -0.6875492 0.4913395 
-0.5510915 -0.6142367 0.566522 
-0.07642885 0.8094661 0.5832051 
0.009602962 0.803916 0.5957023 
0.3723387 0.7151074 0.5922935 
0.6870898 -0.4840305 0.5430235 
0.6714154 -0.4465257 0.593119 
0.2399004 -0.7921128 0.562528 
-0.05738394 -0.8036479 0.5938918 
-0.3276713 -0.7764401 0.5401148 
-0.7161376 -0.4348319 0.5463977 
-0.8172609 -0.04592656 0.5751846 
-0.8077827 0.02531466 0.5902792 
-0.3105808 0.6844466 0.6610507 
-0.2162596 0.7025266 0.6791234 
0.4105726 0.6566426 0.6330186 
0.5416538 0.5467032 0.6395602 
0.7663974 0.004761423 0.6432969 
0.7503617 -0.2059752 0.6292775 
-0.7538893 -0.141056 0.6424426 
-0.1026167 0.771448 0.6290159 
0.4603013 0.61015 0.645436 
0.6875724 0.2784721 0.6721968 
0.6228999 -0.4025217 0.6720978 
-0.3749423 -0.6811621 0.6304169 
-0.4997198 -0.4662218 0.7308996 
-0.597776 -0.401654 0.6956707 
-0.6712297 -0.008190777 0.7425777 
-0.6759164 0.1817898 0.7153738 
-0.6006329 0.3984259 0.6938145 
-0.5178831 0.4853901 0.705287 
0.6008584 0.2383495 0.7637824 
0.6625047 0.1245278 0.7394593 
0.5224658 -0.3964256 0.7567172 
0.5094409 -0.5123624 0.693282 
0.4085114 -0.5513347 0.7287678 
0.3654389 -0.6397512 0.6769465 
0.2426796 -0.6267375 0.7412571 
-0.08671968 0.6625206 0.7449864 
0.3821872 0.4916694 0.7833067 
0.5493563 -0.2099209 0.8099991 
-0.4034956 -0.4748814 0.7833915 
-0.6414451 -0.1130804 0.7599306 
0.2043015 0.5476367 0.8124943 
0.281308 0.482799 0.8302073 
0.4228857 0.4235548 0.8018474 
0.1164106 -0.5263638 0.8427894 
-0.4645065 0.2775367 0.8418368 
-0.2105409 0.4322883 0.8778353 
-0.1785643 0.5275118 0.8315374 
0.4069791 -0.2879977 0.8681302 
0.3330247 -0.3858885 0.861192 
-0.3179682 0.4347846 0.8435267 
0.267678 0.402882 0.8759287 
0.4910004 0.2619972 0.8321589 
0.5155576 -0.03139164 0.8571441 
0.2593782 -0.399241 0.8801821 
-0.5143263 -0.0567443 0.8568054 
-0.3717657 0.2576112 0.8930547 
-0.3307975 0.3450555 0.8793974 
0.1285931 0.3927824 0.9113882 
0.4005841 0.05265629 0.9150543 
0.4071603 -0.05551664 0.9119543 
0.162355 -0.3898306 0.9069661 
-0.3211473 -0.2652437 0.9098976 
-0.2562959 0.2429758 0.936023 
-0.05628124 0.3611191 0.9313659 
0.3424975 0.2162023 0.9152034 
0.0557307 -0.2881684 0.9566932 
-0.008353204 -0.3776876 0.9272192 
-0.3369839 -0.09580952 0.9373171 
0.2574763 0.1453269 0.955791 
0.3100991 0.09342074 0.94697 
0.01186815 -0.23046 0.9734889 
-0.1943483 0.2513404 0.9497427 
0.2174807 0.09559057 0.9717252 
0.173355 -0.1434732 0.9749381 
-0.196553 -0.148647 0.9694439 
-0.2344601 -0.01072899 0.9722803 
-0.1339463 0.0007671292 0.9919319 
0.1745124 -0.07145753 0.9828274 
-0.1217544 -0.1108983 0.9873505 
-0.09927926 0.07607338 0.9929413 
-0.02774578 -0.07657058 0.9977709 
-0.5799381 -0.8160514 2.472492e-05 
-0.700296 -0.7156627 -6.66879e-06 
-0.9020029 -0.4328218 3.372209e-06 
-0.9070147 -0.4175494 0.06182064 
-0.9561152 -0.292991 0 
-0.9804808 -0.1988761 -1.00785e-05 
-0.9981264 -0.01876573 0.06789151 
-0.9855168 0.1760944 -3.773911e-06 
-0.907657 0.4221277 3.587919e-05 
-0.833475 0.5492791 0.06823437 
-0.7616276 0.6500698 1.727987e-05 
-0.7512105 0.6574883 0.07455999 
-0.6125786 0.7885438 0.06242034 
-0.3592174 0.9345113 0.0002882499 
-0.2123398 0.9762179 0.05765031 
-0.1362976 0.9906679 0 
-0.05509866 0.9981077 0.04171722 
-0.06622887 0.9978045 0 
0.1835183 0.9843692 0.0005576279 
0.3744145 0.9262428 0.05502016 
0.3922472 0.9206839 7.591025e-06 
0.5223984 0.8537579 2.931256e-05 
0.6562629 0.7524335 0.06436841 
0.7069751 0.7072384 0 
0.9076701 0.4210359 0.0002559265 
0.9534654 0.3030495 -4.567741e-06 
0.9521286 0.298688 0.08039571 
0.9796973 0.1945569 0.05983918 
0.9967936 0.08988316 -2.453006e-05 
0.9974835 -0.05250123 0.06221421 
0.9814057 -0.1755349 0.08907381 
0.9513469 -0.3099953 2.14098e-05 
0.9022262 -0.4326036 -4.639121e-06 
0.8378481 -0.5480265 -7.728425e-06 
0.8273517 -0.5568317 0.08444513 
0.5754843 -0.8191276 1.974349e-05 
0.3735834 -0.9255798 0.07790719 
0.3355611 -0.9431367 -3.031015e-06 
0.2806365 -0.9583271 0.0611928 
0.217712 -0.9760131 0 
0.1922892 -0.9762959 0.1053114 
0.1754082 -0.9837419 0.04937071 
-0.99528 0.07922941 0.06552248 
-0.663736 0.7364546 0.1373642 
-0.2938055 0.9536658 0.07238169 
-0.2541644 0.954268 0.1590905 
0.02299486 0.9944704 0.1143912 
0.2694653 0.9615601 0.06367105 
0.8107525 0.5813914 0.07873806 
0.8636755 0.5008718 0.07395273 
0.9763032 0.183119 0.1219695 
0.9942196 0.083519 0.08210797 
0.9894456 -0.1097564 0.1015396 
0.9120811 -0.3948 0.1166173 
0.6053426 -0.7883557 0.1142349 
0.483065 -0.873529 0.07374165 
-0.2109534 -0.9742916 0.09416275 
-0.3246616 -0.9361604 0.139119 
-0.396805 -0.9135801 0.09761089 
-0.7780195 -0.625639 0.06545482 
-0.9835589 0.07994238 0.163604 
-0.9366806 0.3150693 0.1537968 
-0.9020245 0.3860486 0.1978098 
-0.7314992 0.6616274 0.1702646 
-0.5604498 0.813234 0.1615502 
-0.3485623 0.9243985 0.1607771 
-0.09123691 0.9841992 0.1612449 
0.3391203 0.9297574 0.1493421 
0.7483811 0.6379026 0.1865037 
0.8864955 0.4062511 0.2256363 
0.9519433 0.220899 0.2155562 
0.9668353 0.1271651 0.2248604 
0.9754562 -0.108608 0.1933895 
0.9522122 -0.2106278 0.2266494 
0.8538337 -0.489693 0.1790668 
0.8445147 -0.5262457 0.1045187 
0.7000651 -0.6922144 0.1775978 
0.6128462 -0.7662115 0.1955782 
0.4942353 -0.8471279 0.2019924 
0.4297757 -0.8857721 0.1784326 
0.3089297 -0.9392627 0.1559272 
0.1966153 -0.9645811 0.1797822 
-0.34052 -0.9177896 0.2086231 
-0.4522154 -0.8711566 0.1967894 
-0.7162172 -0.6737163 0.1833672 
-0.9103481 -0.3932719 0.1324796 
-0.9423783 -0.3047863 0.1412333 
-0.983914 -0.1648116 0.08283336 
-0.9632142 0.1912899 0.1918587 
-0.9215952 0.1956393 0.3379962 
-0.8460068 0.464849 0.2639342 
-0.7872706 0.5716226 0.2349198 
-0.7274907 0.6321292 0.2696258 
-0.6621836 0.7175048 0.2186525 
-0.4593793 0.8516381 0.2550999 
-0.3929404 0.8876542 0.2429471 
-0.1979816 0.9598956 0.2021418 
-0.05718067 0.9599322 0.2764727 
0.0860972 0.9712981 0.2236553 
0.9821467 0.044382 0.1887365 
0.8971193 -0.3997854 0.190547 
0.7460541 -0.6180236 0.2509188 
0.70581 -0.6641498 0.2494476 
0.6522982 -0.7191074 0.2426615 
0.4387288 -0.8526358 0.2878194 
0.1702984 -0.9541437 0.2478631 
-0.5800681 -0.7845619 0.2208088 
-0.7850932 -0.5740057 0.2351578 
-0.9225186 -0.3270682 0.2089856 
-0.9578469 0.03911006 0.2891899 
-0.9358136 0.07754508 0.3459721 
-0.9438561 0.2537463 0.2157993 
-0.8941937 0.3585859 0.2734631 
-0.6551768 0.7002828 0.2844039 
-0.5993789 0.746842 0.290828 
-0.3644128 0.8655372 0.3458064 
-0.1781655 0.9458508 0.274318 
0.0637298 0.9536086 0.2968544 
0.2028353 0.9278792 0.3140951 
0.5138596 0.8048681 0.2996704 
0.5942515 0.7347733 0.3274012 
0.6710184 0.6830056 0.2898135 
0.7068594 0.6651507 0.24548 
0.8775386 0.3889014 0.28315 
0.9544747 -0.1170417 0.2769593 
0.9357537 -0.0964724 0.3406574 
0.8204612 -0.5002061 0.2803425 
0.07536331 -0.9676083 0.2436509 
-0.01642486 -0.9610835 0.2768531 
-0.1105328 -0.9592645 0.2614229 
-0.8051192 -0.5213 0.2839637 
-0.9289837 -0.179716 0.3250313 
-0.9420595 -0.05572296 0.3321362 
-0.8766072 0.3313296 0.3501242 
-0.7020497 0.6207522 0.3507425 
-0.47464 0.8096301 0.3475386 
-0.2583508 0.8832227 0.3932959 
0.1184522 0.9136537 0.3910455 
0.1570379 0.8953864 0.419454 
0.6209248 0.6851867 0.3822661 
0.6925574 0.6319522 0.3501454 
0.7901378 0.4634878 0.4036744 
0.8603868 0.3442506 0.3786094 
0.9009351 0.1805307 0.3974125 
0.9235044 -0.01601126 0.3848189 
0.2424051 -0.9176238 0.3167036 
0.1792788 -0.8974068 0.4049174 
0.1392906 -0.9363547 0.324524 
0.03318334 -0.9150274 0.4034138 
-0.4838667 -0.7819722 0.3959897 
-0.5654001 -0.7353445 0.3775146 
-0.7075557 -0.6137763 0.3502052 
-0.6572186 -0.659479 0.365448 
-0.7199398 -0.5632319 0.4071249 
-0.900741 -0.2261007 0.3723124 
-0.9145125 -0.1232673 0.3869294 
-0.9022247 0.09979647 0.4204805 
-0.8404775 0.3446684 0.4200124 
-0.750721 0.5303405 0.3953411 
0.5629576 0.7102804 0.4234934 
0.7038702 0.5939417 0.3909857 
0.7497786 0.5213977 0.4085532 
0.8880202 0.2747008 0.3716037 
0.9142037 0.05652896 0.4023002 
0.9054155 -0.09494616 0.4154801 
0.8762407 -0.3210931 0.3623112 
0.6063181 -0.6976737 0.3846494 
0.4879211 -0.7691109 0.4143376 
0.4118043 -0.7917194 0.4522344 
0.3503382 -0.8212577 0.4517144 
-0.06234244 -0.9155012 0.3980027 
-0.2391376 -0.8767311 0.4193199 
-0.6662201 -0.606834 0.4344395 
-0.9079289 -0.08386248 0.4118634 
-0.881445 0.00931038 0.4726539 
-0.8716472 0.07890283 0.4851304 
-0.8368558 0.2908604 0.4652986 
-0.5838954 0.6628842 0.4699797 
-0.4973269 0.728565 0.4731732 
-0.1630209 0.8538014 0.4961565 
0.206572 0.8600523 0.4672496 
0.5142202 0.7432144 0.4285464 
0.6662889 0.5987887 0.4450501 
0.7355362 0.4538107 0.5039165 
0.7897592 0.3691892 0.4915919 
0.8292541 0.2706428 0.4905705 
0.8695952 0.08334373 0.4887391 
0.8871357 -3.406845e-05 0.4626176 
0.8517587 -0.1894781 0.4902846 
0.8081414 -0.3551134 0.4723973 
0.782306 -0.4193665 0.4613939 
0.6018021 -0.6450638 0.4714613 
0.2707748 -0.8330439 0.4834119 
0.2651666 -0.863559 0.4303758 
-0.05066472 -0.8602046 0.509043 
-0.7481568 -0.4923767 0.4469886 
-0.8384584 -0.2849667 0.4659081 
-0.798812 0.2326213 0.5560725 
-0.7042628 0.4726405 0.5310609 
-0.6850871 0.5505416 0.4778478 
-0.3965788 0.7494513 0.5311994 
0.1384527 0.8346244 0.5346601 
0.2487703 0.8295092 0.5024863 
0.3933253 0.7471204 0.5366136 
0.5274281 0.6814171 0.5083356 
0.6032454 0.6361645 0.4819815 
0.6762598 0.5126309 0.531027 
0.8323221 0.01091823 0.5554588 
0.8314677 -0.1373758 0.5391789 
0.4437727 -0.752584 0.4881629 
0.3222409 -0.7834551 0.5329759 
0.1627799 -0.8481461 0.5058066 
0.1272736 -0.8217925 0.5574306 
0.02718336 -0.8465394 0.5321338 
-0.1530701 -0.8171466 0.556399 
-0.4976703 -0.6570214 0.567799 
-0.6430714 -0.5628992 0.5207285 
-0.8374004 -0.1779917 0.5181977 
-0.8262677 -0.1009234 0.5554426 
-0.8577515 -0.0125211 0.51455 
-0.7262986 0.3235721 0.6078512 
-0.6069912 0.5927584 0.5302115 
-0.6113281 0.5431234 0.576964 
-0.5491705 0.5785978 0.6033887 
-0.515283 0.6458756 0.5647997 
-0.3466107 0.7319362 0.5882699 
-0.1988511 0.7868414 0.5858464 
0.09687131 0.8053282 0.5864999 
0.1996911 0.7643504 0.614724 
0.2997551 0.7730899 0.5594127 
0.6148205 0.536458 0.5793766 
0.7174361 0.408005 0.5654536 
0.7862151 0.1099425 0.6099906 
0.6962439 -0.3491397 0.6287054 
0.6148359 -0.5728745 0.5436488 
0.5359694 -0.631847 0.5616373 
0.3733572 -0.7164683 0.5907221 
0.03311265 -0.7909025 0.6120055 
-0.7985901 -0.2639999 0.5427449 
-0.7566867 0.1204866 0.6443232 
-0.7270135 0.2282902 0.6487213 
-0.6697121 0.414399 0.6180152 
-0.5548589 0.4983272 0.6676323 
-0.1624474 0.7324124 0.6615557 
0.0849561 0.7529972 0.6532845 
0.5110524 0.6258413 0.5904723 
0.5854306 0.4806506 0.6542625 
0.6170293 0.4111678 0.6722094 
0.7283531 0.3020814 0.6159821 
0.7619682 -0.07686331 0.6439342 
0.7178503 -0.2785487 0.6390165 
0.5257727 -0.5763813 0.6267891 
0.3097171 -0.6848915 0.6599696 
0.2981128 -0.7229142 0.6242824 
-0.3051974 -0.7238372 0.6194979 
-0.5307283 -0.5059977 0.681542 
-0.6498174 -0.4618537 0.6052882 
-0.7148376 -0.3551415 0.604873 
-0.7785343 -0.2225125 0.5890046 
-0.7678537 -0.07483218 0.6369127 
-0.7226354 0.0186279 0.6926209 
-0.6642497 0.3004801 0.6854727 
-0.3912474 0.6178133 0.6824013 
-0.1105458 0.7143762 0.6909748 
-0.01675941 0.7593677 0.6514589 
0.3654618 0.6091491 0.7045128 
0.6173062 0.3343095 0.7129987 
0.7421142 0.09214099 0.6647761 
0.6821405 -0.1904348 0.7069957 
0.5927148 -0.4833541 0.6457642 
0.2374371 -0.6837166 0.6908768 
-0.105387 -0.7013424 0.7064256 
-0.2727404 -0.672159 0.68995 
-0.482519 -0.5923318 0.6464705 
-0.6541047 -0.3086216 0.6914876 
-0.4566551 0.5612042 0.6913027 
0.6950836 -0.01064507 0.7199835 
0.6396329 -0.2904789 0.7122851 
0.04746931 -0.704493 0.7094113 
-0.01489383 -0.7331884 0.6812802 
-0.05585741 -0.6616653 0.7485547 
-0.1682897 -0.6614851 0.7327391 
-0.3976455 -0.5517452 0.7348149 
-0.6214305 0.1241837 0.7737866 
-0.546198 0.3850243 0.744969 
-0.4181269 0.4884225 0.7673336 
-0.2281646 0.6015214 0.7663469 
0.2956543 0.5681303 0.7686957 
0.5086642 0.3663492 0.7796102 
0.6471215 0.2468046 0.7230338 
0.6164511 -0.1319777 0.7773833 
0.417924 -0.4418212 0.7950368 
-0.08313277 -0.5911055 0.8031562 
-0.2637968 -0.5944095 0.7605633 
-0.5221258 -0.3593914 0.7743436 
-0.5694665 -0.138588 0.8112682 
-0.525693 0.3089285 0.7936687 
-0.3481293 0.4923702 0.7988671 
0.3406291 0.4088952 0.8475106 
0.5623685 0.2893421 0.7752376 
0.5965698 0.1335955 0.79193 
0.4965207 -0.2168225 0.8417469 
0.2210348 -0.4795549 0.8500002 
0.06893829 -0.6148676 0.7868201 
0.03217187 -0.5525701 0.8339581 
-0.1755946 -0.5387379 0.8253017 
-0.3028353 -0.5001233 0.8121793 
-0.5233392 -0.1944289 0.8299277 
-0.5284748 0.1691201 0.8333067 
0.1375376 0.5154434 0.8466604 
0.4355191 0.2348533 0.8702104 
0.521859 0.2012494 0.8301013 
0.5058451 0.1249216 0.8542938 
0.5535189 0.02722074 0.8338656 
0.5260037 -0.1286183 0.8412132 
0.4452761 -0.1949871 0.8752798 
0.02900539 -0.5040922 0.8643727 
-0.06058566 -0.4858446 0.8733882 
-0.2794082 -0.4413224 0.8540237 
-0.361215 -0.4247743 0.8304599 
-0.4976065 0.03671441 0.8674255 
0.1687435 0.4491749 0.8780718 
0.436793 0.1252321 0.8914986 
0.4593779 0.01465805 0.8884127 
0.4633355 -0.0758618 0.8832849 
-0.2395974 -0.3622817 0.9018015 
-0.3864793 -0.2885232 0.8766336 
-0.4342303 0.00935999 0.9015548 
-0.003389739 0.4074298 0.9138701 
0.2280814 0.3464178 0.9108108 
0.3889275 -0.146426 0.9100273 
0.2903515 -0.2998306 0.9095045 
-0.1377639 -0.4064718 0.9045348 
-0.4149969 -0.09613671 0.9050847 
-0.3701036 0.05292513 0.9285866 
-0.1350683 0.3335183 0.9333397 
0.06470621 0.3404625 0.9386022 
0.1500335 0.2882221 0.946378 
0.2271543 0.2682216 0.936494 
0.3401301 -0.06662495 0.9383896 
0.3142505 -0.1436845 0.9390883 
0.2646489 -0.12405 0.9568197 
0.2231059 -0.2369104 0.9467564 
0.08688443 -0.3812248 0.9207798 
-0.3667143 -0.01606109 0.9306279 
-0.2791929 0.0008070266 0.9608856 
-0.06352372 -0.2789766 0.9586909 
-0.0987561 -0.3397954 0.9365054 
-0.1397248 -0.2153452 0.9671474 
-0.2513573 0.07787673 0.9657988 
-0.07534067 0.1813418 0.9811428 
-0.006015738 0.1766781 0.9847501 
0.08609768 -0.1750316 0.9815186 
-0.05561087 -0.2084102 0.9771131 
-0.2579155 -0.07974844 0.9633294 
-0.03048336 0.1138479 0.9933296 
3 476 54 53 
3 236 237 421 
3 423 57 422 
3 507 202 425 
3 219 203 427 
3 466 64 2 
3 230 452 229 
3 475 456 214 
3 200 216 419 
3 245 438 64 
3 487 247 439 
3 476 477 54 
3 478 235 234 
3 505 71 423 
3 531 481 219 
3 516 486 224 
3 493 7 250 
3 70 252 5 
3 273 477 476 
3 502 503 478 
3 75 256 8 
3 279 217 240 
3 262 281 72 
3 539 282 65 
3 266 544 492 
3 585 100 267 
3 306 550 527 
3 96 97 287 
3 291 312 10 
3 293 11 281 
3 315 562 94 
3 305 569 275 
3 311 291 556 
3 602 580 560 
3 589 89 88 
3 613 566 89 
3 581 322 603 
3 606 627 607 
3 610 111 325 
3 297 325 102 
3 587 629 588 
3 568 95 317 
3 18 639 594 
3 596 617 122 
3 598 114 620 
3 116 339 328 
3 126 127 605 
3 13 335 336 
3 327 659 617 
3 328 339 647 
3 622 648 649 
3 335 345 360 
3 637 678 638 
3 647 664 648 
3 340 20 132 
3 668 358 144 
3 672 690 673 
3 134 155 22 
3 679 680 348 
3 681 149 365 
3 352 357 133 
3 134 690 155 
3 694 32 146 
3 151 173 374 
3 703 728 29 
3 698 723 169 
3 361 377 170 
3 147 378 363 
3 32 171 727 
3 715 727 189 
3 734 744 735 
3 185 746 192 
3 764 754 747 
3 394 401 39 
3 748 756 396 
3 752 195 745 
3 400 196 192 
3 192 406 753 
3 753 406 764 
3 394 193 401 
3 35 410 755 
3 749 757 758 
3 403 758 44 
3 397 408 41 
3 196 42 406 
3 757 756 43 
3 758 757 44 
3 44 411 407 
3 191 762 199 
3 405 404 766 
3 195 767 768 
3 410 40 46 
3 198 197 770 
3 44 43 49 
3 411 47 45 
3 766 409 773 
3 48 417 415 
3 5 52 0 
3 52 233 53 
3 233 476 53 
3 462 59 427 
3 204 429 430 
3 432 205 222 
3 464 434 60 
3 434 224 435 
3 467 207 438 
3 225 442 208 
3 468 469 209 
3 444 248 210 
3 446 447 445 
3 447 448 4 
3 471 211 448 
3 212 472 450 
3 456 458 457 
3 457 458 459 
3 461 215 459 
3 419 216 415 
3 218 508 219 
3 221 241 429 
3 464 465 434 
3 224 486 436 
3 467 487 439 
3 3 72 65 
3 442 263 226 
3 468 264 228 
3 475 499 456 
3 460 5 461 
3 478 503 235 
3 256 238 56 
3 238 257 505 
3 217 259 480 
3 463 483 513 
3 244 515 485 
3 246 261 487 
3 487 262 247 
3 248 489 6 
3 470 519 471 
3 472 249 492 
3 472 492 450 
3 7 473 229 
3 494 73 495 
3 454 73 68 
3 499 500 456 
3 269 501 500 
3 70 547 252 
3 272 273 476 
3 255 8 256 
3 508 509 531 
3 532 482 481 
3 482 532 510 
3 513 534 243 
3 78 518 466 
3 78 537 518 
3 245 518 79 
3 542 264 488 
3 490 86 491 
3 493 295 267 
3 493 267 7 
3 520 268 494 
3 494 546 73 
3 521 522 73 
3 497 286 251 
3 499 524 80 
3 547 270 252 
3 270 549 271 
3 275 526 253 
3 74 9 504 
3 533 289 534 
3 534 85 243 
3 517 537 78 
3 280 538 79 
3 538 93 261 
3 282 541 542 
3 541 560 542 
3 283 294 264 
3 562 582 265 
3 265 86 490 
3 522 285 523 
3 522 316 285 
3 523 286 497 
3 286 524 498 
3 565 567 525 
3 549 274 272 
3 550 307 83 
3 287 97 528 
3 509 14 288 
3 553 577 91 
3 554 309 289 
3 310 555 85 
3 93 293 262 
3 293 314 11 
3 561 315 94 
3 564 584 545 
3 545 295 544 
3 545 584 12 
3 299 587 300 
3 565 566 567 
3 567 95 90 
3 301 590 302 
3 591 304 81 
3 276 572 9 
3 276 570 572 
3 572 571 9 
3 572 592 571 
3 571 592 573 
3 83 104 96 
3 96 319 97 
3 552 308 529 
3 91 107 578 
3 310 98 555 
3 92 99 557 
3 297 102 298 
3 586 587 299 
3 89 589 613 
3 318 590 614 
3 576 595 106 
3 619 641 309 
3 98 598 620 
3 556 109 599 
3 601 624 579 
3 625 329 602 
3 561 603 604 
3 582 605 330 
3 583 606 607 
3 591 333 334 
3 103 334 345 
3 570 13 336 
3 573 120 615 
3 104 615 121 
3 105 616 637 
3 593 105 18 
3 595 348 327 
3 106 327 617 
3 618 123 642 
3 641 619 642 
3 108 620 645 
3 109 115 599 
3 116 599 338 
3 608 628 19 
3 609 324 331 
3 611 654 655 
3 332 655 129 
3 629 129 656 
3 612 630 343 
3 17 632 633 
3 333 634 334 
3 615 120 346 
3 120 676 346 
3 18 638 639 
3 639 638 347 
3 643 23 644 
3 646 356 338 
3 126 651 668 
3 354 670 19 
3 111 653 342 
3 655 654 671 
3 633 657 344 
3 635 693 337 
3 636 119 676 
3 346 676 677 
3 638 679 347 
3 646 350 663 
3 647 339 664 
3 648 142 20 
3 125 667 358 
3 655 671 145 
3 632 134 22 
3 344 135 136 
3 130 136 692 
3 659 680 148 
3 661 681 365 
3 663 350 151 
3 663 683 356 
3 684 140 664 
3 667 686 358 
3 358 709 144 
3 353 696 669 
3 24 153 688 
3 670 688 697 
3 697 154 359 
3 671 370 145 
3 136 701 692 
3 355 146 147 
3 364 29 149 
3 139 374 160 
3 133 143 164 
3 688 153 710 
3 370 711 371 
3 699 700 691 
3 702 377 361 
3 363 33 157 
3 25 717 159 
3 159 172 706 
3 140 161 162 
3 707 380 375 
3 375 381 164 
3 26 164 708 
3 164 381 708 
3 709 367 720 
3 154 27 175 
3 27 376 175 
3 28 167 30 
3 156 713 702 
3 149 29 716 
3 29 728 383 
3 161 174 729 
3 720 731 732 
3 710 734 376 
3 175 386 183 
3 168 382 723 
3 169 723 724 
3 169 724 712 
3 157 740 178 
3 728 186 383 
3 179 383 394 
3 385 384 180 
3 731 390 730 
3 183 386 387 
3 168 176 382 
3 724 382 736 
3 739 184 177 
3 177 184 746 
3 727 192 189 
3 384 36 180 
3 187 181 748 
3 741 749 389 
3 750 735 744 
3 188 745 738 
3 394 186 193 
3 39 410 35 
3 35 755 36 
3 36 384 35 
3 36 402 180 
3 396 757 749 
3 749 758 37 
3 743 397 398 
3 744 398 750 
3 398 760 750 
3 190 735 750 
3 392 751 191 
3 763 38 399 
3 769 193 754 
3 40 401 193 
3 410 39 401 
3 410 197 755 
3 402 198 756 
3 44 407 403 
3 759 761 760 
3 763 399 191 
3 195 752 767 
3 196 400 195 
3 408 45 41 
3 42 48 774 
3 765 406 774 
3 770 197 410 
3 411 44 49 
3 49 47 411 
3 770 46 418 
3 416 45 47 
3 773 409 51 
3 51 419 773 
3 216 418 415 
3 418 216 775 
3 200 775 216 
3 50 47 200 
3 50 419 51 
3 52 53 0 
3 54 478 201 
3 237 479 421 
3 56 423 422 
3 57 423 71 
3 219 220 203 
3 221 204 428 
3 431 222 430 
3 436 466 2 
3 467 439 207 
3 226 227 61 
3 227 468 61 
3 209 469 444 
3 450 250 212 
3 250 229 451 
3 230 495 453 
3 68 231 62 
3 231 69 62 
3 461 5 215 
3 50 200 419 
3 426 217 462 
3 462 480 218 
3 218 219 59 
3 219 481 220 
3 431 463 222 
3 223 464 433 
3 486 466 436 
3 3 225 441 
3 226 488 227 
3 447 470 471 
3 471 249 449 
3 69 474 213 
3 500 460 458 
3 5 252 52 
3 52 252 233 
3 54 477 478 
3 254 236 1 
3 237 255 479 
3 479 256 56 
3 71 505 506 
3 480 77 218 
3 463 243 484 
3 465 516 224 
3 245 79 246 
3 263 542 488 
3 228 67 469 
3 6 490 470 
3 450 493 250 
3 495 73 454 
3 73 496 68 
3 496 497 69 
3 497 251 474 
3 251 498 232 
3 252 270 271 
3 271 272 476 
3 273 502 477 
3 254 74 236 
3 236 504 237 
3 504 8 255 
3 258 76 507 
3 510 511 241 
3 484 85 514 
3 260 516 465 
3 261 262 487 
3 539 65 72 
3 263 282 542 
3 264 294 228 
3 228 489 67 
3 489 543 265 
3 519 266 249 
3 268 546 494 
3 522 523 496 
3 525 547 70 
3 502 81 503 
3 503 275 253 
3 82 527 8 
3 257 83 287 
3 528 97 277 
3 530 77 529 
3 510 84 511 
3 512 554 533 
3 515 535 260 
3 281 539 72 
3 540 559 541 
3 542 283 264 
3 94 543 489 
3 543 562 265 
3 265 582 86 
3 86 284 491 
3 295 585 267 
3 267 100 268 
3 521 316 522 
3 523 285 286 
3 88 89 80 
3 548 302 549 
3 549 302 274 
3 274 81 502 
3 83 96 287 
3 530 509 77 
3 288 14 553 
3 91 578 84 
3 289 310 534 
3 555 98 535 
3 556 291 290 
3 312 313 10 
3 10 313 92 
3 93 16 293 
3 539 540 282 
3 94 562 543 
3 582 563 86 
3 284 564 266 
3 564 545 266 
3 12 296 295 
3 546 297 87 
3 316 586 285 
3 302 318 303 
3 303 591 81 
3 571 573 306 
3 573 307 306 
3 575 593 552 
3 578 309 554 
3 309 597 289 
3 313 116 99 
3 313 99 92 
3 292 622 16 
3 563 606 583 
3 101 325 297 
3 316 332 586 
3 586 332 587 
3 318 591 303 
3 326 592 572 
3 615 104 307 
3 593 308 552 
3 320 113 107 
3 98 108 15 
3 108 98 620 
3 312 311 599 
3 110 621 558 
3 600 558 621 
3 626 602 329 
3 602 626 322 
3 315 561 604 
3 323 584 607 
3 102 325 112 
3 332 629 587 
3 589 612 613 
3 612 631 613 
3 636 592 326 
3 573 592 636 
3 595 327 106 
3 618 642 619 
3 624 329 625 
3 603 651 604 
3 605 127 330 
3 608 19 324 
3 331 111 609 
3 111 342 341 
3 332 129 629 
3 17 631 632 
3 336 335 635 
3 635 337 336 
3 113 122 640 
3 640 661 113 
3 642 643 641 
3 114 131 645 
3 646 115 124 
3 648 20 649 
3 20 340 649 
3 665 650 329 
3 125 650 666 
3 127 652 117 
3 128 354 19 
3 341 689 654 
3 689 341 342 
3 130 674 345 
3 674 360 345 
3 360 137 335 
3 660 681 640 
3 681 661 640 
3 643 662 23 
3 349 124 645 
3 350 124 349 
3 340 132 351 
3 668 125 358 
3 653 359 342 
3 689 370 671 
3 145 372 656 
3 656 672 673 
3 344 657 699 
3 135 344 699 
3 360 156 137 
3 693 137 156 
3 355 678 146 
3 23 695 682 
3 682 138 349 
3 150 349 138 
3 683 663 151 
3 683 139 356 
3 664 140 141 
3 152 696 353 
3 372 145 371 
3 372 28 672 
3 701 135 691 
3 692 156 360 
3 156 702 693 
3 361 362 675 
3 364 149 681 
3 705 25 695 
3 150 706 350 
3 706 151 350 
3 707 132 163 
3 155 723 698 
3 699 698 700 
3 361 714 362 
3 362 171 694 
3 694 171 32 
3 363 157 148 
3 159 706 150 
3 163 379 707 
3 707 375 143 
3 368 720 165 
3 369 154 175 
3 30 168 373 
3 31 701 712 
3 32 715 378 
3 29 383 716 
3 705 388 717 
3 34 173 385 
3 731 719 390 
3 175 183 369 
3 726 739 377 
3 177 377 739 
3 170 377 177 
3 177 185 714 
3 385 180 34 
3 174 187 729 
3 729 741 379 
3 741 380 379 
3 732 731 730 
3 734 721 376 
3 721 735 386 
3 392 722 167 
3 722 382 176 
3 737 188 725 
3 725 188 738 
3 177 746 185 
3 740 393 747 
3 178 186 728 
3 39 395 394 
3 181 180 748 
3 732 730 742 
3 733 742 743 
3 391 743 744 
3 397 742 194 
3 753 764 747 
3 756 748 402 
3 403 407 194 
3 762 190 760 
3 190 762 751 
3 754 765 769 
3 41 45 759 
3 412 762 761 
3 768 767 766 
3 413 195 768 
3 413 196 195 
3 196 413 42 
3 414 415 769 
3 412 761 416 
3 772 199 412 
3 768 417 413 
3 414 774 48 
3 415 418 46 
3 771 770 775 
3 49 43 771 
3 47 50 416 
3 772 412 50 
3 771 775 49 
3 47 49 200 
3 419 415 417 
3 53 54 201 
3 201 478 234 
3 234 235 420 
3 420 235 1 
3 420 1 421 
3 421 1 236 
3 421 479 55 
3 55 479 56 
3 55 56 422 
3 57 71 424 
3 424 71 239 
3 424 239 425 
3 239 507 425 
3 202 507 240 
3 202 240 426 
3 202 426 58 
3 58 426 462 
3 58 462 427 
3 59 462 218 
3 427 59 219 
3 203 220 428 
3 428 220 221 
3 204 221 429 
3 430 429 431 
3 205 432 63 
3 205 63 206 
3 206 63 223 
3 206 223 433 
3 433 464 60 
3 60 434 435 
3 435 224 436 
3 435 436 437 
3 437 436 2 
3 438 2 64 
3 207 439 440 
3 440 439 3 
3 440 3 441 
3 441 225 208 
3 208 442 443 
3 443 442 226 
3 443 226 61 
3 61 468 209 
3 445 210 446 
3 445 447 4 
3 448 447 471 
3 211 471 449 
3 211 449 212 
3 212 449 472 
3 212 250 451 
3 451 229 452 
3 229 473 230 
3 452 230 453 
3 453 495 454 
3 453 454 68 
3 453 68 62 
3 62 69 213 
3 455 213 232 
3 455 232 475 
3 455 475 214 
3 214 456 457 
3 459 458 461 
3 461 458 460 
3 215 5 0 
3 462 217 480 
3 429 241 242 
3 431 429 242 
3 242 483 431 
3 431 483 463 
3 222 463 432 
3 432 463 484 
3 432 484 63 
3 63 484 244 
3 223 63 244 
3 223 244 485 
3 223 485 464 
3 434 465 224 
3 64 466 245 
3 438 245 246 
3 438 246 467 
3 246 487 467 
3 439 247 3 
3 225 3 65 
3 225 65 66 
3 225 66 442 
3 227 488 468 
3 469 468 228 
3 469 67 444 
3 444 67 248 
3 210 248 446 
3 446 6 470 
3 446 470 447 
3 449 249 472 
3 229 250 7 
3 495 230 494 
3 213 474 232 
3 232 498 475 
3 475 498 499 
3 458 456 500 
3 460 500 501 
3 5 460 70 
3 235 253 1 
3 1 253 254 
3 56 238 423 
3 423 238 505 
3 71 506 239 
3 239 506 258 
3 507 239 258 
3 426 240 217 
3 217 279 259 
3 218 77 508 
3 219 508 531 
3 220 481 482 
3 220 482 221 
3 221 482 241 
3 242 241 511 
3 242 511 483 
3 463 513 243 
3 244 484 514 
3 464 485 465 
3 485 260 465 
3 466 486 78 
3 466 518 245 
3 247 72 3 
3 66 263 442 
3 226 263 488 
3 468 488 264 
3 248 67 489 
3 446 248 6 
3 470 490 491 
3 470 491 519 
3 471 519 249 
3 450 492 493 
3 473 7 520 
3 473 520 230 
3 230 520 494 
3 68 496 231 
3 231 496 69 
3 496 523 497 
3 69 497 474 
3 474 251 232 
3 500 80 269 
3 460 501 70 
3 501 525 70 
3 252 271 233 
3 233 271 476 
3 477 502 478 
3 235 503 253 
3 253 526 254 
3 254 526 74 
3 237 504 255 
3 236 74 504 
3 479 255 256 
3 8 527 75 
3 238 256 75 
3 238 75 257 
3 505 257 528 
3 505 528 506 
3 507 76 240 
3 240 76 279 
3 480 259 529 
3 480 529 77 
3 508 77 509 
3 531 532 481 
3 241 482 510 
3 483 511 512 
3 483 512 513 
3 513 533 534 
3 484 243 85 
3 244 514 515 
3 485 515 260 
3 516 260 536 
3 516 536 486 
3 486 536 517 
3 486 517 78 
3 518 537 280 
3 518 280 79 
3 246 79 261 
3 247 262 72 
3 66 65 282 
3 66 282 263 
3 489 265 6 
3 6 265 490 
3 519 491 284 
3 519 284 266 
3 249 266 492 
3 492 544 493 
3 7 267 520 
3 267 268 520 
3 73 546 87 
3 73 87 521 
3 73 522 496 
3 251 286 498 
3 499 498 524 
3 499 80 500 
3 269 80 89 
3 269 89 565 
3 269 525 501 
3 270 547 548 
3 271 549 272 
3 502 273 274 
3 526 276 74 
3 74 276 9 
3 504 9 82 
3 504 82 8 
3 75 527 550 
3 528 257 287 
3 506 528 258 
3 258 528 277 
3 258 277 76 
3 76 277 278 
3 76 278 279 
3 279 278 259 
3 531 509 288 
3 531 288 532 
3 532 288 553 
3 532 91 510 
3 510 91 84 
3 511 84 512 
3 512 84 554 
3 512 533 513 
3 85 555 514 
3 515 514 535 
3 514 555 535 
3 536 260 290 
3 536 290 291 
3 517 536 10 
3 517 10 537 
3 280 537 557 
3 79 538 261 
3 93 538 292 
3 261 93 262 
3 262 293 281 
3 539 281 11 
3 282 540 541 
3 541 559 560 
3 542 560 283 
3 294 94 228 
3 228 94 489 
3 544 266 545 
3 544 295 493 
3 268 100 546 
3 521 87 298 
3 521 298 316 
3 286 285 299 
3 286 299 300 
3 286 300 524 
3 524 88 80 
3 269 565 525 
3 525 567 547 
3 547 567 90 
3 547 90 548 
3 548 90 301 
3 548 301 302 
3 270 548 549 
3 274 302 303 
3 272 274 273 
3 503 81 275 
3 275 81 305 
3 275 569 570 
3 526 275 276 
3 275 570 276 
3 82 9 306 
3 306 9 571 
3 82 306 527 
3 550 306 307 
3 75 550 83 
3 75 83 257 
3 277 97 551 
3 277 551 278 
3 259 278 552 
3 259 552 529 
3 530 529 308 
3 532 553 91 
3 84 578 554 
3 554 289 533 
3 534 310 85 
3 535 98 15 
3 260 535 290 
3 290 535 556 
3 536 291 10 
3 537 10 92 
3 537 92 557 
3 280 557 538 
3 557 558 538 
3 538 558 292 
3 539 11 540 
3 540 11 579 
3 540 579 559 
3 560 580 283 
3 283 580 581 
3 283 581 294 
3 294 561 94 
3 294 581 561 
3 86 563 284 
3 284 563 583 
3 284 583 564 
3 295 545 12 
3 295 296 585 
3 546 100 101 
3 546 101 297 
3 87 297 298 
3 299 285 586 
3 524 300 88 
3 565 89 566 
3 567 566 95 
3 90 95 568 
3 301 90 568 
3 301 568 590 
3 302 590 318 
3 274 303 81 
3 81 304 305 
3 570 569 13 
3 572 570 326 
3 307 573 615 
3 83 307 104 
3 96 104 319 
3 97 319 574 
3 97 574 551 
3 278 551 575 
3 551 574 575 
3 278 575 552 
3 308 595 576 
3 595 308 594 
3 308 576 530 
3 530 576 509 
3 509 576 14 
3 576 106 14 
3 553 14 577 
3 577 14 596 
3 91 577 320 
3 91 320 107 
3 619 578 107 
3 578 619 309 
3 289 597 310 
3 597 598 310 
3 535 15 556 
3 15 109 556 
3 291 311 312 
3 558 600 292 
3 292 16 93 
3 293 16 314 
3 11 314 601 
3 11 601 579 
3 560 559 602 
3 602 559 625 
3 580 322 581 
3 315 604 562 
3 605 582 562 
3 582 330 563 
3 583 607 564 
3 564 607 584 
3 12 324 296 
3 296 324 585 
3 585 609 100 
3 609 585 324 
3 609 610 100 
3 100 610 101 
3 298 102 316 
3 102 611 316 
3 332 316 611 
3 300 587 588 
3 300 588 88 
3 88 588 589 
3 613 631 566 
3 17 566 631 
3 568 317 590 
3 317 614 590 
3 318 333 591 
3 334 304 591 
3 103 304 334 
3 304 103 305 
3 305 103 569 
3 335 569 103 
3 104 616 319 
3 574 319 105 
3 319 616 105 
3 574 105 575 
3 593 575 105 
3 595 594 639 
3 596 14 106 
3 596 122 577 
3 122 320 577 
3 122 113 320 
3 107 618 619 
3 597 309 641 
3 98 310 598 
3 109 15 108 
3 556 599 311 
3 599 116 312 
3 116 313 312 
3 116 328 99 
3 99 110 557 
3 558 557 110 
3 622 292 600 
3 622 321 16 
3 16 321 314 
3 624 601 314 
3 624 314 21 
3 579 624 625 
3 579 625 559 
3 322 580 602 
3 581 603 561 
3 322 626 603 
3 605 562 604 
3 604 126 605 
3 563 330 117 
3 606 563 117 
3 608 584 323 
3 628 608 323 
3 584 608 12 
3 12 608 324 
3 609 111 610 
3 325 101 610 
3 341 325 111 
3 611 102 112 
3 112 654 611 
3 588 630 589 
3 630 588 629 
3 612 343 631 
3 95 566 17 
3 95 17 317 
3 17 633 317 
3 317 633 614 
3 333 318 614 
3 335 103 345 
3 13 569 335 
3 570 336 326 
3 336 337 326 
3 636 326 337 
3 120 573 636 
3 104 121 616 
3 658 616 121 
3 637 616 658 
3 18 105 637 
3 593 18 308 
3 594 308 18 
3 595 639 348 
3 106 617 596 
3 113 618 107 
3 661 618 113 
3 644 597 641 
3 641 643 644 
3 598 597 644 
3 114 598 644 
3 108 115 109 
3 645 115 108 
3 115 646 599 
3 338 599 646 
3 339 116 338 
3 99 328 110 
3 621 110 328 
3 622 600 621 
3 649 321 622 
3 623 321 649 
3 340 623 649 
3 321 623 314 
3 21 314 623 
3 21 665 624 
3 329 624 665 
3 329 650 626 
3 626 651 603 
3 651 126 604 
3 117 330 127 
3 652 606 117 
3 627 606 652 
3 607 627 323 
3 118 323 627 
3 118 628 323 
3 331 324 19 
3 112 325 341 
3 654 112 341 
3 332 611 655 
3 629 656 630 
3 589 630 612 
3 632 631 343 
3 633 344 614 
3 614 634 333 
3 130 334 634 
3 130 345 334 
3 335 137 635 
3 119 636 337 
3 636 676 120 
3 346 121 615 
3 677 121 346 
3 678 637 658 
3 637 638 18 
3 347 348 639 
3 348 659 327 
3 660 617 659 
3 617 640 122 
3 661 123 618 
3 643 642 662 
3 131 114 644 
3 114 645 620 
3 645 124 115 
3 647 621 328 
3 648 621 647 
3 621 648 622 
3 623 340 21 
3 340 351 21 
3 665 352 650 
3 125 626 650 
3 626 125 651 
3 668 651 125 
3 127 126 668 
3 144 127 668 
3 652 127 144 
3 652 353 627 
3 353 652 687 
3 627 669 118 
3 118 128 628 
3 128 118 669 
3 628 128 19 
3 331 653 111 
3 689 671 654 
3 129 655 145 
3 656 673 630 
3 343 630 673 
3 657 632 22 
3 632 657 633 
3 614 344 634 
3 136 634 344 
3 130 634 136 
3 693 635 137 
3 121 677 658 
3 678 658 677 
3 638 678 355 
3 659 348 680 
3 364 660 659 
3 617 660 640 
3 662 642 123 
3 662 695 23 
3 644 23 131 
3 682 131 23 
3 131 682 349 
3 131 349 645 
3 124 350 646 
3 356 646 663 
3 356 684 338 
3 139 684 356 
3 338 684 339 
3 339 684 664 
3 141 648 664 
3 142 648 141 
3 132 20 142 
3 351 357 21 
3 21 357 665 
3 357 352 665 
3 666 650 352 
3 667 125 666 
3 687 652 144 
3 669 627 353 
3 669 24 128 
3 354 128 24 
3 19 670 331 
3 331 670 653 
3 359 689 342 
3 656 129 145 
3 656 372 672 
3 134 343 673 
3 673 690 134 
3 343 134 632 
3 657 22 698 
3 130 692 674 
3 360 674 692 
3 119 337 693 
3 675 119 693 
3 676 119 675 
3 362 676 675 
3 362 677 676 
3 694 677 362 
3 677 694 146 
3 677 146 678 
3 638 355 679 
3 347 679 348 
3 364 659 148 
3 681 660 364 
3 661 365 123 
3 662 123 365 
3 662 366 695 
3 25 682 695 
3 138 682 25 
3 349 150 350 
3 374 683 151 
3 139 683 374 
3 140 684 139 
3 163 142 141 
3 132 685 351 
3 351 685 133 
3 351 133 357 
3 133 164 352 
3 352 164 666 
3 666 164 26 
3 666 26 667 
3 709 358 686 
3 144 368 687 
3 687 152 353 
3 24 669 696 
3 24 688 354 
3 354 688 670 
3 670 697 653 
3 653 697 359 
3 369 689 359 
3 370 689 369 
3 28 690 672 
3 698 22 155 
3 699 657 698 
3 699 691 135 
3 135 701 136 
3 693 702 675 
3 355 147 679 
3 680 679 147 
3 363 148 680 
3 148 703 364 
3 29 364 703 
3 149 704 365 
3 365 704 662 
3 366 662 704 
3 704 158 366 
3 705 366 158 
3 366 705 695 
3 173 151 706 
3 139 160 140 
3 140 162 141 
3 163 141 162 
3 142 163 132 
3 132 707 685 
3 685 143 133 
3 685 707 143 
3 164 143 375 
3 686 667 26 
3 719 686 26 
3 367 709 686 
3 367 686 719 
3 709 368 144 
3 687 368 152 
3 696 153 24 
3 710 27 688 
3 688 27 697 
3 154 697 27 
3 369 359 154 
3 369 711 370 
3 370 371 145 
3 28 371 167 
3 371 28 372 
3 373 690 28 
3 373 155 690 
3 373 168 155 
3 701 691 700 
3 701 713 692 
3 713 701 31 
3 156 692 713 
3 702 361 675 
3 714 361 170 
3 171 362 714 
3 378 146 32 
3 146 378 147 
3 680 147 363 
3 148 157 703 
3 728 703 157 
3 704 149 716 
3 704 716 158 
3 25 705 717 
3 25 159 138 
3 138 159 150 
3 173 34 374 
3 160 374 34 
3 161 140 160 
3 162 379 163 
3 719 26 708 
3 708 390 719 
3 709 720 368 
3 152 165 696 
3 165 152 368 
3 166 696 165 
3 165 733 166 
3 166 153 696 
3 710 153 166 
3 710 376 27 
3 167 371 711 
3 28 30 373 
3 723 155 168 
3 700 698 169 
3 712 700 169 
3 701 700 712 
3 713 726 702 
3 377 702 726 
3 33 363 378 
3 178 728 157 
3 158 716 383 
3 179 705 158 
3 388 705 179 
3 172 159 717 
3 172 385 706 
3 706 385 173 
3 174 160 34 
3 160 174 161 
3 379 162 161 
3 161 729 379 
3 380 707 379 
3 718 375 380 
3 375 718 381 
3 182 708 381 
3 182 381 718 
3 390 708 182 
3 719 731 367 
3 720 367 731 
3 165 720 732 
3 733 165 732 
3 166 734 710 
3 175 376 721 
3 386 175 721 
3 369 183 711 
3 30 167 722 
3 176 30 722 
3 168 30 176 
3 724 723 382 
3 712 725 31 
3 31 725 713 
3 726 713 725 
3 738 726 725 
3 170 177 714 
3 171 714 185 
3 727 171 185 
3 715 32 727 
3 715 393 33 
3 33 378 715 
3 33 740 157 
3 158 383 179 
3 395 179 394 
3 388 179 395 
3 717 388 172 
3 172 388 384 
3 172 384 385 
3 34 180 181 
3 34 181 174 
3 187 174 181 
3 718 380 389 
3 37 718 389 
3 718 37 182 
3 730 182 37 
3 182 730 390 
3 166 733 391 
3 166 391 734 
3 391 744 734 
3 183 387 711 
3 711 387 167 
3 387 392 167 
3 382 722 38 
3 724 737 712 
3 737 724 736 
3 712 737 725 
3 726 738 739 
3 184 738 745 
3 738 184 739 
3 185 192 727 
3 393 715 189 
3 393 740 33 
3 740 754 178 
3 178 193 186 
3 186 394 383 
3 395 35 388 
3 388 35 384 
3 741 729 187 
3 187 396 741 
3 749 741 396 
3 389 380 741 
3 403 730 37 
3 730 403 742 
3 732 742 733 
3 733 743 391 
3 743 398 744 
3 734 735 721 
3 190 386 735 
3 386 190 751 
3 386 751 387 
3 387 751 392 
3 392 399 722 
3 722 399 38 
3 382 38 736 
3 752 188 737 
3 184 400 746 
3 192 746 400 
3 753 189 192 
3 189 747 393 
3 189 753 747 
3 740 747 754 
3 193 178 754 
3 395 39 35 
3 748 180 402 
3 187 748 396 
3 389 749 37 
3 403 194 742 
3 742 397 743 
3 398 397 41 
3 760 398 759 
3 190 750 760 
3 392 191 399 
3 405 38 763 
3 38 405 736 
3 736 405 737 
3 767 737 405 
3 737 767 752 
3 188 752 745 
3 184 745 400 
3 400 745 195 
3 40 193 769 
3 36 755 402 
3 755 197 402 
3 756 757 396 
3 37 758 403 
3 194 407 408 
3 194 408 397 
3 759 398 41 
3 762 760 761 
3 751 762 191 
3 404 191 199 
3 191 404 763 
3 763 404 405 
3 405 766 767 
3 192 196 406 
3 764 406 765 
3 764 765 754 
3 40 410 401 
3 197 198 402 
3 198 43 756 
3 411 408 407 
3 45 408 411 
3 761 759 45 
3 199 762 412 
3 404 409 766 
3 768 766 773 
3 48 42 413 
3 42 774 406 
3 414 765 774 
3 769 765 414 
3 46 769 415 
3 769 46 40 
3 46 770 410 
3 770 771 198 
3 198 771 43 
3 757 43 44 
3 45 416 761 
3 199 772 404 
3 404 772 409 
3 417 768 773 
3 48 413 417 
3 415 414 48 
3 775 770 418 
3 416 50 412 
3 772 51 409 
3 773 419 417 
3 200 49 775 
3 772 50 51 
