OFF
776 1499 0
1 0 0
0.721688270027779 -0.585764093354374 0
-0.999098251701899 0.0424580198102733 0
-0.809506864139229 0.454876332687087 0
-0.191686023483084 0.981456299791918 0
0.918757850736799 0.0611036666404697 0
-0.257686855895777 0.812397692688531 0
0.264513942484021 0.797800617961781 0
0.51232173823186 -0.67610318264299 0
0.523937688155876 -0.533567982669294 0
-0.713015460527246 -0.0484121053142673 0
-0.575007154145521 0.37552713615433 0
0.151209852481527 0.637702229728461 0
0.517270032477744 -0.352741811707634 0
-0.157805455538011 -0.619981142152359 0
-0.586222927008763 -0.244556465622626 0
-0.58679063216971 0.242360242609213 0
0.586636740984173 0.0780606554008963 0
0.0475830528181197 -0.595519323779167 0
0.150376337831861 0.503145067849185 0
-0.450750583871166 0.170311511533489 0
-0.439773440051733 0.298103300409133 0
0.477049622899682 0.0630764860381128 0
-0.372819030774439 -0.282326324900966 0
0.0691935177431003 0.428335367852303 0
-0.314515937258842 -0.211368413549034 0
-0.236215811293453 0.312096443492702 0
0.144736920876898 0.340232258491746 0
0.347867725970159 0.193597948459039 0
-0.113896677604873 -0.326852507645019 0
0.305669884535673 0.160210114425278 0
0.336630974881879 -0.107301714290166 0
0.120739315140787 -0.356091364210284 0
0.0105123034401099 -0.320895146133585 0
-0.31117715756783 -0.0457021866414502 0
-0.190528196795735 -0.120277237309114 0
-0.206703922028101 -0.0700722360916218 0
-0.167337537373614 0.177604226738435 0
0.241224400761893 0.0607586079601642 0
-0.161553525928235 -0.15449006219339 0
-0.0851583838015405 -0.123009013916692 0
-0.00691186861361373 0.172380218435762 0
0.0766837939058692 -0.135891248510139 0
-0.117478550315055 0.0393984803794351 0
-0.101450027126592 0.106746564074443 0
0.0052960521254266 0.124198011872835 0
-0.0624783642928084 -0.0855796868628299 0
-0.0243232257609331 0.0678955855977024 0
0.0460873190314914 -0.107452059508469 0
-0.0723778767138275 0.0497849026604082 0
0.0192693626866553 0.0428998299269584 0
0.066123073482796 0.00658789025326848 0
0.932354900255344 -0.0578270448514887 0
0.98018000415035 -0.19810895856528 0
0.890842057833745 -0.297127323826749 0
0.550918066080488 -0.834559335497564 0
0.504632277058651 -0.807394587782683 0
0.36031150951328 -0.932832040676274 0
-0.0456118532942065 -0.998959237826583 0
-0.180687905684678 -0.924147590781224 0
-0.975216910299803 -0.221250938676665 0
-0.615840180957167 0.787871100827187 0
0.689369710808234 0.72440969197007 0
-0.79028399118742 -0.499451669193062 0
-0.927399565156496 0.0891316111362783 0
-0.695287423800758 0.473099409644382 0
-0.680301675687509 0.516595586448222 0
-0.398575684758741 0.769130931238687 0
0.585080927527401 0.697857410869854 0
0.677612005711042 0.620176517017286 0
0.842876931809522 0.0849886413927378 0
0.314714177180511 -0.889012666041951 0
-0.717339005491667 0.413122177118755 0
0.499729477613428 0.660461261475088 0
0.596664897111737 -0.534299811377232 0
0.407463270336759 -0.697565491606388 0
0.113854582137479 -0.812904392384146 0
-0.110784324681956 -0.749840826975279 0
-0.809724769565037 -0.0186373872272737 0
-0.781153655156396 0.157710799261325 0
0.734325567292248 0.280935284476047 0
0.665198440436894 -0.276355558429497 0
0.522612883109931 -0.582122994923809 0
0.325417428958698 -0.63993118366636 0
-0.419972143013651 -0.58139605530641 0
-0.628171218356705 -0.400021873916865 0
-0.137145871780865 0.710489089048885 0
0.439497907149846 0.59977294932508 0
0.635900573738918 0.28693795783477 0
0.664857467013204 0.226317065467573 0
0.711096452794775 0.0425304880996409 0
-0.33322667568776 -0.606482114739665 0
-0.681384218661589 0.0283207218687799 0
-0.679934313096468 0.231825322991066 0
-0.338007143372734 0.638256970381081 0
0.635925350127662 0.0666657080258608 0
0.270245633721418 -0.653650644354126 0
0.216678984781981 -0.696927835635901 0
-0.555894504632109 -0.30068860258938 0
-0.616824333538404 0.0269096486347945 0
0.311146560750898 0.611018586035716 0
0.346983084177739 0.552633796073253 0
0.41123644641469 0.478996051712802 0
0.558717846801634 -0.269009714868921 0
0.29492027992918 -0.569810846402475 0
0.127840529882361 -0.60865389319997 0
-0.114207042577946 -0.572527188167248 0
-0.331854337057086 -0.513580272813454 0
-0.528542020863813 -0.22032439857795 0
-0.563771714375242 -0.185317667089026 0
-0.59185221607924 0.0577548149656424 0
0.261428658018551 0.476303638886928 0
0.36900583203587 0.438469672806986 0
-0.259787736238182 -0.489643883341654 0
-0.45306983592645 -0.296638213862316 0
-0.513212137691569 -0.155246992216002 0
-0.575439815347197 -0.0291449869869473 0
-0.0945830380231008 0.562409294859248 0
0.0481125878277507 0.534858743228032 0
0.331257251835006 -0.36506018296158 0
0.329932643618063 -0.466488534459957 0
0.247766856045849 -0.512718514524543 0
-0.221066572476045 -0.50960834379936 0
-0.298506025728985 -0.393410305661651 0
-0.453694210685214 -0.176501625851772 0
-0.260127682894853 0.414541782142035 0
-0.203941874459503 0.499167881791121 0
-0.133810436766841 0.499203921816607 0
0.0901098448004029 0.479668065903339 0
0.441965704217342 0.281027578001522 0
0.483978597491154 -0.147922013604573 0
-0.410858386643889 -0.254627249945982 0
-0.393800852020997 0.193711070208006 0
-0.334359075815021 0.271078319484091 0
0.456270957087917 0.108039927640812 0
0.439386142246261 -0.0746467413164015 0
0.458710512872923 -0.109602328275652 0
0.418674569264838 -0.276015820080509 0
-0.358051634050891 -0.189939312035312 0
-0.422605309940046 -0.0178528633245793 0
-0.394336825820257 0.042661067327841 0
-0.419721251270807 0.100647460440561 0
-0.410047686163871 0.138743359279515 0
-0.308590833783037 0.238651231616064 0
-0.11351965423737 0.440280889488539 0
0.377012312978056 0.261144927220066 0
0.128531247013324 -0.422848979573966 0
0.0454550875625233 -0.410986472819892 0
-0.0512049432444964 -0.390985481926353 0
-0.168090838357794 -0.340677129546692 0
-0.370884947843345 -0.155843450388001 0
-0.393003204776433 -0.0977495446105237 0
-0.0285429917357784 0.410886476926832 0
0.0520329962366958 0.384261622121864 0
0.205513737834422 0.324886637696378 0
0.403258248482856 0.0776994501451791 0
0.35190048189176 -0.21870467860675 0
-0.041060969141653 -0.320147873733883 0
-0.220236820497977 -0.260937310541296 0
-0.313657959412118 -0.168013023304971 0
-0.353504061340614 -0.00364326625212383 0
-0.332894700881448 0.0539627774140244 0
-0.367262648545666 0.089561840690599 0
-0.360364388394878 0.13685667898909 0
-0.270261063328366 0.280951037130592 0
-0.0253416783271101 0.339710737994407 0
0.0295071532318036 0.326218242897788 0
0.273207874756574 0.185483363028428 0
0.331042830687251 0.0956579773351684 0
0.356709998391617 -0.00501233199105961 0
0.224535468652894 -0.266358736503383 0
0.157261168441706 -0.318135654810172 0
-0.279148645867903 -0.133257398988177 0
-0.337873523552654 -0.0909662979842032 0
-0.30496977690485 0.0176564188088121 0
0.167817710014625 0.291344833014942 0
0.282256625117884 0.111949873884557 0
0.194741275282521 -0.233474067046661 0
-0.0644621441325224 -0.260307803496387 0
-0.207339494458165 -0.216102747398248 0
-0.249175263682678 -0.04828693202586 0
-0.266911494182736 -0.00260953788008682 0
-0.183152552556234 0.243688909229095 0
0.207527466388089 0.233592941849716 0
0.18847503285984 -0.174651011160056 0
0.138381063022341 -0.25592843613896 0
-0.112041075526305 -0.232133597361458 0
-0.251987562994468 0.0389823420066915 0
0.243730168396619 -0.0910108940701076 0
0.0579463836271929 -0.252276370048792 0
0.122939611046397 0.173736671073053 0
0.170516214026489 0.091244366530714 0
0.0973895682776296 -0.217460614247934 0
-0.0768671360311032 -0.183218098475395 0
-0.0724179028972436 0.186156035656507 0
0.138559387550069 -0.104722091086167 0
0.10171904627711 -0.147539594033486 0
-0.141825903316316 -0.0478918436022061 0
-0.144359409490667 -0.00197743290519449 0
0.123008438551376 0.065960220468643 0
-0.0224494242391979 0.0183063149011889 0
0.935690371398066 -0.352822234096648 0
0.0819301284944745 -0.996638075755125 0
-0.30961212461669 -0.950862940854432 0
-0.548992362884696 -0.835827365844334 0
-0.80403533348338 -0.594581518809885 0
-0.874363360831597 -0.485271793158508 0
-0.954802317636396 0.29724154190854 0
-0.762456378976611 0.647039620238108 0
-0.50938640951172 0.860537904920381 0
-0.369761394130523 0.929126746687798 0
0.0306266766773742 0.999530893307305 0
0.179556065243687 0.983747741768287 0
0.770802521303034 0.637074150435321 0
0.887740206242936 0.460344790586088 0
0.99169939927383 0.128577997650936 0
-0.0121077089064186 -0.0119487456696418 0
-0.0231435778946195 -0.86058594279992 0
-0.145022103476428 -0.871836657417249 0
-0.253284222062254 -0.885705368386887 0
-0.329373851805757 -0.856071531565113 0
-0.426798988931326 -0.811672080452934 0
-0.742070068482203 -0.670322320576316 0
-0.841538876691651 -0.38853087097816 0
-0.892156182954573 -0.152806133161683 0
-0.756096297082535 0.554304285200172 0
-0.640269287956596 0.658375765200708 0
-0.584739143063131 0.713420833418499 0
-0.422605099873856 0.715657693330621 0
0.317096242456935 0.878635418076184 0
0.42397590799223 0.822690342103529 0
0.623754263829118 0.669552593498854 0
0.761137487163406 0.526267079431344 0
0.906154015622942 -0.131585653851124 0
0.889544395454498 -0.456848737018603 0
0.775705028943345 -0.487360367295349 0
0.650218678054234 -0.630526808808806 0
0.620014038285137 -0.675954240419822 0
0.435623296520605 -0.787831474238289 0
0.238658526823534 -0.902045503377513 0
0.0659915054174428 -0.903163404984914 0
-0.425873201886835 -0.715011092824276 0
-0.511782291720191 -0.701986389958357 0
-0.649222039237327 -0.48292584519638 0
-0.75423119817761 -0.415296878400601 0
-0.845215951277049 0.129327129372832 0
-0.829362381452593 0.215370140268994 0
-0.783354022743472 0.375021696240296 0
-0.346153117490349 0.818003843457888 0
0.0311804025526892 0.855058976536337 0
0.232185617384279 0.872594638781641 0
0.681034347616719 0.45019769202418 0
0.867406269326474 -0.016939797192307 0
0.719448398488713 -0.479605969562345 0
0.663288113623871 -0.559101268675292 0
0.564834799202475 -0.666968230082615 0
0.488085653489364 -0.727097406981264 0
0.363812410145494 -0.734153545830007 0
0.189489319687605 -0.814497665067506 0
0.00573563159507988 -0.791080582932714 0
-0.73341616574449 -0.238918810693314 0
-0.751814177214006 0.234458929247333 0
-0.706541549903858 0.294771476667609 0
-0.61703547315879 0.567549037349664 0
-0.485881484550219 0.654285775604958 0
-0.244843284210986 0.725110737460805 0
0.0279983076713197 0.750186408464958 0
0.27449824763911 0.718029637209356 0
0.360044317417165 0.694066891043369 0
0.765905443370653 0.208788384547017 0
0.79499936558708 -0.0175273343961426 0
0.824279623218936 -0.0746843006621627 0
0.781766181294933 -0.140743521687106 0
0.785192154974756 -0.194103675490049 0
0.718068068709935 -0.190504503681902 0
0.646848957538228 -0.389977429542766 0
0.569798639290089 -0.46727927536059 0
0.178640795516673 -0.754419078518059 0
0.0917652673158215 -0.750831622147817 0
0.0325928480431596 -0.817388686748279 0
-0.741037235049702 0.131783823455253 0
-0.662858991451933 0.333099069792257 0
-0.597972316994008 0.47506892708058 0
-0.43452006704411 0.571699583587167 0
-0.0480173800719225 0.722051349521059 0
0.545777533949428 0.468621356598479 0
0.624624023947611 0.429946134177631 0
0.282363122258731 -0.710700227214944 0
-0.200541114985344 -0.681344079236534 0
-0.504221036566526 -0.453422262576968 0
-0.685879387505731 -0.187892330338118 0
-0.678541237927742 -0.130789417095447 0
-0.64495621630366 0.187463423910155 0
-0.617866093514827 0.297545068125126 0
-0.399513556863783 0.611017995553773 0
0.169843287391834 0.710168530519344 0
0.202836616765437 0.63884919003874 0
0.397426401041456 0.534251227025599 0
0.449791342388855 0.53522301256553 0
0.56893415862342 0.40965073519137 0
0.602951018410533 0.353148944748359 0
0.705699564505996 -0.0175769282243254 0
0.707019475368895 -0.0820619497844713 0
0.673708986427172 -0.151983183116126 0
0.611275823715928 -0.240746854554784 0
0.609831269613165 -0.311540153850869 0
0.4546235066601 -0.574258886356671 0
0.370838983148576 -0.585748070037912 0
-0.0115537387820158 -0.65348316419625 0
-0.430644088132141 -0.464901494285274 0
-0.539413912563693 -0.374730627288401 0
-0.619853861776112 -0.112137248758341 0
-0.632690763891615 -0.0681788331151129 0
-0.648269491025376 -0.0201759753026276 0
-0.537157324049741 0.321096399755493 0
-0.28779490608104 0.577975248126678 0
0.47860403113073 0.476023925239337 0
0.615193731492641 0.00927532273149202 0
0.630521585497808 -0.0920028896477957 0
0.216887758592245 -0.611545600894477 0
-0.292397143435353 -0.557741635002351 0
-0.533426713091593 0.239468042924845 0
-0.358323840501359 0.484354393804968 0
0.0510533155946034 0.589582592956677 0
0.192413391050847 0.544678314965347 0
0.338696032782873 0.492380631419464 0
0.445874638666783 -0.425387502883438 0
-0.093280873875216 -0.528671768205945 0
-0.552482308071604 0.0406929622512794 0
-0.394076572813646 0.398195858103733 0
-0.138881812372816 0.572241349603882 0
0.202066782106373 0.481599772639445 0
0.472811757385373 0.362141447992073 0
0.577972280620418 -0.102228088648733 0
0.558625549894452 -0.174502827661841 0
0.4906074902188 -0.283092060160122 0
0.45899392778126 -0.360344778263499 0
0.38988677935656 -0.352706084905432 0
-0.511330925282257 -0.0461608140251347 0
-0.503518086703753 0.00813331931227396 0
-0.448080532426626 0.23533215683794 0
0.315235080962911 0.443598284675058 0
0.281559027060275 0.420129484450486 0
0.506935251712831 0.151524099889358 0
0.503315542022523 -0.037777372743837 0
0.502350100070936 -0.214507329137927 0
0.279048371426653 -0.463700129016771 0
0.0270775429749382 -0.518620015148284 0
-0.0177536229855106 -0.507388640883176 0
-0.412647105537921 -0.185220673781678 0
-0.418501389696125 -0.127127867044426 0
-0.40107378879727 0.252849951987474 0
-0.331940935320068 0.331309937617478 0
-0.0012950929982282 0.466042429041851 0
0.127928062294128 0.459676659037056 0
0.0839550599228168 -0.458918409811478 0
-0.473603746179951 -0.0609758397165983 0
-0.369724902502401 0.280970780011877 0
-0.164955465747997 0.411620546082846 0
0.241906418115397 0.371333705520836 0
0.415988350360358 -0.23121454857242 0
0.267927237830717 -0.289519298871811 0
0.235019618075465 -0.352946966424248 0
0.00306491766209477 -0.384861654294035 0
-0.107608201978971 -0.393288168933108 0
-0.236636508715069 -0.353514336662501 0
-0.285742693071302 -0.302377184963329 0
-0.133982814823104 0.341019815456431 0
-0.0702518794540288 0.380968176029751 0
0.226289113429127 0.296223369221876 0
0.303230778046224 0.299425734300306 0
0.319410903924687 0.234866625423551 0
0.381861656542137 0.216291151897143 0
0.360026934926743 0.137890639894538 0
-0.379800801033308 -0.0482734291428988 0
-0.274887403026237 0.215211593400893 0
0.116932780014463 0.302882319611861 0
0.264943127965703 -0.226943634312333 0
0.0624842436649238 -0.364379841497397 0
-0.30160739704965 0.113849602620108 0
-0.263228134916529 0.154571781148998 0
-0.234160946038217 0.235392346836248 0
0.285471218629446 0.0621171273122348 0
-0.151754510254628 -0.251417904792395 0
-0.230689628184804 -0.11116541432111 0
-0.288334525752193 -0.0962928185863492 0
0.154672143281927 0.217046925825889 0
0.207647270419887 0.178074640486507 0
-0.236518477163365 -0.171358715058014 0
-0.214282165173203 0.143481774813259 0
-0.142019193510454 0.268305020688314 0
0.0177853710909928 0.27741969939813 0
0.212461650219947 0.137037914448967 0
0.0292762192056293 -0.276843347606048 0
-0.136778366954155 -0.195626324068096 0
-0.184368752968058 -0.175166398688949 0
-0.205307995288007 0.0680398886464194 0
-0.0268294535995076 0.209223007519203 0
0.0296987066573476 0.212822076930171 0
0.20441951137086 0.084339794726009 0
0.137991791647267 -0.168527637126866 0
-0.126164252022014 -0.131822442390741 0
-0.187145918913797 -0.028375301762928 0
-0.112336488583186 0.179150491089438 0
0.147095451153143 0.0279866363091861 0
0.195552032888028 -0.00496825127118906 0
0.0485225147195176 -0.174019000629038 0
-0.073910426150254 0.131893271246192 0
-0.0474819506453738 0.159369056194148 0
0.116534670875036 0.00562714460229126 0
-0.129308822403141 -0.0990050436955537 0
-0.0482404018070717 0.110489266283026 0
0.0727328519793872 0.0874814135855756 0
0.0748246075425728 -0.0999939794580853 0
0.00479720482816208 -0.118811191709368 0
-0.000809413416538367 -0.0671458824006501 0
0.0361783679341997 0.087872372834758 0
0.0553317847286362 -0.0614010840810623 0
-0.0385200717742743 -0.0495926595069192 0
0.0380555056432002 -0.0139707189327705 0
0.812873963464121 -0.582439627362468 0
0.712000054702467 -0.702179408772206 0
0.42921385674393 -0.903202892587818 0
0.389489373793534 -0.855552999891295 0
0.289399301696199 -0.957208464326216 0
0.195122615387348 -0.980778856299625 0
0.0140162068806427 -0.933570652273689 0
-0.179545386184589 -0.983749690876611 0
-0.425059363825192 -0.905165475051122 0
-0.516678496437153 -0.778057114196478 0
-0.652024929678889 -0.758197527744083 0
-0.614291474725431 -0.696290035555111 0
-0.744348324427832 -0.573551633407523 0
-0.934767879595255 -0.355259076276723 0
-0.923214930592802 -0.197285247557193 0
-0.991174138283665 -0.132566313962614 0
-0.958023273901827 -0.0494744983778426 0
-0.998045810699312 -0.0624864765013484 0
-0.982373113398159 0.186930645086376 0
-0.876349993245475 0.357869974158939 0
-0.918501052130873 0.395418534257665 0
-0.85101969913554 0.525133765514327 0
-0.70409463524673 0.618522450895447 0
-0.704595322557209 0.709609351284566 0
-0.417396186882188 0.908724613497516 0
-0.299298722125234 0.954159459909192 0
-0.272914969427483 0.881797859151032 0
-0.180032254601778 0.924788978162974 0
-0.0860727732135707 0.996288852547957 0
0.0525542413278533 0.93813754952671 0
0.164422513108289 0.899098128709541 0
0.3134627995393 0.949600480889192 0
0.435791948634142 0.90004743069777 0
0.550597071046818 0.834771145497175 0
0.515419187727264 0.759975653224911 0
0.820471324338252 0.571687682164515 0
0.858538272626522 0.342427121868718 0
0.943443933632077 0.331532116231343 0
0.903234475197121 0.260618610263776 0
0.976852616708733 0.213913452660884 0
0.88356030395422 0.17074957902053 0
0.937830436009861 0.163493627974638 0
-0.0774425907790858 -0.932773757125647 0
-0.649648004500623 -0.580416459891068 0
-0.889756406532975 -0.270503030061068 0
-0.823895826444851 -0.216149941357682 0
-0.891487129077633 0.0240353992965376 0
-0.903304183739994 0.256522541415379 0
-0.535497082401521 0.752638599521033 0
-0.463217841874616 0.805384598623322 0
-0.159763547245133 0.870650709406878 0
-0.0739084790693914 0.917978399686758 0
0.103011107504373 0.896674761168654 0
0.356178540053087 0.814488334425625 0
0.709200730890008 0.540235116975235 0
0.814359834938958 0.446236701118183 0
0.887678841191341 -0.195451370902907 0
0.819814457207946 -0.288231829796546 0
0.829850484872735 -0.364334477000293 0
0.581909211654645 -0.730301000074729 0
-0.0718816685615992 -0.844599792322275 0
-0.276060790648629 -0.810605074787519 0
-0.324493728145403 -0.751242734022032 0
-0.567174302597523 -0.622471118186105 0
-0.701793596082709 -0.479166699265948 0
-0.796720355732873 -0.296942915533758 0
-0.84652138319634 -0.0756121918651496 0
-0.806942995427932 0.298130090360466 0
-0.534782197110531 0.632272363585256 0
-0.32902946666381 0.724243029872901 0
-0.17880252397597 0.783175241990274 0
-0.100980526492177 0.788853254241287 0
0.0938311630807928 0.816910636673961 0
0.174683436963286 0.774428681241061 0
0.417990684624192 0.721915045119889 0
0.478853426401862 0.76180828969585 0
0.589804104614916 0.592137153486509 0
0.642267124852329 0.509531281107993 0
0.705081175395198 0.407463845177369 0
0.752379565617563 0.361224433128079 0
0.812849067018912 0.263971627456734 0
0.817600388618173 0.163269052847714 0
0.757094149545386 -0.284293928675565 0
0.724883097574312 -0.379813640404894 0
0.56604311860792 -0.606760824738514 0
0.343821637731078 -0.804635061058969 0
0.263790236850458 -0.826443424606696 0
0.148792579710701 -0.907985100222557 0
-0.16340858360997 -0.807164284850509 0
-0.148370415612037 -0.687181367783599 0
-0.369907830201139 -0.667415580553762 0
-0.464628526895145 -0.635474571852239 0
-0.499616068355762 -0.570637675850709 0
-0.590671998712965 -0.540887319288066 0
-0.679431372765017 -0.362830911458117 0
-0.714594529014936 -0.312851571495027 0
-0.798837316282404 -0.161686831729176 0
-0.752032280323971 -0.0417622105759811 0
-0.793101253059334 0.0731128128077006 0
-0.0340768134828184 0.825408580709748 0
0.337953586044178 0.751563927034809 0
0.495682619405234 0.593517419627158 0
0.53318063452721 0.561948129688899 0
0.580002977890894 0.522141400509279 0
0.662653290826652 0.337584118609845 0
0.764383179123404 0.133675300732792 0
0.63994088316009 -0.47698325038407 0
0.461415639823722 -0.636346512628531 0
0.267360069487035 -0.763628791613974 0
-0.0327701475890239 -0.741869455322841 0
-0.0601367310805902 -0.694656710026374 0
-0.211377448884936 -0.774887354297874 0
-0.283973644149098 -0.700076462099418 0
-0.547040250818215 -0.507706046327445 0
-0.579882040119299 -0.461484415423741 0
-0.643732484272638 -0.268132676794795 0
-0.742459503143423 -0.137114409680272 0
-0.734738551956615 0.0520322009793885 0
-0.705285181925204 0.156746776663567 0
-0.617319472849578 0.397153296568594 0
-0.551854995514057 0.449602764551059 0
-0.527057663625152 0.522001893896972 0
-0.531496020758355 0.569158750836073 0
-0.300322500178774 0.684798222722727 0
0.0945530747260188 0.7465245146999 0
0.0746335888941064 0.697535472250142 0
0.392253635401498 0.63850243584918 0
0.777120235572559 0.057917591617118 0
0.751877162695435 -0.015763887728118 0
0.759001865365367 -0.0906661592915752 0
0.403143810058802 -0.627946695408252 0
0.132859545521301 -0.701213005304387 0
0.0390895722824938 -0.706964555191429 0
-0.247555829578246 -0.64802836014158 0
-0.461224371444772 -0.517699285396922 0
-0.601768421401551 -0.349808755606889 0
-0.634175130650565 -0.182625909474859 0
-0.655925439560129 0.0875123600238398 0
-0.629668274717372 0.112786997958298 0
-0.493637136649916 0.450747905131518 0
-0.465731489129828 0.514003814389059 0
-0.327649425373611 0.563614456166942 0
-0.24720784137589 0.624311172054222 0
-0.126918335828757 0.64463281072287 0
0.0140735686162357 0.666290625918261 0
0.696767154158665 0.181263644123966 0
0.63854230953613 0.125029542918845 0
0.706437170808618 0.102483105488448 0
0.651429513964861 0.0211622945796382 0
0.557523035863899 -0.347747637686696 0
0.530768470772393 -0.411974830275352 0
0.452007131619751 -0.5253789684602 0
0.480473526247033 -0.482806225131959 0
0.397601446290058 -0.512291780708324 0
0.162118983824899 -0.656420452035322 0
0.0863202428157727 -0.659005035833516 0
-0.0723733608119166 -0.634508448402111 0
-0.244693650065245 -0.590472014814384 0
-0.382035682926146 -0.536306275959845 0
-0.49717274212635 0.397202602341756 0
-0.424935178502147 0.507303463606673 0
-0.367961974456333 0.53337628752775 0
-0.197767211505331 0.64737547457699 0
-0.0379554537677867 0.651724975658858 0
0.0692855172474138 0.639013026865753 0
0.23767245718874 0.64138183803583 0
0.50468870689327 0.435486018562045 0
0.544713597214483 0.342742146270791 0
0.545485898649228 0.281178220409894 0
0.565773329316812 0.239040703332082 0
0.653972821785321 -0.0469245236482913 0
0.615847965053846 -0.170246693441087 0
0.420508303968493 -0.465741566025746 0
0.0570161767652238 -0.642826153332906 0
-0.00865026607612283 -0.598214448301078 0
-0.0552607341053707 -0.586076188849432 0
-0.200391979345514 -0.569870966884869 0
-0.45222098971894 -0.395228483704013 0
-0.495503942402222 -0.33544573341006 0
-0.570740890546071 -0.106498165975121 0
-0.585629651954388 0.142798507282921 0
-0.518688551613572 0.361562291256035 0
-0.412384315679523 0.46246785094307 0
-0.299932069862184 0.489817716372671 0
-0.245593370830425 0.529931261511587 0
-0.179393398760365 0.556576569480242 0
-0.0536971971677753 0.583603511819072 0
0.00216015539040144 0.606187050564378 0
0.128995438365229 0.570525276213336 0
0.242993605060149 0.547116132969573 0
0.288904955727791 0.533668934686778 0
0.439289228297739 0.407065500810662 0
0.561738040949302 0.180313404480344 0
0.60378045963298 0.182821220562136 0
0.56899899095102 -0.0355738367295208 0
0.337616905030561 -0.51770275692233 0
0.191961502333342 -0.572295470274045 0
-0.15123383803924 -0.51225392590377 0
-0.310328217660947 -0.458502272873085 0
-0.374067829724126 -0.461808829502075 0
-0.490096220195302 -0.256985459223706 0
-0.543116587584766 0.0922865373504934 0
-0.550821883478943 0.167238501631453 0
-0.485167869541465 0.257528747247444 0
-0.450362851253029 0.351419063256467 0
-0.427565039838323 0.408363057232882 0
-0.332881840212151 0.442670677662493 0
-0.00504121809184147 0.534857973301184 0
0.0910390306305229 0.539466520956255 0
0.506374177197651 0.295985510834916 0
0.511314035640475 0.208067337794065 0
0.562923627165366 0.105812561974614 0
0.527310006377481 0.0797219852192192 0
0.552068318604555 0.0156618017990899 0
0.524000508904621 -0.100051436736574 0
0.416932906874052 -0.318663842798635 0
0.367907867595776 -0.423892245507804 0
0.114956372530484 -0.551499540790773 0
0.0628153789305614 -0.531020651068135 0
0.00600626023899787 -0.566245143714174 0
-0.202952887994579 -0.45058254500947 0
-0.388742724107054 -0.394968550644522 0
-0.34565685711502 -0.38585162852394 0
-0.361938361159853 -0.340872112112271 0
-0.413688154988582 -0.327388750928946 0
-0.461480028778077 -0.216408670165872 0
-0.496345632014108 -0.123572601156453 0
-0.507129024453004 0.0629611003283016 0
-0.47245623819942 0.125243410709546 0
-0.494985188155505 0.193985081874516 0
-0.338169284134342 0.390465255195802 0
-0.258905778391236 0.459055422281502 0
-0.0666034207133882 0.488049324956418 0
0.215616868601153 0.426223104019926 0
0.371948602486441 0.396540079744642 0
0.405366960883137 0.341316922364603 0
0.450623960048021 0.232821246691837 0
0.490093175754315 0.0187433235742622 0
0.169005789233426 -0.517683219042349 0
-0.074950169609733 -0.459459067519949 0
-0.140175676986233 -0.44000482204505 0
-0.257528896783218 -0.412461519970206 0
-0.299892037298438 -0.331338917016026 0
-0.441115981241528 -0.0959933162636274 0
-0.455141464093187 0.0529933767631667 0
-0.39219933351125 0.322565731902971 0
-0.289227903502226 0.354575206219114 0
-0.244641054471197 0.369666248979386 0
-0.18544494999982 0.451231790952933 0
0.0483866002158878 0.462954410710867 0
0.171359378721456 0.436953951132025 0
0.35516408056863 0.321580974033238 0
0.412854426079232 0.184830453124543 0
0.445266205674249 0.181681650347009 0
0.445675669182523 -0.1897838287968 0
0.299369472933511 -0.316344612818294 0
0.285567908806626 -0.405467232232969 0
0.219304555110748 -0.445588906657139 0
0.138080428677114 -0.490054978877504 0
0.0437353013370487 -0.46908933109394 0
-0.0126887638708074 -0.426443774613982 0
-0.179684294720417 -0.393159011168098 0
-0.368033702648228 -0.231156112556496 0
-0.422753659952568 -0.0637775507055332 0
-0.459646036961524 -0.00822726840905889 0
-0.356509169686889 0.215578017295312 0
-0.193835364760366 0.36069963691024 0
-0.0538911746795701 0.44567245997996 0
0.112823199172779 0.398910204478701 0
0.294425706749165 0.358574872463553 0
0.404372300211963 0.138836068056863 0
0.410147457805279 -0.0632185155310702 0
0.396426691158174 -0.162693978069033 0
0.358072891705156 -0.294099295457203 0
0.180707142618713 -0.387020862955393 0
-0.332712729051127 -0.26842941343554 0
0.0074882376261683 0.403746410218695 0
0.17082592753287 0.372785145819912 0
0.411606172473268 0.0262637175081333 0
0.435428701695669 -0.0103906381144499 0
0.377829150314826 -0.0333943182697174 0
0.380637147631971 -0.098265160880201 0
0.316659709062873 -0.229966008928256 0
-0.0714474597904405 -0.349917884557322 0
-0.221810577786759 -0.311965380366116 0
-0.277123864803881 -0.235214039754003 0
-0.340895264400968 -0.12782479944894 0
-0.320501546583143 0.1682933128166 0
-0.204849559619207 0.286465552744666 0
-0.14183945939616 0.375810179452098 0
0.0753107706236048 0.34634047719704 0
0.246586518583511 0.231570015202776 0
0.327106110516825 -0.0471789584126487 0
0.336523404399495 -0.150898446983908 0
0.201047446633624 -0.294683851866088 0
0.0750331743865561 -0.314435336367033 0
-0.173320559105541 -0.292226356107819 0
-0.274461401160011 -0.192395815416915 0
-0.220637234691272 0.185135418148565 0
-0.16184499465746 0.317261535223239 0
-0.0732823418546891 0.333054164843349 0
0.11851189555734 0.269033816783518 0
0.259340229142982 0.118412570990244 0
0.343719026055283 0.0372545127065662 0
0.300924722366218 0.0164191015209916 0
0.294336183300626 -0.0970802802495105 0
0.274871027127105 -0.167820618524569 0
0.104866662496911 -0.286182923609933 0
-0.0933471933141329 -0.287648354733807 0
-0.278823055595556 0.0755334744142096 0
-0.124804221026925 0.233239350571363 0
-0.108922794285043 0.28532754857433 0
-0.0664341703908473 0.272946849169504 0
-0.0138957478602205 0.301634574607987 0
0.0707879899258243 0.28525882525041 0
0.104630876544508 0.236905910286598 0
0.26993785262166 0.0146364502076336 0
0.258641446151165 -0.0331643341339955 0
0.237003107681506 -0.151392851251384 0
0.230983523210259 -0.197981791189853 0
-0.0208973093118448 -0.26613952365888 0
-0.238827818470277 0.0906989836889465 0
-0.0655672839421707 0.231073168298061 0
-0.00687135499251871 0.243242337268128 0
0.0410457199834334 0.245834781101048 0
0.18965478348322 -0.126521041779184 0
0.152638168402222 -0.206331722408346 0
-0.00596084738440531 -0.228256775892558 0
-0.212955263338809 -0.000927829950671772 0
-0.180917888786542 0.120023539316423 0
0.0771987969490568 0.203278293475039 0
0.157317183029606 0.1513333725336 0
0.212779814152142 -0.0730051707339954 0
0.0494730059383524 -0.217910791665696 0
-0.0283038466800015 -0.191552167476576 0
-0.172902047726298 -0.0691349332749927 0
-0.175554952165253 0.0340567870793811 0
-0.147838986205126 0.0776302866201582 0
-0.138190771751872 0.117796252563359 0
0.0348014073365127 0.175286723270356 0
0.0745328790692123 0.161737154150978 0
0.0636857228136029 0.135015598632317 0
0.121845160727987 0.114073929556996 0
0.198322081218453 0.0446401489888723 0
0.00739699598355554 -0.189842994816125 0
-0.00113088364402859 -0.142255056203375 0
0.142049431455757 -0.0329032279239875 0
0.174888498445219 -0.0515775705296481 0
0.108889451395938 -0.0713528851383507 0
-0.0402305802262132 -0.127510015723598 0
-0.0918177923602344 -0.0376069512826641 0
-0.0891555071920889 -0.00262994929220503 0
0.0882380288739322 0.0431582757633396 0
0.105035734117834 -0.0284593170393052 0
0.0399130411474981 -0.131401763578997 0
-0.0573514046290485 -0.0150237032164271 0
3 476 54 53
3 236 237 421
3 423 57 422
3 507 202 425
3 219 203 427
3 466 64 2
3 230 452 229
3 475 456 214
3 200 216 419
3 245 438 64
3 487 247 439
3 476 477 54
3 478 235 234
3 505 71 423
3 531 481 219
3 516 486 224
3 493 7 250
3 70 252 5
3 273 477 476
3 502 503 478
3 75 256 8
3 279 217 240
3 262 281 72
3 539 282 65
3 266 544 492
3 585 100 267
3 306 550 527
3 96 97 287
3 291 312 10
3 293 11 281
3 315 562 94
3 305 569 275
3 311 291 556
3 602 580 560
3 589 89 88
3 613 566 89
3 581 322 603
3 606 627 607
3 610 111 325
3 297 325 102
3 587 629 588
3 568 95 317
3 18 639 594
3 596 617 122
3 598 114 620
3 116 339 328
3 126 127 605
3 13 335 336
3 327 659 617
3 328 339 647
3 622 648 649
3 335 345 360
3 637 678 638
3 647 664 648
3 340 20 132
3 668 358 144
3 672 690 673
3 134 155 22
3 679 680 348
3 681 149 365
3 352 357 133
3 134 690 155
3 694 32 146
3 151 173 374
3 703 728 29
3 698 723 169
3 361 377 170
3 147 378 363
3 32 171 727
3 715 727 189
3 734 744 735
3 185 746 192
3 764 754 747
3 394 401 39
3 748 756 396
3 752 195 745
3 400 196 192
3 192 406 753
3 753 406 764
3 394 193 401
3 35 410 755
3 749 757 758
3 403 758 44
3 397 408 41
3 196 42 406
3 757 756 43
3 758 757 44
3 44 411 407
3 191 762 199
3 405 404 766
3 195 767 768
3 410 40 46
3 198 197 770
3 44 43 49
3 411 47 45
3 766 409 773
3 48 417 415
3 5 52 0
3 52 233 53
3 233 476 53
3 462 59 427
3 204 429 430
3 432 205 222
3 464 434 60
3 434 224 435
3 467 207 438
3 225 442 208
3 468 469 209
3 444 248 210
3 446 447 445
3 447 448 4
3 471 211 448
3 212 472 450
3 456 458 457
3 457 458 459
3 461 215 459
3 419 216 415
3 218 508 219
3 221 241 429
3 464 465 434
3 224 486 436
3 467 487 439
3 3 72 65
3 442 263 226
3 468 264 228
3 475 499 456
3 460 5 461
3 478 503 235
3 256 238 56
3 238 257 505
3 217 259 480
3 463 483 513
3 244 515 485
3 246 261 487
3 487 262 247
3 248 489 6
3 470 519 471
3 472 249 492
3 472 492 450
3 7 473 229
3 494 73 495
3 454 73 68
3 499 500 456
3 269 501 500
3 70 547 252
3 272 273 476
3 255 8 256
3 508 509 531
3 532 482 481
3 482 532 510
3 513 534 243
3 78 518 466
3 78 537 518
3 245 518 79
3 542 264 488
3 490 86 491
3 493 295 267
3 493 267 7
3 520 268 494
3 494 546 73
3 521 522 73
3 497 286 251
3 499 524 80
3 547 270 252
3 270 549 271
3 275 526 253
3 74 9 504
3 533 289 534
3 534 85 243
3 517 537 78
3 280 538 79
3 538 93 261
3 282 541 542
3 541 560 542
3 283 294 264
3 562 582 265
3 265 86 490
3 522 285 523
3 522 316 285
3 523 286 497
3 286 524 498
3 565 567 525
3 549 274 272
3 550 307 83
3 287 97 528
3 509 14 288
3 553 577 91
3 554 309 289
3 310 555 85
3 93 293 262
3 293 314 11
3 561 315 94
3 564 584 545
3 545 295 544
3 545 584 12
3 299 587 300
3 565 566 567
3 567 95 90
3 301 590 302
3 591 304 81
3 276 572 9
3 276 570 572
3 572 571 9
3 572 592 571
3 571 592 573
3 83 104 96
3 96 319 97
3 552 308 529
3 91 107 578
3 310 98 555
3 92 99 557
3 297 102 298
3 586 587 299
3 89 589 613
3 318 590 614
3 576 595 106
3 619 641 309
3 98 598 620
3 556 109 599
3 601 624 579
3 625 329 602
3 561 603 604
3 582 605 330
3 583 606 607
3 591 333 334
3 103 334 345
3 570 13 336
3 573 120 615
3 104 615 121
3 105 616 637
3 593 105 18
3 595 348 327
3 106 327 617
3 618 123 642
3 641 619 642
3 108 620 645
3 109 115 599
3 116 599 338
3 608 628 19
3 609 324 331
3 611 654 655
3 332 655 129
3 629 129 656
3 612 630 343
3 17 632 633
3 333 634 334
3 615 120 346
3 120 676 346
3 18 638 639
3 639 638 347
3 643 23 644
3 646 356 338
3 126 651 668
3 354 670 19
3 111 653 342
3 655 654 671
3 633 657 344
3 635 693 337
3 636 119 676
3 346 676 677
3 638 679 347
3 646 350 663
3 647 339 664
3 648 142 20
3 125 667 358
3 655 671 145
3 632 134 22
3 344 135 136
3 130 136 692
3 659 680 148
3 661 681 365
3 663 350 151
3 663 683 356
3 684 140 664
3 667 686 358
3 358 709 144
3 353 696 669
3 24 153 688
3 670 688 697
3 697 154 359
3 671 370 145
3 136 701 692
3 355 146 147
3 364 29 149
3 139 374 160
3 133 143 164
3 688 153 710
3 370 711 371
3 699 700 691
3 702 377 361
3 363 33 157
3 25 717 159
3 159 172 706
3 140 161 162
3 707 380 375
3 375 381 164
3 26 164 708
3 164 381 708
3 709 367 720
3 154 27 175
3 27 376 175
3 28 167 30
3 156 713 702
3 149 29 716
3 29 728 383
3 161 174 729
3 720 731 732
3 710 734 376
3 175 386 183
3 168 382 723
3 169 723 724
3 169 724 712
3 157 740 178
3 728 186 383
3 179 383 394
3 385 384 180
3 731 390 730
3 183 386 387
3 168 176 382
3 724 382 736
3 739 184 177
3 177 184 746
3 727 192 189
3 384 36 180
3 187 181 748
3 741 749 389
3 750 735 744
3 188 745 738
3 394 186 193
3 39 410 35
3 35 755 36
3 36 384 35
3 36 402 180
3 396 757 749
3 749 758 37
3 743 397 398
3 744 398 750
3 398 760 750
3 190 735 750
3 392 751 191
3 763 38 399
3 769 193 754
3 40 401 193
3 410 39 401
3 410 197 755
3 402 198 756
3 44 407 403
3 759 761 760
3 763 399 191
3 195 752 767
3 196 400 195
3 408 45 41
3 42 48 774
3 765 406 774
3 770 197 410
3 411 44 49
3 49 47 411
3 770 46 418
3 416 45 47
3 773 409 51
3 51 419 773
3 216 418 415
3 418 216 775
3 200 775 216
3 50 47 200
3 50 419 51
3 52 53 0
3 54 478 201
3 237 479 421
3 56 423 422
3 57 423 71
3 219 220 203
3 221 204 428
3 431 222 430
3 436 466 2
3 467 439 207
3 226 227 61
3 227 468 61
3 209 469 444
3 450 250 212
3 250 229 451
3 230 495 453
3 68 231 62
3 231 69 62
3 461 5 215
3 50 200 419
3 426 217 462
3 462 480 218
3 218 219 59
3 219 481 220
3 431 463 222
3 223 464 433
3 486 466 436
3 3 225 441
3 226 488 227
3 447 470 471
3 471 249 449
3 69 474 213
3 500 460 458
3 5 252 52
3 52 252 233
3 54 477 478
3 254 236 1
3 237 255 479
3 479 256 56
3 71 505 506
3 480 77 218
3 463 243 484
3 465 516 224
3 245 79 246
3 263 542 488
3 228 67 469
3 6 490 470
3 450 493 250
3 495 73 454
3 73 496 68
3 496 497 69
3 497 251 474
3 251 498 232
3 252 270 271
3 271 272 476
3 273 502 477
3 254 74 236
3 236 504 237
3 504 8 255
3 258 76 507
3 510 511 241
3 484 85 514
3 260 516 465
3 261 262 487
3 539 65 72
3 263 282 542
3 264 294 228
3 228 489 67
3 489 543 265
3 519 266 249
3 268 546 494
3 522 523 496
3 525 547 70
3 502 81 503
3 503 275 253
3 82 527 8
3 257 83 287
3 528 97 277
3 530 77 529
3 510 84 511
3 512 554 533
3 515 535 260
3 281 539 72
3 540 559 541
3 542 283 264
3 94 543 489
3 543 562 265
3 265 582 86
3 86 284 491
3 295 585 267
3 267 100 268
3 521 316 522
3 523 285 286
3 88 89 80
3 548 302 549
3 549 302 274
3 274 81 502
3 83 96 287
3 530 509 77
3 288 14 553
3 91 578 84
3 289 310 534
3 555 98 535
3 556 291 290
3 312 313 10
3 10 313 92
3 93 16 293
3 539 540 282
3 94 562 543
3 582 563 86
3 284 564 266
3 564 545 266
3 12 296 295
3 546 297 87
3 316 586 285
3 302 318 303
3 303 591 81
3 571 573 306
3 573 307 306
3 575 593 552
3 578 309 554
3 309 597 289
3 313 116 99
3 313 99 92
3 292 622 16
3 563 606 583
3 101 325 297
3 316 332 586
3 586 332 587
3 318 591 303
3 326 592 572
3 615 104 307
3 593 308 552
3 320 113 107
3 98 108 15
3 108 98 620
3 312 311 599
3 110 621 558
3 600 558 621
3 626 602 329
3 602 626 322
3 315 561 604
3 323 584 607
3 102 325 112
3 332 629 587
3 589 612 613
3 612 631 613
3 636 592 326
3 573 592 636
3 595 327 106
3 618 642 619
3 624 329 625
3 603 651 604
3 605 127 330
3 608 19 324
3 331 111 609
3 111 342 341
3 332 129 629
3 17 631 632
3 336 335 635
3 635 337 336
3 113 122 640
3 640 661 113
3 642 643 641
3 114 131 645
3 646 115 124
3 648 20 649
3 20 340 649
3 665 650 329
3 125 650 666
3 127 652 117
3 128 354 19
3 341 689 654
3 689 341 342
3 130 674 345
3 674 360 345
3 360 137 335
3 660 681 640
3 681 661 640
3 643 662 23
3 349 124 645
3 350 124 349
3 340 132 351
3 668 125 358
3 653 359 342
3 689 370 671
3 145 372 656
3 656 672 673
3 344 657 699
3 135 344 699
3 360 156 137
3 693 137 156
3 355 678 146
3 23 695 682
3 682 138 349
3 150 349 138
3 683 663 151
3 683 139 356
3 664 140 141
3 152 696 353
3 372 145 371
3 372 28 672
3 701 135 691
3 692 156 360
3 156 702 693
3 361 362 675
3 364 149 681
3 705 25 695
3 150 706 350
3 706 151 350
3 707 132 163
3 155 723 698
3 699 698 700
3 361 714 362
3 362 171 694
3 694 171 32
3 363 157 148
3 159 706 150
3 163 379 707
3 707 375 143
3 368 720 165
3 369 154 175
3 30 168 373
3 31 701 712
3 32 715 378
3 29 383 716
3 705 388 717
3 34 173 385
3 731 719 390
3 175 183 369
3 726 739 377
3 177 377 739
3 170 377 177
3 177 185 714
3 385 180 34
3 174 187 729
3 729 741 379
3 741 380 379
3 732 731 730
3 734 721 376
3 721 735 386
3 392 722 167
3 722 382 176
3 737 188 725
3 725 188 738
3 177 746 185
3 740 393 747
3 178 186 728
3 39 395 394
3 181 180 748
3 732 730 742
3 733 742 743
3 391 743 744
3 397 742 194
3 753 764 747
3 756 748 402
3 403 407 194
3 762 190 760
3 190 762 751
3 754 765 769
3 41 45 759
3 412 762 761
3 768 767 766
3 413 195 768
3 413 196 195
3 196 413 42
3 414 415 769
3 412 761 416
3 772 199 412
3 768 417 413
3 414 774 48
3 415 418 46
3 771 770 775
3 49 43 771
3 47 50 416
3 772 412 50
3 771 775 49
3 47 49 200
3 419 415 417
3 53 54 201
3 201 478 234
3 234 235 420
3 420 235 1
3 420 1 421
3 421 1 236
3 421 479 55
3 55 479 56
3 55 56 422
3 57 71 424
3 424 71 239
3 424 239 425
3 239 507 425
3 202 507 240
3 202 240 426
3 202 426 58
3 58 426 462
3 58 462 427
3 59 462 218
3 427 59 219
3 203 220 428
3 428 220 221
3 204 221 429
3 430 429 431
3 205 432 63
3 205 63 206
3 206 63 223
3 206 223 433
3 433 464 60
3 60 434 435
3 435 224 436
3 435 436 437
3 437 436 2
3 438 2 64
3 207 439 440
3 440 439 3
3 440 3 441
3 441 225 208
3 208 442 443
3 443 442 226
3 443 226 61
3 61 468 209
3 445 210 446
3 445 447 4
3 448 447 471
3 211 471 449
3 211 449 212
3 212 449 472
3 212 250 451
3 451 229 452
3 229 473 230
3 452 230 453
3 453 495 454
3 453 454 68
3 453 68 62
3 62 69 213
3 455 213 232
3 455 232 475
3 455 475 214
3 214 456 457
3 459 458 461
3 461 458 460
3 215 5 0
3 462 217 480
3 429 241 242
3 431 429 242
3 242 483 431
3 431 483 463
3 222 463 432
3 432 463 484
3 432 484 63
3 63 484 244
3 223 63 244
3 223 244 485
3 223 485 464
3 434 465 224
3 64 466 245
3 438 245 246
3 438 246 467
3 246 487 467
3 439 247 3
3 225 3 65
3 225 65 66
3 225 66 442
3 227 488 468
3 469 468 228
3 469 67 444
3 444 67 248
3 210 248 446
3 446 6 470
3 446 470 447
3 449 249 472
3 229 250 7
3 495 230 494
3 213 474 232
3 232 498 475
3 475 498 499
3 458 456 500
3 460 500 501
3 5 460 70
3 235 253 1
3 1 253 254
3 56 238 423
3 423 238 505
3 71 506 239
3 239 506 258
3 507 239 258
3 426 240 217
3 217 279 259
3 218 77 508
3 219 508 531
3 220 481 482
3 220 482 221
3 221 482 241
3 242 241 511
3 242 511 483
3 463 513 243
3 244 484 514
3 464 485 465
3 485 260 465
3 466 486 78
3 466 518 245
3 247 72 3
3 66 263 442
3 226 263 488
3 468 488 264
3 248 67 489
3 446 248 6
3 470 490 491
3 470 491 519
3 471 519 249
3 450 492 493
3 473 7 520
3 473 520 230
3 230 520 494
3 68 496 231
3 231 496 69
3 496 523 497
3 69 497 474
3 474 251 232
3 500 80 269
3 460 501 70
3 501 525 70
3 252 271 233
3 233 271 476
3 477 502 478
3 235 503 253
3 253 526 254
3 254 526 74
3 237 504 255
3 236 74 504
3 479 255 256
3 8 527 75
3 238 256 75
3 238 75 257
3 505 257 528
3 505 528 506
3 507 76 240
3 240 76 279
3 480 259 529
3 480 529 77
3 508 77 509
3 531 532 481
3 241 482 510
3 483 511 512
3 483 512 513
3 513 533 534
3 484 243 85
3 244 514 515
3 485 515 260
3 516 260 536
3 516 536 486
3 486 536 517
3 486 517 78
3 518 537 280
3 518 280 79
3 246 79 261
3 247 262 72
3 66 65 282
3 66 282 263
3 489 265 6
3 6 265 490
3 519 491 284
3 519 284 266
3 249 266 492
3 492 544 493
3 7 267 520
3 267 268 520
3 73 546 87
3 73 87 521
3 73 522 496
3 251 286 498
3 499 498 524
3 499 80 500
3 269 80 89
3 269 89 565
3 269 525 501
3 270 547 548
3 271 549 272
3 502 273 274
3 526 276 74
3 74 276 9
3 504 9 82
3 504 82 8
3 75 527 550
3 528 257 287
3 506 528 258
3 258 528 277
3 258 277 76
3 76 277 278
3 76 278 279
3 279 278 259
3 531 509 288
3 531 288 532
3 532 288 553
3 532 91 510
3 510 91 84
3 511 84 512
3 512 84 554
3 512 533 513
3 85 555 514
3 515 514 535
3 514 555 535
3 536 260 290
3 536 290 291
3 517 536 10
3 517 10 537
3 280 537 557
3 79 538 261
3 93 538 292
3 261 93 262
3 262 293 281
3 539 281 11
3 282 540 541
3 541 559 560
3 542 560 283
3 294 94 228
3 228 94 489
3 544 266 545
3 544 295 493
3 268 100 546
3 521 87 298
3 521 298 316
3 286 285 299
3 286 299 300
3 286 300 524
3 524 88 80
3 269 565 525
3 525 567 547
3 547 567 90
3 547 90 548
3 548 90 301
3 548 301 302
3 270 548 549
3 274 302 303
3 272 274 273
3 503 81 275
3 275 81 305
3 275 569 570
3 526 275 276
3 275 570 276
3 82 9 306
3 306 9 571
3 82 306 527
3 550 306 307
3 75 550 83
3 75 83 257
3 277 97 551
3 277 551 278
3 259 278 552
3 259 552 529
3 530 529 308
3 532 553 91
3 84 578 554
3 554 289 533
3 534 310 85
3 535 98 15
3 260 535 290
3 290 535 556
3 536 291 10
3 537 10 92
3 537 92 557
3 280 557 538
3 557 558 538
3 538 558 292
3 539 11 540
3 540 11 579
3 540 579 559
3 560 580 283
3 283 580 581
3 283 581 294
3 294 561 94
3 294 581 561
3 86 563 284
3 284 563 583
3 284 583 564
3 295 545 12
3 295 296 585
3 546 100 101
3 546 101 297
3 87 297 298
3 299 285 586
3 524 300 88
3 565 89 566
3 567 566 95
3 90 95 568
3 301 90 568
3 301 568 590
3 302 590 318
3 274 303 81
3 81 304 305
3 570 569 13
3 572 570 326
3 307 573 615
3 83 307 104
3 96 104 319
3 97 319 574
3 97 574 551
3 278 551 575
3 551 574 575
3 278 575 552
3 308 595 576
3 595 308 594
3 308 576 530
3 530 576 509
3 509 576 14
3 576 106 14
3 553 14 577
3 577 14 596
3 91 577 320
3 91 320 107
3 619 578 107
3 578 619 309
3 289 597 310
3 597 598 310
3 535 15 556
3 15 109 556
3 291 311 312
3 558 600 292
3 292 16 93
3 293 16 314
3 11 314 601
3 11 601 579
3 560 559 602
3 602 559 625
3 580 322 581
3 315 604 562
3 605 582 562
3 582 330 563
3 583 607 564
3 564 607 584
3 12 324 296
3 296 324 585
3 585 609 100
3 609 585 324
3 609 610 100
3 100 610 101
3 298 102 316
3 102 611 316
3 332 316 611
3 300 587 588
3 300 588 88
3 88 588 589
3 613 631 566
3 17 566 631
3 568 317 590
3 317 614 590
3 318 333 591
3 334 304 591
3 103 304 334
3 304 103 305
3 305 103 569
3 335 569 103
3 104 616 319
3 574 319 105
3 319 616 105
3 574 105 575
3 593 575 105
3 595 594 639
3 596 14 106
3 596 122 577
3 122 320 577
3 122 113 320
3 107 618 619
3 597 309 641
3 98 310 598
3 109 15 108
3 556 599 311
3 599 116 312
3 116 313 312
3 116 328 99
3 99 110 557
3 558 557 110
3 622 292 600
3 622 321 16
3 16 321 314
3 624 601 314
3 624 314 21
3 579 624 625
3 579 625 559
3 322 580 602
3 581 603 561
3 322 626 603
3 605 562 604
3 604 126 605
3 563 330 117
3 606 563 117
3 608 584 323
3 628 608 323
3 584 608 12
3 12 608 324
3 609 111 610
3 325 101 610
3 341 325 111
3 611 102 112
3 112 654 611
3 588 630 589
3 630 588 629
3 612 343 631
3 95 566 17
3 95 17 317
3 17 633 317
3 317 633 614
3 333 318 614
3 335 103 345
3 13 569 335
3 570 336 326
3 336 337 326
3 636 326 337
3 120 573 636
3 104 121 616
3 658 616 121
3 637 616 658
3 18 105 637
3 593 18 308
3 594 308 18
3 595 639 348
3 106 617 596
3 113 618 107
3 661 618 113
3 644 597 641
3 641 643 644
3 598 597 644
3 114 598 644
3 108 115 109
3 645 115 108
3 115 646 599
3 338 599 646
3 339 116 338
3 99 328 110
3 621 110 328
3 622 600 621
3 649 321 622
3 623 321 649
3 340 623 649
3 321 623 314
3 21 314 623
3 21 665 624
3 329 624 665
3 329 650 626
3 626 651 603
3 651 126 604
3 117 330 127
3 652 606 117
3 627 606 652
3 607 627 323
3 118 323 627
3 118 628 323
3 331 324 19
3 112 325 341
3 654 112 341
3 332 611 655
3 629 656 630
3 589 630 612
3 632 631 343
3 633 344 614
3 614 634 333
3 130 334 634
3 130 345 334
3 335 137 635
3 119 636 337
3 636 676 120
3 346 121 615
3 677 121 346
3 678 637 658
3 637 638 18
3 347 348 639
3 348 659 327
3 660 617 659
3 617 640 122
3 661 123 618
3 643 642 662
3 131 114 644
3 114 645 620
3 645 124 115
3 647 621 328
3 648 621 647
3 621 648 622
3 623 340 21
3 340 351 21
3 665 352 650
3 125 626 650
3 626 125 651
3 668 651 125
3 127 126 668
3 144 127 668
3 652 127 144
3 652 353 627
3 353 652 687
3 627 669 118
3 118 128 628
3 128 118 669
3 628 128 19
3 331 653 111
3 689 671 654
3 129 655 145
3 656 673 630
3 343 630 673
3 657 632 22
3 632 657 633
3 614 344 634
3 136 634 344
3 130 634 136
3 693 635 137
3 121 677 658
3 678 658 677
3 638 678 355
3 659 348 680
3 364 660 659
3 617 660 640
3 662 642 123
3 662 695 23
3 644 23 131
3 682 131 23
3 131 682 349
3 131 349 645
3 124 350 646
3 356 646 663
3 356 684 338
3 139 684 356
3 338 684 339
3 339 684 664
3 141 648 664
3 142 648 141
3 132 20 142
3 351 357 21
3 21 357 665
3 357 352 665
3 666 650 352
3 667 125 666
3 687 652 144
3 669 627 353
3 669 24 128
3 354 128 24
3 19 670 331
3 331 670 653
3 359 689 342
3 656 129 145
3 656 372 672
3 134 343 673
3 673 690 134
3 343 134 632
3 657 22 698
3 130 692 674
3 360 674 692
3 119 337 693
3 675 119 693
3 676 119 675
3 362 676 675
3 362 677 676
3 694 677 362
3 677 694 146
3 677 146 678
3 638 355 679
3 347 679 348
3 364 659 148
3 681 660 364
3 661 365 123
3 662 123 365
3 662 366 695
3 25 682 695
3 138 682 25
3 349 150 350
3 374 683 151
3 139 683 374
3 140 684 139
3 163 142 141
3 132 685 351
3 351 685 133
3 351 133 357
3 133 164 352
3 352 164 666
3 666 164 26
3 666 26 667
3 709 358 686
3 144 368 687
3 687 152 353
3 24 669 696
3 24 688 354
3 354 688 670
3 670 697 653
3 653 697 359
3 369 689 359
3 370 689 369
3 28 690 672
3 698 22 155
3 699 657 698
3 699 691 135
3 135 701 136
3 693 702 675
3 355 147 679
3 680 679 147
3 363 148 680
3 148 703 364
3 29 364 703
3 149 704 365
3 365 704 662
3 366 662 704
3 704 158 366
3 705 366 158
3 366 705 695
3 173 151 706
3 139 160 140
3 140 162 141
3 163 141 162
3 142 163 132
3 132 707 685
3 685 143 133
3 685 707 143
3 164 143 375
3 686 667 26
3 719 686 26
3 367 709 686
3 367 686 719
3 709 368 144
3 687 368 152
3 696 153 24
3 710 27 688
3 688 27 697
3 154 697 27
3 369 359 154
3 369 711 370
3 370 371 145
3 28 371 167
3 371 28 372
3 373 690 28
3 373 155 690
3 373 168 155
3 701 691 700
3 701 713 692
3 713 701 31
3 156 692 713
3 702 361 675
3 714 361 170
3 171 362 714
3 378 146 32
3 146 378 147
3 680 147 363
3 148 157 703
3 728 703 157
3 704 149 716
3 704 716 158
3 25 705 717
3 25 159 138
3 138 159 150
3 173 34 374
3 160 374 34
3 161 140 160
3 162 379 163
3 719 26 708
3 708 390 719
3 709 720 368
3 152 165 696
3 165 152 368
3 166 696 165
3 165 733 166
3 166 153 696
3 710 153 166
3 710 376 27
3 167 371 711
3 28 30 373
3 723 155 168
3 700 698 169
3 712 700 169
3 701 700 712
3 713 726 702
3 377 702 726
3 33 363 378
3 178 728 157
3 158 716 383
3 179 705 158
3 388 705 179
3 172 159 717
3 172 385 706
3 706 385 173
3 174 160 34
3 160 174 161
3 379 162 161
3 161 729 379
3 380 707 379
3 718 375 380
3 375 718 381
3 182 708 381
3 182 381 718
3 390 708 182
3 719 731 367
3 720 367 731
3 165 720 732
3 733 165 732
3 166 734 710
3 175 376 721
3 386 175 721
3 369 183 711
3 30 167 722
3 176 30 722
3 168 30 176
3 724 723 382
3 712 725 31
3 31 725 713
3 726 713 725
3 738 726 725
3 170 177 714
3 171 714 185
3 727 171 185
3 715 32 727
3 715 393 33
3 33 378 715
3 33 740 157
3 158 383 179
3 395 179 394
3 388 179 395
3 717 388 172
3 172 388 384
3 172 384 385
3 34 180 181
3 34 181 174
3 187 174 181
3 718 380 389
3 37 718 389
3 718 37 182
3 730 182 37
3 182 730 390
3 166 733 391
3 166 391 734
3 391 744 734
3 183 387 711
3 711 387 167
3 387 392 167
3 382 722 38
3 724 737 712
3 737 724 736
3 712 737 725
3 726 738 739
3 184 738 745
3 738 184 739
3 185 192 727
3 393 715 189
3 393 740 33
3 740 754 178
3 178 193 186
3 186 394 383
3 395 35 388
3 388 35 384
3 741 729 187
3 187 396 741
3 749 741 396
3 389 380 741
3 403 730 37
3 730 403 742
3 732 742 733
3 733 743 391
3 743 398 744
3 734 735 721
3 190 386 735
3 386 190 751
3 386 751 387
3 387 751 392
3 392 399 722
3 722 399 38
3 382 38 736
3 752 188 737
3 184 400 746
3 192 746 400
3 753 189 192
3 189 747 393
3 189 753 747
3 740 747 754
3 193 178 754
3 395 39 35
3 748 180 402
3 187 748 396
3 389 749 37
3 403 194 742
3 742 397 743
3 398 397 41
3 760 398 759
3 190 750 760
3 392 191 399
3 405 38 763
3 38 405 736
3 736 405 737
3 767 737 405
3 737 767 752
3 188 752 745
3 184 745 400
3 400 745 195
3 40 193 769
3 36 755 402
3 755 197 402
3 756 757 396
3 37 758 403
3 194 407 408
3 194 408 397
3 759 398 41
3 762 760 761
3 751 762 191
3 404 191 199
3 191 404 763
3 763 404 405
3 405 766 767
3 192 196 406
3 764 406 765
3 764 765 754
3 40 410 401
3 197 198 402
3 198 43 756
3 411 408 407
3 45 408 411
3 761 759 45
3 199 762 412
3 404 409 766
3 768 766 773
3 48 42 413
3 42 774 406
3 414 765 774
3 769 765 414
3 46 769 415
3 769 46 40
3 46 770 410
3 770 771 198
3 198 771 43
3 757 43 44
3 45 416 761
3 199 772 404
3 404 772 409
3 417 768 773
3 48 413 417
3 415 414 48
3 775 770 418
3 416 50 412
3 772 51 409
3 773 419 417
3 200 49 775
3 772 50 51
