OFF
265 499 0
-0.7350615 0.6734074 0.09148456 
-0.7214031 -0.521779 0.462317 
-0.5921371 0.5420527 0.6019438 
0.9918638 0.03179524 0.136479 
-0.8948456 0.1271299 0.4312173 
0.369784 -0.02619071 0.9321461 
0.1949736 0.9840531 -3.91137e-05 
0.02717422 -0.9711553 0.2481189 
0.2648205 0.7254432 0.6398363 
-0.424127 -0.9082879 0.0005175278 
-0.7462291 -0.6662945 -3.663051e-05 
-0.7953373 0.380538 0.4780376 
-0.141854 0.7558799 0.6423851 
-0.2830994 -0.1128956 0.9555377 
0.3637651 0.141146 0.9221331 
-0.4211423 0.8667474 0.2761609 
0.7824124 -0.6241214 0.06814321 
0.9795713 0.144966 0.1610344 
-0.8794628 0.2671327 0.3979903 
-0.8770123 0.009025741 0.4859849 
0.1308748 -0.4896616 0.8641749 
-0.2960321 0.005868922 0.9573478 
-0.9942386 0.06598655 0.09933556 
-0.6151239 -0.7715208 0.1673442 
-0.3805704 0.6998679 0.6097283 
-0.6889436 0.073639 0.7229584 
-0.3342768 0.9080963 0.2630107 
-0.5252929 0.6942281 0.4971206 
0.6062898 0.5848278 0.5446362 
0.1357768 -0.2795442 0.9520771 
0.07828595 -0.8397838 0.5387926 
-0.7527472 0.1493009 0.6456121 
0.3589016 -0.8032391 0.4792373 
0.6534339 0.1872503 0.7365811 
0.4074586 -0.2225194 0.8902904 
-0.714049 -0.596007 0.3713507 
0.6773498 0.6303963 0.381694 
0.7673241 -0.270887 0.5831555 
-0.8211036 0.5649369 0.09507201 
0.9173606 0.4055334 -9.766673e-05 
-0.7061074 -0.3157933 0.6369618 
0.6426065 -0.1362651 0.7570004 
0.5973066 -0.6345022 0.4941797 
-0.6790402 -0.4514953 0.5824485 
0.7394721 0.2234605 0.6354055 
0.1697854 -0.8809271 0.4448813 
0.5624509 -0.2329628 0.7956556 
0.4322124 -0.3643318 0.8279964 
0.5630432 -0.8281088 0.0002369704 
0.496268 0.8644764 0.08969528 
0.8769365 0.4094076 0.2619438 
0.4884041 -0.862344 0.1473651 
-0.2157671 -0.9812776 0.003772007 
-0.9228815 -0.3818437 0.09688991 
0.7265321 0.6465265 0.239252 
0.5617234 -0.7847349 0.2736583 
0.1761007 0.9648144 0.2111985 
0.7007856 -0.6834815 0.2064247 
0.7978352 0.5247869 0.3026897 
0.9051175 -0.240259 0.361396 
-0.09051553 -0.9387715 0.3388612 
0.4217193 -0.8428437 0.3437183 
-0.7113655 0.5374542 0.4542805 
0.4984685 -0.7354173 0.4615193 
-0.8757885 -0.1442706 0.4664798 
0.1909111 -0.7891951 0.5880624 
0.8054188 0.08639894 0.5908288 
-0.7749031 -0.2111285 0.6008688 
-0.5958892 0.1071993 0.798479 
-0.4169882 0.5075209 0.7557226 
0.7563497 -0.1277811 0.6456287 
0.599003 -0.4487951 0.6647614 
-0.3643302 0.3619989 0.8627858 
0.2665712 -0.3455603 0.9040143 
-0.1246332 0.1587446 0.984968 
-0.4479825 0.8896416 0.09999017 
0.01230274 0.3308961 0.9466984 
-0.3356092 -0.3364633 0.8829737 
0.05651575 0.9908386 0.1473701 
0.4886551 0.7987683 0.3590601 
-0.1836395 -0.8854511 0.4335986 
0.4531776 -0.6620747 0.6005536 
-0.1355184 -0.3226296 0.9392548 
-0.6109098 0.7916766 0.06996024 
0.8974757 -0.4457314 0.0001460758 
0.9916685 -0.1708866 0.001223024 
0.9631185 -0.2331726 0.1487841 
-0.339687 -0.9323344 0.1442811 
-0.6534463 0.7202656 0.2399485 
-0.2627606 0.9626812 0.09579913 
-0.7292882 -0.6812407 0.1005146 
0.8221206 0.5457253 0.1699814 
-0.04442425 0.9543405 0.2995558 
0.8780183 -0.4521483 0.1754245 
0.835516 -0.0465533 0.5551673 
0.6909896 0.04065464 0.7246519 
-0.1288294 0.3090701 0.9458185 
-0.2361624 0.2567861 0.9405485 
0.4032137 0.9173051 0.001557176 
0.3727307 0.9142921 0.1686585 
-0.9488932 0.2045224 0.2515731 
-0.1751714 0.9591916 0.2331794 
0.6315247 0.7230693 0.2859391 
-0.9834146 -0.0362845 0.1823625 
-0.7503253 0.6114524 0.2651618 
0.1254766 0.9235345 0.3739044 
0.6133316 -0.7079966 0.3547739 
-0.2963321 -0.8969819 0.3304251 
-0.7094324 -0.6596458 0.2539263 
0.1457232 -0.9518578 0.282503 
-0.7972232 0.4863056 0.3624267 
-0.8087004 0.2144579 0.5533481 
-0.03434822 0.888301 0.465904 
0.7417728 0.4847445 0.4701876 
-0.2820289 0.7780476 0.5662003 
0.7955015 0.2958783 0.5322255 
0.006656737 -0.8984069 0.4427685 
-0.3840683 -0.73739 0.5569156 
0.411737 0.5131692 0.7559545 
-0.241863 0.6252917 0.7470046 
-0.3669508 -0.4992855 0.7902709 
0.4967206 -0.07097911 0.8676253 
0.03600932 0.4630502 0.8865697 
-0.5957797 -0.8048851 0.000113392 
-0.8939977 0.4335781 0.1343929 
-0.6805105 0.7372826 -6.308675e-05 
0.5916492 0.809707 -0.0003088564 
0.7247744 0.6849191 0.106002 
-0.072262 1.002661 0.002185039 
0.5785068 0.798279 0.1777518 
-0.2111854 -0.9519049 0.2290804 
-0.9212316 -0.3294435 0.2226905 
0.8007123 -0.5522182 0.245236 
-0.1916291 0.8946447 0.4121397 
0.909173 0.05078961 0.4145547 
0.9345072 -0.07096022 0.3536415 
0.8087192 -0.3733264 0.4582129 
0.7249378 -0.5343474 0.4380435 
-0.5559736 -0.6022444 0.5795495 
-0.4640328 -0.7762885 0.4312256 
-0.7906998 -0.3601751 0.4976729 
-0.7859905 -0.06058475 0.618803 
-0.693318 0.3974504 0.6074637 
0.1098979 0.8258314 0.5620598 
0.5816574 -0.5491101 0.6040353 
0.665961 -0.2873488 0.6900395 
0.6243994 0.3393392 0.7066536 
-0.2583729 -0.6732903 0.6970404 
0.4623704 -0.4623384 0.7587252 
-0.08945031 -0.6890806 0.7225038 
-0.6357762 -0.187173 0.74992 
-0.2432012 0.5064415 0.8296195 
0.02373394 -0.6242483 0.7853692 
-0.1901207 -0.4516193 0.8742685 
-0.4443607 -0.01650042 0.8975762 
0.2372661 0.1355736 0.9641512 
-0.07226524 -0.1352342 0.9916518 
-0.4270815 -0.1742098 0.8878205 
-0.5842659 -0.02397016 0.8149902 
0.2948819 -0.52075 0.8035247 
-0.01553189 -0.4346316 0.9036033 
0.3223278 0.8906413 0.3317099 
0.3050587 -0.7268474 0.6192189 
-0.4751777 -0.3277986 0.8187073 
-0.9485832 -0.1901404 0.2633396 
-0.5622832 -0.6917366 0.460751 
-0.9346327 -0.08121534 0.3502725 
0.7479623 -0.6702822 -4.728411e-05 
0.4578671 0.8606094 0.2258076 
-0.5576403 0.3999736 0.7322788 
-0.5263949 -0.1565057 0.8391963 
-0.1684894 -0.5522365 0.8205177 
-0.4475517 0.1198203 0.8893734 
0.2879579 -0.900385 0.3327074 
0.3261034 0.6200023 0.7170437 
0.4102394 0.3409273 0.850455 
0.05629149 0.009311224 1.000691 
-0.8626934 -0.294861 0.4160081 
0.1385558 0.5591391 0.8192478 
0.1451271 0.6778512 0.7236416 
-0.8464704 0.4836178 0.227546 
-0.8114305 -0.461687 0.3650405 
-1.000516 0.02260751 9.704498e-05 
-0.603385 0.2434133 0.7630391 
0.6230994 -0.7785375 0.1013841 
-0.05118981 -0.9914539 0.1422254 
-0.03890133 0.7379164 0.6807165 
0.4972047 0.409766 0.7662508 
-0.597358 -0.3357407 0.7322416 
0.01002883 -0.2529868 0.96908 
0.8896137 -0.3705556 0.274918 
0.2204077 -0.5941894 0.7778295 
0.5677596 -0.3626254 0.7404029 
0.9713674 -0.1158389 0.2160488 
0.258688 -0.9695214 2.323396e-05 
0.9828492 0.187567 6.92684e-05 
-0.854679 -0.5242502 0.001405548 
-0.5260358 0.7702594 0.3668745 
-0.04142365 -0.7849639 0.625216 
0.4903104 0.2515715 0.8386599 
0.4486907 0.6312207 0.6353126 
0.5475134 0.0454668 0.8400396 
0.1396428 0.426648 0.8941737 
0.3621489 0.7430046 0.565972 
-0.4496264 0.6058393 0.6606759 
0.1091441 -0.1390374 0.9870777 
0.020371 -1.002862 0.0002997047 
0.6706148 0.3937706 0.6344221 
-0.526933 -0.4630565 0.7165647 
0.8040028 0.6018154 0.000534638 
0.4347094 -0.9013375 0.0001000037 
0.1872487 -0.9796726 0.1131454 
-0.38318 0.8174971 0.4336736 
0.5468571 0.6960638 0.4714189 
-0.6929039 -0.08035251 0.7174955 
-0.2565797 -0.2356545 0.9410527 
0.931497 -0.355728 0.08555715 
-0.8218656 -0.5300939 0.224359 
0.3038078 0.8392862 0.4546129 
0.9248154 0.264474 0.2835245 
0.6956962 -0.4341228 0.5774109 
0.4190373 -0.5782674 0.7026272 
0.1349809 -0.4069234 0.9072166 
-0.4517267 -0.8448097 0.3005791 
-0.6349924 0.6554649 0.4142831 
0.8599627 0.1970532 0.4775033 
0.5454898 0.5121034 0.6661161 
-0.04170157 0.586526 0.8137316 
-0.1687782 0.4501239 0.8831103 
0.2544291 0.3031844 0.9225059 
-0.9257727 -0.3808985 6.041841e-05 
-0.9893005 -0.137327 0.08809782 
0.9126856 0.3905054 0.1462101 
-0.480554 -0.8713085 0.127482 
0.2605377 0.9638944 0.08642462 
-0.8806803 0.3626375 0.3070312 
-0.9578449 0.06829991 0.2869071 
0.7024533 -0.6259692 0.3450591 
-0.5940033 -0.7304114 0.3462781 
0.8615445 -0.1613169 0.4877513 
0.1322212 -0.7063304 0.697759 
-0.4157069 -0.6168453 0.672147 
-0.4487272 0.2938124 0.8479118 
-0.327099 0.1401218 0.9360064 
0.120582 0.2534743 0.9624541 
0.08601567 0.138673 0.9893593 
0.8359466 0.3722818 0.406147 
-0.09110538 0.02375762 0.9989011 
-0.2315458 -0.7751524 0.5913497 
-0.9615163 0.2537813 0.1352698 
-0.31318 0.9526168 4.547496e-05 
0.2345075 -0.1602738 0.9602726 
0.9478225 0.09471031 0.3129278 
-0.5464773 0.8120788 0.2154961 
-0.4950338 0.8703114 0.0003888953 
-0.9872046 -0.1694975 -1.977491e-05 
-0.9836789 0.1895765 -1.069308e-05 
-0.826985 0.5632241 -4.409817e-06 
0.9594332 0.2741897 0.07658299 
1.001288 0.02329222 0.0001368512 
-0.3261776 -0.8349183 0.4476877 
0.2785949 0.5088257 0.820056 
0.2107789 -0.004276792 0.9806491 
-0.9127677 0.413525 0.0001366696 
0.345581 -0.9299568 0.1465269 
3 103 236 22 
3 217 196 90 
3 106 55 57 
3 246 50 113 
3 172 243 242 
3 1 140 181 
3 23 123 233 
3 88 253 83 
3 66 134 225 
3 149 171 147 
3 150 188 170 
3 150 170 158 
3 227 122 178 
3 5 251 34 
3 135 252 134 
3 24 114 212 
3 169 2 142 
3 10 90 196 
3 39 258 195 
3 253 75 83 
3 30 116 45 
3 255 231 182 
3 93 132 16 
3 217 131 53 
3 246 219 50 
3 165 35 238 
3 27 212 197 
3 34 46 121 
3 231 22 182 
3 0 125 257 
3 6 234 98 
3 15 26 75 
3 127 129 102 
3 54 58 91 
3 100 235 249 
3 101 92 78 
3 190 132 93 
3 4 18 100 
3 64 19 166 
3 113 115 246 
3 70 37 239 
3 220 71 144 
3 37 70 145 
3 179 261 174 
3 192 145 46 
3 68 172 183 
3 163 157 170 
3 262 251 5 
3 76 245 244 
3 111 18 4 
3 136 220 137 
3 74 243 21 
3 168 49 99 
3 62 142 2 
3 24 212 27 
3 111 4 19 
3 150 40 188 
3 120 147 171 
3 21 243 172 
3 100 22 236 
3 0 104 88 
3 184 55 51 
3 101 89 26 
3 252 3 17 
3 136 190 59 
3 18 111 11 
3 94 239 135 
3 121 5 34 
3 86 190 93 
3 86 59 190 
3 66 95 94 
3 31 183 142 
3 151 228 227 
3 73 222 159 
3 172 242 183 
3 42 106 237 
3 150 214 67 
3 14 199 175 
3 13 157 215 
3 126 98 49 
3 56 234 78 
3 235 180 124 
3 113 50 58 
3 198 80 116 
3 144 81 42 
3 8 203 143 
3 141 214 25 
3 208 43 138 
3 118 187 226 
3 262 205 251 
3 232 219 258 
3 213 36 102 
3 111 142 11 
3 94 70 239 
3 40 150 67 
3 163 208 120 
3 205 29 251 
3 123 23 90 
3 10 123 90 
3 51 210 48 
3 254 83 75 
3 35 181 217 
3 11 110 235 
3 88 224 197 
3 131 181 177 
3 135 239 59 
3 177 64 164 
3 36 28 113 
3 239 136 59 
3 133 114 112 
3 225 44 66 
3 239 37 136 
3 66 44 33 
3 192 148 71 
3 201 14 5 
3 82 156 215 
3 156 189 205 
3 202 261 178 
3 87 107 223 
3 109 116 7 
3 27 2 204 
3 261 175 118 
3 5 121 201 
3 245 176 262 
3 176 156 205 
3 260 107 80 
3 41 145 70 
3 179 186 227 
3 47 46 34 
3 76 202 122 
3 263 249 124 
3 3 85 259 
3 127 91 209 
3 3 193 85 
3 54 91 127 
3 102 54 127 
3 91 50 232 
3 57 55 184 
3 131 164 231 
3 235 100 18 
3 130 80 107 
3 139 238 223 
3 36 113 58 
3 260 117 139 
3 63 81 32 
3 141 31 19 
3 226 207 28 
3 37 220 136 
3 117 147 241 
3 191 240 162 
3 240 152 198 
3 191 159 20 
3 158 172 68 
3 228 97 96 
3 14 175 229 
3 82 189 156 
3 87 233 9 
3 156 176 247 
3 22 100 249 
3 234 56 99 
3 173 109 264 
3 104 224 88 
3 18 11 235 
3 143 105 112 
3 61 63 32 
3 31 111 19 
3 2 27 224 
3 112 186 143 
3 143 203 218 
3 207 44 115 
3 186 179 143 
3 143 179 8 
3 226 200 118 
3 192 71 145 
3 146 187 199 
3 121 46 41 
3 52 87 9 
3 232 39 209 
3 195 258 17 
3 167 184 48 
3 38 104 0 
3 98 99 49 
3 52 130 87 
3 53 131 231 
3 58 50 91 
3 86 193 59 
3 51 55 61 
3 108 23 238 
3 249 235 124 
3 180 235 110 
3 104 180 110 
3 168 99 161 
3 132 57 16 
3 264 61 173 
3 236 4 100 
3 59 193 135 
3 131 177 164 
3 197 212 15 
3 219 246 225 
3 252 225 134 
3 132 136 137 
3 61 32 173 
3 223 260 139 
3 166 19 236 
3 105 218 161 
3 237 137 42 
3 63 106 42 
3 177 181 140 
3 224 62 2 
3 213 79 203 
3 63 42 81 
3 177 67 64 
3 112 114 12 
3 140 40 67 
3 225 115 44 
3 81 144 221 
3 117 241 138 
3 19 64 141 
3 220 37 145 
3 221 162 81 
3 43 188 40 
3 114 24 119 
3 146 33 44 
3 65 162 240 
3 43 208 188 
3 25 158 68 
3 142 183 169 
3 12 119 186 
3 69 151 119 
3 119 227 186 
3 174 261 118 
3 221 159 191 
3 171 149 152 
3 187 118 175 
3 153 120 171 
3 120 153 77 
3 158 154 172 
3 72 243 97 
3 228 96 76 
3 14 155 5 
3 5 155 262 
3 13 215 156 
3 205 262 176 
3 253 15 75 
3 51 61 264 
3 198 152 149 
3 34 251 73 
3 74 21 247 
3 74 247 245 
3 17 219 252 
3 97 74 96 
3 217 181 131 
3 56 105 161 
3 164 64 166 
3 177 140 67 
3 12 114 119 
3 46 145 41 
3 191 152 240 
3 72 228 151 
3 159 47 73 
3 47 34 73 
3 228 72 97 
3 222 29 189 
3 74 97 243 
3 244 245 155 
3 13 247 21 
3 29 205 189 
3 209 91 232 
3 129 49 168 
3 99 98 234 
3 23 223 238 
3 66 94 134 
3 113 28 207 
3 123 9 233 
3 79 129 168 
3 252 135 193 
3 28 36 213 
3 116 30 198 
3 65 198 30 
3 220 145 71 
3 152 20 160 
3 60 80 130 
3 127 209 126 
3 106 57 237 
3 92 112 105 
3 53 255 230 
3 167 84 16 
3 253 197 15 
3 35 108 238 
3 133 212 114 
3 207 146 44 
3 221 191 162 
3 72 169 242 
3 221 148 159 
3 178 179 227 
3 170 157 154 
3 154 21 172 
3 258 219 17 
3 193 86 85 
3 103 22 231 
3 237 57 132 
3 106 63 55 
3 63 61 55 
3 110 11 62 
3 134 94 135 
3 1 43 140 
3 201 121 41 
3 0 83 125 
3 16 184 167 
3 126 49 129 
3 38 124 180 
3 38 180 104 
3 128 89 101 
3 53 196 217 
3 92 105 78 
3 60 130 185 
3 161 218 79 
3 246 115 225 
3 45 173 32 
3 218 203 79 
3 137 144 42 
3 70 94 95 
3 71 148 144 
3 183 25 68 
3 2 169 69 
3 69 119 204 
3 159 148 47 
3 170 188 163 
3 227 228 122 
3 157 13 154 
3 76 122 228 
3 163 77 157 
3 79 102 129 
3 116 60 7 
3 20 222 160 
3 206 194 211 
3 204 2 69 
3 85 86 216 
3 185 206 211 
3 133 112 92 
3 141 64 67 
3 118 200 174 
3 169 183 242 
3 20 152 191 
3 152 160 171 
3 175 261 229 
3 244 202 76 
3 153 82 77 
3 40 140 43 
3 107 260 223 
3 29 222 73 
3 247 13 156 
3 160 153 171 
3 22 249 256 
3 93 84 216 
3 128 78 6 
3 85 216 84 
3 93 16 84 
3 202 244 229 
3 189 82 160 
3 76 74 245 
3 124 38 263 
3 259 17 3 
3 19 4 236 
3 176 245 247 
3 201 95 33 
3 185 211 7 
3 248 80 198 
3 210 264 194 
3 147 117 248 
3 101 78 128 
3 133 92 101 
3 132 137 237 
3 214 158 25 
3 75 250 254 
3 264 210 51 
3 157 77 215 
3 88 197 253 
3 45 65 30 
3 204 24 27 
3 169 72 69 
3 264 109 211 
3 154 158 170 
3 13 21 154 
3 250 75 89 
3 224 104 62 
3 45 116 109 
3 24 204 119 
3 95 201 41 
3 214 150 158 
3 72 151 69 
3 175 199 187 
3 199 14 201 
3 73 251 29 
3 122 202 178 
3 162 32 81 
3 164 103 231 
3 217 108 35 
3 102 36 54 
3 110 62 104 
3 35 1 181 
3 137 220 144 
3 66 33 95 
3 38 0 257 
3 3 252 193 
3 109 7 211 
3 60 185 7 
3 192 46 47 
3 192 47 148 
3 53 230 196 
3 89 75 26 
3 52 185 130 
3 0 88 83 
3 16 57 184 
3 217 90 108 
3 90 23 108 
3 197 224 27 
3 116 80 60 
3 186 112 12 
3 200 28 213 
3 113 207 115 
3 165 139 117 
3 1 138 43 
3 28 200 226 
3 65 240 198 
3 142 111 31 
3 141 67 214 
3 8 174 200 
3 149 248 198 
3 72 242 243 
3 14 229 155 
3 262 155 245 
3 151 227 119 
3 222 189 160 
3 79 168 161 
3 79 213 102 
3 208 163 188 
3 78 234 6 
3 56 78 105 
3 261 179 178 
3 263 38 257 
3 107 87 130 
3 26 133 101 
3 65 32 162 
3 200 213 203 
3 148 221 144 
3 50 219 232 
3 147 120 241 
3 206 185 52 
3 184 51 48 
3 166 236 103 
3 25 31 141 
3 244 155 229 
3 255 53 231 
3 32 65 45 
3 117 138 165 
3 8 200 203 
3 226 146 207 
3 182 22 256 
3 166 103 164 
3 54 36 58 
3 165 138 1 
3 25 183 31 
3 17 259 195 
3 211 194 264 
3 216 86 93 
3 223 233 87 
3 190 136 132 
3 212 133 26 
3 218 105 143 
3 165 1 35 
3 142 62 11 
3 117 260 248 
3 179 174 8 
3 208 138 241 
3 146 226 187 
3 70 95 41 
3 120 77 163 
3 250 89 128 
3 127 126 129 
3 125 83 254 
3 76 96 74 
3 263 256 249 
3 80 248 260 
3 258 39 232 
3 56 161 99 
3 33 146 199 
3 159 222 20 
3 229 261 202 
3 153 160 82 
3 26 15 212 
3 219 225 252 
3 233 223 23 
3 109 173 45 
3 241 120 208 
3 77 82 215 
3 139 165 238 
3 33 199 201 
3 147 248 149 
