OFF
265 499 0
0.473161355079043 0.777883907750217 0
-0.44563463370783 0.414123020516652 0
0.258978131290138 0.427494019687478 0
0.196990203929017 -0.849199010313488 0
-0.0344936276299402 0.629699058638521 0
0.0234104114085948 -0.189377497165151 0
1 0 0
-0.756871756873481 -0.171223555979666 0
0.463317145901001 -0.0716964020657261 0
-0.970840906440013 0.239724705407545 0
-0.798001138192882 0.602655941182748 0
0.147390271261298 0.576587794309668 0
0.432920711671735 0.174277617852274 0
-0.0849826087376953 0.131075320954155 0
0.108309445538993 -0.170509378033777 0
0.599680139814208 0.454666482655056 0
-0.429825653753965 -0.827723364653505 0
0.286271431584957 -0.800325264371535 0
0.0652343723467651 0.653220729303779 0
-0.108461749065562 0.578755069986276 0
-0.24389945516123 -0.119308985009454 0
-0.0269153442425933 0.149249008267291 0
-0.116316692624161 0.898402854060524 0
-0.750393523525684 0.38799134942802 0
0.379180350241878 0.31618255505691 0
-0.0358774144140613 0.400591156876298 0
0.650907222632263 0.398141161636594 0
0.385683566936684 0.434183527706812 0
0.446416438661156 -0.309964145150541 0
-0.127131456201679 -0.0953669344048848 0
-0.524865726958169 -0.155148418120707 0
0.000208046458316573 0.466024401779643 0
-0.484588202810142 -0.342561394234526 0
0.178413883002699 -0.346523938257203 0
-0.0737129244978372 -0.233031119643577 0
-0.527416162561114 0.425493173194057 0
0.541755245335957 -0.390965725980298 0
-0.0736644537128383 -0.507098774613113 0
0.36043537694017 0.834153660467955 0
0.574305338072698 -0.81864117821009 0
-0.272953970558426 0.38569699212367 0
-0.00519913845501031 -0.372409616674209 0
-0.338663048107124 -0.472884722912261 0
-0.36309084658139 0.365537443744046 0
0.221152013709281 -0.416308724833739 0
-0.574397740408002 -0.233316000662738 0
-0.0665712077665636 -0.331296022226764 0
-0.149591175680727 -0.269573250407564 0
-0.7020635360064 -0.712114310634319 0
0.86517464786827 -0.291482612664242 0
0.45134870157464 -0.616171304180594 0
-0.653581362456968 -0.561527160827318 0
-0.999771142408886 0.0213930550981191 0
-0.504482371161414 0.756152934942064 0
0.623000424003267 -0.471866984569161 0
-0.517364960012675 -0.549702728229925 0
0.806896697314016 0.0125265803620271 0
-0.442387275445758 -0.677747487960147 0
0.512235973863909 -0.521108676900749 0
-0.0443310893751464 -0.68267484135427 0
-0.699602582867816 -0.0690275044121082 0
-0.552262174898834 -0.428129430397108 0
0.266498085752514 0.55123013641946 0
-0.426571768402099 -0.430713951387856 0
-0.211635636858818 0.5657898485784 0
-0.463558668690434 -0.212979298192744 0
0.150885349112197 -0.484299480237101 0
-0.223020030024438 0.448449728325939 0
-0.00623686355416258 0.336397901311474 0
0.236729240302136 0.289335889005141 0
0.0129516025312803 -0.464304902271379 0
-0.194859564850239 -0.404160486132118 0
0.151786351183469 0.229370514954236 0
-0.150544785929544 -0.171571506276408 0
0.0656779488212145 0.0774475850358066 0
0.713167263364093 0.556344907509119 0
0.167102472327852 0.027136711589138 0
-0.20984766031846 0.14046110014911 0
0.853408292433807 0.119191522807867 0
0.643888756274754 -0.236524271684119 0
-0.628762463395313 0.00578036287176476 0
-0.350213169161304 -0.356702219614189 0
-0.176739463880312 0.036683521268307 0
0.61137332226891 0.701219939186093 0
-0.262547919382675 -0.964918955160395 0
0.02472919065785 -0.999694186803848 0
-0.0368986672777239 -0.859122730836342 0
-0.855179320595852 0.133981465546614 0
0.465529377138047 0.627917686487201 0
0.812908911267209 0.406063252838169 0
-0.734519892946532 0.529544269670468 0
0.592988508866449 -0.595582689985204 0
0.711704186054806 0.176291890465769 0
-0.230915977205762 -0.804184629047691 0
0.0746257743780685 -0.530056747924246 0
0.100443665093499 -0.386858433291228 0
0.142112303288923 0.0959839993400175 0
0.105361897560251 0.145220330877328 0
0.976208049398855 -0.216835984764711 0
0.827711534030605 -0.159539832349517 0
0.0124650593615676 0.77350806755457 0
0.732332266212907 0.291127572991857 0
0.644419365177919 -0.369819119886764 0
-0.191430345559054 0.809617996620274 0
0.357210144011737 0.672822019336251 0
0.673638534937848 0.040678388555627 0
-0.424099914958357 -0.54373150081301 0
-0.704800610335105 0.0875735517408043 0
-0.625902689624027 0.452394164863161 0
-0.703998490698012 -0.253767918876925 0
0.235746524286671 0.642675031169658 0
0.0342221326541256 0.536824270150346 0
0.587523833211361 0.141052397555807 0
0.420100627151071 -0.428450438096458 0
0.450760228847312 0.273542232471108 0
0.289352503606062 -0.470830823650693 0
-0.608957627134395 -0.12360703951154 0
-0.512793322027441 0.150361726453477 0
0.330834929799699 -0.172145334470553 0
0.322772950245417 0.20534297999285 0
-0.312985067828171 0.147089828936914 0
0.0140255232481993 -0.267132284830981 0
0.243639017699874 0.0294350201927372 0
-0.903738062624724 0.428085872417334 0
0.220586363702439 0.845370069902084 0
0.588695214794583 0.80835508539129 0
0.906674944595057 -0.421829995191843 0
0.729670166692553 -0.51900256796352 0
0.964366632704588 0.264569457281098 0
0.757837027871222 -0.347334180905257 0
-0.791982694009071 0.0188869027978482 0
-0.410277574240765 0.684737691410367 0
-0.308024239366314 -0.713014934085552 0
0.592270602715854 0.255317920517233 0
0.159672040714888 -0.622837676635482 0
0.0819291331974228 -0.684933285368717 0
-0.1424772089741 -0.591704662532284 0
-0.267194626551956 -0.564225066604363 0
-0.441631812155319 0.270848802764669 0
-0.594183503065695 0.212918929711818 0
-0.338433991452032 0.471368778176903 0
-0.13121260535359 0.468802399422717 0
0.157644934764962 0.470369447548385 0
0.530121749585124 0.0343841161469712 0
-0.265296180861598 -0.420086516403838 0
-0.0902017262196678 -0.418338048709549 0
0.265117234237603 -0.318852523755284 0
-0.418274845583587 0.072828656253208 0
-0.206675121103485 -0.307588809243687 0
-0.402075438409463 -0.0261781667964767 0
-0.175741892440417 0.335731471968061 0
0.244794088528472 0.184439871003932 0
-0.339537683438305 -0.0801922467724134 0
-0.256011239595647 0.0530966661763764 0
-0.0544644675496607 0.228206432140874 0
0.0906320036437193 -0.104326888238372 0
-0.0738456376421459 0.0228568649395284 0
-0.134667197723079 0.20447839633886 0
-0.075525189940388 0.313085804777133 0
-0.251065161881778 -0.215448079634812 0
-0.225078847562912 -0.0357778972853743 0
0.700253397588053 -0.106982636636612 0
-0.402883958865104 -0.270616201759101 0
-0.227701467714198 0.221635867452881 0
-0.292071362908414 0.705800455173916 0
-0.538457212729743 0.285292396044454 0
-0.193134589310348 0.667305238355098 0
-0.510098411198821 -0.860116045015112 0
0.760070556833328 -0.228800366840625 0
0.163265353729068 0.360190912569914 0
-0.138985002593638 0.264318760560048 0
-0.315286227717645 0.0320989743350776 0
0.0155849080208443 0.244600571233094 0
-0.6188616816277 -0.341883834024417 0
0.389484391509344 -0.115006123298323 0
0.222817301605387 -0.180652966139077 0
0.00964456185139151 -0.0261449844434 0
-0.321716255194371 0.556622085710906 0
0.315197695406988 -0.0145156665462204 0
0.400565033941805 -0.00587496047568429 0
0.252038953377669 0.752496942354272 0
-0.446853784166147 0.516520388972036 0
-0.172040398696404 0.985089894992524 0
0.0683201890712809 0.361671681547595 0
-0.582047125941558 -0.688982110331112 0
-0.858859276294612 -0.12415475954104 0
0.423758507402993 0.108085089397892 0
0.281596862422582 -0.229970397375591 0
-0.256645086946597 0.30064332019009 0
-0.125128033919431 -0.029328404394767 0
-0.150192564914382 -0.737963002822004 0
-0.303235281724199 -0.185245959187613 0
-0.141076748208048 -0.359247622044903 0
0.0609840062163925 -0.799723995716375 0
-0.897754393151188 -0.440496367269632 0
0.37488945088005 -0.927069522538011 0
-0.67822394974764 0.734855274179012 0
0.476634977419684 0.486076352084731 0
-0.477107361671171 -0.0683613127969049 0
0.185268450619191 -0.233617806737929 0
0.430725413251262 -0.193035239066105 0
0.0816347145170264 -0.285628955777727 0
0.234603701307396 -0.0279796145540695 0
0.509272741561847 -0.133633024544933 0
0.304284666673859 0.336315168011486 0
-0.0582185049462954 -0.0667681377781193 0
-0.976840885817186 -0.213967015672733 0
0.3146066399721 -0.353871180767706 0
-0.32394414055765 0.248570949315238 0
0.743511746956092 -0.668722873945777 0
-0.799206342249151 -0.601056754814995 0
-0.826637478359199 -0.335117487545406 0
0.505896514212723 0.373275105482813 0
0.534635961493201 -0.271147096425079 0
-0.124479965670294 0.386973954910452 0
-0.144749707020821 0.106391329916924 0
-0.154992126055429 -0.900307785381451 0
-0.553324133027733 0.573452421791749 0
0.605249355853334 -0.0921081724411982 0
0.340382892249177 -0.664133626296405 0
-0.183888439012451 -0.484088205905547 0
-0.285382415682779 -0.306354068056535 0
-0.19534043463586 -0.109852378468889 0
-0.703041931011109 0.214264573613925 0
0.365820399810364 0.529340845177473 0
0.242539584152532 -0.543049396207951 0
0.364193527374593 -0.260113246884339 0
0.311044596155804 0.0855814335147495 0
0.215779751155275 0.13441093329465 0
0.17944116018655 -0.0983490256101628 0
-0.552537108480808 0.833488298509144 0
-0.299722966025087 0.866371816254021 0
0.485253613696007 -0.713896933082445 0
-0.838293473407039 0.267427283960463 0
0.914541944748369 -0.0620743313153872 0
0.141340973634334 0.713538789753021 0
-0.0930354516016785 0.738874312593709 0
-0.354534789157428 -0.600226393401291 0
-0.616390733001678 0.327615097637362 0
0.00585189605326922 -0.587050708654005 0
-0.3926481292955 -0.156524063576849 0
-0.409814888295816 0.172221358288139 0
0.108095179707977 0.26893358816025 0
0.0374873607243634 0.180047188881435 0
0.13794609612295 -0.0345779222476064 0
0.0762659909811449 -0.0283644801012445 0
0.374107050820333 -0.531476449342012 0
0.00243187767805087 0.0474328001484873 0
-0.505679461823497 0.0489041960865899 0
0.0537464346944981 0.87079534127594 0
0.870930305663623 0.491406555386341 0
-0.0572195313000794 -0.132409593944184 0
0.211532666709616 -0.692164552511347 0
0.565612458627836 0.569337189006535 0
0.756261517893165 0.654269452560584 0
-0.357294535928869 0.933991763665705 0
-0.00516897718402827 0.999986640748201 0
0.391323330871851 0.920253253574993 0
0.420923191734503 -0.822261312447952 0
0.217306439968087 -0.976103432607629 0
-0.608783067940004 0.108663723338256 0
0.30236583270996 -0.0953397899417416 0
0.0181145036561178 -0.103978916104894 0
0.227607723146446 0.973752907242947 0
-0.734793622605746 -0.451397852858797 0
3 103 236 22
3 217 196 90
3 106 55 57
3 246 50 113
3 172 243 242
3 1 140 181
3 23 123 233
3 88 253 83
3 66 134 225
3 149 171 147
3 150 188 170
3 150 170 158
3 227 122 178
3 5 251 34
3 135 252 134
3 24 114 212
3 169 2 142
3 10 90 196
3 39 258 195
3 253 75 83
3 30 116 45
3 255 231 182
3 93 132 16
3 217 131 53
3 246 219 50
3 165 35 238
3 27 212 197
3 34 46 121
3 231 22 182
3 0 125 257
3 6 234 98
3 15 26 75
3 127 129 102
3 54 58 91
3 100 235 249
3 101 92 78
3 190 132 93
3 4 18 100
3 64 19 166
3 113 115 246
3 70 37 239
3 220 71 144
3 37 70 145
3 179 261 174
3 192 145 46
3 68 172 183
3 163 157 170
3 262 251 5
3 76 245 244
3 111 18 4
3 136 220 137
3 74 243 21
3 168 49 99
3 62 142 2
3 24 212 27
3 111 4 19
3 150 40 188
3 120 147 171
3 21 243 172
3 100 22 236
3 0 104 88
3 184 55 51
3 101 89 26
3 252 3 17
3 136 190 59
3 18 111 11
3 94 239 135
3 121 5 34
3 86 190 93
3 86 59 190
3 66 95 94
3 31 183 142
3 151 228 227
3 73 222 159
3 172 242 183
3 42 106 237
3 150 214 67
3 14 199 175
3 13 157 215
3 126 98 49
3 56 234 78
3 235 180 124
3 113 50 58
3 198 80 116
3 144 81 42
3 8 203 143
3 141 214 25
3 208 43 138
3 118 187 226
3 262 205 251
3 232 219 258
3 213 36 102
3 111 142 11
3 94 70 239
3 40 150 67
3 163 208 120
3 205 29 251
3 123 23 90
3 10 123 90
3 51 210 48
3 254 83 75
3 35 181 217
3 11 110 235
3 88 224 197
3 131 181 177
3 135 239 59
3 177 64 164
3 36 28 113
3 239 136 59
3 133 114 112
3 225 44 66
3 239 37 136
3 66 44 33
3 192 148 71
3 201 14 5
3 82 156 215
3 156 189 205
3 202 261 178
3 87 107 223
3 109 116 7
3 27 2 204
3 261 175 118
3 5 121 201
3 245 176 262
3 176 156 205
3 260 107 80
3 41 145 70
3 179 186 227
3 47 46 34
3 76 202 122
3 263 249 124
3 3 85 259
3 127 91 209
3 3 193 85
3 54 91 127
3 102 54 127
3 91 50 232
3 57 55 184
3 131 164 231
3 235 100 18
3 130 80 107
3 139 238 223
3 36 113 58
3 260 117 139
3 63 81 32
3 141 31 19
3 226 207 28
3 37 220 136
3 117 147 241
3 191 240 162
3 240 152 198
3 191 159 20
3 158 172 68
3 228 97 96
3 14 175 229
3 82 189 156
3 87 233 9
3 156 176 247
3 22 100 249
3 234 56 99
3 173 109 264
3 104 224 88
3 18 11 235
3 143 105 112
3 61 63 32
3 31 111 19
3 2 27 224
3 112 186 143
3 143 203 218
3 207 44 115
3 186 179 143
3 143 179 8
3 226 200 118
3 192 71 145
3 146 187 199
3 121 46 41
3 52 87 9
3 232 39 209
3 195 258 17
3 167 184 48
3 38 104 0
3 98 99 49
3 52 130 87
3 53 131 231
3 58 50 91
3 86 193 59
3 51 55 61
3 108 23 238
3 249 235 124
3 180 235 110
3 104 180 110
3 168 99 161
3 132 57 16
3 264 61 173
3 236 4 100
3 59 193 135
3 131 177 164
3 197 212 15
3 219 246 225
3 252 225 134
3 132 136 137
3 61 32 173
3 223 260 139
3 166 19 236
3 105 218 161
3 237 137 42
3 63 106 42
3 177 181 140
3 224 62 2
3 213 79 203
3 63 42 81
3 177 67 64
3 112 114 12
3 140 40 67
3 225 115 44
3 81 144 221
3 117 241 138
3 19 64 141
3 220 37 145
3 221 162 81
3 43 188 40
3 114 24 119
3 146 33 44
3 65 162 240
3 43 208 188
3 25 158 68
3 142 183 169
3 12 119 186
3 69 151 119
3 119 227 186
3 174 261 118
3 221 159 191
3 171 149 152
3 187 118 175
3 153 120 171
3 120 153 77
3 158 154 172
3 72 243 97
3 228 96 76
3 14 155 5
3 5 155 262
3 13 215 156
3 205 262 176
3 253 15 75
3 51 61 264
3 198 152 149
3 34 251 73
3 74 21 247
3 74 247 245
3 17 219 252
3 97 74 96
3 217 181 131
3 56 105 161
3 164 64 166
3 177 140 67
3 12 114 119
3 46 145 41
3 191 152 240
3 72 228 151
3 159 47 73
3 47 34 73
3 228 72 97
3 222 29 189
3 74 97 243
3 244 245 155
3 13 247 21
3 29 205 189
3 209 91 232
3 129 49 168
3 99 98 234
3 23 223 238
3 66 94 134
3 113 28 207
3 123 9 233
3 79 129 168
3 252 135 193
3 28 36 213
3 116 30 198
3 65 198 30
3 220 145 71
3 152 20 160
3 60 80 130
3 127 209 126
3 106 57 237
3 92 112 105
3 53 255 230
3 167 84 16
3 253 197 15
3 35 108 238
3 133 212 114
3 207 146 44
3 221 191 162
3 72 169 242
3 221 148 159
3 178 179 227
3 170 157 154
3 154 21 172
3 258 219 17
3 193 86 85
3 103 22 231
3 237 57 132
3 106 63 55
3 63 61 55
3 110 11 62
3 134 94 135
3 1 43 140
3 201 121 41
3 0 83 125
3 16 184 167
3 126 49 129
3 38 124 180
3 38 180 104
3 128 89 101
3 53 196 217
3 92 105 78
3 60 130 185
3 161 218 79
3 246 115 225
3 45 173 32
3 218 203 79
3 137 144 42
3 70 94 95
3 71 148 144
3 183 25 68
3 2 169 69
3 69 119 204
3 159 148 47
3 170 188 163
3 227 228 122
3 157 13 154
3 76 122 228
3 163 77 157
3 79 102 129
3 116 60 7
3 20 222 160
3 206 194 211
3 204 2 69
3 85 86 216
3 185 206 211
3 133 112 92
3 141 64 67
3 118 200 174
3 169 183 242
3 20 152 191
3 152 160 171
3 175 261 229
3 244 202 76
3 153 82 77
3 40 140 43
3 107 260 223
3 29 222 73
3 247 13 156
3 160 153 171
3 22 249 256
3 93 84 216
3 128 78 6
3 85 216 84
3 93 16 84
3 202 244 229
3 189 82 160
3 76 74 245
3 124 38 263
3 259 17 3
3 19 4 236
3 176 245 247
3 201 95 33
3 185 211 7
3 248 80 198
3 210 264 194
3 147 117 248
3 101 78 128
3 133 92 101
3 132 137 237
3 214 158 25
3 75 250 254
3 264 210 51
3 157 77 215
3 88 197 253
3 45 65 30
3 204 24 27
3 169 72 69
3 264 109 211
3 154 158 170
3 13 21 154
3 250 75 89
3 224 104 62
3 45 116 109
3 24 204 119
3 95 201 41
3 214 150 158
3 72 151 69
3 175 199 187
3 199 14 201
3 73 251 29
3 122 202 178
3 162 32 81
3 164 103 231
3 217 108 35
3 102 36 54
3 110 62 104
3 35 1 181
3 137 220 144
3 66 33 95
3 38 0 257
3 3 252 193
3 109 7 211
3 60 185 7
3 192 46 47
3 192 47 148
3 53 230 196
3 89 75 26
3 52 185 130
3 0 88 83
3 16 57 184
3 217 90 108
3 90 23 108
3 197 224 27
3 116 80 60
3 186 112 12
3 200 28 213
3 113 207 115
3 165 139 117
3 1 138 43
3 28 200 226
3 65 240 198
3 142 111 31
3 141 67 214
3 8 174 200
3 149 248 198
3 72 242 243
3 14 229 155
3 262 155 245
3 151 227 119
3 222 189 160
3 79 168 161
3 79 213 102
3 208 163 188
3 78 234 6
3 56 78 105
3 261 179 178
3 263 38 257
3 107 87 130
3 26 133 101
3 65 32 162
3 200 213 203
3 148 221 144
3 50 219 232
3 147 120 241
3 206 185 52
3 184 51 48
3 166 236 103
3 25 31 141
3 244 155 229
3 255 53 231
3 32 65 45
3 117 138 165
3 8 200 203
3 226 146 207
3 182 22 256
3 166 103 164
3 54 36 58
3 165 138 1
3 25 183 31
3 17 259 195
3 211 194 264
3 216 86 93
3 223 233 87
3 190 136 132
3 212 133 26
3 218 105 143
3 165 1 35
3 142 62 11
3 117 260 248
3 179 174 8
3 208 138 241
3 146 226 187
3 70 95 41
3 120 77 163
3 250 89 128
3 127 126 129
3 125 83 254
3 76 96 74
3 263 256 249
3 80 248 260
3 258 39 232
3 56 161 99
3 33 146 199
3 159 222 20
3 229 261 202
3 153 160 82
3 26 15 212
3 219 225 252
3 233 223 23
3 109 173 45
3 241 120 208
3 77 82 215
3 139 165 238
3 33 199 201
3 147 248 149
