OFF
31 50 0
-0.478695499737784 -0.449235457535906 0
-0.191063483353034 -0.220897211581841 0
-0.312135445495631 0.196826703322064 0
0.121265377012238 -0.261839525673186 0
1 0 0
-0.591247587139156 -0.126092154654159 0
-0.329166788110655 0.600509508200698 0
-0.988724298017585 0.149747328889812 0
-0.221678856624881 -0.560876329068632 0
0.582127526664548 -0.0548451893853259 0
0.319179905454685 0.0748981047609231 0
-0.294772900032175 -0.0692101699217 0
0.189985507704618 0.33024079199516 0
-0.0782604860167803 0.320142819232023 0
0.492692651857373 -0.247891973416802 0
0.482468933700287 -0.875913082454023 0
0.257948809483619 -0.541821845769338 0
0.430114505532063 0.495108530599026 0
0.106437502242582 0.0748797818191213 0
-0.227355802930796 0.973811757411921 0
0.298337671081498 0.954460388918088 0
0.588412712035044 0.273902204934193 0
-0.0650580166189347 0.0519509334642743 0
0.111908662608574 0.605441256046456 0
-0.924211989538867 -0.381879821923874 0
-0.645015782958307 0.257443060798182 0
-0.798616978232834 0.601839614912692 0
0.823217166439377 0.567726603991325 0
-0.336137876853946 -0.9418127880551 0
0.0124065520038438 -0.6505870760604 0
0.921529242800185 -0.388308968044929 0
3 29 8 28
3 9 14 30
3 28 0 24
3 9 30 4
3 15 16 29
3 22 11 1
3 7 5 25
3 17 12 21
3 1 0 8
3 26 7 25
3 25 2 6
3 22 3 18
3 25 5 2
3 18 10 12
3 22 13 2
3 1 5 0
3 2 13 6
3 23 13 12
3 10 3 14
3 28 8 0
3 23 19 6
3 9 21 10
3 29 16 3
3 3 1 8
3 2 11 22
3 12 13 18
3 2 5 11
3 3 22 1
3 9 4 21
3 14 3 16
3 10 18 3
3 10 14 9
3 17 20 23
3 30 14 15
3 26 6 19
3 27 21 4
3 27 17 21
3 25 6 26
3 0 5 24
3 15 29 28
3 19 23 20
3 5 7 24
3 23 12 17
3 29 3 8
3 13 23 6
3 22 18 13
3 1 11 5
3 17 27 20
3 21 12 10
3 15 14 16
