OFF
31 50 0
-0.9551275 -0.07304171 0.3661058 
-0.567343 -0.1032006 0.8610153 
-0.2209277 0.6261585 0.7992887 
-0.1623329 -0.5419973 0.8767612 
0.788134 -0.6625713 0.03448291 
-0.8274387 0.4216577 0.4792024 
0.177243 0.9409457 0.4035481 
-0.6676043 0.7594787 0.003624099 
-0.8135992 -0.446423 0.4543889 
0.6146989 -0.6409667 0.5182502 
0.5210025 -0.2757198 0.8330707 
-0.5186922 0.2365301 0.8405096 
0.6310649 0.2227035 0.7831932 
0.2506072 0.5269593 0.8285838 
0.3240082 -0.8144377 0.5530624 
-0.1956344 -1.032577 0.01770389 
-0.22639 -0.8925144 0.4829768 
0.9274554 0.153 0.4069973 
0.2402483 -0.03575821 1.001055 
0.4724179 0.9263207 0.06685492 
0.8708874 0.5666342 0.01215128 
0.9071594 -0.2506272 0.4261262 
-0.05383981 0.1489125 1.01436 
0.7055438 0.575921 0.4878958 
-0.9773887 0.3055942 -0.000801895 
-0.4619532 0.8452094 0.3729492 
-0.2259528 0.9986411 0.00163609 
1.007589 -0.09238146 -0.0008188768 
-0.8963201 -0.5380861 -0.002342728 
-0.5903766 -0.7495309 0.3766747 
0.4712205 -0.912322 0.009986343 
3 29 8 28 
3 9 14 30 
3 28 0 24 
3 9 30 4 
3 15 16 29 
3 22 11 1 
3 7 5 25 
3 17 12 21 
3 1 0 8 
3 26 7 25 
3 25 2 6 
3 22 3 18 
3 25 5 2 
3 18 10 12 
3 22 13 2 
3 1 5 0 
3 2 13 6 
3 23 13 12 
3 10 3 14 
3 28 8 0 
3 23 19 6 
3 9 21 10 
3 29 16 3 
3 3 1 8 
3 2 11 22 
3 12 13 18 
3 2 5 11 
3 3 22 1 
3 9 4 21 
3 14 3 16 
3 10 18 3 
3 10 14 9 
3 17 20 23 
3 30 14 15 
3 26 6 19 
3 27 21 4 
3 27 17 21 
3 25 6 26 
3 0 5 24 
3 15 29 28 
3 19 23 20 
3 5 7 24 
3 23 12 17 
3 29 3 8 
3 13 23 6 
3 22 18 13 
3 1 11 5 
3 17 27 20 
3 21 12 10 
3 15 14 16 
