OFF
278 499 0
0.242299202360979 -0.570719509462129 0
1 0 0
-0.559440622435243 0.114212834731485 0
-0.139348608997553 0.282090931320387 0
-0.459996162462051 -0.509232414982777 0
0.375219366188347 -0.111659722386271 0
0.983046432455488 -0.183356787811463 0
0.727946264452889 0.296287518452586 0
-0.0459814181181879 0.785897332114185 0
-0.235804109787584 0.40010339414554 0
-0.351786336402072 0.309185818933397 0
-0.733698571440528 0.436511542458776 0
-0.872979338369275 -0.133288065584819 0
-0.64036010512254 0.584263506153801 0
-0.379632880825676 0.432574162800596 0
-0.179688513435517 -0.410298793424525 0
0.0998479090657654 -0.814548076194073 0
0.297175229968648 0.759041269688554 0
-0.151316190373718 0.718725973975817 0
0.100680173922883 -0.523501778330249 0
0.273184849586351 -0.0887686821612499 0
0.527765676432803 0.849390010995789 0
0.47065596061059 0.794056482730029 0
0.0313277494405039 0.228118176978786 0
-0.809694154384608 0.487687527074466 0
-0.0797921724099385 -0.329150494556133 0
-0.494215442515226 0.300366734189641 0
0.500722066338665 -0.632863799556099 0
0.85607664737889 0.325856412739471 0
0.499702294608271 0.595178439922716 0
-0.00553126090348881 0.884581747828388 0
-0.712686071527016 0.0944603859707378 0
-0.294050998008979 0.237177938521218 0
0.149447533690206 0.371484966116036 0
0.3912945496072 0.340561134195285 0
-0.631001555562072 -0.32776764316819 0
-0.302526941134454 -0.149214533199819 0
0.734089733000579 -0.572048534778065 0
0.857187433929408 -0.515004566109386 0
0.916030113175393 0.202481019237495 0
0.532909214951794 0.74843073894328 0
-0.241990383824922 0.570341111366277 0
-0.59501539774888 0.803714300259577 0
-0.741317396766193 0.513910459730627 0
-0.820863659052657 0.426324755995169 0
-0.643556860851262 0.162788044594738 0
-0.266182870242493 -0.287045029311517 0
0.111248423310746 0.00736531897269396 0
0.0419731205180823 0.56330720740634 0
-0.759229249937324 -0.240051711728207 0
-0.574482778597582 -0.578576114045269 0
0.89985023544368 0.436198984148237 0
0.298524704415667 0.954401907402504 0
-0.202575643413809 0.609537861158171 0
-0.292976271320676 0.801424731176277 0
-0.859057829610093 0.223366423983962 0
-0.206023746528174 -0.198888836551446 0
-0.317862507532964 0.739462443336354 0
-0.626965468663937 -0.779047046784088 0
0.686902263002795 -0.428214067877869 0
-0.467427119507622 0.88403161026561 0
-0.874688061168566 0.484686285806783 0
-0.556512370961542 -0.202420156071322 0
-0.941647307130475 -0.336601171973487 0
-0.511048648554989 -0.694402182891017 0
0.169222290079868 -0.569108481139604 0
0.621872448380092 0.200726710547662 0
0.0972324429982059 0.676200421604184 0
0.063776456142362 0.40942553202969 0
-0.777451133930672 -0.0896430162293057 0
-0.548949907462193 -0.835855250086551 0
0.00763065540765206 -0.574880911602274 0
0.398409250394344 -0.460226175668197 0
0.484148532469627 -0.0386244632332794 0
-0.700570748676308 0.570156423472175 0
-0.469649998530891 -0.128719048802638 0
-0.865104271719252 -0.501592064384099 0
0.153034989150258 0.608894182569073 0
-0.555822217171934 -0.393546914354273 0
0.549573641159839 -0.575658165663755 0
0.589413797531629 -0.311389606236807 0
0.792520757070905 0.14169302372778 0
-0.753560898730942 0.404405981287381 0
-0.890212324510914 -0.0581596303835605 0
-0.735735572894628 -0.142222157173482 0
-0.43580003715243 -0.310585671140213 0
-0.361332630043492 -0.3681134956019 0
0.0767257852534396 -0.693974469124726 0
0.0866190580547265 -0.9154170386322 0
0.381497230169966 -0.611769315763522 0
0.771174985710658 -0.318046719824823 0
0.800519990408671 0.0438078754637539 0
0.561714437778214 0.106965977606636 0
0.576836905235611 0.620869664357138 0
-0.507666817137876 0.358580228213859 0
-0.739150027335513 0.34073883460802 0
-0.738251815911728 0.285535248856241 0
-0.617183684921356 -0.0807690692892984 0
-0.68827243418095 -0.175541655936896 0
-0.439666355253258 -0.783270205587469 0
-0.0164473496865076 -0.250745750506854 0
0.490040563402927 -0.744168326446545 0
0.68646139032579 -0.516916756042388 0
0.810744929649216 -0.585399572128378 0
0.580436855432393 -0.0201872596177358 0
0.841301430627991 0.38920720499256 0
0.80853862779888 0.415872814937697 0
0.149073383626471 0.53851147678579 0
-0.0441069021123837 0.526348680262487 0
-0.514475467913959 0.252641671398623 0
-0.90711224227724 0.420888797559115 0
-0.986318642676131 0.164850038245413 0
-0.24232548231894 -0.04646581902793 0
-0.816986449628742 -0.308684389777474 0
-0.806355451775367 -0.364040250530401 0
-0.523034088460835 0.449467179027484 0
-0.342741879621304 -0.413361368655903 0
0.703683059837982 -0.339912717881696 0
0.679284185510746 0.0699117986065561 0
0.279805523545412 0.0761536143492682 0
0.253823348881237 0.328241595614532 0
-0.438826660673974 -0.716581422332964 0
-0.362716793591387 -0.767418745558853 0
-0.0288970459259695 -0.999582393170644 0
0.0332464431198936 -0.938457807548948 0
0.305211177434481 -0.246384119197798 0
0.547193493398953 -0.837006141424213 0
0.761286785474811 -0.648415322352448 0
0.949172700022958 0.314755755358226 0
0.531805560566828 0.332476106900036 0
0.813364289852401 0.581754700877353 0
0.740143031469754 0.672449472426563 0
0.13398040977817 0.129848387673171 0
0.325278008544238 0.822843457543681 0
-0.317610389881078 0.948221303409489 0
-0.284348987729618 0.56646800775945 0
-0.853727745237915 0.520719633786729 0
-0.845450086779599 0.386377465687995 0
-0.676697741868023 -0.0080134401195737 0
-0.858465477697391 -0.181282698411257 0
-0.974841716196485 -0.222898246657733 0
-0.716085282154686 -0.698012799797714 0
-0.0474727138211949 -0.095285695983237 0
-0.244733262081165 0.13937828516793 0
0.022196324090429 -0.819975399233941 0
0.513842890893673 0.0506359886780851 0
0.83058514982735 0.26908389560736 0
0.557025414296912 0.466318051841853 0
0.615765985069922 0.336743916244577 0
0.402056574396371 0.692385964934353 0
-0.133937800554989 0.829251260202002 0
-0.0617626079295776 0.693279940807815 0
-0.0902031966487083 0.162751369939068 0
-0.406261649778646 0.775975446346919 0
-0.373866885751077 0.623686579527687 0
-0.385945069938081 0.170169651264825 0
-0.491943779029046 -0.454861215077706 0
-0.192042251323627 -0.589571524692549 0
-0.08926611566211 -0.482701629999386 0
0.151298159336144 -0.137211611082473 0
0.671103155111687 -0.114475289224429 0
0.417308894778697 0.808347917868353 0
-0.865871130839448 0.00682782996914341 0
-0.537991161048482 -0.307124023314373 0
-0.0544947305082188 -0.635234208983341 0
-0.102096346827497 -0.803651926287479 0
-0.072438755167762 -0.708507284295454 0
0.0557292585230564 -0.380480328490034 0
0.272851941713325 0.654362759985029 0
-0.536668039675396 0.201509310664985 0
-0.0722508168023591 -0.997386494530276 0
0.217678398367902 -0.423376222006213 0
0.578677367235275 -0.706152959185165 0
0.644003142287695 -0.765022844576275 0
0.50095368338111 -0.314251941977279 0
0.770339639986195 -0.434543233844898 0
0.898528208611201 0.114310449923222 0
0.343016468343884 0.474454218085241 0
-0.157693877681061 0.987488045974183 0
-0.239234401311769 0.970961843343496 0
-0.525120071298315 -0.0145733848715104 0
-0.45676678421576 -0.580115485764521 0
-0.559327568377228 -0.652702157808643 0
-0.375598361114318 -0.559266427959571 0
-0.266732881362218 -0.547669040000988 0
0.270346735497636 -0.683174162818476 0
0.633069632731 -0.536867444153465 0
0.485079480424802 -0.182971193226002 0
0.321949721481584 0.212951248894559 0
0.374391679273152 0.750387751527186 0
0.217330145121662 0.531285662469498 0
-0.0917312741928964 0.886044238603165 0
-0.111630865505446 0.551177785698441 0
-0.808031960517903 0.266114069041928 0
-0.388982717106025 -0.215885888423652 0
-0.261720487360311 -0.965143712871757 0
-0.0390037818230361 -0.882218226468795 0
0.198600565562443 -0.980080514732477 0
0.631642264664725 -0.656913668841021 0
0.961980445256137 -0.273118331396491 0
0.877980088615775 0.000291071489754287 0
0.908706522581538 0.271093188303713 0
0.418408174739967 0.444438116301336 0
0.638664654810353 0.769485190693085 0
0.588927308765125 0.673350625930276 0
0.106763457282743 0.994284448329066 0
-0.208512162987316 0.85629251472245 0
-0.255662248247207 0.831376222091645 0
-0.38462549878362 0.835789149935088 0
-0.313582823010229 -0.0523346922650939 0
0.14792798387377 -0.260265091865919 0
0.278472661869933 0.569886209580984 0
-0.554506474233044 -0.77254236623601 0
-0.136400231800253 -0.882649561153596 0
0.718113210401168 -0.695926301448169 0
0.698623448105503 -0.624692148937305 0
0.75303305574368 -0.512949324986938 0
0.914908343287182 -0.403661644677202 0
0.474435231058598 0.163754958464272 0
0.972499694011831 0.232904154421715 0
0.778215801013833 0.351752792562363 0
0.455421705866352 0.653043450033674 0
0.462150154978781 0.886801688233107 0
0.0225894198901268 0.999744826497756 0
-0.1685886545784 0.470919348311639 0
-0.282305860170719 0.921526520140065 0
-0.442501961573696 0.558731248564094 0
-0.860592351160767 0.313746782328868 0
-0.410737371300385 0.0513684692721286 0
-0.841963385248988 -0.211534328115579 0
-0.655172216634138 0.47240535550041 0
-0.312063574525695 -0.450287617197076 0
0.162833934370788 -0.759337441694792 0
0.582777293756772 -0.192762143973228 0
0.498998377736916 0.245828049338781 0
0.164293953338907 0.780853894358124 0
0.226642158675287 0.787283909283812 0
-0.0680812729665213 0.377747380706998 0
-0.432022203314178 -0.065169072327502 0
-0.699762363718993 -0.527128365856017 0
-0.604358550399428 -0.50534703755291 0
0.0452193579704229 -0.998977081651397 0
0.584602240741042 0.811320047897593 0
0.385615959886935 0.0376835052330925 0
0.926037854801614 0.377430644588414 0
0.381296228990819 0.924452911595491 0
-0.456430577440017 -0.889759028039487 0
-0.820171827082307 0.57211727299608 0
-0.948735170905981 0.316072104884311 0
-0.925883135231088 -0.197148663588718 0
-0.85805063884193 -0.27113530376443 0
0.327680391544431 -0.354705940982295 0
-0.637519022991021 -0.704550648304398 0
0.415981523232359 -0.909373065539818 0
0.831656466166989 -0.403328864248181 0
0.994230270751058 0.107266810907558 0
0.240448651329353 0.423761867158216 0
0.453159489782981 -0.354684005759585 0
-0.232152285549381 -0.752219440002429 0
0.260176706327814 -0.828447084797542 0
0.81752967229549 0.197334104568117 0
-0.774454304724744 -0.632629852198988 0
0.119026065358197 -0.992891129865378 0
0.82474318384547 -0.254756076689846 0
0.926084490361751 -0.106186285026549 0
0.231861027437062 0.87941010452107 0
-0.319540949242149 0.847828773030911 0
-0.997526797766227 -0.0702871804688228 0
-0.988695600776738 -0.149936683319078 0
-0.729048282470768 0.684462272025583 0
0.351644759463321 0.574618481621801 0
0.156524549984305 -0.891904552861949 0
-0.37917614622255 0.925324510718167 0
-0.585040080449616 -0.740620413119355 0
0.845604613321033 -0.348133738998972 0
0.740219897259376 0.428076384248666 0
-0.664395179924737 -0.61755663685463 0
-0.145055362067818 0.911434987675021 0
3 104 73 187
3 41 9 224
3 110 227 137
3 75 98 62
3 152 142 47
3 158 164 71
3 187 233 104
3 66 234 218
3 157 165 166
3 234 148 129
3 40 21 22
3 12 83 268
3 62 163 85
3 156 85 78
3 181 183 231
3 165 196 166
3 87 65 19
3 186 102 257
3 175 90 117
3 117 233 80
3 119 47 20
3 161 149 22
3 162 69 138
3 124 196 123
3 160 104 233
3 3 152 237
3 228 169 2
3 243 5 73
3 118 176 81
3 7 28 220
3 147 131 93
3 12 268 249
3 115 226 13
3 100 142 56
3 138 31 162
3 98 229 49
3 187 5 174
3 200 255 176
3 146 39 201
3 82 26 11
3 82 11 24
3 14 10 9
3 87 71 144
3 172 173 198
3 79 27 198
3 215 127 37
3 37 216 102
3 275 147 148
3 189 168 211
3 77 168 17
3 9 3 224
3 54 53 207
3 154 226 14
3 248 227 110
3 116 4 181
3 231 116 181
3 232 16 271
3 72 89 27
3 171 0 72
3 145 104 118
3 66 7 234
3 147 129 148
3 17 236 77
3 237 23 68
3 237 68 108
3 18 151 150
3 224 3 237
3 138 69 97
3 49 35 163
3 210 100 167
3 259 271 197
3 72 257 251
3 5 187 73
3 260 66 92
3 146 128 28
3 225 207 206
3 208 60 153
3 98 139 229
3 115 13 230
3 237 152 23
3 2 169 45
3 70 99 212
3 123 241 124
3 210 159 142
3 89 101 27
3 172 198 27
3 257 125 251
3 198 215 79
3 215 37 186
3 174 102 80
3 254 274 90
3 199 263 274
3 263 264 160
3 218 243 92
3 201 219 128
3 105 220 28
3 105 51 106
3 275 131 147
3 40 29 93
3 192 237 108
3 32 3 9
3 153 226 154
3 44 24 61
3 180 75 238
3 46 36 194
3 94 26 10
3 184 15 231
3 157 166 164
3 158 71 25
3 87 232 65
3 271 16 88
3 200 91 160
3 202 147 29
3 202 177 34
3 190 256 211
3 265 235 236
3 191 150 8
3 191 8 30
3 109 95 169
3 180 238 228
3 49 62 98
3 250 49 229
3 276 240 239
3 271 259 232
3 232 185 65
3 185 0 65
3 171 65 0
3 173 172 101
3 175 117 59
3 41 224 53
3 264 200 160
3 118 92 145
3 7 66 146
3 107 77 48
3 115 94 14
3 76 239 114
3 164 144 71
3 88 241 262
3 171 210 167
3 72 79 186
3 174 80 187
3 38 175 216
3 80 59 117
3 233 90 160
3 90 263 160
3 264 1 200
3 106 275 220
3 188 234 34
3 177 202 221
3 107 168 77
3 48 151 108
3 30 223 191
3 112 142 143
3 45 193 31
3 75 84 98
3 78 85 163
3 181 182 64
3 184 183 121
3 184 121 157
3 100 210 142
3 89 0 185
3 243 145 92
3 146 66 260
3 146 28 7
3 129 147 202
3 8 150 151
3 224 192 53
3 2 180 228
3 194 75 62
3 163 62 49
3 64 273 212
3 124 241 88
3 216 59 102
3 25 100 56
3 3 32 143
3 121 212 99
3 70 246 99
3 271 262 197
3 72 186 257
3 263 6 264
3 118 91 176
3 176 255 219
3 39 219 201
3 220 105 106
3 275 130 131
3 33 132 120
3 53 54 41
3 134 272 266
3 54 207 266
3 24 136 61
3 2 138 180
3 113 35 49
3 94 115 230
3 46 15 25
3 210 251 125
3 5 20 125
3 47 119 132
3 235 67 236
3 68 23 33
3 32 9 10
3 240 50 156
3 257 174 5
3 38 217 254
3 73 104 145
3 39 81 176
3 188 120 132
3 202 34 129
3 44 82 24
3 109 169 155
3 62 85 194
3 194 85 86
3 85 156 86
3 144 16 87
3 177 120 34
3 270 221 149
3 149 189 211
3 68 107 48
3 108 68 48
3 154 135 57
3 158 25 15
3 195 213 122
3 258 213 165
3 165 213 196
3 259 197 253
3 72 27 79
3 214 215 198
3 119 20 243
3 119 218 188
3 148 220 275
3 147 93 29
3 17 189 161
3 153 42 226
3 115 14 226
3 13 269 74
3 55 111 162
3 113 49 250
3 163 35 78
3 63 76 114
3 46 194 86
3 239 261 276
3 50 276 252
3 183 64 121
3 15 46 231
3 86 116 46
3 4 86 156
3 46 25 56
3 164 158 157
3 19 171 167
3 159 210 125
3 125 20 159
3 39 260 81
3 256 33 120
3 270 149 211
3 154 14 135
3 94 11 26
3 142 112 56
3 240 78 35
3 252 273 182
3 144 196 124
3 19 71 87
3 167 71 19
3 103 216 37
3 216 103 38
3 263 199 6
3 255 200 1
3 39 146 260
3 146 201 128
3 40 242 21
3 168 189 17
3 222 245 133
3 265 52 205
3 205 30 235
3 150 191 277
3 178 179 277
3 18 206 207
3 208 266 272
3 42 153 60
3 12 69 83
3 112 209 36
3 75 97 84
3 98 84 139
3 113 250 63
3 239 35 114
3 141 276 261
3 152 47 23
3 10 26 32
3 243 20 5
3 119 188 132
3 168 190 211
3 108 151 18
3 150 206 18
3 137 96 95
3 155 209 143
3 112 143 209
3 162 83 69
3 112 36 56
3 182 273 64
3 58 273 252
3 50 252 182
3 182 4 50
3 156 50 4
3 116 86 4
3 99 122 121
3 157 15 184
3 121 122 157
3 258 157 122
3 15 157 158
3 122 246 195
3 157 258 165
3 167 25 71
3 166 196 144
3 170 123 196
3 88 262 271
3 185 232 259
3 185 259 101
3 126 101 253
3 27 101 172
3 47 142 159
3 102 59 80
3 216 175 59
3 187 80 233
3 47 159 20
3 175 254 90
3 217 274 254
3 91 104 160
3 1 264 6
3 118 81 92
3 92 81 260
3 176 219 39
3 66 218 92
3 28 128 244
3 148 7 220
3 129 34 234
3 132 23 47
3 106 51 130
3 34 120 188
3 131 203 204
3 204 93 131
3 221 202 29
3 221 270 177
3 120 177 256
3 204 203 40
3 204 40 93
3 221 29 40
3 22 221 40
3 21 222 22
3 161 133 17
3 190 168 107
3 33 190 107
3 222 133 161
3 265 133 52
3 265 205 235
3 8 67 235
3 235 30 8
3 205 223 30
3 151 67 8
3 178 191 223
3 191 178 277
3 150 277 206
3 192 207 53
3 3 143 152
3 266 225 134
3 225 266 207
3 57 54 266
3 135 41 57
3 9 41 135
3 226 42 13
3 269 13 42
3 247 74 269
3 74 43 230
3 230 43 11
3 43 247 24
3 26 82 109
3 110 44 61
3 44 110 137
3 55 248 111
3 31 193 55
3 238 209 228
3 69 84 97
3 180 97 75
3 238 75 209
3 139 249 229
3 84 12 139
3 194 209 75
3 209 194 36
3 250 229 249
3 113 114 35
3 46 56 36
3 252 141 58
3 94 10 14
3 74 230 13
3 230 11 94
3 181 4 182
3 64 183 181
3 183 184 231
3 46 116 231
3 167 100 25
3 144 124 88
3 144 88 16
3 171 19 65
3 16 232 87
3 171 251 210
3 185 101 89
3 0 89 72
3 72 251 171
3 102 186 37
3 257 102 174
3 257 5 125
3 117 90 233
3 145 243 73
3 119 243 218
3 7 148 234
3 221 22 149
3 177 270 256
3 33 23 132
3 190 33 256
3 161 189 149
3 107 68 33
3 77 236 67
3 265 236 133
3 236 17 133
3 151 48 67
3 67 48 77
3 192 108 18
3 207 192 18
3 192 224 237
3 57 266 208
3 57 153 154
3 9 135 14
3 155 32 26
3 155 143 32
3 109 155 26
3 137 95 44
3 44 95 82
3 109 82 95
3 169 95 96
3 169 228 155
3 96 227 193
3 227 96 137
3 193 45 96
3 152 143 142
3 169 96 45
3 209 155 228
3 97 180 138
3 35 239 240
3 272 60 208
3 234 188 218
3 212 273 58
3 225 179 134
3 63 114 113
3 173 101 126
3 245 52 133
3 276 50 240
3 164 166 144
3 277 179 206
3 2 45 138
3 64 212 121
3 196 213 170
3 259 253 101
3 214 198 173
3 103 37 127
3 203 242 40
3 45 31 138
3 267 162 111
3 83 267 268
3 250 140 63
3 240 156 78
3 136 24 247
3 99 246 122
3 213 258 122
3 274 263 90
3 244 105 28
3 244 51 105
3 227 248 55
3 83 162 267
3 270 211 256
3 153 57 208
3 69 12 84
3 268 140 249
3 249 140 250
3 261 239 76
3 58 70 212
3 170 213 195
3 79 215 186
3 127 215 214
3 38 254 175
3 274 217 199
3 275 106 130
3 161 22 222
3 206 179 225
3 41 54 57
3 43 74 247
3 55 193 227
3 55 162 31
3 276 141 252
3 176 91 200
3 91 118 104
3 43 24 11
3 139 12 249
