OFF
278 499 0
0.4973021 -0.4172201 0.7793582 
0.8433214 0.5465443 0.4927282 
-0.5453408 -0.442423 0.869572 
-0.3334453 -0.05405498 0.7975274 
-0.0746721 -0.8287426 1.000978 
0.2558728 -0.001873927 0.8462984 
0.9424674 0.4195516 0.78612 
0.2376209 0.5579744 0.4796342 
-0.6235341 0.4525054 0.6040672 
-0.4823181 -0.03602883 0.7636724 
-0.5093156 -0.1530448 0.8648232 
-0.9506727 -0.297985 1.15216 
-0.6977258 -0.8609712 0.485733 
-1.034598 -0.1041935 0.9481796 
-0.6325091 -0.09076612 0.8180934 
0.06792101 -0.5544609 0.8238726 
0.5813932 -0.6755179 0.4614472 
-0.4108851 0.611522 1.074142 
-0.6349397 0.2840065 0.530207 
0.3359612 -0.4433021 0.7033156 
0.1697335 -0.0553511 0.836847 
-0.233324 0.9750981 1.224793 
-0.2346234 0.8260888 1.199865 
-0.185817 0.01161669 0.825411 
-1.110742 -0.3188528 1.207601 
0.07462209 -0.4316666 0.7963796 
-0.6044908 -0.2409604 0.9539648 
0.7451969 -0.3844559 1.071889 
0.3330089 0.7176833 0.3392836 
-0.04535865 0.6523547 0.9746128 
-0.7016869 0.5908461 0.6267938 
-0.6922188 -0.5781038 0.830473 
-0.4152089 -0.1703247 0.8553124 
-0.1932928 0.1825037 0.8609038 
0.0007539972 0.3320556 0.81502 
-0.3128415 -0.8484551 0.748039 
-0.1844565 -0.4462167 0.8195202 
0.9095916 -0.1164288 1.349568 
1.039846 0.08706155 1.328064 
0.5480005 0.6222758 0.2826432 
-0.1227764 0.8510479 1.122149 
-0.6082414 0.06578667 0.6380864 
-1.221696 0.03849021 0.6456908 
-1.061046 -0.2255009 1.122895 
-1.044478 -0.4073411 1.225695 
-0.6540835 -0.4837859 0.917583 
-0.07418648 -0.5158479 0.8586902 
0.0006371285 -0.09049571 0.8242386 
-0.3956112 0.278503 0.7883766 
-0.4554426 -0.8755479 0.5670414 
-0.1392211 -1.008023 1.065696 
0.3115753 0.916482 0.3795148 
-0.6054569 0.8721137 1.078868 
-0.5989996 0.1295275 0.59932 
-0.8419034 0.2145434 0.402341 
-0.9306964 -0.6496727 0.9999846 
-0.08901916 -0.4189323 0.8368204 
-0.8218961 0.1349445 0.474209 
0.01952585 -1.315981 1.224684 
0.7233048 0.006729186 1.187385 
-1.176376 0.1667857 0.407953 
-1.198996 -0.3983765 1.263439 
-0.3251722 -0.6619042 0.7187884 
-0.5828204 -1.206137 0.4823812 
0.06615953 -1.062232 1.115664 
0.434556 -0.4406438 0.7156082 
0.2339668 0.3701611 0.574531 
-0.4642735 0.418227 0.8255102 
-0.2771568 0.16124 0.8245902 
-0.630811 -0.7279607 0.5856934 
0.1664508 -1.301394 1.130286 
0.2866476 -0.5457503 0.6543124 
0.5038213 -0.2716366 0.9702172 
0.3026602 0.107508 0.7786372 
-1.083317 -0.1498138 1.029978 
-0.3082992 -0.5336447 0.758378 
-0.4197113 -1.285469 0.7587864 
-0.3742152 0.3787759 0.8922878 
-0.2320177 -0.830359 0.8707968 
0.7213072 -0.2928774 1.14553 
0.5505928 0.02779465 1.030235 
0.4618637 0.4386272 0.4408378 
-0.934862 -0.3560238 1.168699 
-0.7970645 -0.8200825 0.5660462 
-0.5275907 -0.7390738 0.5790796 
-0.1841018 -0.657647 0.849626 
-0.09236193 -0.637558 0.8964028 
0.4476596 -0.5870864 0.5594872 
0.6736161 -0.8013905 0.3524436 
0.6372619 -0.4115079 0.9197658 
0.7574872 0.1851683 1.051897 
0.5727453 0.368084 0.5334452 
0.263231 0.2410543 0.6538258 
-0.003908991 0.7664135 0.9410658 
-0.6704891 -0.198957 0.9565528 
-0.8616613 -0.4195931 1.129339 
-0.820565 -0.4785576 1.077154 
-0.4747835 -0.5992811 0.6846798 
-0.4509074 -0.7364246 0.6092228 
0.2137312 -1.123959 1.007805 
0.06980727 -0.3384009 0.8010216 
0.8667139 -0.4918906 1.005752 
0.7878648 -0.0955286 1.266184 
1.051782 -0.04280012 1.408323 
0.3806578 0.1761603 0.729247 
0.2720406 0.7897 0.4008778 
0.2252989 0.7887926 0.4631208 
-0.316552 0.313658 0.8815376 
-0.4142088 0.1900222 0.7314664 
-0.5828608 -0.3023394 0.9560718 
-1.166997 -0.5242781 1.265974 
-1.058776 -0.8008156 0.8865366 
-0.2067271 -0.3373607 0.8219746 
-0.4604563 -1.021129 0.5671558 
-0.4245299 -1.074096 0.636571 
-0.7744958 -0.1426999 0.9277098 
-0.04366295 -0.6567199 0.9133372 
0.6882566 0.1106752 1.084012 
0.4119304 0.2968589 0.5904016 
0.07373562 0.05434069 0.7885374 
-0.0887026 0.2190456 0.8554368 
0.1589271 -1.032144 1.028861 
0.2411932 -1.044255 0.907573 
0.6326378 -1.059018 0.2935716 
0.6270158 -0.8899519 0.3124516 
0.2836414 -0.1478161 0.8944226 
1.031997 -0.5392604 1.033542 
1.056874 -0.1878431 1.398771 
0.4683031 0.8237585 0.2284862 
0.08424002 0.4372795 0.7045962 
0.1581704 0.9819221 0.6380916 
0.06501359 0.9971508 0.827584 
-0.0566969 0.005291167 0.8191026 
-0.4514877 0.7107208 1.122734 
-1.065017 0.3737603 0.2362272 
-0.647747 0.03309096 0.651459 
-1.215469 -0.3330891 1.228905 
-1.033479 -0.4904291 1.216454 
-0.5907665 -0.597317 0.7203402 
-0.6208723 -0.8982831 0.4683024 
-0.7356463 -1.103622 0.370952 
-0.1795918 -1.323118 1.134331 
-0.04492681 -0.2537325 0.8216 
-0.3201612 -0.2112876 0.8482206 
0.4850981 -0.7532584 0.434825 
0.2660774 0.1751524 0.7083592 
0.3594231 0.6088032 0.3550428 
0.04401365 0.5907634 0.7917528 
0.1311696 0.5116352 0.6206744 
-0.2160155 0.6347919 1.107925 
-0.7157486 0.425348 0.4744588 
-0.5523477 0.3376742 0.6283 
-0.2287941 -0.1053612 0.8225618 
-0.9735031 0.09722263 0.4843454 
-0.7895502 0.01640384 0.6378906 
-0.4371964 -0.2788605 0.8831006 
-0.1473639 -0.8153637 0.9545342 
0.1793955 -0.721413 0.7728642 
0.1668046 -0.5512938 0.7426568 
0.1140227 -0.1631436 0.8366086 
0.537011 0.1963504 0.7931262 
-0.3220643 0.7801685 1.202298 
-0.8182424 -0.7558812 0.6672602 
-0.255359 -0.7435891 0.8007924 
0.2787876 -0.6563815 0.630033 
0.3659178 -0.8809668 0.536133 
0.3175153 -0.7452189 0.5838836 
0.2028026 -0.3759452 0.760333 
-0.3238896 0.4916721 1.019643 
-0.5698036 -0.3657541 0.933188 
0.5847227 -1.101007 0.3399478 
0.3540724 -0.3205148 0.820887 
0.9045095 -0.4128886 1.156044 
1.049086 -0.4230276 1.218497 
0.4686625 -0.05338474 0.9969878 
0.8326889 0.08832134 1.216728 
0.619657 0.5083746 0.3852612 
-0.1049554 0.3950356 0.9289308 
-0.9307492 0.5978096 0.3616726 
-0.9894169 0.4979878 0.2646484 
-0.4410491 -0.4870178 0.7644972 
-0.003278819 -0.8913299 1.040462 
-0.04562614 -1.062955 1.132347 
0.0521908 -0.8113098 0.9724026 
0.1125853 -0.7280803 0.8631278 
0.6279823 -0.4943568 0.7396248 
0.7556779 -0.1744661 1.230231 
0.3856026 0.02732604 0.8977926 
0.01941355 0.1816693 0.7883418 
-0.3105584 0.6645737 1.141217 
-0.2593637 0.3456118 0.932567 
-0.7491009 0.5308354 0.498882 
-0.4755127 0.1596348 0.6780726 
-0.8901039 -0.5712355 1.063741 
-0.2027846 -0.5505005 0.8155184 
0.4337305 -1.218308 0.6323934 
0.4778593 -0.9018361 0.4047186 
0.8832628 -0.8100322 0.4202702 
0.8945395 -0.3267356 1.247846 
0.9769385 0.353945 0.9362418 
0.6995559 0.4084411 0.548217 
0.4578057 0.7064565 0.264646 
-0.03070035 0.4404017 0.8731688 
-0.06337031 1.002036 1.047935 
-0.02540188 0.8355526 0.9908518 
-0.7632506 0.7826493 0.7724312 
-0.8000373 0.3746793 0.3822332 
-0.8206384 0.2873926 0.3793448 
-1.008208 0.1680418 0.3959542 
-0.2517883 -0.3840192 0.8109054 
0.1894032 -0.2474264 0.8269256 
-0.236654 0.4179099 0.9836184 
0.10166 -1.215108 1.159455 
0.4123242 -1.011701 0.5122532 
1.056775 -0.2929459 1.348403 
0.9292191 -0.2266866 1.331348 
0.8734209 -0.0161789 1.307485 
1.016703 0.2296789 1.151947 
0.1509884 0.2363432 0.698616 
0.5978267 0.7411556 0.2116898 
0.2370313 0.6750615 0.4501198 
-0.1190248 0.6550018 1.060929 
-0.3610313 0.9482117 1.266913 
-0.8157296 0.7373186 0.6358732 
-0.4716242 0.05342133 0.7094432 
-0.9725875 0.3761277 0.2703434 
-0.8033931 -0.05032324 0.7599816 
-0.9924304 -0.5848157 1.133061 
-0.3858936 -0.3744162 0.8313326 
-0.567304 -0.9196033 0.4798482 
-0.9201621 -0.1977123 1.057746 
0.01089198 -0.6661877 0.9066118 
0.6019524 -0.5869711 0.5657632 
0.4811475 0.09739991 0.9040088 
0.1115484 0.3258815 0.6948936 
-0.529787 0.5634686 0.905607 
-0.4974923 0.602709 0.9900668 
-0.339374 0.05626786 0.768785 
-0.3272598 -0.4652167 0.7800908 
-0.2870936 -1.112896 0.9345456 
-0.2194031 -0.9795927 0.9703594 
0.727169 -0.9698771 0.2585484 
-0.1396321 0.9941852 1.145531 
0.1740979 0.09213488 0.7677488 
0.3826013 0.8775975 0.2953302 
-0.4992971 0.9078487 1.192878 
0.2802372 -1.281797 0.97382 
-1.231217 -0.2513686 1.154799 
-1.120738 -0.670361 1.130064 
-0.6945398 -1.000127 0.4077508 
-0.5271086 -1.019714 0.4913596 
0.3746693 -0.21631 0.9141518 
-0.08708834 -1.223845 1.17807 
0.9941673 -0.6481259 0.7868904 
0.8963086 0.1698547 1.170344 
0.7528085 0.6251833 0.338843 
-0.158803 0.2770472 0.9009558 
0.4558502 -0.129953 0.9959706 
0.2767839 -0.9314407 0.7329422 
0.7747619 -0.6143016 0.6223122 
0.4273504 0.5121928 0.3844968 
-0.2777581 -1.316053 1.00927 
0.8138009 -0.883657 0.3145818 
0.7895106 0.2624107 0.9502788 
0.8283678 0.404143 0.6851032 
-0.5874767 0.7198714 0.9931982 
-0.9271452 0.2349366 0.3494236 
-0.9200104 -0.9615265 0.5145826 
-0.8372016 -1.025943 0.4137652 
-1.243202 -0.100772 0.9397598 
-0.1662881 0.4830565 1.00731 
0.7360284 -0.7229142 0.4405474 
-1.113715 0.27562 0.2833234 
0.02783624 -1.203533 1.189075 
0.8766294 0.2227676 1.086143 
0.1623485 0.7330409 0.5534366 
-0.2002795 -1.160763 1.073487 
-0.8187005 0.514366 0.4153942 
3 104 73 187 
3 41 9 224 
3 110 227 137 
3 75 98 62 
3 152 142 47 
3 158 164 71 
3 187 233 104 
3 66 234 218 
3 157 165 166 
3 234 148 129 
3 40 21 22 
3 12 83 268 
3 62 163 85 
3 156 85 78 
3 181 183 231 
3 165 196 166 
3 87 65 19 
3 186 102 257 
3 175 90 117 
3 117 233 80 
3 119 47 20 
3 161 149 22 
3 162 69 138 
3 124 196 123 
3 160 104 233 
3 3 152 237 
3 228 169 2 
3 243 5 73 
3 118 176 81 
3 7 28 220 
3 147 131 93 
3 12 268 249 
3 115 226 13 
3 100 142 56 
3 138 31 162 
3 98 229 49 
3 187 5 174 
3 200 255 176 
3 146 39 201 
3 82 26 11 
3 82 11 24 
3 14 10 9 
3 87 71 144 
3 172 173 198 
3 79 27 198 
3 215 127 37 
3 37 216 102 
3 275 147 148 
3 189 168 211 
3 77 168 17 
3 9 3 224 
3 54 53 207 
3 154 226 14 
3 248 227 110 
3 116 4 181 
3 231 116 181 
3 232 16 271 
3 72 89 27 
3 171 0 72 
3 145 104 118 
3 66 7 234 
3 147 129 148 
3 17 236 77 
3 237 23 68 
3 237 68 108 
3 18 151 150 
3 224 3 237 
3 138 69 97 
3 49 35 163 
3 210 100 167 
3 259 271 197 
3 72 257 251 
3 5 187 73 
3 260 66 92 
3 146 128 28 
3 225 207 206 
3 208 60 153 
3 98 139 229 
3 115 13 230 
3 237 152 23 
3 2 169 45 
3 70 99 212 
3 123 241 124 
3 210 159 142 
3 89 101 27 
3 172 198 27 
3 257 125 251 
3 198 215 79 
3 215 37 186 
3 174 102 80 
3 254 274 90 
3 199 263 274 
3 263 264 160 
3 218 243 92 
3 201 219 128 
3 105 220 28 
3 105 51 106 
3 275 131 147 
3 40 29 93 
3 192 237 108 
3 32 3 9 
3 153 226 154 
3 44 24 61 
3 180 75 238 
3 46 36 194 
3 94 26 10 
3 184 15 231 
3 157 166 164 
3 158 71 25 
3 87 232 65 
3 271 16 88 
3 200 91 160 
3 202 147 29 
3 202 177 34 
3 190 256 211 
3 265 235 236 
3 191 150 8 
3 191 8 30 
3 109 95 169 
3 180 238 228 
3 49 62 98 
3 250 49 229 
3 276 240 239 
3 271 259 232 
3 232 185 65 
3 185 0 65 
3 171 65 0 
3 173 172 101 
3 175 117 59 
3 41 224 53 
3 264 200 160 
3 118 92 145 
3 7 66 146 
3 107 77 48 
3 115 94 14 
3 76 239 114 
3 164 144 71 
3 88 241 262 
3 171 210 167 
3 72 79 186 
3 174 80 187 
3 38 175 216 
3 80 59 117 
3 233 90 160 
3 90 263 160 
3 264 1 200 
3 106 275 220 
3 188 234 34 
3 177 202 221 
3 107 168 77 
3 48 151 108 
3 30 223 191 
3 112 142 143 
3 45 193 31 
3 75 84 98 
3 78 85 163 
3 181 182 64 
3 184 183 121 
3 184 121 157 
3 100 210 142 
3 89 0 185 
3 243 145 92 
3 146 66 260 
3 146 28 7 
3 129 147 202 
3 8 150 151 
3 224 192 53 
3 2 180 228 
3 194 75 62 
3 163 62 49 
3 64 273 212 
3 124 241 88 
3 216 59 102 
3 25 100 56 
3 3 32 143 
3 121 212 99 
3 70 246 99 
3 271 262 197 
3 72 186 257 
3 263 6 264 
3 118 91 176 
3 176 255 219 
3 39 219 201 
3 220 105 106 
3 275 130 131 
3 33 132 120 
3 53 54 41 
3 134 272 266 
3 54 207 266 
3 24 136 61 
3 2 138 180 
3 113 35 49 
3 94 115 230 
3 46 15 25 
3 210 251 125 
3 5 20 125 
3 47 119 132 
3 235 67 236 
3 68 23 33 
3 32 9 10 
3 240 50 156 
3 257 174 5 
3 38 217 254 
3 73 104 145 
3 39 81 176 
3 188 120 132 
3 202 34 129 
3 44 82 24 
3 109 169 155 
3 62 85 194 
3 194 85 86 
3 85 156 86 
3 144 16 87 
3 177 120 34 
3 270 221 149 
3 149 189 211 
3 68 107 48 
3 108 68 48 
3 154 135 57 
3 158 25 15 
3 195 213 122 
3 258 213 165 
3 165 213 196 
3 259 197 253 
3 72 27 79 
3 214 215 198 
3 119 20 243 
3 119 218 188 
3 148 220 275 
3 147 93 29 
3 17 189 161 
3 153 42 226 
3 115 14 226 
3 13 269 74 
3 55 111 162 
3 113 49 250 
3 163 35 78 
3 63 76 114 
3 46 194 86 
3 239 261 276 
3 50 276 252 
3 183 64 121 
3 15 46 231 
3 86 116 46 
3 4 86 156 
3 46 25 56 
3 164 158 157 
3 19 171 167 
3 159 210 125 
3 125 20 159 
3 39 260 81 
3 256 33 120 
3 270 149 211 
3 154 14 135 
3 94 11 26 
3 142 112 56 
3 240 78 35 
3 252 273 182 
3 144 196 124 
3 19 71 87 
3 167 71 19 
3 103 216 37 
3 216 103 38 
3 263 199 6 
3 255 200 1 
3 39 146 260 
3 146 201 128 
3 40 242 21 
3 168 189 17 
3 222 245 133 
3 265 52 205 
3 205 30 235 
3 150 191 277 
3 178 179 277 
3 18 206 207 
3 208 266 272 
3 42 153 60 
3 12 69 83 
3 112 209 36 
3 75 97 84 
3 98 84 139 
3 113 250 63 
3 239 35 114 
3 141 276 261 
3 152 47 23 
3 10 26 32 
3 243 20 5 
3 119 188 132 
3 168 190 211 
3 108 151 18 
3 150 206 18 
3 137 96 95 
3 155 209 143 
3 112 143 209 
3 162 83 69 
3 112 36 56 
3 182 273 64 
3 58 273 252 
3 50 252 182 
3 182 4 50 
3 156 50 4 
3 116 86 4 
3 99 122 121 
3 157 15 184 
3 121 122 157 
3 258 157 122 
3 15 157 158 
3 122 246 195 
3 157 258 165 
3 167 25 71 
3 166 196 144 
3 170 123 196 
3 88 262 271 
3 185 232 259 
3 185 259 101 
3 126 101 253 
3 27 101 172 
3 47 142 159 
3 102 59 80 
3 216 175 59 
3 187 80 233 
3 47 159 20 
3 175 254 90 
3 217 274 254 
3 91 104 160 
3 1 264 6 
3 118 81 92 
3 92 81 260 
3 176 219 39 
3 66 218 92 
3 28 128 244 
3 148 7 220 
3 129 34 234 
3 132 23 47 
3 106 51 130 
3 34 120 188 
3 131 203 204 
3 204 93 131 
3 221 202 29 
3 221 270 177 
3 120 177 256 
3 204 203 40 
3 204 40 93 
3 221 29 40 
3 22 221 40 
3 21 222 22 
3 161 133 17 
3 190 168 107 
3 33 190 107 
3 222 133 161 
3 265 133 52 
3 265 205 235 
3 8 67 235 
3 235 30 8 
3 205 223 30 
3 151 67 8 
3 178 191 223 
3 191 178 277 
3 150 277 206 
3 192 207 53 
3 3 143 152 
3 266 225 134 
3 225 266 207 
3 57 54 266 
3 135 41 57 
3 9 41 135 
3 226 42 13 
3 269 13 42 
3 247 74 269 
3 74 43 230 
3 230 43 11 
3 43 247 24 
3 26 82 109 
3 110 44 61 
3 44 110 137 
3 55 248 111 
3 31 193 55 
3 238 209 228 
3 69 84 97 
3 180 97 75 
3 238 75 209 
3 139 249 229 
3 84 12 139 
3 194 209 75 
3 209 194 36 
3 250 229 249 
3 113 114 35 
3 46 56 36 
3 252 141 58 
3 94 10 14 
3 74 230 13 
3 230 11 94 
3 181 4 182 
3 64 183 181 
3 183 184 231 
3 46 116 231 
3 167 100 25 
3 144 124 88 
3 144 88 16 
3 171 19 65 
3 16 232 87 
3 171 251 210 
3 185 101 89 
3 0 89 72 
3 72 251 171 
3 102 186 37 
3 257 102 174 
3 257 5 125 
3 117 90 233 
3 145 243 73 
3 119 243 218 
3 7 148 234 
3 221 22 149 
3 177 270 256 
3 33 23 132 
3 190 33 256 
3 161 189 149 
3 107 68 33 
3 77 236 67 
3 265 236 133 
3 236 17 133 
3 151 48 67 
3 67 48 77 
3 192 108 18 
3 207 192 18 
3 192 224 237 
3 57 266 208 
3 57 153 154 
3 9 135 14 
3 155 32 26 
3 155 143 32 
3 109 155 26 
3 137 95 44 
3 44 95 82 
3 109 82 95 
3 169 95 96 
3 169 228 155 
3 96 227 193 
3 227 96 137 
3 193 45 96 
3 152 143 142 
3 169 96 45 
3 209 155 228 
3 97 180 138 
3 35 239 240 
3 272 60 208 
3 234 188 218 
3 212 273 58 
3 225 179 134 
3 63 114 113 
3 173 101 126 
3 245 52 133 
3 276 50 240 
3 164 166 144 
3 277 179 206 
3 2 45 138 
3 64 212 121 
3 196 213 170 
3 259 253 101 
3 214 198 173 
3 103 37 127 
3 203 242 40 
3 45 31 138 
3 267 162 111 
3 83 267 268 
3 250 140 63 
3 240 156 78 
3 136 24 247 
3 99 246 122 
3 213 258 122 
3 274 263 90 
3 244 105 28 
3 244 51 105 
3 227 248 55 
3 83 162 267 
3 270 211 256 
3 153 57 208 
3 69 12 84 
3 268 140 249 
3 249 140 250 
3 261 239 76 
3 58 70 212 
3 170 213 195 
3 79 215 186 
3 127 215 214 
3 38 254 175 
3 274 217 199 
3 275 106 130 
3 161 22 222 
3 206 179 225 
3 41 54 57 
3 43 74 247 
3 55 193 227 
3 55 162 31 
3 276 141 252 
3 176 91 200 
3 91 118 104 
3 43 24 11 
3 139 12 249 
