OFF
110 200 0
-0.8880431 -0.09137918 0.4800526 
-0.6417395 -0.6959026 0.339737 
-0.6286124 0.08347309 0.7802882 
-0.4007857 0.8911971 0.2420849 
-0.5731447 0.6939579 0.4505798 
0.7211024 0.5437046 0.4467261 
-0.8790063 0.2372475 0.4320259 
-0.859077 -0.5360905 0.005584367 
0.3486318 0.8925498 0.3155533 
-0.6315823 -0.5339737 0.5723139 
-0.9090592 -0.3331369 0.2945064 
-0.6581993 -0.2667805 0.7148406 
-0.4144704 0.4680178 0.7845495 
-0.05214965 -0.637426 0.7790079 
-0.002045064 0.5761891 0.8253714 
-0.3390968 0.326176 0.8842841 
-0.3083847 -0.03150795 0.9547292 
0.5489185 0.8159531 0.2219348 
-0.391011 -0.3421865 0.8610007 
-0.2295037 -0.2702268 0.9427387 
0.8518381 -0.5506762 0.00244179 
-0.2224191 0.9615046 0.1887777 
0.03394503 0.9809681 0.2247807 
0.5285175 0.6419585 0.5739327 
0.6909896 0.04065464 0.7246519 
0.6860776 -0.4392434 0.5872788 
-0.1539705 0.224311 0.9725114 
-0.975201 -0.2420792 0.003835848 
-0.2797965 -0.9416103 0.2108093 
0.1660442 0.9390944 0.3231397 
-0.06634119 -0.9531941 0.3266079 
-0.7747867 0.4210877 0.503495 
-0.7845114 0.1782905 0.6037277 
0.01513609 0.8771456 0.4938756 
-0.2820289 0.7780476 0.5662003 
0.4426522 -0.4537956 0.7851123 
-0.241863 0.6252917 0.7470046 
0.1985668 -0.07463458 0.9869388 
-0.6676043 0.7594787 0.003624099 
0.606064 -0.8032153 0.004037397 
-0.072262 1.002661 0.002185039 
0.359354 -0.9441447 0.002058075 
0.6965171 -0.6965323 0.208955 
-0.1916291 0.8946447 0.4121397 
0.890484 -0.2209025 0.4207212 
0.744553 -0.5656053 0.3742077 
-0.7531215 -0.4277221 0.5138199 
-0.7644892 -0.07685563 0.6439431 
0.624261 -0.2288423 0.7581943 
0.6698865 0.313782 0.6872839 
-0.1735128 0.4780425 0.8687171 
0.4654436 0.3668326 0.8160879 
0.003855825 -0.4192012 0.9115978 
0.5314439 -0.6245279 0.582423 
0.280077 0.6808709 0.691111 
0.4372585 -0.1712374 0.8914148 
0.1026857 -0.98462 0.1749836 
-0.8028723 -0.5382078 0.2719488 
-0.5296395 -0.1004337 0.8531499 
-0.2591989 -0.4952528 0.8374195 
0.2504365 0.788577 0.5769091 
-0.07674646 -0.8033691 0.5950041 
-0.7690625 0.6044669 0.2314021 
-0.9941522 0.19398 -7.293405e-06 
-0.5531628 0.2748881 0.7968322 
-0.07068378 0.7479434 0.6699728 
0.01002883 -0.2529868 0.96908 
-0.05065402 -0.04858409 1.005272 
0.8683473 -0.4433542 0.2633243 
-0.6054746 0.4989369 0.6294478 
0.9839306 -0.1792562 0.1441355 
-0.25259 -0.8595192 0.46627 
0.5465712 0.07250174 0.8394831 
0.2624592 0.4481099 0.8637475 
0.1730039 -0.533974 0.8324845 
-0.4246713 0.6540878 0.6355038 
0.3449122 -0.6218634 0.7071077 
0.2909986 -0.8926975 0.3705282 
0.8306879 0.5665277 -0.0001938912 
0.9540398 0.3392188 0.01367323 
-0.4547513 0.809307 0.3888681 
-0.004254812 -1.006096 0.00413398 
-0.3717737 -0.9459831 0.005329088 
0.2291745 -0.3308233 0.9218495 
-0.4424302 -0.8559921 0.2778262 
0.8166187 0.2100194 0.5533435 
0.3259152 0.1229113 0.945167 
-0.99323 -0.008386326 0.186942 
0.3179746 0.9625905 -0.001370376 
0.6736145 0.7499416 0.006287635 
-0.9149192 0.3720013 0.2039513 
0.7847257 0.600742 0.1846326 
-0.5056274 -0.727723 0.4786429 
0.8278194 -0.1362944 0.5650651 
0.1372499 -0.8539134 0.5091721 
0.1491397 -0.7223787 0.6831625 
-0.4757689 -0.5227928 0.7131937 
-0.3863766 0.1158585 0.9207322 
0.06299953 0.2790976 0.968013 
0.8739423 0.3776298 0.3365418 
-0.2422154 -0.6873496 0.6910293 
-0.851191 0.529658 -7.160538e-05 
0.9668182 0.112213 0.2796829 
-0.5960534 0.7773482 0.2237924 
-0.3914478 0.9277917 -0.0007012941 
1.007589 -0.09238146 -0.0008188768 
-0.6681075 -0.751692 0.003345537 
0.4510837 -0.763036 0.487567 
-0.6534408 -0.7413659 0.1960881 
0.4164595 -0.8998108 0.1750709 
3 10 0 87 
3 75 34 80 
3 89 91 78 
3 103 3 38 
3 108 57 7 
3 107 77 109 
3 17 8 23 
3 84 71 92 
3 27 87 63 
3 68 42 20 
3 107 109 42 
3 94 107 95 
3 45 68 44 
3 5 85 99 
3 33 65 60 
3 23 5 17 
3 44 25 45 
3 82 84 108 
3 26 97 16 
3 75 80 4 
3 32 6 0 
3 47 0 11 
3 38 62 103 
3 39 42 109 
3 70 44 68 
3 61 94 95 
3 100 71 61 
3 85 24 93 
3 32 64 31 
3 86 72 51 
3 16 58 19 
3 89 88 17 
3 29 88 22 
3 56 30 81 
3 29 33 60 
3 61 71 30 
3 32 31 6 
3 11 0 46 
3 104 38 3 
3 0 6 87 
3 6 31 90 
3 103 4 80 
3 43 34 33 
3 13 59 100 
3 96 59 18 
3 67 66 37 
3 28 71 84 
3 4 69 75 
3 86 55 72 
3 98 67 37 
3 5 99 91 
3 54 65 14 
3 35 48 55 
3 98 73 14 
3 41 109 56 
3 7 10 27 
3 82 28 84 
3 17 91 89 
3 62 90 31 
3 92 1 84 
3 47 32 0 
3 93 25 44 
3 58 97 2 
3 19 66 67 
3 88 29 8 
3 62 4 103 
3 45 107 42 
3 1 46 57 
3 65 54 60 
3 23 54 51 
3 35 74 76 
3 20 42 39 
3 81 28 82 
3 88 8 17 
3 106 108 7 
3 27 10 87 
3 99 79 91 
3 108 1 57 
3 29 60 8 
3 4 31 69 
3 23 8 60 
3 33 34 65 
3 25 93 48 
3 53 76 107 
3 92 100 96 
3 9 11 46 
3 34 75 36 
3 96 11 9 
3 31 64 69 
3 12 50 36 
3 36 14 65 
3 54 73 51 
3 76 74 95 
3 97 64 2 
3 12 15 50 
3 15 97 26 
3 50 26 98 
3 55 37 83 
3 26 16 67 
3 26 67 98 
3 10 46 0 
3 65 34 36 
3 74 13 95 
3 35 55 83 
3 50 15 26 
3 51 73 86 
3 52 83 66 
3 83 37 66 
3 101 63 90 
3 108 84 1 
3 85 93 102 
3 102 44 70 
3 30 94 61 
3 13 74 52 
3 30 71 28 
3 22 33 29 
3 103 80 3 
3 43 80 34 
3 12 69 64 
3 58 16 97 
3 19 67 16 
3 102 93 44 
3 76 95 107 
3 72 55 48 
3 45 42 68 
3 12 36 75 
3 58 11 18 
3 98 14 50 
3 95 13 61 
3 35 83 74 
3 75 69 12 
3 35 76 53 
3 102 79 99 
3 43 33 22 
3 59 19 18 
3 9 46 1 
3 52 74 83 
3 52 59 13 
3 91 79 78 
3 68 20 70 
3 109 77 56 
3 40 22 88 
3 105 70 20 
3 66 19 52 
3 30 77 94 
3 90 62 101 
3 105 102 70 
3 72 24 49 
3 41 56 81 
3 100 92 71 
3 21 22 40 
3 43 22 21 
3 47 58 2 
3 58 18 19 
3 51 72 49 
3 87 90 63 
3 104 3 21 
3 82 108 106 
3 4 62 31 
3 24 72 48 
3 47 11 58 
3 45 53 107 
3 109 41 39 
3 17 5 91 
3 45 25 53 
3 85 49 24 
3 62 38 101 
3 81 30 28 
3 10 7 57 
3 5 49 85 
3 23 49 5 
3 25 35 53 
3 13 100 61 
3 15 64 97 
3 37 86 98 
3 86 37 55 
3 50 14 36 
3 92 96 9 
3 96 18 11 
3 73 54 14 
3 3 43 21 
3 94 77 107 
3 54 23 60 
3 100 59 96 
3 57 46 10 
3 2 32 47 
3 98 86 73 
3 12 64 15 
3 87 6 90 
3 2 64 32 
3 25 48 35 
3 102 105 79 
3 80 43 3 
3 92 9 1 
3 49 23 51 
3 93 24 48 
3 104 21 40 
3 56 77 30 
3 59 52 19 
3 99 85 102 
