OFF
110 200 0
0.536818773810532 -0.261146480385039 0
0.68158921361422 0.186388929260197 0
0.274002860641332 -0.225474260953907 0
-0.10736708074833 -0.773720159312876 0
0.0825138419970342 -0.613218882791522 0
-0.620638479485893 -0.054896144757262 0
0.429633963759456 -0.461942828483841 0
1 0 0
-0.57856325569929 -0.430511020576802 0
0.519674036705051 0.07596208137942 0
0.725602562194188 -0.152799939428657 0
0.406353709760253 -0.0693004843106051 0
0.0583920438401608 -0.344646744945755 0
0.214188489536618 0.287132144996101 0
-0.163699617761453 -0.267569615509156 0
0.0613392567443614 -0.241760802351717 0
0.142467432500783 -0.0696089972508638 0
-0.728478135201746 -0.324596027193802 0
0.274903698813046 0.0451755528666993 0
0.173868167329741 0.0558056577987422 0
-0.426767440037961 0.904361405702082 0
-0.267161541711707 -0.780046074377646 0
-0.439645664761354 -0.661396740387314 0
-0.496517917493185 -0.166639470226703 0
-0.351174887208684 0.190337007673907 0
-0.217610833508566 0.461303778813229 0
0.00692078471904963 -0.137247485654645 0
0.950859920089306 -0.309621401662996 0
0.606270292714665 0.53656570523631 0
-0.475419719558952 -0.531565574821033 0
0.418281431560095 0.579940870824709 0
0.285970478004694 -0.502891366335938 0
0.353795310074236 -0.352582625875472 0
-0.315930508166094 -0.490212383059499 0
-0.108940829275007 -0.5166551443583 0
-0.0740696364962448 0.344215134064891 0
-0.0707930526060548 -0.376432426637731 0
-0.0635968252362216 0.0841507710139848 0
0.164328179814478 -0.98640572246863 0
-0.0898720130450752 0.995953322837585 0
-0.464875843138312 -0.885375880892655 0
0.191754159397876 0.981442989864217 0
-0.181333295370056 0.790480603990137 0
-0.217854183494057 -0.607605735364519 0
-0.445962117643906 0.459297456803496 0
-0.240142204161921 0.633668322904507 0
0.571283697847981 -0.0237495091313181 0
0.418516488473493 -0.206151711044975 0
-0.229870989690143 0.295723504538077 0
-0.432829037209829 0.0510782064275627 0
-0.0556345960209565 -0.265436625823309 0
-0.321736006380242 -0.0357858969337557 0
0.114805068380092 0.186948650821173 0
-0.0747458870733003 0.508839418305634 0
-0.350824998124287 -0.253261371578664 0
-0.146576709294879 0.197665169285652 0
0.367562496036341 0.754401776306191 0
0.759233282402803 0.0250643701397571 0
0.270048346891649 -0.103924580133599 0
0.261523969606498 0.153963846474845 0
-0.394930215203733 -0.339723620783464 0
0.306903516566075 0.401227578022866 0
0.271315312830953 -0.741706394895564 0
0.73205969221126 -0.681240491338819 0
0.178965839585952 -0.290042612169436 0
-0.199314814537168 -0.400771873081489 0
0.0644915389030906 0.111797216046642 0
0.0350363857539635 0.00726489039256145 0
-0.391163253509364 0.654040371778475 0
0.153233806068821 -0.454142927451588 0
-0.641250630557029 0.575074534742609 0
0.454046914165549 0.404232199850261 0
-0.271580391487615 0.122706374444632 0
-0.244156802444277 -0.129385878635083 0
0.0747043202213275 0.296442673708329 0
0.00962415871444708 -0.475044006844274 0
0.0214519043827625 0.414267620178314 0
0.163464443803039 0.662607267087808 0
-0.999059211466506 -0.0433669457527716 0
-0.977076892481183 0.212886697985843 0
-0.0293262994912381 -0.66471242317539 0
0.53140643205537 0.847116995444066 0
0.802280604114565 0.59694709335214 0
-0.00893803721108797 0.20808933143663 0
0.644967949598017 0.386490760394875 0
-0.516629575400332 0.160496426974753 0
-0.173881966151073 0.0345299085005666 0
0.704453717309882 -0.431286917081179 0
-0.767002946686536 -0.641643576897774 0
-0.959960041754778 -0.280136963348583 0
0.477782959153588 -0.658114966719162 0
-0.830530580635698 -0.084306249749746 0
0.548877040317032 0.236515983243202 0
-0.398401887970192 0.350744471500165 0
0.220774459735397 0.527570043892412 0
0.152683477906893 0.409138542304761 0
0.397380474965844 0.111718902910027 0
0.13849628933994 -0.15683076511199 0
-0.100513602187877 -0.103123479231116 0
-0.700797060651761 0.103370783948988 0
0.33580899767711 0.269204131099195 0
0.442168184614476 -0.896932158256542 0
-0.678778913514382 0.319808546262774 0
0.0825410773729474 -0.793105531134453 0
-0.156360534465251 -0.987700047211572 0
-0.797378162631665 0.603479963012982 0
0.959148491220785 0.282903113784368 0
0.0161598620189164 0.590674036462073 0
0.791238831445455 0.235461214769075 0
0.101898134069975 0.836031958956008 0
3 10 0 87
3 75 34 80
3 89 91 78
3 103 3 38
3 108 57 7
3 107 77 109
3 17 8 23
3 84 71 92
3 27 87 63
3 68 42 20
3 107 109 42
3 94 107 95
3 45 68 44
3 5 85 99
3 33 65 60
3 23 5 17
3 44 25 45
3 82 84 108
3 26 97 16
3 75 80 4
3 32 6 0
3 47 0 11
3 38 62 103
3 39 42 109
3 70 44 68
3 61 94 95
3 100 71 61
3 85 24 93
3 32 64 31
3 86 72 51
3 16 58 19
3 89 88 17
3 29 88 22
3 56 30 81
3 29 33 60
3 61 71 30
3 32 31 6
3 11 0 46
3 104 38 3
3 0 6 87
3 6 31 90
3 103 4 80
3 43 34 33
3 13 59 100
3 96 59 18
3 67 66 37
3 28 71 84
3 4 69 75
3 86 55 72
3 98 67 37
3 5 99 91
3 54 65 14
3 35 48 55
3 98 73 14
3 41 109 56
3 7 10 27
3 82 28 84
3 17 91 89
3 62 90 31
3 92 1 84
3 47 32 0
3 93 25 44
3 58 97 2
3 19 66 67
3 88 29 8
3 62 4 103
3 45 107 42
3 1 46 57
3 65 54 60
3 23 54 51
3 35 74 76
3 20 42 39
3 81 28 82
3 88 8 17
3 106 108 7
3 27 10 87
3 99 79 91
3 108 1 57
3 29 60 8
3 4 31 69
3 23 8 60
3 33 34 65
3 25 93 48
3 53 76 107
3 92 100 96
3 9 11 46
3 34 75 36
3 96 11 9
3 31 64 69
3 12 50 36
3 36 14 65
3 54 73 51
3 76 74 95
3 97 64 2
3 12 15 50
3 15 97 26
3 50 26 98
3 55 37 83
3 26 16 67
3 26 67 98
3 10 46 0
3 65 34 36
3 74 13 95
3 35 55 83
3 50 15 26
3 51 73 86
3 52 83 66
3 83 37 66
3 101 63 90
3 108 84 1
3 85 93 102
3 102 44 70
3 30 94 61
3 13 74 52
3 30 71 28
3 22 33 29
3 103 80 3
3 43 80 34
3 12 69 64
3 58 16 97
3 19 67 16
3 102 93 44
3 76 95 107
3 72 55 48
3 45 42 68
3 12 36 75
3 58 11 18
3 98 14 50
3 95 13 61
3 35 83 74
3 75 69 12
3 35 76 53
3 102 79 99
3 43 33 22
3 59 19 18
3 9 46 1
3 52 74 83
3 52 59 13
3 91 79 78
3 68 20 70
3 109 77 56
3 40 22 88
3 105 70 20
3 66 19 52
3 30 77 94
3 90 62 101
3 105 102 70
3 72 24 49
3 41 56 81
3 100 92 71
3 21 22 40
3 43 22 21
3 47 58 2
3 58 18 19
3 51 72 49
3 87 90 63
3 104 3 21
3 82 108 106
3 4 62 31
3 24 72 48
3 47 11 58
3 45 53 107
3 109 41 39
3 17 5 91
3 45 25 53
3 85 49 24
3 62 38 101
3 81 30 28
3 10 7 57
3 5 49 85
3 23 49 5
3 25 35 53
3 13 100 61
3 15 64 97
3 37 86 98
3 86 37 55
3 50 14 36
3 92 96 9
3 96 18 11
3 73 54 14
3 3 43 21
3 94 77 107
3 54 23 60
3 100 59 96
3 57 46 10
3 2 32 47
3 98 86 73
3 12 64 15
3 87 6 90
3 2 64 32
3 25 48 35
3 102 105 79
3 80 43 3
3 92 9 1
3 49 23 51
3 93 24 48
3 104 21 40
3 56 77 30
3 59 52 19
3 99 85 102
