OFF
116 200 0
-21.32558 -21.26188 1.864341e-06 
3.805896 19.37887 -3.32722e-07 
3.059813 23.36834 -2.674974e-07 
-5.903866 24.43511 5.161323e-07 
-4.549573 20.59851 3.977363e-07 
-8.357013 19.11994 7.305933e-07 
-9.747703 22.889 8.521712e-07 
-14.36197 20.10942 1.255564e-06 
-14.55928 23.97094 1.272812e-06 
-0.9527074 -26.10982 8.328833e-08 
-18.12035 22.53811 1.584131e-06 
-21.76332 23.43497 1.90261e-06 
14.80295 22.04579 -1.294115e-06 
-5.638093 -35.577 4.928978e-07 
10.76116 27.28934 -9.407707e-07 
10.32466 23.73606 -9.026107e-07 
-10.69743 -24.9548 9.351988e-07 
-0.4227817 7.027146 3.696075e-08 
20.6752 21.35058 -1.807483e-06 
15.66277 27.2539 -1.369283e-06 
10.60006 -13.60605 -9.266867e-07 
-0.6689939 22.46527 5.848531e-08 
-9.374796 27.19209 8.195707e-07 
12.59184 -26.1052 -1.100813e-06 
-19.30203 26.87075 1.687437e-06 
-19.16048 -3.619862 1.675062e-06 
-17.47963 -20.27344 1.528118e-06 
-22.99767 -3.75694 2.01052e-06 
-17.5139 18.00263 1.531114e-06 
-1.306381 18.76323 1.142075e-07 
1.924783 -10.4282 -1.682699e-07 
11.2213 19.56156 -9.809968e-07 
21.80188 18.14174 -1.905981e-06 
-11.57421 2.4932 1.01185e-06 
15.5174 8.352861 -1.356574e-06 
3.246974 -5.973591 -2.838595e-07 
-6.294145 16.54842 5.502516e-07 
-23.82192 19.17442 2.082578e-06 
2.116187 2.840929 -1.850029e-07 
5.447201 5.240048 -4.762095e-07 
-7.778915 2.277151 6.800544e-07 
-3.59915 -0.7933213 3.146477e-07 
5.847353 1.285659 -5.111919e-07 
0.00762819 26.99044 -6.668776e-10 
-14.33495 6.210937 1.253201e-06 
8.274736 -38.21101 -7.234004e-07 
1.384773 -2.327326 -1.210607e-07 
8.748318 14.64595 -7.648022e-07 
12.11834 1.269301 -1.059419e-06 
-3.525737 -3.935853 3.082297e-07 
5.630581 -2.170011 -4.92241e-07 
11.99128 -4.943686 -1.048311e-06 
6.420811 -29.53282 -5.613251e-07 
4.090105 -38.8113 -3.575684e-07 
20.63716 -0.6358209 -1.804158e-06 
-19.3266 12.07107 1.689585e-06 
14.21597 -18.30232 -1.242799e-06 
-0.3024562 -6.609559 2.644156e-08 
-7.013271 12.1102 6.131196e-07 
-12.61105 -5.052615 1.102493e-06 
2.009864 -28.99855 -1.757079e-07 
15.4029 -4.805105 -1.346564e-06 
18.63783 -8.466073 -1.629371e-06 
-21.75384 -7.695551 1.901781e-06 
-16.26824 -8.135012 1.422214e-06 
-19.0552 -9.616305 1.665859e-06 
-9.708456 6.260916 8.487402e-07 
-9.267761 -8.964938 8.102134e-07 
11.91889 -9.167025 -1.041983e-06 
-11.87964 -10.71192 1.038551e-06 
-5.171205 6.814358 4.520811e-07 
-1.914355 -10.60026 1.673582e-07 
-5.437992 -10.47038 4.754043e-07 
-9.811636 -13.8396 8.577605e-07 
2.159001 9.35191 -1.887459e-07 
3.485718 15.78427 -3.047312e-07 
-3.272738 14.67364 2.861118e-07 
-4.398585 -14.23916 3.845365e-07 
5.130711 -14.78879 -4.48541e-07 
7.890992 -11.32017 -6.898524e-07 
17.9645 -11.6745 -1.570507e-06 
-9.54375 -33.64612 8.343411e-07 
-13.02863 -31.8859 1.138999e-06 
-15.30956 27.52417 1.338404e-06 
8.867579 -7.774566 -7.752284e-07 
-21.35995 -9.949017 1.867346e-06 
-16.93738 -12.46228 1.480713e-06 
15.09993 -12.20572 -1.320077e-06 
-20.0692 -35.42049 1.754505e-06 
5.342545 27.07031 -4.670601e-07 
-0.4056528 -13.67084 3.546329e-08 
14.87509 -36.85328 -1.300421e-06 
6.390367 -17.77345 -5.586637e-07 
-21.407 -14.06586 1.871459e-06 
-14.24001 -14.47022 1.244901e-06 
3.409257 12.94762 -2.980467e-07 
1.569947 -19.2757 -1.372491e-07 
8.24848 -23.88316 -7.21105e-07 
-9.767312 -18.28194 8.538855e-07 
-23.45054 6.30796 2.050111e-06 
17.65416 -17.37912 -1.543375e-06 
-6.871817 -22.04399 6.007533e-07 
4.949591 -23.15031 -4.32707e-07 
-3.020383 -19.37318 2.640503e-07 
19.73975 -5.937387 -1.725704e-06 
6.499202 10.00852 -5.681783e-07 
16.8891 -25.15152 -1.476492e-06 
16.09445 18.0461 -1.407022e-06 
-6.728461 -38.71376 5.882208e-07 
-11.76152 -37.95043 1.028225e-06 
-9.117771 -1.904906 7.971009e-07 
-9.209978 14.77214 8.051618e-07 
9.345404 6.855542 -8.170011e-07 
-3.702363 -7.701017 3.236709e-07 
-12.15553 14.69967 1.06267e-06 
0.6261864 -38.95298 -5.474296e-08 
3 21 3 4 
3 3 6 5 
3 111 5 7 
3 7 6 8 
3 37 10 11 
3 12 14 15 
3 8 10 7 
3 79 20 68 
3 14 89 15 
3 83 8 22 
3 10 24 11 
3 19 12 18 
3 82 88 109 
3 10 83 24 
3 7 10 28 
3 81 82 109 
3 4 3 5 
3 2 31 15 
3 12 107 18 
3 107 32 18 
3 6 7 5 
3 4 5 36 
3 36 76 29 
3 76 75 29 
3 31 1 75 
3 38 42 39 
3 23 106 56 
3 23 56 97 
3 53 45 52 
3 38 41 46 
3 38 46 42 
3 40 33 110 
3 40 110 41 
3 110 49 41 
3 46 50 42 
3 42 50 48 
3 51 61 48 
3 34 48 54 
3 67 59 64 
3 41 49 46 
3 35 50 46 
3 23 52 45 
3 46 49 57 
3 113 49 110 
3 50 35 84 
3 51 50 84 
3 48 50 51 
3 61 62 104 
3 25 27 63 
3 64 69 67 
3 40 66 33 
3 67 73 72 
3 44 28 55 
3 51 68 61 
3 61 68 62 
3 85 65 63 
3 67 69 73 
3 77 71 72 
3 71 90 30 
3 72 73 77 
3 100 80 87 
3 2 43 21 
3 30 90 78 
3 78 79 30 
3 80 62 87 
3 47 112 107 
3 6 22 8 
3 25 33 44 
3 85 93 65 
3 94 69 86 
3 69 94 73 
3 73 98 77 
3 13 9 101 
3 96 78 90 
3 52 102 60 
3 110 33 59 
3 92 56 20 
3 56 87 20 
3 87 68 20 
3 93 94 86 
3 26 98 94 
3 98 73 94 
3 77 98 101 
3 110 59 67 
3 60 9 115 
3 7 114 111 
3 13 108 115 
3 93 26 94 
3 93 0 26 
3 25 63 64 
3 58 70 76 
3 58 76 36 
3 103 9 96 
3 96 102 92 
3 29 1 21 
3 26 16 98 
3 92 97 56 
3 104 54 61 
3 101 98 16 
3 102 96 60 
3 9 60 96 
3 2 1 31 
3 47 95 105 
3 89 43 2 
3 92 20 78 
3 109 108 81 
3 30 35 57 
3 36 29 4 
3 21 4 29 
3 9 103 101 
3 2 15 89 
3 6 3 22 
3 48 112 42 
3 97 52 23 
3 106 100 56 
3 39 112 105 
3 75 1 29 
3 78 96 92 
3 99 27 25 
3 31 75 47 
3 112 39 42 
3 56 100 87 
3 86 65 93 
3 36 5 111 
3 44 114 28 
3 1 2 21 
3 67 72 110 
3 74 105 95 
3 112 47 105 
3 55 28 37 
3 90 103 96 
3 51 84 68 
3 7 28 114 
3 78 20 79 
3 3 43 22 
3 84 35 79 
3 77 101 103 
3 74 39 105 
3 112 34 107 
3 65 86 64 
3 81 16 82 
3 37 28 10 
3 91 23 45 
3 70 17 76 
3 102 52 97 
3 69 64 86 
3 58 66 70 
3 99 25 55 
3 25 44 55 
3 30 79 35 
3 44 33 66 
3 46 57 35 
3 66 40 70 
3 63 65 64 
3 70 40 41 
3 71 77 90 
3 15 31 12 
3 17 38 74 
3 74 38 39 
3 106 23 91 
3 112 48 34 
3 13 101 81 
3 66 114 44 
3 9 13 115 
3 33 25 59 
3 41 17 70 
3 113 110 72 
3 113 57 49 
3 57 113 71 
3 57 71 30 
3 34 54 32 
3 74 76 17 
3 60 53 52 
3 76 74 95 
3 64 59 25 
3 84 79 68 
3 0 88 26 
3 72 71 113 
3 13 81 108 
3 3 21 43 
3 82 16 26 
3 90 77 103 
3 19 14 12 
3 97 92 102 
3 75 76 95 
3 38 17 41 
3 47 75 95 
3 55 37 99 
3 53 60 115 
3 66 111 114 
3 66 58 111 
3 68 87 62 
3 58 36 111 
3 31 107 12 
3 54 48 61 
3 32 107 34 
3 83 10 8 
3 16 81 101 
3 88 82 26 
3 107 31 47 
