OFF
116 200 0
-21.26188 21.32558 11.12117 
5.298695 -17.72688 -2.443561 
4.493428 -21.96384 -2.510728 
-5.127382 -22.88419 -3.086204 
-3.700846 -18.89056 -1.940568 
-7.738865 -17.33377 -2.455355 
-9.078568 -21.3674 -1.918052 
-13.77403 -18.4146 -0.7024439 
-14.30229 -22.17294 -2.056123 
1.50762 28.42582 11.80939 
-17.62477 -20.98565 0.006275401 
-21.13074 -22.21022 1.836434 
16.34217 -20.64542 -0.3539179 
-3.462792 33.31272 21.79574 
13.07623 -24.98964 -4.800083 
12.13153 -22.14802 -2.410402 
-9.852461 26.99524 11.687 
1.081743 -4.24546 -5.364257 
21.35058 -20.6752 3.364629 
18.28563 -25.05022 -3.20419 
14.66025 17.84039 1.530581 
0.5051995 -21.04079 -1.997908 
-9.02089 -25 -4.998097 
16.41407 24.77178 13.72826 
-19.72806 -25 -2.023302 
-18.72873 7.504189 1.993418 
-17.3674 21.95516 9.117339 
-21.95477 7.567801 4.702901 
-16.79255 -16.27645 0.5930673 
-0.1698863 -17.09763 -2.950327 
4.852027 16.89189 -3.596316 
12.87961 -18.06541 -1.019497 
21.99495 -17.34518 5.005407 
-11.71372 1.04643 -3.467491 
17.40932 -6.385403 0.8663538 
6.087031 11.20849 -4.725303 
-5.67205 -14.88573 -3.947514 
-21.99218 -17.92795 4.961983 
4.247301 0.5679126 -5.826865 
7.910724 -2.397636 -4.783458 
-7.569046 1.387567 -5.260704 
-2.59522 5.148701 -6.460282 
8.733197 2.178528 -4.959324 
1.222483 -24.98145 -5.0321 
-14.19768 -3.280102 -1.608678 
11.99036 32.66739 25.00037 
3.66923 6.90516 -6.136259 
10.86654 -12.9755 -3.0114 
14.91619 1.609245 -1.226003 
-2.483571 9.157485 -6.196185 
8.636902 6.302419 -4.61091 
15.09171 8.501375 -0.3997513 
9.985902 28.99366 15.87027 
7.600439 34.4072 24.97169 
22 2.949791 4.983007 
-18.45651 -9.860435 1.817026 
18.33928 19.9683 6.521236 
1.756915 12.47775 -5.732552 
-6.528021 -9.93263 -4.538244 
-12.60827 9.642098 -1.719138 
5.024769 29.74377 14.83956 
18.179 7.874151 1.507497 
21.99978 11.10858 2.821267 
-22 11.5314 2.502322 
-16.5633 12.59802 0.3599112 
-19.49282 13.77982 1.433184 
-9.556638 -3.29092 -4.086824 
-9.201664 14.69121 -2.275145 
15.66763 13.07673 -0.09832452 
-12.19736 16.23754 -0.7148781 
-4.442077 -3.929164 -5.210127 
-0.191867 17.7031 -4.264501 
-4.857067 17.2336 -3.627733 
-9.879515 19.88263 0.543261 
3.958483 -6.981174 -4.990226 
5.265081 -14.25946 -4.328093 
-2.320174 -12.90979 -4.794588 
-3.252076 21.04029 -0.5091685 
8.762917 20.53852 0.6847903 
11.69547 16.36957 -0.7719006 
22.0281 14.41236 1.79078 
-7.968161 31.85817 20.30902 
-11.80354 29.90445 19.31706 
-15.72452 -25.07276 -4.424321 
12.2642 12.16294 -1.413408 
-21.94673 13.91826 1.631938 
-17.46871 16.85969 2.223832 
19.19259 15.56277 1.71491 
-18.7308 29.1545 24.80845 
7.066858 -24.98432 -5.035792 
1.905784 20.57054 -1.321549 
18.72199 29.26493 24.99275 
10.17193 22.46491 3.822484 
-22.04354 17.16678 4.602973 
-14.55909 19.12758 2.812324 
5.289702 -11.0985 -4.865399 
4.413332 24.42377 4.638393 
11.97907 25.36098 10.44361 
-9.446139 23.30665 4.682192 
-21.99885 -3.605131 5.003665 
21.89139 18.43139 6.380458 
-5.6964 26.16706 7.956551 
8.395604 26.09474 9.002274 
-1.207365 24.60575 4.779399 
21.99731 8.601566 4.26181 
8.747656 -7.852006 -4.042024 
20.88952 22.74195 13.66101 
17.4837 -16.76999 1.014308 
-4.560055 34.90374 25.00672 
-10.10535 33.60171 24.9969 
-9.112962 6.324042 -4.457607 
-8.922429 -12.88941 -3.797095 
11.84774 -4.468384 -2.885269 
-2.72437 13.98198 -5.356001 
-11.9186 -12.72501 -2.571723 
3.74531 34.96077 25.00021 
3 21 3 4 
3 3 6 5 
3 111 5 7 
3 7 6 8 
3 37 10 11 
3 12 14 15 
3 8 10 7 
3 79 20 68 
3 14 89 15 
3 83 8 22 
3 10 24 11 
3 19 12 18 
3 82 88 109 
3 10 83 24 
3 7 10 28 
3 81 82 109 
3 4 3 5 
3 2 31 15 
3 12 107 18 
3 107 32 18 
3 6 7 5 
3 4 5 36 
3 36 76 29 
3 76 75 29 
3 31 1 75 
3 38 42 39 
3 23 106 56 
3 23 56 97 
3 53 45 52 
3 38 41 46 
3 38 46 42 
3 40 33 110 
3 40 110 41 
3 110 49 41 
3 46 50 42 
3 42 50 48 
3 51 61 48 
3 34 48 54 
3 67 59 64 
3 41 49 46 
3 35 50 46 
3 23 52 45 
3 46 49 57 
3 113 49 110 
3 50 35 84 
3 51 50 84 
3 48 50 51 
3 61 62 104 
3 25 27 63 
3 64 69 67 
3 40 66 33 
3 67 73 72 
3 44 28 55 
3 51 68 61 
3 61 68 62 
3 85 65 63 
3 67 69 73 
3 77 71 72 
3 71 90 30 
3 72 73 77 
3 100 80 87 
3 2 43 21 
3 30 90 78 
3 78 79 30 
3 80 62 87 
3 47 112 107 
3 6 22 8 
3 25 33 44 
3 85 93 65 
3 94 69 86 
3 69 94 73 
3 73 98 77 
3 13 9 101 
3 96 78 90 
3 52 102 60 
3 110 33 59 
3 92 56 20 
3 56 87 20 
3 87 68 20 
3 93 94 86 
3 26 98 94 
3 98 73 94 
3 77 98 101 
3 110 59 67 
3 60 9 115 
3 7 114 111 
3 13 108 115 
3 93 26 94 
3 93 0 26 
3 25 63 64 
3 58 70 76 
3 58 76 36 
3 103 9 96 
3 96 102 92 
3 29 1 21 
3 26 16 98 
3 92 97 56 
3 104 54 61 
3 101 98 16 
3 102 96 60 
3 9 60 96 
3 2 1 31 
3 47 95 105 
3 89 43 2 
3 92 20 78 
3 109 108 81 
3 30 35 57 
3 36 29 4 
3 21 4 29 
3 9 103 101 
3 2 15 89 
3 6 3 22 
3 48 112 42 
3 97 52 23 
3 106 100 56 
3 39 112 105 
3 75 1 29 
3 78 96 92 
3 99 27 25 
3 31 75 47 
3 112 39 42 
3 56 100 87 
3 86 65 93 
3 36 5 111 
3 44 114 28 
3 1 2 21 
3 67 72 110 
3 74 105 95 
3 112 47 105 
3 55 28 37 
3 90 103 96 
3 51 84 68 
3 7 28 114 
3 78 20 79 
3 3 43 22 
3 84 35 79 
3 77 101 103 
3 74 39 105 
3 112 34 107 
3 65 86 64 
3 81 16 82 
3 37 28 10 
3 91 23 45 
3 70 17 76 
3 102 52 97 
3 69 64 86 
3 58 66 70 
3 99 25 55 
3 25 44 55 
3 30 79 35 
3 44 33 66 
3 46 57 35 
3 66 40 70 
3 63 65 64 
3 70 40 41 
3 71 77 90 
3 15 31 12 
3 17 38 74 
3 74 38 39 
3 106 23 91 
3 112 48 34 
3 13 101 81 
3 66 114 44 
3 9 13 115 
3 33 25 59 
3 41 17 70 
3 113 110 72 
3 113 57 49 
3 57 113 71 
3 57 71 30 
3 34 54 32 
3 74 76 17 
3 60 53 52 
3 76 74 95 
3 64 59 25 
3 84 79 68 
3 0 88 26 
3 72 71 113 
3 13 81 108 
3 3 21 43 
3 82 16 26 
3 90 77 103 
3 19 14 12 
3 97 92 102 
3 75 76 95 
3 38 17 41 
3 47 75 95 
3 55 37 99 
3 53 60 115 
3 66 111 114 
3 66 58 111 
3 68 87 62 
3 58 36 111 
3 31 107 12 
3 54 48 61 
3 32 107 34 
3 83 10 8 
3 16 81 101 
3 88 82 26 
3 107 31 47 
