OFF
269 500 0
14.23028 0.392989 5.64209 
13.78186 3.96003 5.764464 
15.09017 2.566059 8.563515 
15.88954 0.1399861 11.58638 
15.27462 -2.823369 9.640059 
-11.9469 -3.7589 3.170702 
-11.98885 -5.724126 4.038951 
-13.557 -2.618384 4.783244 
-13.41427 -5.386924 5.89363 
-14.3706 -3.450581 6.641809 
-15.0057 -3.465427 8.862803 
-15.94921 -5.653666 15.73199 
-14.75563 -7.920568 15.12115 
-1.83267 -18.47506 18.4533 
-17.82403 4.368003 18.15959 
-19.96207 1.231218 20 
-13.72436 -8.093159 11.6117 
-12.04129 -9.514322 8.501777 
-11.87219 -10.5569 11.36302 
-12.14356 -8.289568 6.488607 
-10.72372 -8.244273 4.355482 
-9.842783 -10.88519 6.399163 
-1.930694 5.249125 -0.2116966 
1.79443 4.370894 -0.3683656 
13.87328 -11.88682 18.07532 
15.1809 -13.00619 20 
12.12933 -13.99434 18.42037 
16.80037 4.186655 16.53115 
18.01534 2.2352 17.92174 
-6.114189 -10.63552 2.941873 
-6.327561 -7.589212 1.259258 
-4.785723 -9.312255 1.554725 
-4.273795 -15.63088 13.25713 
-6.329197 -14.48148 10.94347 
-5.18434 -13.03509 5.115889 
-7.821646 -11.27915 4.576657 
-8.242378 -13.39287 10.34981 
-10.24095 -12.81862 14.11341 
-2.309215 -15.68511 11.37975 
0.5376714 -15.35573 8.628069 
-2.641816 -14.85538 7.713221 
0.3564124 -14.2397 5.56156 
0.6115967 -16.34245 14.05281 
2.13509 -15.5774 10.70659 
4.548459 -12.26766 3.808256 
6.168641 -9.919418 2.479917 
6.278307 -12.46874 5.074091 
4.02865 -1.933651 -0.433646 
-11.49011 14.52406 18.36998 
-10.09864 13.88959 16.25419 
-13.17565 11.6398 17.02816 
1.227547 18.01546 17.79932 
4.8217 16.6816 16.63892 
2.496909 16.49996 15.01811 
7.57654 -6.79359 1.442843 
9.369385 -8.709787 3.436347 
10.54264 -6.20819 2.952929 
10.6819 -9.169759 5.254136 
12.53313 -1.854124 3.378376 
14.32076 -2.37714 6.205883 
-15.35765 -4.536788 12.20469 
-13.86312 -6.717683 8.785183 
11.1261 -11.58713 12.57753 
12.47176 -11.4809 15.80825 
-19.32055 5.382245 20.02123 
-16.14548 7.30124 17.27891 
14.41439 -4.7896 8.097947 
14.33483 -6.724446 11.33738 
11.76601 1.392665 2.580002 
-10.54777 11.18197 8.609512 
-11.49236 9.002223 6.140459 
-9.908449 -11.88002 8.976253 
-17.89477 8.910539 20 
-8.646885 13.10205 10.09304 
14.16866 5.905359 8.642226 
12.85079 2.757768 3.905723 
10.6028 5.08177 2.480787 
12.52969 6.014396 4.921559 
-4.351724 -0.4856189 -0.4566704 
-0.635977 -1.240887 -0.7124276 
-13.25174 8.130633 9.27823 
11.15226 9.052067 5.679848 
5.52971 14.61314 9.819847 
3.058206 15.83876 12.27223 
12.68036 8.506485 8.144914 
-5.174512 12.71764 4.704229 
-6.830595 11.1117 3.797783 
-8.25124 12.03318 6.170068 
15.44682 5.838863 14.51785 
13.54711 8.799862 12.97958 
14.43777 9.129271 16.07499 
10.19193 8.296425 3.748181 
9.14163 11.07874 5.675519 
-14.84415 -10.31719 17.80182 
-15.95278 -12.04698 20 
11.0157 10.75086 8.66927 
4.113433 -6.367776 0.2794057 
0.8036429 -4.816351 -0.3441713 
15.3512 -0.8970995 8.795813 
7.235387 10.38883 3.263323 
7.002686 12.24181 5.257598 
12.83397 -4.559845 4.518161 
4.422449 10.46146 2.246432 
4.071239 13.38945 5.088005 
-0.09129645 15.61596 9.980211 
-2.284195 15.24637 8.973398 
-1.830838 15.8339 11.91837 
-7.356306 1.778003 0.282276 
-4.010026 3.029389 -0.310704 
4.300721 -15.41483 12.16288 
7.364089 -14.22249 12.3283 
7.118387 -15.23998 15.46415 
0.7736398 14.44741 6.108245 
2.710639 14.98206 8.075276 
2.841009 -13.88725 5.482356 
1.465543 12.40083 3.196463 
-1.549376 12.99228 3.92415 
16.07947 6.868228 16.8977 
0.21451 16.39003 14.10818 
-2.963932 16.08457 14.05528 
-5.841031 15.98141 15.99699 
-2.604473 16.90547 16.1778 
12.66751 -6.916796 5.998338 
-8.74469 10.64234 4.681208 
-9.857449 8.513852 3.714708 
-2.817325 -6.886948 0.1800839 
12.07905 12.47817 16.59603 
14.35143 13.91608 20 
13.66767 11.10167 17.15538 
6.656754 14.9066 13.46418 
8.363976 12.92487 8.530079 
3.825727 -14.78404 8.361166 
20.01348 -1.591932 20.01116 
-14.21628 5.077668 7.551846 
-14.87507 5.547509 11.06296 
-16.16274 2.947161 13.91228 
-15.21795 2.802798 9.046329 
15.80379 -9.661977 18.42173 
3.845783 -16.28892 15.25294 
-9.006223 -14.76346 16.61298 
-12.6009 15.59211 20.0232 
13.59947 -7.335272 9.115856 
14.44393 -9.535112 16.65287 
14.61351 -7.510195 14.17705 
16.11871 -7.234436 17.2458 
7.474251 15.32533 15.89689 
8.445195 16.43647 18.32709 
4.111208 -17.85884 18.13205 
10.35677 -13.92795 16.67839 
0.1857412 1.814196 -0.7133925 
-13.21396 10.14986 14.82163 
9.457383 -17.61189 20 
8.24327 -15.86488 17.57248 
6.413127 8.150005 1.535176 
8.354762 -10.7071 4.395403 
9.194561 -11.46001 6.517845 
1.658934 -11.56685 2.354134 
3.409907 -9.265574 1.268108 
-16.33079 -8.446425 18.20396 
-16.85391 -6.089203 17.62258 
-9.90235 6.146858 2.396672 
-11.6484 5.519705 3.54468 
16.0195 -3.136748 13.82123 
17.01135 -3.051848 16.58295 
-7.580304 14.78506 14.77465 
8.658747 6.44118 1.785341 
0.6716887 -17.1864 16.45848 
11.88625 11.06411 13.19426 
12.57617 9.578339 10.87363 
-7.508308 7.676303 1.790791 
-14.65538 7.241092 13.55976 
-2.667868 -11.35234 2.459922 
-16.6818 -0.6710386 15.05047 
-17.13599 2.782086 16.58301 
-9.624565 -5.210223 1.926042 
-0.6790303 17.46962 16.89463 
16.83366 0.8013754 15.50348 
11.07835 -2.907959 2.267598 
-13.35296 -9.798326 14.58969 
6.843339 -13.44024 7.50785 
14.57226 6.367207 11.5687 
-5.401344 17.44126 18.05464 
-3.364846 14.31251 6.637429 
-2.4566 19.839 20 
0.2713542 9.749144 1.23229 
10.87912 15.11598 18.51423 
12.53253 15.57422 20 
-12.89762 6.86458 6.255556 
19.40707 4.998834 19.97688 
17.85156 -0.783316 17.46911 
4.194541 1.33075 -0.4107226 
-16.02875 -3.070939 13.72865 
-16.75767 -3.647617 16.31404 
-8.758107 4.311507 1.18523 
-11.43706 2.977374 2.531237 
-4.362246 14.91657 9.242699 
1.358734 -18.39102 18.28805 
-2.900536 -16.65046 15.71951 
-5.81107 -16.97531 17.63739 
0.4054267 -8.508555 0.5384088 
-8.355242 -18.16069 20 
-16.04406 5.059886 15.21087 
-8.267262 15.59797 17.15112 
4.875961 19.38674 20 
15.67365 10.02106 18.46709 
18.85414 -6.643944 20 
-10.52365 -16.99628 20 
-12.17983 -12.48339 16.84539 
-7.83689 -12.74011 7.154046 
-5.321995 -14.13072 7.63087 
-18.14706 -1.70409 17.94453 
-19.81015 -3.123976 20.0019 
-10.74674 -1.505191 1.829121 
-15.1809 13.00619 20 
-14.92544 10.22123 17.82514 
-16.66414 11.04206 20 
6.455356 3.932088 0.2306846 
-9.457383 17.61189 20 
-18.85414 -6.643944 20 
-6.073458 19.08489 19.99778 
1.231547 19.99005 19.99796 
16.79506 10.94834 20.01146 
18.40937 7.79202 20 
-10.27463 12.89694 14.26127 
19.90524 1.844492 20 
17.34913 -10.00668 19.99761 
-6.045067 -4.580267 0.2833386 
-2.856768 -3.943282 -0.3944908 
12.54647 -15.61133 19.99767 
0 -19.99051 20 
-9.452318 0.7743292 1.045962 
-12.25024 0.1977872 2.967953 
-7.351856 -1.873488 0.281583 
-14.12735 -14.19805 20.00169 
-13.12938 3.536775 4.462492 
-2.356448 -13.60192 4.81015 
-14.296 1.596653 5.760101 
10.15794 -11.92869 10.3115 
13.04978 -9.665088 13.41008 
5.776167 13.75638 7.007517 
10.18283 12.34532 11.86429 
9.935728 13.4042 15.02209 
-11.93947 10.36105 10.69511 
-6.047777 4.577893 0.2834049 
-3.792396 6.562928 0.2856423 
3.466681 6.749409 0.2796413 
-3.59694 10.6979 2.172664 
10.14082 -0.4042855 1.435057 
9.582643 3.063242 1.354837 
0.2756361 -12.71844 3.40408 
-8.694653 -8.575813 2.831208 
0.3285025 7.97419 0.366652 
-6.504807 -15.30299 14.90085 
6.647096 18.86309 20 
-5.825679 15.01126 12.75927 
6.618714 -3.716267 0.2305011 
7.533767 -0.04352346 0.2742301 
15.95477 2.914048 13.31873 
9.167621 -4.017114 1.320051 
-15.97405 -0.4744865 11.50383 
-6.486164 13.76333 7.924286 
15.96519 -5.28178 15.61089 
11.71913 -9.649128 8.045584 
-4.606908 -19.52993 20.01445 
7.221407 -18.6406 20 
-15.00177 0.2066846 7.366077 
3.754052 -19.66795 20.00097 
-17.71376 -9.342004 20.00358 
9.740058 17.4784 19.99778 
3 0 1 2 
3 3 162 4 
3 5 6 7 
3 7 6 8 
3 9 8 10 
3 11 60 12 
3 14 15 64 
3 16 17 18 
3 19 20 21 
3 22 23 149 
3 24 25 26 
3 27 188 28 
3 29 30 31 
3 32 33 38 
3 29 34 35 
3 36 37 71 
3 36 33 37 
3 39 40 41 
3 42 38 43 
3 44 45 46 
3 48 49 50 
3 51 52 53 
3 45 54 55 
3 56 55 54 
3 57 55 56 
3 58 0 59 
3 60 61 16 
3 62 238 63 
3 64 65 14 
3 66 4 67 
3 67 4 162 
3 68 0 58 
3 80 69 70 
3 64 72 65 
3 2 1 74 
3 75 76 77 
3 75 77 1 
3 77 91 81 
3 82 113 83 
3 81 84 77 
3 85 86 87 
3 88 89 90 
3 81 91 92 
3 267 93 94 
3 92 95 81 
3 96 97 47 
3 59 0 98 
3 99 100 92 
3 100 130 92 
3 59 101 58 
3 102 103 100 
3 104 105 106 
3 78 107 108 
3 109 110 111 
3 112 113 103 
3 114 46 179 
3 115 116 112 
3 117 27 88 
3 118 106 119 
3 105 195 106 
3 120 121 119 
3 66 122 101 
3 123 124 70 
3 112 103 115 
3 126 127 128 
3 82 129 130 
3 131 39 114 
3 133 136 134 
3 135 134 136 
3 225 25 137 
3 7 8 9 
3 166 42 138 
3 139 207 37 
3 259 10 60 
3 66 141 122 
3 149 78 108 
3 142 143 144 
3 145 52 146 
3 147 166 138 
3 62 148 110 
3 21 71 17 
3 150 50 223 
3 46 114 44 
3 148 26 151 
3 83 106 118 
3 152 111 148 
3 102 99 153 
3 154 57 155 
3 12 158 159 
3 124 160 161 
3 261 162 163 
3 223 49 164 
3 76 165 91 
3 167 89 168 
3 169 124 86 
3 170 150 80 
3 159 11 12 
3 34 29 171 
3 172 210 173 
3 20 174 250 
3 155 46 154 
3 175 51 53 
3 131 109 43 
3 27 28 176 
3 56 177 101 
3 207 93 178 
3 170 65 150 
3 228 151 26 
3 179 109 131 
3 89 88 180 
3 121 120 181 
3 182 116 85 
3 183 175 121 
3 184 115 102 
3 164 73 223 
3 149 79 78 
3 126 185 186 
3 187 70 124 
3 90 204 117 
3 117 188 27 
3 176 28 189 
3 23 190 149 
3 137 142 144 
3 191 192 172 
3 63 142 24 
3 193 194 160 
3 166 13 197 
3 210 15 173 
3 263 198 13 
3 240 167 168 
3 199 171 125 
3 198 200 139 
3 135 173 201 
3 49 202 164 
3 138 111 147 
3 210 172 192 
3 129 83 53 
3 51 220 203 
3 163 189 205 
3 142 137 24 
3 166 196 13 
3 197 32 38 
3 200 206 139 
3 139 206 207 
3 208 209 33 
3 210 211 15 
3 212 174 5 
3 213 214 215 
3 202 140 217 
3 159 158 218 
3 51 175 183 
3 84 168 180 
3 93 12 178 
3 204 221 222 
3 223 73 69 
3 28 224 132 
3 226 227 125 
3 24 137 25 
3 228 26 25 
3 13 196 229 
3 206 233 207 
3 210 159 211 
3 268 186 185 
3 230 212 231 
3 205 189 132 
3 192 11 159 
3 230 232 212 
3 209 38 33 
3 230 231 194 
3 161 194 234 
3 41 40 235 
3 150 65 214 
3 236 136 133 
3 217 181 202 
3 110 109 179 
3 140 50 213 
3 203 52 51 
3 237 238 62 
3 80 134 170 
3 129 52 145 
3 65 170 201 
3 12 93 158 
3 161 187 124 
3 100 103 239 
3 80 70 187 
3 240 129 241 
3 194 193 230 
3 110 179 237 
3 243 169 244 
3 160 124 169 
3 187 161 234 
3 23 245 216 
3 70 69 123 
3 137 144 205 
3 218 211 159 
3 169 246 244 
3 246 86 85 
3 59 66 101 
3 68 247 248 
3 38 42 197 
3 192 159 210 
3 156 249 171 
3 250 30 29 
3 6 174 20 
3 246 116 184 
3 112 116 182 
3 51 183 220 
3 83 104 106 
3 175 118 121 
3 236 133 234 
3 80 242 69 
3 138 109 111 
3 252 37 33 
3 243 193 169 
3 217 219 181 
3 166 197 42 
3 251 102 245 
3 133 187 234 
3 102 115 103 
3 202 49 48 
3 114 156 44 
3 113 82 239 
3 82 83 129 
3 241 126 167 
3 166 147 196 
3 99 102 100 
3 15 14 173 
3 266 229 196 
3 263 13 229 
3 130 100 239 
3 163 176 189 
3 52 253 146 
3 22 251 23 
3 245 153 216 
3 34 209 208 
3 260 254 195 
3 91 99 92 
3 28 188 224 
3 39 38 40 
3 119 121 118 
3 92 130 95 
3 255 47 256 
3 50 140 48 
3 120 119 254 
3 81 95 84 
3 84 95 168 
3 91 153 99 
3 93 207 233 
3 63 148 62 
3 77 84 74 
3 248 165 76 
3 96 157 199 
3 67 141 66 
3 76 91 77 
3 190 216 256 
3 84 180 74 
3 168 89 180 
3 204 90 128 
3 130 129 240 
3 90 117 88 
3 256 216 248 
3 125 31 30 
3 74 180 257 
3 242 80 150 
3 156 199 157 
3 257 180 88 
3 256 248 247 
3 247 255 256 
3 219 183 181 
3 177 247 58 
3 44 156 45 
3 98 4 59 
3 247 177 258 
3 29 35 250 
3 254 260 73 
3 179 155 237 
3 4 66 59 
3 247 258 255 
3 178 18 37 
3 177 56 258 
3 146 185 241 
3 87 260 85 
3 122 56 101 
3 261 163 205 
3 259 191 172 
3 72 215 214 
3 143 67 261 
3 258 54 255 
3 164 254 73 
3 262 57 122 
3 130 240 95 
3 145 146 241 
3 96 255 54 
3 148 111 110 
3 239 103 113 
3 45 55 154 
3 154 55 57 
3 163 162 176 
3 185 126 241 
3 262 237 155 
3 75 68 76 
3 157 96 45 
3 16 18 178 
3 155 179 46 
3 117 204 222 
3 131 114 179 
3 234 194 231 
3 107 243 108 
3 226 174 232 
3 37 18 71 
3 135 136 259 
3 156 114 249 
3 48 140 202 
3 41 114 39 
3 154 46 45 
3 199 156 171 
3 170 134 201 
3 2 74 257 
3 39 43 38 
3 251 22 244 
3 195 182 260 
3 127 204 128 
3 40 38 209 
3 263 200 198 
3 237 262 238 
3 35 208 21 
3 21 208 71 
3 30 226 125 
3 20 250 21 
3 7 231 5 
3 47 190 256 
3 240 168 95 
3 108 243 244 
3 162 3 176 
3 6 5 174 
3 201 173 14 
3 8 6 19 
3 119 106 254 
3 8 19 61 
3 226 78 227 
3 249 41 235 
3 139 252 198 
3 264 111 152 
3 254 164 120 
3 52 203 253 
3 11 191 60 
3 230 107 232 
3 257 176 3 
3 193 160 169 
3 234 231 236 
3 265 259 136 
3 69 73 87 
3 172 173 135 
3 165 216 153 
3 153 245 102 
3 133 80 187 
3 80 133 134 
3 236 265 136 
3 190 47 149 
3 109 138 42 
3 26 148 63 
3 193 243 107 
3 61 10 8 
3 69 242 223 
3 201 134 135 
3 77 74 1 
3 162 261 67 
3 147 264 266 
3 191 11 192 
3 127 221 204 
3 93 267 158 
3 252 139 37 
3 216 165 248 
3 246 169 86 
3 23 251 245 
3 176 257 27 
3 238 67 143 
3 115 184 116 
3 141 262 122 
3 202 120 164 
3 105 112 182 
3 63 238 142 
3 260 182 85 
3 118 53 83 
3 208 36 71 
3 105 182 195 
3 195 254 106 
3 93 233 94 
3 105 104 112 
3 83 113 104 
3 188 117 222 
3 142 238 143 
3 175 53 118 
3 132 189 28 
3 241 167 240 
3 30 174 226 
3 149 47 79 
3 17 19 21 
3 238 262 141 
3 121 181 183 
3 88 27 257 
3 167 126 128 
3 82 130 239 
3 108 22 149 
3 0 75 1 
3 264 147 111 
3 2 257 3 
3 161 160 194 
3 21 250 35 
3 0 68 75 
3 42 43 109 
3 2 98 0 
3 238 141 67 
3 268 185 146 
3 34 235 40 
3 197 13 198 
3 113 112 104 
3 242 150 223 
3 129 53 52 
3 177 58 101 
3 126 186 127 
3 260 87 73 
3 45 96 54 
3 45 156 157 
3 123 86 124 
3 249 114 41 
3 90 89 167 
3 205 144 261 
3 218 158 267 
3 145 241 129 
3 34 171 235 
3 252 197 198 
3 214 65 72 
3 252 33 32 
3 226 232 78 
3 47 255 96 
3 171 31 125 
3 32 197 252 
3 3 98 2 
3 34 40 209 
3 208 33 36 
3 247 68 58 
3 31 171 29 
3 248 76 68 
3 150 214 50 
3 148 151 152 
3 102 251 184 
3 39 131 43 
3 212 232 174 
3 262 155 57 
3 97 227 79 
3 265 10 259 
3 3 4 98 
3 208 35 34 
3 246 184 244 
3 79 227 78 
3 60 16 12 
3 146 253 268 
3 225 137 205 
3 174 30 250 
3 97 125 227 
3 17 71 18 
3 207 178 37 
3 196 147 266 
3 223 50 49 
3 261 144 143 
3 17 61 19 
3 16 61 17 
3 12 16 178 
3 60 10 61 
3 122 57 56 
3 244 184 251 
3 193 107 230 
3 87 123 69 
3 14 65 201 
3 191 259 60 
3 212 5 231 
3 265 236 7 
3 7 9 265 
3 9 10 265 
3 110 237 62 
3 63 24 26 
3 54 258 56 
3 249 235 171 
3 97 199 125 
3 97 79 47 
3 6 20 19 
3 231 7 236 
3 172 135 259 
3 214 213 50 
3 96 199 97 
3 246 85 116 
3 108 244 22 
3 165 153 91 
3 87 86 123 
3 152 151 264 
3 23 216 190 
3 107 78 232 
3 202 181 120 
3 90 167 128 
