OFF
269 500 0
-0.382414047110993 0.0341319954037916 0
-0.366131926958743 0.130588145405288 0
-0.461724828047746 0.107211548923505 0
-0.576548382427151 0.0418776652518405 0
-0.505195804053997 -0.0610921198996613 0
0.286779238896801 -0.110060464034629 0
0.293553441334486 -0.163122884973435 0
0.347911325006267 -0.0899210317384737 0
0.354975748835083 -0.16885822446937 0
0.398220246350188 -0.121555317048858 0
0.464920555046859 -0.137936671859637 0
0.688664490855815 -0.293059293590816 0
0.614007089105562 -0.379210819954572 0
0.0331515896361007 -0.894459457170663 0
0.864059723968581 0.156308331105959 0
1 0 0
0.480042549403823 -0.324540759276662 0
0.352072594571404 -0.315278027652069 0
0.402003966874898 -0.404282370260519 0
0.324465553824711 -0.25206604153589 0
0.26088737616529 -0.226975807457039 0
0.254362891497376 -0.318000866710481 0
0.0507983250584554 0.115425947540577 0
-0.0340237467251911 0.100756367543209 0
-0.696766750901761 -0.527186903888685 0
-0.797895837147744 -0.602795349237452 0
-0.625600387717135 -0.638053225478901 0
-0.752521295703883 0.23725208366617 0
-0.850106026207269 0.159260067681797 0
0.133130706240314 -0.26729372739472 0
0.135834733094713 -0.184537196146115 0
0.0984115403852182 -0.223855168108485 0
0.130757473317508 -0.628121188146548 0
0.188318593617439 -0.52166963680298 0
0.11545551612382 -0.350372605896015 0
0.1835919619797 -0.301871824066933 0
0.250166437511362 -0.471024326111548 0
0.388346723509076 -0.554427363923066 0
0.0486918769507255 -0.567441227151213 0
-0.046295231174021 -0.473663948871407 0
0.05034793695251 -0.444281801751768 0
-0.0328180895509014 -0.380741214638904 0
-0.0666567915846391 -0.670756458110884 0
-0.107321329390777 -0.535338198217549 0
-0.132478640014762 -0.299277334673903 0
-0.162505843106527 -0.228260573271686 0
-0.185260810703938 -0.316508793248362 0
-0.0925874934321414 -0.0371946333714574 0
0.595151574513142 0.663375183113804 0
0.493579886178476 0.597190344618939 0
0.642162036074431 0.50046321061019 0
-0.00593898221746366 0.857459462477379 0
-0.173448238638016 0.775353289487102 0
-0.0640237184901673 0.714692294061089 0
-0.186111626722244 -0.14688346706909 0
-0.244230892202647 -0.200373708032308 0
-0.265597838678931 -0.134766295278082 0
-0.297416890277002 -0.224496704987061 0
-0.311998311094721 -0.0264440439010332 0
-0.399281950682503 -0.041033805438411 0
0.565445943965849 -0.204969109901237 0
0.419975420224797 -0.236518667312009 0
-0.454134029891441 -0.415314630248059 0
-0.584118880065998 -0.475669527908754 0
0.977997889552234 0.208614783827455 0
0.772992481507948 0.295238561163968 0
-0.44341002618778 -0.117524201176043 0
-0.529204072521456 -0.210666793202636 0
-0.280555076425792 0.0514830006742562 0
0.347727689848829 0.325430610608209 0
0.330635304722848 0.226838023329618 0
0.288227995639184 -0.391530609747041 0
0.920841725671564 0.389936554149796 0
0.316092042385311 0.421997601132119 0
-0.427729320026301 0.212041008091231 0
-0.318549658212883 0.0897904053251782 0
-0.246224759647063 0.137889502889188 0
-0.316794401554506 0.177604173196216 0
0.0966765042520681 -0.0164695230101717 0
0.01259500237386 -0.0280761442616051 0
0.440406331433612 0.233560503769397 0
-0.284908328967659 0.262844154033657 0
-0.151869172629686 0.495296871477819 0
-0.0765840201855344 0.60040753744004 0
-0.366608658330699 0.281595372175538 0
0.154338667371253 0.321399069236932 0
0.188219465153235 0.267675122721318 0
0.247210853876723 0.316892812684554 0
-0.633873077147124 0.285409054961294 0
-0.507996323186881 0.375437004816888 0
-0.62146238191567 0.448797536401891 0
-0.240986406640359 0.223112587332524 0
-0.227340083048793 0.313161717783041 0
0.672647854478482 -0.531926146608905 0
0.75928531374786 -0.650757875347517 0
-0.321528774725717 0.354989351611104 0
-0.101865720652131 -0.137911078542011 0
-0.0245202813607503 -0.106233052608502 0
-0.481884394410099 0.00183094284357598 0
-0.161969633364451 0.266375833257525 0
-0.16462323808259 0.335616469537402 0
-0.336602002223683 -0.0964808386170193 0
-0.0897949135289926 0.256166566006829 0
-0.0853638273931387 0.35881319461695 0
0.0359099784997378 0.519727490649159 0
0.101037959887882 0.477950212111807 0
0.104351682741889 0.582960258303435 0
0.169236884936724 0.0302218617494531 0
0.0942261879607187 0.0626276444611243 0
-0.197130936773582 -0.565785407080249 0
-0.30972442947124 -0.519870447782023 0
-0.352913771375147 -0.647375556820276 0
0.00321941437655962 0.399159444410204 0
-0.0532839777025473 0.456765837364563 0
-0.098195984317214 -0.366431842426575 0
-0.0170182087618854 0.307006484679691 0
0.0593672514522823 0.325260741679947 0
-0.72145588821885 0.363037042994503 0
0.0328969417309736 0.675583495859084 0
0.163195216496315 0.654874082106611 0
0.304341938542341 0.697805167613068 0
0.16412147586343 0.753183999372764 0
-0.357807802219566 -0.167352933817204 0
0.242153271320584 0.260666203316238 0
0.258818953457295 0.197465046201596 0
0.0542197489885865 -0.15893704083664 0
-0.515498982136313 0.602484821921712 0
-0.673557297696428 0.739135012511168 0
-0.60328913165801 0.554707480748355 0
-0.229528467853767 0.610449016009761 0
-0.233083578627518 0.412647855368389 0
-0.143188103246576 -0.445670396370972 0
-0.999835316319706 -0.0181477337393095 0
0.426485909321056 0.122996394066267 0
0.536849186220054 0.163770497990296 0
0.664882642647522 0.0792937868581853 0
0.486849336273159 0.0592381422416195 0
-0.789764424606725 -0.41947942105152 0
-0.210038219405685 -0.695996672747464 0
0.369317666190676 -0.700160612861926 0
0.675154421792643 0.737676424141264 0
-0.447539526284929 -0.206026493089013 0
-0.68762252014675 -0.39633581457785 0
-0.623074264725755 -0.272971511326915 0
-0.771624709499504 -0.292786158683544 0
-0.289826678217257 0.701739959739988 0
-0.357594494964269 0.814570923604602 0
-0.248764913233872 -0.841943063340893 0
-0.512227372147956 -0.607102001013436 0
-0.00151275756158124 0.0410423763625444 0
0.587392480187134 0.396602406668298 0
-0.526334868712418 -0.850277370025501 0
-0.435454075464139 -0.724921161135927 0
-0.13776949587854 0.199939594567338 0
-0.230081434775847 -0.259489361409112 0
-0.276631740508353 -0.303568176732793 0
-0.0562058857069269 -0.272941941921718 0
-0.092066209829471 -0.209337770600182 0
0.75620924143616 -0.452222195603168 0
0.776839967899077 -0.336811054068505 0
0.245756475089755 0.132313524946076 0
0.297248587460809 0.118758149051254 0
-0.658826089148773 -0.0882859328117055 0
-0.783602950114562 -0.0908536985311826 0
0.360326320995888 0.606225037938645 0
-0.193925270067696 0.164256583128888 0
-0.0785586473749022 -0.779778850348206 0
-0.440705008242458 0.465181113618497 0
-0.419572257727503 0.361999557185582 0
0.187946437762071 0.169702583679053 0
0.604740074703983 0.25520660778447 0
0.0471188359684166 -0.275552457795289 0
0.713537524954757 -0.0732318753418063 0
0.787732009300326 0.0780629912290117 0
0.219688862096248 -0.1365878295593 0
0.08049061802896 0.803561465572573 0
-0.734526161943763 0.080273489689632 0
-0.267940831943256 -0.0524881734437756 0
0.53626990939133 -0.447309522102133 0
-0.223902895455791 -0.380136999402394 0
-0.515001577285859 0.263025933932233 0
0.308842758587942 0.816562809209466 0
0.119862685994846 0.398356031557695 0
0.183663733169237 0.982989131739685 0
0.00779825184653015 0.226980518465256 0
-0.479189679087251 0.76271872950553 0
-0.577665289890549 0.816273736473046 0
0.367964557016818 0.167385303521251 0
-0.95121182271294 0.308538601039038 0
-0.838692805059883 0.0154239632804425 0
-0.0918898993984994 0.0359817117561379 0
0.640319164725592 -0.16410820961824 0
0.746069420385137 -0.21149968792224 0
0.208829165318008 0.0873951600523447 0
0.278886942398103 0.0547092173828809 0
0.168550596161062 0.468806622790881 0
-0.119618304164251 -0.878324934066786 0
0.0816697927896934 -0.742515141230666 0
0.224222827075053 -0.816978961542007 0
-0.0211464253459343 -0.192360454529245 0
0.361273904439084 -0.932459739598091 0
0.704349503268958 0.17555379018026 0
0.428264072515309 0.700782179641011 0
-0.183747172442469 0.982973538107409 0
-0.725362904398136 0.529161522218185 0
-0.961746344076904 -0.273941544229255 0
0.473076421011059 -0.881021395814748 0
0.525071922734401 -0.608893055393416 0
0.20314937603092 -0.378969623669547 0
0.130912877465167 -0.425268334383823 0
0.856608962545066 -0.133892252696819 0
0.976323781645268 -0.216314293087359 0
0.250472645732244 -0.0508814608624614 0
0.797984026266688 0.602678599108352 0
0.736894025510022 0.440060719568571 0
0.865970656738355 0.500094812678699 0
-0.140363668405904 0.0983608573854377 0
0.526281946205811 0.850310127599233 0
0.920852973788134 -0.389909990466454 0
0.361212312522433 0.9324836005433 0
2.69722604168237e-05 0.999999999636249 0
-0.802430156094165 0.596746046983718 0
-0.895135583039765 0.445793997240945 0
0.45769201344324 0.507840992563495 0
-0.988184815503884 0.153266990599918 0
-0.895242929398573 -0.445578385204962 0
0.130614494336748 -0.111808495580997 0
0.0585662864862305 -0.0916699895729745 0
-0.673122445980762 -0.73953104919055 0
-0.0616410251117212 -0.998098383939768 0
0.218996024415334 0.00454874080309083 0
0.298557305689359 -0.0134301457701412 0
0.163949042997455 -0.0523333553000147 0
0.66018026868792 -0.751107191308368 0
0.342500406020332 0.0697398495989354 0
0.0394803462249017 -0.356808984979317 0
0.389040879933278 0.0191037794459001 0
-0.370045335229956 -0.384161252096402 0
-0.542436876764474 -0.352846227816512 0
-0.140498502442919 0.403923639301676 0
-0.346309144754492 0.477970115467994 0
-0.390407845818534 0.6020871496007 0
0.435327820369881 0.334657473339367 0
0.143612876707676 0.0953972059770524 0
0.0953410080321664 0.14358577765662 0
-0.0691041376117227 0.158162354663195 0
0.101489565436522 0.249452104654959 0
-0.236540839395726 0.00551130228422368 0
-0.217901040359862 0.0853453594675546 0
-0.0258287279505143 -0.313286150808372 0
0.197552316020423 -0.219850446525103 0
0.00380571138966066 0.181687391540749 0
0.23802252165557 -0.669632190048307 0
-0.273668524452473 0.961824068488622 0
0.260550076319415 0.566137107968874 0
-0.154653222166708 -0.0743786433898892 0
-0.170589030435154 0.010064096030316 0
-0.624583473943298 0.155971027908259 0
-0.218338583835143 -0.0794807556324432 0
0.573780170809672 -0.0532168243919473 0
0.218835396483605 0.398891355624244 0
-0.715617311882583 -0.18987143597694 0
-0.369927395274181 -0.268318648356616 0
0.169152222638281 -0.985589937842574 0
-0.417905567477395 -0.908490471425758 0
0.43652461878476 -0.0208444915749868 0
-0.247597987871308 -0.968862857375635 0
0.854041941669797 -0.520204154028861 0
-0.432043122543087 0.901852948247784 0
3 0 1 2
3 3 162 4
3 5 6 7
3 7 6 8
3 9 8 10
3 11 60 12
3 14 15 64
3 16 17 18
3 19 20 21
3 22 23 149
3 24 25 26
3 27 188 28
3 29 30 31
3 32 33 38
3 29 34 35
3 36 37 71
3 36 33 37
3 39 40 41
3 42 38 43
3 44 45 46
3 48 49 50
3 51 52 53
3 45 54 55
3 56 55 54
3 57 55 56
3 58 0 59
3 60 61 16
3 62 238 63
3 64 65 14
3 66 4 67
3 67 4 162
3 68 0 58
3 80 69 70
3 64 72 65
3 2 1 74
3 75 76 77
3 75 77 1
3 77 91 81
3 82 113 83
3 81 84 77
3 85 86 87
3 88 89 90
3 81 91 92
3 267 93 94
3 92 95 81
3 96 97 47
3 59 0 98
3 99 100 92
3 100 130 92
3 59 101 58
3 102 103 100
3 104 105 106
3 78 107 108
3 109 110 111
3 112 113 103
3 114 46 179
3 115 116 112
3 117 27 88
3 118 106 119
3 105 195 106
3 120 121 119
3 66 122 101
3 123 124 70
3 112 103 115
3 126 127 128
3 82 129 130
3 131 39 114
3 133 136 134
3 135 134 136
3 225 25 137
3 7 8 9
3 166 42 138
3 139 207 37
3 259 10 60
3 66 141 122
3 149 78 108
3 142 143 144
3 145 52 146
3 147 166 138
3 62 148 110
3 21 71 17
3 150 50 223
3 46 114 44
3 148 26 151
3 83 106 118
3 152 111 148
3 102 99 153
3 154 57 155
3 12 158 159
3 124 160 161
3 261 162 163
3 223 49 164
3 76 165 91
3 167 89 168
3 169 124 86
3 170 150 80
3 159 11 12
3 34 29 171
3 172 210 173
3 20 174 250
3 155 46 154
3 175 51 53
3 131 109 43
3 27 28 176
3 56 177 101
3 207 93 178
3 170 65 150
3 228 151 26
3 179 109 131
3 89 88 180
3 121 120 181
3 182 116 85
3 183 175 121
3 184 115 102
3 164 73 223
3 149 79 78
3 126 185 186
3 187 70 124
3 90 204 117
3 117 188 27
3 176 28 189
3 23 190 149
3 137 142 144
3 191 192 172
3 63 142 24
3 193 194 160
3 166 13 197
3 210 15 173
3 263 198 13
3 240 167 168
3 199 171 125
3 198 200 139
3 135 173 201
3 49 202 164
3 138 111 147
3 210 172 192
3 129 83 53
3 51 220 203
3 163 189 205
3 142 137 24
3 166 196 13
3 197 32 38
3 200 206 139
3 139 206 207
3 208 209 33
3 210 211 15
3 212 174 5
3 213 214 215
3 202 140 217
3 159 158 218
3 51 175 183
3 84 168 180
3 93 12 178
3 204 221 222
3 223 73 69
3 28 224 132
3 226 227 125
3 24 137 25
3 228 26 25
3 13 196 229
3 206 233 207
3 210 159 211
3 268 186 185
3 230 212 231
3 205 189 132
3 192 11 159
3 230 232 212
3 209 38 33
3 230 231 194
3 161 194 234
3 41 40 235
3 150 65 214
3 236 136 133
3 217 181 202
3 110 109 179
3 140 50 213
3 203 52 51
3 237 238 62
3 80 134 170
3 129 52 145
3 65 170 201
3 12 93 158
3 161 187 124
3 100 103 239
3 80 70 187
3 240 129 241
3 194 193 230
3 110 179 237
3 243 169 244
3 160 124 169
3 187 161 234
3 23 245 216
3 70 69 123
3 137 144 205
3 218 211 159
3 169 246 244
3 246 86 85
3 59 66 101
3 68 247 248
3 38 42 197
3 192 159 210
3 156 249 171
3 250 30 29
3 6 174 20
3 246 116 184
3 112 116 182
3 51 183 220
3 83 104 106
3 175 118 121
3 236 133 234
3 80 242 69
3 138 109 111
3 252 37 33
3 243 193 169
3 217 219 181
3 166 197 42
3 251 102 245
3 133 187 234
3 102 115 103
3 202 49 48
3 114 156 44
3 113 82 239
3 82 83 129
3 241 126 167
3 166 147 196
3 99 102 100
3 15 14 173
3 266 229 196
3 263 13 229
3 130 100 239
3 163 176 189
3 52 253 146
3 22 251 23
3 245 153 216
3 34 209 208
3 260 254 195
3 91 99 92
3 28 188 224
3 39 38 40
3 119 121 118
3 92 130 95
3 255 47 256
3 50 140 48
3 120 119 254
3 81 95 84
3 84 95 168
3 91 153 99
3 93 207 233
3 63 148 62
3 77 84 74
3 248 165 76
3 96 157 199
3 67 141 66
3 76 91 77
3 190 216 256
3 84 180 74
3 168 89 180
3 204 90 128
3 130 129 240
3 90 117 88
3 256 216 248
3 125 31 30
3 74 180 257
3 242 80 150
3 156 199 157
3 257 180 88
3 256 248 247
3 247 255 256
3 219 183 181
3 177 247 58
3 44 156 45
3 98 4 59
3 247 177 258
3 29 35 250
3 254 260 73
3 179 155 237
3 4 66 59
3 247 258 255
3 178 18 37
3 177 56 258
3 146 185 241
3 87 260 85
3 122 56 101
3 261 163 205
3 259 191 172
3 72 215 214
3 143 67 261
3 258 54 255
3 164 254 73
3 262 57 122
3 130 240 95
3 145 146 241
3 96 255 54
3 148 111 110
3 239 103 113
3 45 55 154
3 154 55 57
3 163 162 176
3 185 126 241
3 262 237 155
3 75 68 76
3 157 96 45
3 16 18 178
3 155 179 46
3 117 204 222
3 131 114 179
3 234 194 231
3 107 243 108
3 226 174 232
3 37 18 71
3 135 136 259
3 156 114 249
3 48 140 202
3 41 114 39
3 154 46 45
3 199 156 171
3 170 134 201
3 2 74 257
3 39 43 38
3 251 22 244
3 195 182 260
3 127 204 128
3 40 38 209
3 263 200 198
3 237 262 238
3 35 208 21
3 21 208 71
3 30 226 125
3 20 250 21
3 7 231 5
3 47 190 256
3 240 168 95
3 108 243 244
3 162 3 176
3 6 5 174
3 201 173 14
3 8 6 19
3 119 106 254
3 8 19 61
3 226 78 227
3 249 41 235
3 139 252 198
3 264 111 152
3 254 164 120
3 52 203 253
3 11 191 60
3 230 107 232
3 257 176 3
3 193 160 169
3 234 231 236
3 265 259 136
3 69 73 87
3 172 173 135
3 165 216 153
3 153 245 102
3 133 80 187
3 80 133 134
3 236 265 136
3 190 47 149
3 109 138 42
3 26 148 63
3 193 243 107
3 61 10 8
3 69 242 223
3 201 134 135
3 77 74 1
3 162 261 67
3 147 264 266
3 191 11 192
3 127 221 204
3 93 267 158
3 252 139 37
3 216 165 248
3 246 169 86
3 23 251 245
3 176 257 27
3 238 67 143
3 115 184 116
3 141 262 122
3 202 120 164
3 105 112 182
3 63 238 142
3 260 182 85
3 118 53 83
3 208 36 71
3 105 182 195
3 195 254 106
3 93 233 94
3 105 104 112
3 83 113 104
3 188 117 222
3 142 238 143
3 175 53 118
3 132 189 28
3 241 167 240
3 30 174 226
3 149 47 79
3 17 19 21
3 238 262 141
3 121 181 183
3 88 27 257
3 167 126 128
3 82 130 239
3 108 22 149
3 0 75 1
3 264 147 111
3 2 257 3
3 161 160 194
3 21 250 35
3 0 68 75
3 42 43 109
3 2 98 0
3 238 141 67
3 268 185 146
3 34 235 40
3 197 13 198
3 113 112 104
3 242 150 223
3 129 53 52
3 177 58 101
3 126 186 127
3 260 87 73
3 45 96 54
3 45 156 157
3 123 86 124
3 249 114 41
3 90 89 167
3 205 144 261
3 218 158 267
3 145 241 129
3 34 171 235
3 252 197 198
3 214 65 72
3 252 33 32
3 226 232 78
3 47 255 96
3 171 31 125
3 32 197 252
3 3 98 2
3 34 40 209
3 208 33 36
3 247 68 58
3 31 171 29
3 248 76 68
3 150 214 50
3 148 151 152
3 102 251 184
3 39 131 43
3 212 232 174
3 262 155 57
3 97 227 79
3 265 10 259
3 3 4 98
3 208 35 34
3 246 184 244
3 79 227 78
3 60 16 12
3 146 253 268
3 225 137 205
3 174 30 250
3 97 125 227
3 17 71 18
3 207 178 37
3 196 147 266
3 223 50 49
3 261 144 143
3 17 61 19
3 16 61 17
3 12 16 178
3 60 10 61
3 122 57 56
3 244 184 251
3 193 107 230
3 87 123 69
3 14 65 201
3 191 259 60
3 212 5 231
3 265 236 7
3 7 9 265
3 9 10 265
3 110 237 62
3 63 24 26
3 54 258 56
3 249 235 171
3 97 199 125
3 97 79 47
3 6 20 19
3 231 7 236
3 172 135 259
3 214 213 50
3 96 199 97
3 246 85 116
3 108 244 22
3 165 153 91
3 87 86 123
3 152 151 264
3 23 216 190
3 107 78 232
3 202 181 120
3 90 167 128
