OFF
274 499 0
-0.5362253 0.2534494 -0.0150763 
-0.5044994 0.3417533 0.02435366 
-0.39266 0.2564738 -0.008930873 
0.6792655 -0.04012586 0.3420139 
0.6583352 0.0187306 0.2165903 
0.5138174 0.03336795 0.3356474 
0.5105611 -0.1220134 -0.005863653 
0.5917209 -0.229548 -0.01397095 
0.4660036 -0.2344718 -0.0147054 
0.654003 -0.08490999 0.02187206 
0.7244962 -0.2089236 -0.009237943 
0.7035158 -0.4248179 -0.0154861 
0.232587 0.1022904 0.370041 
0.2560627 -0.01046688 0.406476 
0.7159519 -0.02249773 0.1135389 
0.8279296 -0.03788405 0.1943051 
0.4644341 -0.3882457 -0.01408855 
0.5721786 -0.3473387 -0.01627761 
0.589821 -0.4951556 -0.002626166 
0.257677 0.02515172 -0.001367783 
0.09090116 -0.06792873 -0.01866959 
0.1818538 -0.2059687 -0.01666215 
0.01816017 -0.1989939 -0.01112293 
0.2624569 0.1750455 0.2484597 
0.3746156 0.1146418 0.2934262 
0.356239 0.1436392 0.1808813 
0.3062206 -0.1967735 0.4161313 
-1.037288 0.05741705 0.3096523 
-0.9399695 0.1426249 0.3962932 
-1.053603 0.1520546 0.3860874 
-0.3545973 -0.1438994 0.1005349 
-0.3822157 -0.05404147 0.02682566 
-0.2451528 -0.08051747 0.001659265 
1.688286 -0.1568601 0.01448619 
1.733655 -0.2432156 0.04708039 
1.62701 -0.2644233 0.01262139 
-0.06857205 -0.1041332 -0.01618358 
1.426656 -0.4426822 0.267891 
1.536342 -0.3945026 0.2820789 
1.464358 -0.3723864 0.3622485 
0.675267 -0.3369591 0.417979 
0.6707034 -0.1794736 0.4084171 
-0.2826597 0.01153692 0.4145122 
-0.3790448 -0.07055491 0.3633294 
-0.2650298 -0.1283422 0.3734613 
0.9097473 -0.4031976 -0.01547843 
0.0904405 -0.1305396 0.4174668 
-0.5306288 0.0191256 0.3747825 
-0.6803573 0.1689047 0.4172462 
-0.7339722 0.07243967 0.3695565 
-0.8177314 0.161042 0.4105725 
-0.9162401 0.04820977 0.304924 
-0.9221702 0.2233543 -0.001711388 
-0.7876785 0.2519974 -0.01361818 
-0.8885799 0.1091077 0.01858507 
1.477916 -0.2493812 -0.01388987 
1.351743 -0.2298942 -0.01679881 
1.420838 -0.1094608 0.0399237 
-0.3259729 0.02958802 -0.01387707 
-0.3966881 0.04250199 0.4101145 
0.9154908 -0.2652806 0.4162984 
0.9063344 -0.4126233 0.4147497 
1.02819 -0.3658534 0.4181291 
1.548276 -0.3824332 0.09613902 
1.671447 -0.3261968 0.1015609 
0.227274 -0.3354795 0.4061122 
1.203441 -0.08514165 0.09889325 
1.209658 -0.1739963 0.006293432 
1.097136 -0.1626155 0.01704875 
1.281809 -0.1533261 0.3848369 
1.25428 -0.07943126 0.2954756 
-0.1218687 -0.2433094 0.3604819 
-0.2700206 -0.2084542 0.2773792 
0.1393198 0.1711107 0.05362278 
0.1490677 0.222905 0.1702106 
0.2507071 0.177196 0.1341974 
-0.04184338 -0.2992838 0.03817575 
0.09896405 -0.3331996 0.009912003 
0.8156555 -0.09494256 0.04867906 
-0.4728694 0.111473 0.4176252 
-0.5377829 0.1997118 0.4225798 
1.291871 -0.4861358 0.2809698 
1.168075 -0.4337609 0.3853643 
0.464633 -0.5289763 0.01893597 
0.7869458 -0.3004861 -0.01755457 
1.492522 -0.06224101 0.2818874 
1.40946 -0.05302852 0.2100793 
1.357308 -0.07836452 0.3063248 
-0.5111901 0.3979953 0.3223282 
-0.4595698 0.3147588 0.3924232 
-0.3944047 0.3915436 0.3037137 
-0.8668799 0.27737 0.4029406 
-0.9997916 0.2594429 0.3777569 
0.3540426 -0.445227 0.003486792 
0.08048061 0.07999197 -0.00533795 
-0.0331183 0.1476273 -0.001236737 
0.2540005 -0.3339095 -0.009417024 
0.2642618 -0.4725831 0.03445068 
1.690928 -0.04772934 0.1482784 
1.756651 -0.06036576 0.2962091 
1.828218 -0.05207268 0.1714195 
0.2878872 0.1164718 0.05429353 
0.4331174 0.09638423 0.1167857 
0.4227926 0.04256077 0.04032425 
0.6746839 -0.4799136 0.4054471 
0.5424138 -0.3839399 0.4155384 
1.061603 -0.4595422 0.01066329 
0.07948259 -0.006226079 0.4163425 
-0.9762906 0.04235929 0.1175904 
-0.1307448 0.3274082 0.2635334 
-0.1660004 0.3455257 0.1663891 
-0.1734368 0.301719 0.3435691 
1.856861 -0.1027216 0.3328961 
1.889519 -0.066577 0.2470896 
-0.1408079 -0.298116 0.1185504 
-0.1374112 -0.216733 0.02482067 
-0.4762639 0.007941054 0.01901274 
-0.4205652 0.1410817 -0.02122313 
1.864837 -0.2319026 0.2896957 
1.740503 -0.143537 0.3792911 
1.699255 -0.2656414 0.3633185 
-0.8984529 0.3420121 0.06698269 
-0.9760432 0.3490149 0.157096 
-0.8553341 0.3964461 0.1895077 
-1.039981 0.1717702 0.01106689 
-1.103416 0.0519537 0.1125393 
-1.166033 0.1782393 0.05586 
-0.1618169 0.2136104 0.001492331 
-0.2045084 0.08227726 -0.0213949 
1.264945 -0.06067272 0.1966202 
1.340401 -0.07098983 0.112712 
1.124017 -0.3527324 -0.01648367 
1.033394 -0.2915072 -0.01990963 
0.5057222 0.08185169 0.2182661 
1.573972 -0.2905957 0.3886761 
1.587158 -0.1374342 0.3842672 
1.300715 -0.1413098 0.02175816 
1.195367 -0.2560311 -0.01808913 
-0.0003505573 -0.3859726 0.1091097 
-0.6644529 0.4174298 0.121359 
-0.5465163 0.4084001 0.1016941 
-0.6248161 0.3530989 0.02738432 
-0.9354192 0.3610146 0.2821693 
-0.8096429 0.3758687 0.3376485 
0.01271778 0.2564305 0.0997651 
-0.09135685 0.280046 0.0688882 
-0.05722592 0.3076581 0.2153488 
0.837062 -0.1406717 0.381247 
-0.04241166 0.2611411 0.3311804 
0.5791497 -0.05528349 0.38159 
1.476391 -0.235168 0.4129752 
0.05014028 0.261007 0.2386174 
-0.7361885 0.2744611 0.4127289 
1.268196 -0.3700179 -0.002328968 
0.04502156 -0.2623869 0.3993831 
-0.08461018 -0.3345665 0.2759473 
0.09302205 -0.3952931 0.3454107 
0.3734886 -0.3420167 0.4134305 
-0.2898651 0.1673397 -0.01919382 
0.7814219 -0.5084465 0.392806 
0.7964993 -0.3727409 0.4189211 
0.2827415 -0.09393066 -0.01483781 
1.333676 -0.2493367 0.4183008 
1.188281 -0.2994351 0.4194345 
-1.254938 0.1767102 0.1630134 
-1.211695 0.203076 0.2725933 
-1.163032 0.2495258 0.1728426 
-0.72322 0.4242305 0.2409715 
-0.6971101 0.3660208 0.3679239 
-0.6109941 0.3086084 0.4028174 
0.3885692 0.03927441 0.3702814 
0.6581433 -0.6246452 0.08339478 
0.459611 -0.4632075 0.4018897 
-0.2407107 0.1013959 0.4219004 
0.1657056 0.2003812 0.2861568 
-0.09946036 0.001121465 -0.02133584 
-0.7578297 0.09033941 0.01656168 
-0.7889525 0.02179194 0.1133225 
1.154755 -0.06985939 0.2408358 
-0.4551142 -0.08609412 0.1038777 
0.7225266 -0.5499851 0.019563 
0.3849061 -0.5422757 0.3476942 
0.5106461 -0.5652229 0.3583585 
0.2084803 -0.4475753 0.3557835 
0.31701 -0.4488221 0.3867773 
0.07523443 0.1654556 0.3729091 
-0.05813418 0.1273534 0.4083669 
-1.057525 0.3121829 0.2397179 
-1.082722 0.2717215 0.08900629 
0.9436277 -0.06344758 0.1605761 
0.9623442 -0.1207509 0.04798049 
0.8838604 -0.5340176 0.02953871 
1.811173 -0.1095461 0.06252036 
0.921901 -0.202893 -0.002403446 
0.5517955 -0.6227236 0.08703116 
0.3465415 -0.5692716 0.09932092 
1.375105 -0.4155191 0.349442 
-0.2818304 0.3522593 0.3234663 
-0.2432372 0.2321596 0.4040649 
0.4695307 -0.06462201 0.4003744 
0.2483147 -0.5334877 0.2671158 
1.416428 -0.1436793 0.384451 
-0.3944837 0.1958394 0.4203987 
-0.1884054 0.2957239 0.0458858 
-0.2790178 0.2633808 0.005882869 
-0.3354852 0.395862 0.1814681 
-0.6104686 0.4325213 0.2202055 
0.5816062 0.03280195 0.117175 
-0.2453026 -0.2179495 0.1003687 
1.02031 -0.07497721 0.2496845 
1.074931 -0.07637367 0.1420203 
-0.768888 0.3902762 0.08705674 
1.172931 -0.457649 0.03128757 
0.5319603 -0.1853853 0.4134392 
1.400836 -0.3222299 0.4038188 
1.018601 -0.4965394 0.370295 
-0.4416685 -0.1029941 0.2768595 
-0.3535938 0.2978586 0.3891956 
-0.4116203 0.3756391 0.0765646 
-0.2906789 0.3437411 0.06656967 
-0.06323004 -0.1477941 0.4106845 
0.9721364 -0.1325935 0.360396 
-0.644174 0.1816758 -0.02021375 
0.6701011 -0.5871413 0.3511286 
0.5762931 -0.5056043 0.3980275 
-0.6172481 0.4031359 0.3250201 
1.958173 -0.1412057 0.1227176 
-1.151473 0.1630007 0.3602084 
-1.108475 0.2523612 0.3213385 
1.420203 -0.3407952 0.004286568 
1.154456 -0.1311334 0.3579826 
1.556222 -0.1733244 -0.001203616 
1.578595 -0.07797236 0.07343224 
0.9133777 -0.06902535 0.2757982 
-0.08009981 -0.002645124 0.420454 
0.7812722 -0.0438254 0.2962665 
0.1540732 -0.4756908 0.1041395 
-1.324841 0.08236491 0.2945521 
1.476861 -0.05531957 0.1390398 
1.574283 -0.04695639 0.1784067 
0.5185787 -0.02177057 0.02491734 
0.3835611 -0.03712506 -0.001883401 
0.8258366 -0.6160109 0.2821744 
1.076514 -0.5538115 0.2827839 
0.88525 -0.5347895 0.3682039 
0.3393176 -0.100956 0.4126342 
-0.6050268 0.05858212 0.01558085 
-0.4586927 0.4195685 0.1958308 
-0.9897654 0.2913348 0.05305572 
1.063759 -0.226514 0.4096723 
-0.1806116 -0.07845151 0.4097152 
1.963888 -0.1329131 0.299863 
1.41516 -0.4319291 0.09678834 
1.670988 -0.08898199 0.347178 
1.613413 -0.05510624 0.2772565 
0.1200438 -0.4616747 0.2684758 
1.082346 -0.549977 0.107453 
-1.247887 0.07037309 0.1037817 
0.3658812 -0.3150253 -0.01462223 
1.2986 -0.3743064 0.3974419 
-0.5921211 -0.02314523 0.1007299 
0.4279174 -0.6081889 0.2661042 
-1.225648 0.06167922 0.2983106 
1.825533 -0.2341791 0.1076207 
-0.5691462 -0.0345295 0.2961444 
0.9738165 -0.5874852 0.1242209 
0.8228835 -0.6133771 0.1015791 
-1.34836 0.07460062 0.1525732 
0.5875441 -0.6398812 0.268649 
0.6846539 -0.6404983 0.2640926 
-0.7100092 0.01690887 0.3056675 
1.306807 -0.4718552 0.1018495 
-1.131276 0.06162715 0.3113869 
1.670047 -0.3399293 0.2754277 
3 0 1 2 
3 3 4 5 
3 6 7 8 
3 9 10 7 
3 12 107 13 
3 14 4 15 
3 16 17 18 
3 20 21 22 
3 23 24 25 
3 27 28 29 
3 30 31 32 
3 33 34 35 
3 20 22 36 
3 37 38 39 
3 42 43 44 
3 45 11 84 
3 26 107 46 
3 21 20 161 
3 47 48 49 
3 50 28 51 
3 52 53 54 
3 55 56 57 
3 58 32 31 
3 59 47 43 
3 60 61 62 
3 63 35 64 
3 46 65 26 
3 66 67 68 
3 69 70 230 
3 73 74 75 
3 76 22 77 
3 78 193 10 
3 47 79 80 
3 84 10 193 
3 243 81 82 
3 16 18 83 
3 10 9 78 
3 85 86 87 
3 88 89 90 
3 28 91 92 
3 16 83 93 
3 73 94 95 
3 10 84 7 
3 98 99 100 
3 101 102 103 
3 104 40 105 
3 7 6 9 
3 191 45 106 
3 177 108 54 
3 109 110 111 
3 112 113 99 
3 114 115 76 
3 118 119 120 
3 121 122 123 
3 124 125 126 
3 127 95 128 
3 129 130 66 
3 131 132 137 
3 133 24 5 
3 134 120 135 
3 136 137 67 
3 236 138 77 
3 139 140 141 
3 123 142 143 
3 144 145 146 
3 60 147 41 
3 87 86 129 
3 47 49 270 
3 148 146 109 
3 50 51 49 
3 5 149 3 
3 135 150 134 
3 31 116 58 
3 151 146 148 
3 36 175 20 
3 7 84 17 
3 152 143 91 
3 131 137 153 
3 154 155 156 
3 105 26 157 
3 58 117 158 
3 159 160 104 
3 6 8 161 
3 162 69 163 
3 255 156 155 
3 164 165 166 
3 161 8 21 
3 167 143 168 
3 152 48 169 
3 170 5 24 
3 18 171 194 
3 105 157 172 
3 174 74 151 
3 26 65 157 
3 66 178 129 
3 116 31 179 
3 18 11 180 
3 22 21 77 
3 77 96 97 
3 172 181 182 
3 183 184 65 
3 185 148 186 
3 187 122 188 
3 78 189 190 
3 45 191 11 
3 98 192 33 
3 193 190 68 
3 83 194 195 
3 81 37 196 
3 197 198 111 
3 149 5 199 
3 200 184 183 
3 69 162 201 
3 23 75 74 
3 202 80 79 
3 203 127 204 
3 197 110 205 
3 167 206 139 
3 48 152 50 
3 207 4 14 
3 115 208 32 
3 170 13 245 
3 65 46 154 
3 82 163 62 
3 209 178 210 
3 211 53 121 
3 212 106 131 
3 41 3 149 
3 153 271 212 
3 149 213 41 
3 92 91 142 
3 142 187 92 
3 117 2 158 
3 162 214 150 
3 99 119 112 
3 215 82 62 
3 199 5 170 
3 216 43 47 
3 149 199 213 
3 89 217 90 
3 2 218 219 
3 220 154 46 
3 60 221 147 
3 117 222 0 
3 141 53 211 
3 223 104 224 
3 188 124 126 
3 168 225 167 
3 211 139 141 
3 137 136 56 
3 36 115 32 
3 31 30 179 
3 66 210 178 
3 226 100 113 
3 227 29 228 
3 55 229 56 
3 136 66 130 
3 40 41 213 
3 104 223 159 
3 209 221 230 
3 231 57 232 
3 202 79 59 
3 221 209 233 
3 148 109 111 
3 134 273 120 
3 186 198 173 
3 107 186 234 
3 147 235 3 
3 235 15 4 
3 40 104 160 
3 175 32 128 
3 160 159 61 
3 9 14 78 
3 235 4 3 
3 237 165 164 
3 68 137 132 
3 17 16 8 
3 238 239 232 
3 167 225 206 
3 182 181 261 
3 134 150 39 
3 32 208 30 
3 240 103 207 
3 103 240 241 
3 169 80 89 
3 180 11 191 
3 184 181 172 
3 242 243 244 
3 174 151 185 
3 91 28 50 
3 60 41 160 
3 116 246 117 
3 18 180 171 
3 9 240 207 
3 20 94 19 
3 151 148 185 
3 80 202 89 
3 174 185 12 
3 86 130 129 
3 206 247 140 
3 124 248 52 
3 244 243 215 
3 249 62 163 
3 189 233 209 
3 127 203 145 
3 45 84 132 
3 144 151 74 
3 174 12 23 
3 173 42 250 
3 110 109 146 
3 182 224 172 
3 46 107 234 
3 246 176 222 
3 105 172 224 
3 218 2 1 
3 144 74 73 
3 153 212 131 
3 41 40 160 
3 123 211 121 
3 58 158 128 
3 76 77 138 
3 161 19 241 
3 6 161 241 
3 251 112 118 
3 229 153 56 
3 143 152 168 
3 215 62 61 
3 63 252 229 
3 25 75 23 
3 186 107 185 
3 176 246 177 
3 204 158 2 
3 198 186 148 
3 18 17 11 
3 135 119 253 
3 158 204 127 
3 76 115 22 
3 54 108 52 
3 245 26 213 
3 174 23 74 
3 72 43 216 
3 254 239 85 
3 173 234 186 
3 51 28 27 
3 36 32 175 
3 82 215 243 
3 136 130 57 
3 246 222 117 
3 202 59 173 
3 69 87 70 
3 256 191 106 
3 190 210 68 
3 99 253 119 
3 271 153 252 
3 125 257 126 
3 46 234 220 
3 258 8 16 
3 47 80 48 
3 221 249 230 
3 135 254 85 
3 195 93 83 
3 26 13 107 
3 67 66 136 
3 162 259 214 
3 144 95 145 
3 122 121 248 
3 195 97 93 
3 73 95 144 
3 25 133 102 
3 54 176 177 
3 136 57 56 
3 133 5 4 
3 242 159 223 
3 129 70 87 
3 254 99 98 
3 134 38 273 
3 12 185 107 
3 246 116 260 
3 200 261 181 
3 8 7 17 
3 92 187 228 
3 25 101 75 
3 101 103 19 
3 206 88 247 
3 3 41 147 
3 135 85 201 
3 13 170 12 
3 188 126 166 
3 135 253 254 
3 248 188 122 
3 18 194 83 
3 165 237 262 
3 238 232 57 
3 192 263 34 
3 141 1 0 
3 213 199 245 
3 216 47 264 
3 265 266 191 
3 163 69 249 
3 218 140 247 
3 237 164 267 
3 122 187 142 
3 33 192 34 
3 258 96 21 
3 102 207 103 
3 127 145 95 
3 63 229 55 
3 155 71 72 
3 59 42 173 
3 202 173 198 
3 235 147 233 
3 133 4 207 
3 259 162 163 
3 94 175 95 
3 224 182 223 
3 197 90 217 
3 268 269 223 
3 154 156 65 
3 90 197 205 
3 184 157 65 
3 68 67 137 
3 168 169 225 
3 241 19 103 
3 191 256 265 
3 229 252 153 
3 122 142 123 
3 260 116 179 
3 189 15 233 
3 234 250 220 
3 193 132 84 
3 190 189 210 
3 89 88 169 
3 44 72 71 
3 192 226 263 
3 270 49 51 
3 158 127 128 
3 117 58 116 
3 23 12 24 
3 77 97 236 
3 50 49 48 
3 110 219 205 
3 105 40 26 
3 59 79 47 
3 197 111 110 
3 245 13 26 
3 14 15 78 
3 20 19 161 
3 271 256 212 
3 255 183 156 
3 196 37 39 
3 131 106 132 
3 124 108 125 
3 203 204 219 
3 137 56 153 
3 152 91 50 
3 134 39 38 
3 98 100 192 
3 44 71 250 
3 200 183 255 
3 99 254 253 
3 2 219 204 
3 42 44 250 
3 123 167 211 
3 57 130 238 
3 152 169 168 
3 218 1 140 
3 70 178 230 
3 150 201 162 
3 148 111 198 
3 214 259 196 
3 6 241 240 
3 68 132 193 
3 114 208 115 
3 33 35 231 
3 76 138 114 
3 143 142 91 
3 64 35 34 
3 55 231 35 
3 198 217 202 
3 58 128 32 
3 214 39 150 
3 259 82 81 
3 187 166 228 
3 226 192 100 
3 92 29 28 
3 110 203 219 
3 244 159 242 
3 85 87 201 
3 70 129 178 
3 187 188 166 
3 132 106 45 
3 171 180 266 
3 218 205 219 
3 1 141 140 
3 75 101 73 
3 230 249 69 
3 196 39 214 
3 184 172 157 
3 98 232 239 
3 19 73 101 
3 135 201 150 
3 151 144 146 
3 251 113 112 
3 227 262 272 
3 240 9 6 
3 257 164 126 
3 2 117 0 
3 231 55 57 
3 47 270 264 
3 259 163 82 
3 166 126 164 
3 220 71 154 
3 227 228 165 
3 53 52 121 
3 206 140 139 
3 118 112 119 
3 100 99 113 
3 110 146 145 
3 165 228 166 
3 110 145 203 
3 244 61 159 
3 63 55 35 
3 43 72 44 
3 268 223 182 
3 128 95 175 
3 93 96 258 
3 90 205 247 
3 198 197 217 
3 64 34 263 
3 141 222 53 
3 80 169 48 
3 119 135 120 
3 16 93 258 
3 221 60 249 
3 225 169 88 
3 105 224 104 
3 207 14 9 
3 81 196 259 
3 199 170 245 
3 20 175 94 
3 115 36 22 
3 98 239 254 
3 235 233 15 
3 101 25 102 
3 207 102 133 
3 234 173 250 
3 215 61 244 
3 121 52 248 
3 221 233 147 
3 92 228 29 
3 189 78 15 
3 182 261 268 
3 225 88 206 
3 209 230 178 
3 260 177 246 
3 124 188 248 
3 183 65 156 
3 249 60 62 
3 258 21 8 
3 231 232 33 
3 94 73 19 
3 220 250 71 
3 209 210 189 
3 232 98 33 
3 60 160 61 
3 273 118 120 
3 21 96 77 
3 24 12 170 
3 86 85 238 
3 11 17 84 
3 242 223 269 
3 180 191 266 
3 139 211 167 
3 71 155 154 
3 239 238 85 
3 165 262 227 
3 93 97 96 
3 213 26 40 
3 218 247 205 
3 133 25 24 
3 200 181 184 
3 257 267 164 
3 66 68 210 
3 86 238 130 
3 90 247 88 
3 227 272 29 
3 27 29 272 
3 113 251 226 
3 106 212 256 
3 69 201 87 
3 141 0 222 
3 59 43 42 
3 143 167 123 
3 190 193 78 
3 195 236 97 
3 53 176 54 
3 222 176 53 
3 217 89 202 
3 124 52 108 
