OFF
274 499 0
-0.288319 -0.4595419 2.520565e-08 
-0.2197386 -0.4666729 1.921016e-08 
-0.241199 -0.3677624 2.108629e-08 
0.4892543 0.4162117 -4.277197e-08 
0.3392163 0.4403945 -2.965523e-08 
0.3943794 0.2509209 -3.447775e-08 
-0.01016644 0.4772891 8.887781e-10 
-0.04230421 0.6143028 3.698352e-09 
-0.128306 0.5155414 1.121687e-08 
0.1232493 0.566157 -1.077479e-08 
0.06221799 0.7123361 -5.439269e-09 
-0.1348304 0.8310771 1.178725e-08 
0.3135609 -0.02155251 -2.741236e-08 
0.4272901 -0.01364534 -3.735488e-08 
0.2623521 0.555257 -2.293555e-08 
0.398733 0.6335823 -3.485835e-08 
-0.2524496 0.6113074 2.206984e-08 
-0.1521607 0.6733742 1.330231e-08 
-0.2636817 0.7794787 2.305179e-08 
-0.06394971 0.1921849 5.590661e-09 
-0.2331342 0.125865 2.038123e-08 
-0.2839479 0.2762639 2.482351e-08 
-0.3742532 0.1459723 3.271825e-08 
0.1924284 0.03892973 -1.682263e-08 
0.2831469 0.1293683 -2.475349e-08 
0.1718441 0.1501638 -1.502309e-08 
0.611244 0.009556735 -5.343664e-08 
-0.05741705 -1.037288 5.019558e-09 
-0.04206723 -0.9081492 3.677634e-09 
-0.1144188 -0.9539273 1.000281e-08 
-0.5635517 -0.1829306 4.926725e-08 
-0.4698645 -0.2443064 4.107686e-08 
-0.4247758 -0.1217503 3.713508e-08 
0.625566 1.480696 -5.468872e-08 
0.600868 1.559842 -5.252955e-08 
0.5274398 1.499413 -4.611026e-08 
-0.3497544 0.027016 3.05765e-08 
1.170463 1.045675 -1.023251e-07 
1.141689 1.157207 -9.980962e-08 
1.064294 1.091598 -9.304352e-08 
0.8096755 0.3503138 -7.078408e-08 
0.6498344 0.3769204 -5.681033e-08 
0.3232646 -0.4943433 -2.826069e-08 
0.3755246 -0.6065961 -3.28294e-08 
0.4548413 -0.516439 -3.976349e-08 
0.008213629 0.9943063 -7.180583e-10 
0.5179306 -0.1860916 -4.527893e-08 
0.2463298 -0.703632 -2.153483e-08 
0.07286573 -0.7460926 -6.370124e-09 
0.1189661 -0.832061 -1.040035e-08 
0.01484756 -0.83239 -1.298015e-09 
0.04117335 -0.9822898 -3.599489e-09 
-0.3715306 -0.7092458 3.248024e-08 
-0.3409939 -0.6232145 2.981063e-08 
-0.4485745 -0.6781992 3.921562e-08 
0.4544354 1.384939 -3.9728e-08 
0.4040925 1.27732 -3.532689e-08 
0.5416673 1.268758 -4.735406e-08 
-0.3750984 -0.2342805 3.279214e-08 
0.2680721 -0.5807889 -2.343561e-08 
0.7931491 0.6094819 -6.93393e-08 
0.9376786 0.5614856 -8.197446e-08 
0.9249899 0.6921324 -8.086519e-08 
0.3824332 1.548276 -3.343337e-08 
0.5039633 1.603297 -4.405787e-08 
0.7340621 -0.08770199 -6.417375e-08 
0.4930948 1.058245 -4.310772e-08 
0.3823569 1.127175 -3.34267e-08 
0.3366301 1.0174 -2.942914e-08 
0.8048069 0.9989995 -7.035845e-08 
0.6927857 1.017441 -6.056526e-08 
0.5924412 -0.410583 -5.179286e-08 
0.5596851 -0.5746813 -4.892923e-08 
-0.02101904 0.01568607 1.837542e-09 
0.08170251 -0.03458785 -7.14266e-09 
0.09141818 0.07107954 -7.992032e-09 
-0.4965062 0.1560338 4.340595e-08 
-0.4348367 0.2876328 3.801464e-08 
0.2358484 0.709666 -2.061852e-08 
0.1914919 -0.6204412 -1.674075e-08 
0.1066229 -0.6386158 -9.321271e-09 
1.165157 0.9075516 -1.018613e-07 
1.034358 0.8054205 -9.042642e-08 
-0.3693563 0.698591 3.229015e-08 
0.02291013 0.824901 -2.002867e-09 
0.7664016 1.22097 -6.700096e-08 
0.6791487 1.182578 -5.937307e-08 
0.7400425 1.102276 -6.469657e-08 
-0.03186443 -0.5564599 2.785677e-09 
0.04905799 -0.5527447 -4.288785e-09 
-0.009466847 -0.4821082 8.276181e-10 
-0.069178 -0.8031123 6.047733e-09 
-0.1280876 -0.8714427 1.119778e-08 
-0.3678484 0.5582887 3.215833e-08 
-0.1315144 0.03311105 1.149736e-08 
-0.1483956 -0.08313296 1.297315e-08 
-0.3394071 0.4105826 2.967191e-08 
-0.450649 0.5040138 3.939699e-08 
0.7399145 1.411772 -6.468538e-08 
0.8611644 1.406942 -7.528539e-08 
0.8030222 1.493447 -7.020243e-08 
0.03280909 0.1516113 -2.868261e-09 
0.1468009 0.2545356 -1.283374e-08 
0.06445426 0.2974734 -5.634771e-09 
0.9508032 0.3204938 -8.312185e-08 
0.8325046 0.2111641 -7.277987e-08 
0.0471427 1.161901 -4.121346e-09 
0.4010756 -0.1783817 -3.506315e-08 
-0.5270272 -0.7554277 4.607418e-08 
0.05016206 -0.2929961 -4.385307e-09 
-0.02796496 -0.2917267 2.444775e-09 
0.09715197 -0.3458801 -8.493295e-09 
0.9263685 1.462569 -8.098571e-08 
0.8724099 1.509589 -7.626849e-08 
-0.5942916 0.07580685 5.195463e-08 
-0.479956 0.03414784 4.195908e-08 
-0.4533001 -0.3431299 3.962875e-08 
-0.3303205 -0.3462904 2.887753e-08 
1.038633 1.464204 -9.080015e-08 
0.9363541 1.364212 -8.185867e-08 
1.021931 1.310106 -8.934006e-08 
-0.282587 -0.7095082 2.470454e-08 
-0.2491412 -0.7736322 2.178061e-08 
-0.1978491 -0.7118617 1.729652e-08 
-0.4025616 -0.7890313 3.519305e-08 
-0.5036613 -0.8560502 4.403147e-08 
-0.3929189 -0.8754706 3.435006e-08 
-0.1711181 -0.201964 1.495962e-08 
-0.2820472 -0.1683005 2.465734e-08 
0.6095766 1.067624 -5.329088e-08 
0.5709378 1.167873 -4.991296e-08 
0.1782055 1.151619 -1.557922e-08 
0.179718 1.036695 -1.571145e-08 
0.26903 0.281659 -2.351935e-08 
1.012869 1.202641 -8.854785e-08 
0.8951444 1.252242 -7.825601e-08 
0.4577056 1.187797 -4.001389e-08 
0.3012261 1.15998 -2.633402e-08 
-0.5783824 0.2428022 5.05638e-08 
-0.1873903 -0.5900832 1.638218e-08 
-0.1710344 -0.5183079 1.49523e-08 
-0.2438624 -0.5410794 2.131913e-08 
-0.1695834 -0.78301 1.482545e-08 
-0.1056085 -0.7285805 9.232585e-09 
-0.02164853 -0.1235899 1.892575e-09 
-0.07672574 -0.196183 6.707577e-09 
0.04114786 -0.2237695 -3.59726e-09 
0.6390105 0.5618709 -5.586408e-08 
0.1404153 -0.245135 -1.22755e-08 
0.505655 0.3021105 -4.420576e-08 
0.9416646 1.134618 -8.232293e-08 
0.09879696 -0.1433859 -8.637104e-09 
-0.01256254 -0.7364698 1.098252e-09 
0.2438102 1.285486 -2.131456e-08 
0.6359078 -0.2510968 -5.559282e-08 
0.7179594 -0.4214239 -6.276601e-08 
0.7818595 -0.2350053 -6.835232e-08 
0.7636847 0.05286707 -6.676344e-08 
-0.2612642 -0.265429 2.284044e-08 
1.003775 0.4171026 -8.775279e-08 
0.8722721 0.4633569 -7.625645e-08 
-0.1365122 0.284557 1.193428e-08 
0.9112921 1.010532 -7.966769e-08 
0.9102152 0.8632968 -7.957354e-08 
-0.3542852 -0.9662903 3.09726e-08 
-0.2617547 -0.9745615 2.288332e-08 
-0.3033666 -0.8989667 2.652115e-08 
-0.1364917 -0.6515559 1.193248e-08 
-0.05413963 -0.6782842 4.733037e-09 
0.0117668 -0.6505395 -1.028686e-09 
0.3881819 0.121545 -3.393594e-08 
-0.3550611 0.9304424 3.104042e-08 
0.8953862 0.1167686 -7.827715e-08 
0.2575316 -0.4397573 -2.251412e-08 
0.1854475 -0.05840506 -1.621234e-08 
-0.2878935 -0.05219813 2.516845e-08 
-0.4515362 -0.5829455 3.947455e-08 
-0.5478938 -0.6033931 4.789839e-08 
0.6014615 0.9475105 -5.258144e-08 
-0.5585166 -0.2945631 4.882707e-08 
-0.2328981 0.9254688 2.036059e-08 
0.9706146 0.02597406 -8.485382e-08 
1.01084 0.1435499 -8.837048e-08 
0.8479915 -0.1304352 -7.413377e-08 
0.8605588 -0.02032506 -7.523244e-08 
0.2424084 -0.1590873 -2.119202e-08 
0.2644934 -0.2826968 -2.312275e-08 
-0.2277264 -0.8466094 1.990848e-08 
-0.3257818 -0.8247301 2.848075e-08 
0.4226624 0.7735685 -3.695033e-08 
0.3077022 0.8617899 -2.690018e-08 
-0.1257589 1.056009 1.099419e-08 
0.71984 1.531579 -6.293042e-08 
0.1939944 0.8827743 -1.695953e-08 
-0.4190791 0.8386288 3.663706e-08 
-0.5077413 0.6371321 4.438816e-08 
1.085986 1.002116 -9.493989e-08 
0.04147393 -0.4158 -3.625766e-09 
0.1531352 -0.4170827 -1.33875e-08 
0.5043369 0.1884121 -4.409053e-08 
0.9777017 -0.131939 -8.54734e-08 
0.8445941 1.115942 -7.383677e-08 
0.1499774 -0.5387733 -1.311144e-08 
-0.1224039 -0.2599446 1.070089e-08 
-0.1913292 -0.2988501 1.672653e-08 
-0.06875405 -0.4120167 6.01067e-09 
-0.1191441 -0.5849504 1.041591e-08 
0.2077361 0.4075052 -1.816087e-08 
-0.5715044 -0.05478776 4.99625e-08 
0.5522931 0.810068 -4.828299e-08 
0.4690754 0.9163234 -4.100788e-08 
-0.2336439 -0.6402301 2.042579e-08 
0.1097842 1.260935 -9.597636e-09 
0.6347517 0.2340101 -5.549175e-08 
0.9948295 1.047437 -8.697076e-08 
1.056713 0.6470485 -9.238074e-08 
0.4137963 -0.7047946 -3.617522e-08 
0.08319336 -0.4846472 -7.272995e-09 
-0.15588 -0.4278261 1.362746e-08 
-0.1325922 -0.3435212 1.159158e-08 
0.5085118 -0.3311149 -4.445551e-08 
0.6623682 0.7111745 -5.790606e-08 
-0.3631401 -0.5157188 3.174672e-08 
1.065028 0.2907857 -9.31077e-08 
0.9566418 0.2207834 -8.363228e-08 
-0.0608313 -0.6176527 5.318041e-09 
0.8129314 1.62434 -7.106872e-08 
-0.1796725 -0.9842734 1.570747e-08 
-0.1972132 -0.9143526 1.724092e-08 
0.3527595 1.391954 -3.083921e-08 
0.7279133 0.8935292 -6.36362e-08 
0.5494151 1.403488 -4.80314e-08 
0.6429258 1.365164 -5.620636e-08 
0.5288919 0.6870048 -4.62372e-08 
0.3743994 -0.3216498 -3.273103e-08 
0.4850263 0.5394609 -4.240234e-08 
-0.5544847 0.4229916 4.847459e-08 
-0.3074387 -1.100799 2.687715e-08 
0.6514286 1.262945 -5.69497e-08 
0.7181603 1.3201 -6.278357e-08 
0.07829751 0.4142651 -6.844986e-09 
-0.02841385 0.3241087 2.484018e-09 
1.162963 0.4307352 -1.016695e-07 
1.168019 0.6864364 -1.021114e-07 
1.058849 0.5102832 -9.256748e-08 
0.5236324 0.05510283 -4.57774e-08 
-0.4493624 -0.4585249 3.92845e-08 
-0.09339621 -0.4918031 8.164956e-09 
-0.321614 -0.7609106 2.811639e-08 
0.8000185 0.7688875 -6.993984e-08 
0.4231598 -0.4245831 -3.699381e-08 
0.950801 1.555216 -8.312166e-08 
0.256074 1.476218 -2.23867e-08 
0.8747736 1.331163 -7.647514e-08 
0.8025193 1.31389 -7.015846e-08 
0.8849616 -0.249548 -7.73658e-08 
-0.04663009 1.266743 4.076532e-09 
-0.4517018 -0.9648111 3.948903e-08 
-0.2550516 0.4871756 2.229731e-08 
1.01375 0.9425213 -8.862482e-08 
-0.5456679 -0.4312743 4.77038e-08 
1.083113 0.03460021 -9.468873e-08 
-0.2221186 -1.084365 1.941823e-08 
0.6690873 1.62906 -5.849347e-08 
0.2974837 -0.7819389 -2.600685e-08 
-0.1510426 1.202441 1.320457e-08 
-0.2543673 1.074678 2.22375e-08 
-0.4205737 -1.055832 3.676772e-08 
1.141869 0.1892853 -9.982536e-08 
1.167071 0.2855183 -1.020286e-07 
0.187973 -0.8654382 -1.643312e-08 
0.155336 1.41185 -1.35799e-08 
-0.1393564 -1.064524 1.218292e-08 
1.120713 1.288013 -9.797581e-08 
3 0 1 2 
3 3 4 5 
3 6 7 8 
3 9 10 7 
3 12 107 13 
3 14 4 15 
3 16 17 18 
3 20 21 22 
3 23 24 25 
3 27 28 29 
3 30 31 32 
3 33 34 35 
3 20 22 36 
3 37 38 39 
3 42 43 44 
3 45 11 84 
3 26 107 46 
3 21 20 161 
3 47 48 49 
3 50 28 51 
3 52 53 54 
3 55 56 57 
3 58 32 31 
3 59 47 43 
3 60 61 62 
3 63 35 64 
3 46 65 26 
3 66 67 68 
3 69 70 230 
3 73 74 75 
3 76 22 77 
3 78 193 10 
3 47 79 80 
3 84 10 193 
3 243 81 82 
3 16 18 83 
3 10 9 78 
3 85 86 87 
3 88 89 90 
3 28 91 92 
3 16 83 93 
3 73 94 95 
3 10 84 7 
3 98 99 100 
3 101 102 103 
3 104 40 105 
3 7 6 9 
3 191 45 106 
3 177 108 54 
3 109 110 111 
3 112 113 99 
3 114 115 76 
3 118 119 120 
3 121 122 123 
3 124 125 126 
3 127 95 128 
3 129 130 66 
3 131 132 137 
3 133 24 5 
3 134 120 135 
3 136 137 67 
3 236 138 77 
3 139 140 141 
3 123 142 143 
3 144 145 146 
3 60 147 41 
3 87 86 129 
3 47 49 270 
3 148 146 109 
3 50 51 49 
3 5 149 3 
3 135 150 134 
3 31 116 58 
3 151 146 148 
3 36 175 20 
3 7 84 17 
3 152 143 91 
3 131 137 153 
3 154 155 156 
3 105 26 157 
3 58 117 158 
3 159 160 104 
3 6 8 161 
3 162 69 163 
3 255 156 155 
3 164 165 166 
3 161 8 21 
3 167 143 168 
3 152 48 169 
3 170 5 24 
3 18 171 194 
3 105 157 172 
3 174 74 151 
3 26 65 157 
3 66 178 129 
3 116 31 179 
3 18 11 180 
3 22 21 77 
3 77 96 97 
3 172 181 182 
3 183 184 65 
3 185 148 186 
3 187 122 188 
3 78 189 190 
3 45 191 11 
3 98 192 33 
3 193 190 68 
3 83 194 195 
3 81 37 196 
3 197 198 111 
3 149 5 199 
3 200 184 183 
3 69 162 201 
3 23 75 74 
3 202 80 79 
3 203 127 204 
3 197 110 205 
3 167 206 139 
3 48 152 50 
3 207 4 14 
3 115 208 32 
3 170 13 245 
3 65 46 154 
3 82 163 62 
3 209 178 210 
3 211 53 121 
3 212 106 131 
3 41 3 149 
3 153 271 212 
3 149 213 41 
3 92 91 142 
3 142 187 92 
3 117 2 158 
3 162 214 150 
3 99 119 112 
3 215 82 62 
3 199 5 170 
3 216 43 47 
3 149 199 213 
3 89 217 90 
3 2 218 219 
3 220 154 46 
3 60 221 147 
3 117 222 0 
3 141 53 211 
3 223 104 224 
3 188 124 126 
3 168 225 167 
3 211 139 141 
3 137 136 56 
3 36 115 32 
3 31 30 179 
3 66 210 178 
3 226 100 113 
3 227 29 228 
3 55 229 56 
3 136 66 130 
3 40 41 213 
3 104 223 159 
3 209 221 230 
3 231 57 232 
3 202 79 59 
3 221 209 233 
3 148 109 111 
3 134 273 120 
3 186 198 173 
3 107 186 234 
3 147 235 3 
3 235 15 4 
3 40 104 160 
3 175 32 128 
3 160 159 61 
3 9 14 78 
3 235 4 3 
3 237 165 164 
3 68 137 132 
3 17 16 8 
3 238 239 232 
3 167 225 206 
3 182 181 261 
3 134 150 39 
3 32 208 30 
3 240 103 207 
3 103 240 241 
3 169 80 89 
3 180 11 191 
3 184 181 172 
3 242 243 244 
3 174 151 185 
3 91 28 50 
3 60 41 160 
3 116 246 117 
3 18 180 171 
3 9 240 207 
3 20 94 19 
3 151 148 185 
3 80 202 89 
3 174 185 12 
3 86 130 129 
3 206 247 140 
3 124 248 52 
3 244 243 215 
3 249 62 163 
3 189 233 209 
3 127 203 145 
3 45 84 132 
3 144 151 74 
3 174 12 23 
3 173 42 250 
3 110 109 146 
3 182 224 172 
3 46 107 234 
3 246 176 222 
3 105 172 224 
3 218 2 1 
3 144 74 73 
3 153 212 131 
3 41 40 160 
3 123 211 121 
3 58 158 128 
3 76 77 138 
3 161 19 241 
3 6 161 241 
3 251 112 118 
3 229 153 56 
3 143 152 168 
3 215 62 61 
3 63 252 229 
3 25 75 23 
3 186 107 185 
3 176 246 177 
3 204 158 2 
3 198 186 148 
3 18 17 11 
3 135 119 253 
3 158 204 127 
3 76 115 22 
3 54 108 52 
3 245 26 213 
3 174 23 74 
3 72 43 216 
3 254 239 85 
3 173 234 186 
3 51 28 27 
3 36 32 175 
3 82 215 243 
3 136 130 57 
3 246 222 117 
3 202 59 173 
3 69 87 70 
3 256 191 106 
3 190 210 68 
3 99 253 119 
3 271 153 252 
3 125 257 126 
3 46 234 220 
3 258 8 16 
3 47 80 48 
3 221 249 230 
3 135 254 85 
3 195 93 83 
3 26 13 107 
3 67 66 136 
3 162 259 214 
3 144 95 145 
3 122 121 248 
3 195 97 93 
3 73 95 144 
3 25 133 102 
3 54 176 177 
3 136 57 56 
3 133 5 4 
3 242 159 223 
3 129 70 87 
3 254 99 98 
3 134 38 273 
3 12 185 107 
3 246 116 260 
3 200 261 181 
3 8 7 17 
3 92 187 228 
3 25 101 75 
3 101 103 19 
3 206 88 247 
3 3 41 147 
3 135 85 201 
3 13 170 12 
3 188 126 166 
3 135 253 254 
3 248 188 122 
3 18 194 83 
3 165 237 262 
3 238 232 57 
3 192 263 34 
3 141 1 0 
3 213 199 245 
3 216 47 264 
3 265 266 191 
3 163 69 249 
3 218 140 247 
3 237 164 267 
3 122 187 142 
3 33 192 34 
3 258 96 21 
3 102 207 103 
3 127 145 95 
3 63 229 55 
3 155 71 72 
3 59 42 173 
3 202 173 198 
3 235 147 233 
3 133 4 207 
3 259 162 163 
3 94 175 95 
3 224 182 223 
3 197 90 217 
3 268 269 223 
3 154 156 65 
3 90 197 205 
3 184 157 65 
3 68 67 137 
3 168 169 225 
3 241 19 103 
3 191 256 265 
3 229 252 153 
3 122 142 123 
3 260 116 179 
3 189 15 233 
3 234 250 220 
3 193 132 84 
3 190 189 210 
3 89 88 169 
3 44 72 71 
3 192 226 263 
3 270 49 51 
3 158 127 128 
3 117 58 116 
3 23 12 24 
3 77 97 236 
3 50 49 48 
3 110 219 205 
3 105 40 26 
3 59 79 47 
3 197 111 110 
3 245 13 26 
3 14 15 78 
3 20 19 161 
3 271 256 212 
3 255 183 156 
3 196 37 39 
3 131 106 132 
3 124 108 125 
3 203 204 219 
3 137 56 153 
3 152 91 50 
3 134 39 38 
3 98 100 192 
3 44 71 250 
3 200 183 255 
3 99 254 253 
3 2 219 204 
3 42 44 250 
3 123 167 211 
3 57 130 238 
3 152 169 168 
3 218 1 140 
3 70 178 230 
3 150 201 162 
3 148 111 198 
3 214 259 196 
3 6 241 240 
3 68 132 193 
3 114 208 115 
3 33 35 231 
3 76 138 114 
3 143 142 91 
3 64 35 34 
3 55 231 35 
3 198 217 202 
3 58 128 32 
3 214 39 150 
3 259 82 81 
3 187 166 228 
3 226 192 100 
3 92 29 28 
3 110 203 219 
3 244 159 242 
3 85 87 201 
3 70 129 178 
3 187 188 166 
3 132 106 45 
3 171 180 266 
3 218 205 219 
3 1 141 140 
3 75 101 73 
3 230 249 69 
3 196 39 214 
3 184 172 157 
3 98 232 239 
3 19 73 101 
3 135 201 150 
3 151 144 146 
3 251 113 112 
3 227 262 272 
3 240 9 6 
3 257 164 126 
3 2 117 0 
3 231 55 57 
3 47 270 264 
3 259 163 82 
3 166 126 164 
3 220 71 154 
3 227 228 165 
3 53 52 121 
3 206 140 139 
3 118 112 119 
3 100 99 113 
3 110 146 145 
3 165 228 166 
3 110 145 203 
3 244 61 159 
3 63 55 35 
3 43 72 44 
3 268 223 182 
3 128 95 175 
3 93 96 258 
3 90 205 247 
3 198 197 217 
3 64 34 263 
3 141 222 53 
3 80 169 48 
3 119 135 120 
3 16 93 258 
3 221 60 249 
3 225 169 88 
3 105 224 104 
3 207 14 9 
3 81 196 259 
3 199 170 245 
3 20 175 94 
3 115 36 22 
3 98 239 254 
3 235 233 15 
3 101 25 102 
3 207 102 133 
3 234 173 250 
3 215 61 244 
3 121 52 248 
3 221 233 147 
3 92 228 29 
3 189 78 15 
3 182 261 268 
3 225 88 206 
3 209 230 178 
3 260 177 246 
3 124 188 248 
3 183 65 156 
3 249 60 62 
3 258 21 8 
3 231 232 33 
3 94 73 19 
3 220 250 71 
3 209 210 189 
3 232 98 33 
3 60 160 61 
3 273 118 120 
3 21 96 77 
3 24 12 170 
3 86 85 238 
3 11 17 84 
3 242 223 269 
3 180 191 266 
3 139 211 167 
3 71 155 154 
3 239 238 85 
3 165 262 227 
3 93 97 96 
3 213 26 40 
3 218 247 205 
3 133 25 24 
3 200 181 184 
3 257 267 164 
3 66 68 210 
3 86 238 130 
3 90 247 88 
3 227 272 29 
3 27 29 272 
3 113 251 226 
3 106 212 256 
3 69 201 87 
3 141 0 222 
3 59 43 42 
3 143 167 123 
3 190 193 78 
3 195 236 97 
3 53 176 54 
3 222 176 53 
3 217 89 202 
3 124 52 108 
