OFF
523 1000 0
-0.7350615 0.6734074 0.09148456 
0.9518999 -0.249934 0.1801591 
-0.6915805 -0.5492611 0.4718474 
-0.6150731 0.5601651 0.5571687 
0.9963558 0.009296061 0.09388291 
-0.8948456 0.1271299 0.4312173 
0.2820181 0.8369995 0.4702579 
-0.4177822 0.6038179 0.6809745 
0.3784986 0.03115537 0.9267221 
0.1420634 0.9913241 9.346275e-05 
0.004774459 -0.9805524 0.2030656 
0.3206214 0.678075 0.6616808 
0.0620672 -0.3831391 0.9224628 
0.2577302 -0.2755476 0.9275051 
-0.8274445 0.1757182 0.5349429 
-0.3969491 -0.9188763 0.0008846257 
-0.7462291 -0.6662945 -3.663051e-05 
-0.8206205 0.3822336 0.4272097 
0.2343252 0.7548369 0.6138719 
-0.07170682 0.7499072 0.6565091 
-0.3400553 -0.1312783 0.9325109 
0.3637651 0.141146 0.9221331 
0.2036259 0.326448 0.9253646 
-0.9427575 0.3266902 0.07129405 
-0.5649464 0.8209471 0.08330769 
-0.5800856 0.7857754 0.2179821 
-0.4080372 0.8881342 0.2159992 
0.8077846 -0.5839809 0.08770914 
-0.9300174 0.2280531 0.2918014 
-0.8634192 -0.4558935 0.2165641 
0.9580986 0.1339199 0.2537014 
-0.8794628 0.2671327 0.3979903 
-0.8959207 -0.00766449 0.4465601 
-0.2154452 0.6767154 0.7046285 
-0.4390523 0.1051394 0.8945413 
0.4981368 0.08100137 0.8642339 
0.1308748 -0.4896616 0.8641749 
-0.2960321 0.005868922 0.9573478 
-0.115469 -0.1619192 0.9816897 
-0.449062 -0.888212 0.1068119 
-0.9942386 0.06598655 0.09933556 
-0.6113688 -0.7651152 0.2042022 
0.8673895 0.001169897 0.4986826 
-0.3458309 0.6702635 0.6577629 
-0.6889436 0.073639 0.7229584 
-0.5685285 0.120806 0.8143724 
-0.4315989 0.2595766 0.8650781 
-0.8194843 -0.5472232 0.1732537 
-0.8166084 0.482633 0.3185949 
-0.3103243 0.8941538 0.3253418 
-0.4488955 -0.8085071 0.3821774 
0.8204787 -0.4103948 0.3982046 
-0.4824506 0.7306065 0.4844016 
0.6695501 0.5416699 0.5109799 
-0.564199 0.5019031 0.6567495 
-0.1570287 0.2392607 0.9583457 
0.1357768 -0.2795442 0.9520771 
0.02076381 0.7416701 0.6697751 
-0.7514727 -0.6523362 0.1099977 
0.07828595 -0.8397838 0.5387926 
-0.7297565 0.1932604 0.6565306 
0.9865875 0.04650873 0.1600536 
0.1167241 -0.9886085 0.09946822 
0.3833348 -0.7719827 0.5086603 
0.6534339 0.1872503 0.7365811 
0.4391315 -0.221865 0.8714216 
-0.178723 0.968359 0.1728721 
-0.655156 -0.4409689 0.6138992 
-0.6187243 -0.3813598 0.6874515 
-0.421192 -0.5009201 0.7557061 
-0.714049 -0.596007 0.3713507 
0.6773498 0.6303963 0.381694 
0.7673241 -0.270887 0.5831555 
-0.7646068 0.106921 0.6372817 
-0.8211036 0.5649369 0.09507201 
0.8815964 0.472196 0.0001172409 
0.2357761 -0.9318278 0.2761978 
0.1705271 0.9025372 0.3995984 
0.02905473 0.8400151 0.5433681 
-0.3854334 -0.6627532 0.6431413 
-0.6794364 -0.2746317 0.6809162 
-0.546773 0.006720364 0.8378385 
0.5956751 0.05638226 0.8032734 
0.2536647 -0.8954071 0.3668449 
0.7401084 -0.6682805 0.08482066 
0.6403598 -0.09704605 0.7626556 
0.6560364 -0.7477294 0.1084983 
-0.934557 -0.3165203 0.159733 
-0.1028506 -0.9758928 0.1946413 
-0.07108045 -0.9299858 0.3624011 
0.2109383 0.8172148 0.5362198 
0.125479 0.8114632 0.5714849 
0.5973066 -0.6345022 0.4941797 
-0.6988696 -0.4614469 0.5474612 
0.7394721 0.2234605 0.6354055 
-0.3910565 -0.5913232 0.7058741 
0.3213884 0.5225932 0.789901 
0.4497376 0.3176894 0.8363727 
0.3922149 -0.3973868 0.8300154 
-0.9066198 -0.3638305 0.2180806 
-0.1420967 0.9071762 0.3990708 
0.1697854 -0.8809271 0.4448813 
0.5866107 -0.7169733 0.3784012 
0.5917704 0.3754013 0.7132117 
0.5978118 -0.2655333 0.7563227 
0.4711842 -0.3243406 0.8208829 
-0.8618727 -0.5099213 0.0001482374 
0.5630432 -0.8281088 0.0002369704 
0.496268 0.8644764 0.08969528 
0.883522 0.4294049 0.1904193 
0.4808095 -0.8731115 0.08856644 
-0.2085732 -0.9795332 9.098805e-05 
-0.1969129 -0.9763219 0.09504635 
-0.8951618 -0.4352959 0.1069786 
-0.976905 0.1950154 0.09757295 
0.7265321 0.6465265 0.239252 
0.5256008 -0.7975434 0.3013361 
-0.9652783 0.0931217 0.2505063 
-0.6373028 0.7012598 0.3197396 
-0.1820693 0.9421398 0.2819162 
0.09522227 0.976883 0.1936 
0.6071196 0.729782 0.3169358 
0.7007856 -0.6834815 0.2064247 
-0.7254429 0.60895 0.3251273 
0.255815 0.9023648 0.3507541 
0.7249103 0.5971204 0.3443943 
0.9201434 -0.2020842 0.3396382 
-0.1023932 -0.9445273 0.3148421 
-0.5439479 -0.7647268 0.3456463 
0.4218952 -0.8310626 0.3668191 
-0.7113655 0.5374542 0.4542805 
0.4984685 -0.7354173 0.4615193 
-0.5318577 -0.7244732 0.4403743 
-0.8312102 -0.4170042 0.3703813 
-0.886441 -0.1608908 0.4374084 
-0.8511536 -0.2971518 0.4352858 
-0.7680937 0.377086 0.520229 
-0.3055342 0.7986304 0.5205866 
0.2029527 -0.8316825 0.517859 
-0.096909 -0.8253583 0.5574186 
-0.5264355 -0.6712066 0.5236802 
0.02546945 0.7863256 0.6169803 
0.7666895 0.0865737 0.6362251 
-0.7313747 -0.2111139 0.6500965 
-0.3047643 -0.685647 0.6625773 
-0.614751 0.1042491 0.7835913 
-0.4169882 0.5075209 0.7557226 
0.7287105 -0.08610326 0.6808719 
0.599003 -0.4487951 0.6647614 
-0.003982057 0.5803073 0.8169532 
-0.2326385 -0.45585 0.860157 
-0.3390968 0.326176 0.8842841 
-0.1246735 0.3410418 0.932657 
0.2661758 -0.3794847 0.8888226 
-0.2873242 -0.2193227 0.9339663 
-0.2423553 -0.1669188 0.9563872 
-0.0644902 0.1809341 0.9828849 
-0.4479825 0.8896416 0.09999017 
0.8176578 0.2334469 0.5269521 
0.2439551 0.5433306 0.8055593 
0.006116271 0.37094 0.9302259 
-0.2768465 0.9620855 0.0001895589 
0.3224711 0.8928784 0.3168578 
-0.3015279 -0.3779179 0.8769122 
0.07337019 0.9947692 0.09095831 
0.1854702 0.9700567 0.1602823 
0.8880053 0.3514643 0.2973914 
0.4843073 0.7996631 0.3572763 
0.8800065 -0.2210788 0.4203433 
-0.1515967 -0.8595698 0.4906671 
-0.1349567 0.7909744 0.5976843 
0.4865124 -0.6451277 0.5899779 
-0.8442839 -0.117206 0.523478 
-0.2091147 0.8039651 0.5561117 
0.5531028 -0.5372037 0.6376267 
-0.3929969 -0.4247732 0.8155485 
-0.08189358 0.4518784 0.8889649 
-0.09969462 -0.3054484 0.9477758 
-0.6459526 0.7600539 0.07840097 
0.8974757 -0.4457314 0.0001460758 
0.9855238 0.1464177 0.08662371 
0.9933025 -0.101962 0.0663976 
0.972402 -0.2188241 0.09112413 
-0.3302308 -0.9417635 0.07248576 
-0.6608489 0.7222711 0.2070826 
-0.2847363 0.9519012 0.1229442 
0.2062442 -0.9744017 0.08805405 
-0.6874357 -0.7204847 0.0983026 
0.2417463 0.9445592 0.2231854 
0.8221206 0.5457253 0.1699814 
0.9733985 0.1651852 0.1632656 
-0.04442425 0.9543405 0.2995558 
0.9494665 0.2367655 0.2087851 
0.8908775 -0.4126179 0.1953778 
-0.624496 -0.7288164 0.2844121 
0.7657501 -0.4990349 0.4061696 
0.4138778 0.8008825 0.4342356 
-0.1956103 -0.9007097 0.3894934 
0.7858679 -0.1024745 0.6113778 
-0.5549628 -0.5772775 0.599482 
0.7522222 -0.1955941 0.6302631 
0.6718985 0.09194441 0.7366482 
0.4610462 -0.1313649 0.87881 
-0.1548062 0.405666 0.9007155 
-0.2527717 0.219266 0.9441545 
-0.03835896 -0.3811816 0.9248348 
0.2894454 0.08410321 0.9540509 
-0.9531395 -0.2982431 0.07121499 
0.4032137 0.9173051 0.001557176 
0.9317099 0.3646325 3.644959e-05 
-0.9014787 0.4193183 0.113068 
0.3871417 0.9116972 0.1408961 
-0.9394845 0.2843249 0.1954348 
0.9740192 -0.05024716 0.2208155 
-0.3359828 -0.9247279 0.1864049 
-0.9671182 0.1652618 0.1936109 
-0.3257536 0.9285701 0.1830757 
-0.2499032 0.9321036 0.265063 
0.6507582 0.71548 0.2571856 
-0.9834146 -0.0362845 0.1823625 
-0.7579904 0.6143225 0.2283255 
0.08722856 0.9406082 0.3318543 
0.6478852 -0.7069599 0.283837 
-0.2963321 -0.8969819 0.3304251 
-0.7115307 -0.637453 0.2981381 
0.8469962 0.3833489 0.3692505 
0.1377703 -0.9242492 0.358247 
-0.7715223 0.4973037 0.3969587 
-0.7905812 0.2661742 0.5537181 
-0.03067423 0.8962418 0.4447125 
0.7840427 0.4585724 0.4192705 
-0.2861311 0.7420998 0.6076778 
0.7266777 0.4233776 0.5413504 
0.7955015 0.2958783 0.5322255 
0.006656737 -0.8984069 0.4427685 
-0.3840683 -0.73739 0.5569156 
0.4527971 -0.5825471 0.6751997 
-0.7816674 -0.0868081 0.619293 
0.4684763 0.5104768 0.7218181 
-0.52522 -0.5018669 0.6888219 
-0.1671381 0.6322303 0.7581317 
-0.351979 -0.4788135 0.805349 
0.5561919 -0.1183136 0.8230408 
0.03600932 0.4630502 0.8865697 
0.3570453 -0.09037919 0.9309024 
-0.5957797 -0.8048851 0.000113392 
-0.8802114 0.4605385 0.126604 
-0.7369208 0.6762677 3.052488e-05 
-0.6321878 0.7758446 5.342362e-06 
0.5086321 0.8609326 3.289886e-05 
0.6898262 0.7224428 0.05084432 
0.672015 -0.7408835 4.340734e-05 
-0.1288335 0.9881006 0.08630256 
-0.5117926 -0.8543474 0.09327577 
0.2964112 0.9503591 0.0999926 
0.5785068 0.798279 0.1777518 
0.7516363 0.650475 0.1156332 
0.6115664 -0.7609389 0.2215206 
-0.1106588 0.973774 0.1993488 
0.3374265 0.9144516 0.2247116 
0.9291523 0.3214206 0.1833743 
0.3395448 -0.9201876 0.2006038 
-0.2111854 -0.9519049 0.2290804 
-0.9433782 -0.2623482 0.2063865 
0.7761592 -0.5909259 0.2242931 
0.4153009 -0.8585353 0.3020119 
-0.2191729 0.8999861 0.3763183 
0.03195022 0.9094276 0.4159116 
0.5398786 0.7766084 0.3289276 
0.909173 0.05078961 0.4145547 
0.9345072 -0.07096022 0.3536415 
0.8112246 -0.4927859 0.315944 
0.7382246 0.502574 0.4524465 
0.7941228 -0.3579047 0.493449 
0.7105907 -0.5421222 0.4497947 
0.3024956 -0.8427605 0.446384 
-0.419797 0.7137488 0.5625149 
0.1093336 0.862941 0.4937529 
-0.6114376 -0.5612256 0.5599115 
-0.4681393 -0.7474471 0.4725179 
-0.7906998 -0.3601751 0.4976729 
-0.7871441 -0.005354945 0.6173179 
-0.6801078 0.4429006 0.5870347 
0.1173825 0.7700937 0.6273365 
0.3904783 0.7100732 0.5862709 
0.5794764 0.5974048 0.5575808 
0.5993168 -0.5693018 0.5642239 
0.1664923 -0.7678927 0.6205704 
0.7298857 0.3424643 0.5923184 
0.8064924 -0.01679384 0.5918167 
0.665961 -0.2873488 0.6900395 
0.7122526 -0.393359 0.5828273 
-0.4849454 -0.6528754 0.582406 
0.6272985 0.2717407 0.730924 
-0.1471763 -0.6775191 0.7220287 
-0.2430455 -0.6451858 0.7262329 
-0.3529621 -0.5472075 0.7596389 
0.4958079 -0.4150726 0.7637773 
-0.04967011 -0.6980166 0.715463 
-0.6357762 -0.187173 0.74992 
-0.2432012 0.5064415 0.8296195 
0.02663788 -0.5761607 0.8181264 
0.387235 0.290771 0.8752223 
-0.541433 -0.08939535 0.8381467 
-0.1356027 -0.4571258 0.87924 
-0.4443607 -0.01650042 0.8975762 
-0.0820183 0.2989604 0.9511032 
0.2067323 0.1574021 0.9667884 
-0.04695455 -0.116253 0.9939069 
-0.4270815 -0.1742098 0.8878205 
-0.6322545 -0.04123048 0.7753918 
0.3280637 -0.4999941 0.8026165 
-0.01102982 -0.4855361 0.8756173 
0.3867973 0.8636742 0.323888 
0.2931778 -0.7452018 0.6012779 
0.3679513 0.6025396 0.7082165 
0.1688517 0.6564775 0.7364649 
0.05127237 -0.6463475 0.7628634 
-0.4751777 -0.3277986 0.8187073 
0.34821 -0.1995735 0.9167707 
0.4725077 -0.04264604 0.8811047 
-0.4874535 -0.8315246 0.2716159 
0.6391847 0.440918 0.6312458 
-0.8085024 -0.5337023 0.2481971 
0.0004447698 -0.7776419 0.6317319 
-0.5977299 0.4007047 0.6938566 
-0.9608597 -0.1532892 0.2324233 
-0.6139512 -0.6592314 0.4358608 
-0.9262214 -0.2225906 0.3058887 
-0.9346327 -0.08121534 0.3502725 
-0.00166369 1.000045 0.0001385983 
0.7780958 -0.629427 -4.344596e-06 
0.1727705 -0.9850925 0.0001649704 
0.4578671 0.8606094 0.2258076 
0.4902441 -0.8501253 0.1964506 
-0.7152019 -0.6673601 0.2077289 
0.8615975 0.4126798 0.2978865 
-0.5141701 0.4364591 0.7400701 
-0.3935823 -0.3033637 0.8684866 
-0.1704789 -0.3682308 0.913918 
0.6990039 -0.001832803 0.7167378 
-0.5197381 -0.2001824 0.8324345 
-0.2554236 -0.546113 0.7991402 
-0.4787919 0.1729389 0.8610153 
-0.9742674 0.2272802 5.727534e-05 
-0.05029963 0.9960263 0.08079328 
-0.9766901 -0.1880539 0.1090231 
0.8671129 -0.4038197 0.2955188 
0.3177586 -0.8946802 0.3173678 
0.1315745 -0.9637207 0.2379979 
0.3133628 0.7507933 0.5813324 
-0.6365539 0.2350473 0.7356827 
0.3054413 0.6229432 0.7219663 
0.3893304 0.4091458 0.8264363 
0.05629149 0.009311224 1.000691 
0.04918052 0.2983597 0.9545304 
-0.8768559 -0.2996625 0.3784627 
0.1385558 0.5591391 0.8192478 
-0.2594767 -0.7906433 0.5559435 
0.4229734 -0.6815201 0.5981705 
0.3762349 -0.3031076 0.8762538 
0.3006952 0.3357689 0.8932801 
-0.6105494 0.685437 0.3974741 
0.08643258 0.7023262 0.7073688 
-0.8464704 0.4836178 0.227546 
0.1832831 0.9477237 0.26133 
-0.8028852 -0.4986157 0.3285394 
0.4845422 0.1982295 0.8537105 
-1.000516 0.02260751 9.704498e-05 
0.8372291 0.5415007 0.07546018 
-0.5462449 0.2435722 0.8020223 
0.5888044 -0.805455 0.08295743 
-0.031367 -0.9970497 0.08940476 
-0.05548451 0.6910931 0.7224322 
0.4972047 0.409766 0.7662508 
0.577525 -0.1737565 0.7975185 
-0.5791126 -0.2995833 0.7599374 
0.01002883 -0.2529868 0.96908 
-0.1255379 -0.004215938 0.9931067 
0.9208449 -0.3040586 0.2438086 
0.2511243 -0.6228141 0.7432467 
-0.03738466 0.7943483 0.6058088 
-0.5895919 0.3437606 0.7320205 
0.5677596 -0.3626254 0.7404029 
0.9696128 -0.1366261 0.2094791 
0.2138808 0.7157584 0.6649435 
-0.02122187 -0.9993773 -4.415544e-06 
0.2911139 -0.9583942 0.0001877743 
0.9828492 0.187567 6.92684e-05 
-0.8277274 -0.5560373 0.07783296 
-0.5032015 0.7595154 0.4154291 
-0.2072692 0.854643 0.4760075 
-0.06152608 -0.7622233 0.645157 
0.5338001 0.2865987 0.7960669 
-0.2751683 -0.8583128 0.4334897 
0.4486907 0.6312207 0.6353126 
-0.1628913 0.1189651 0.9813197 
0.5701209 -0.02519831 0.8219941 
0.1396428 0.426648 0.8941737 
0.7722023 0.6328691 0.06018528 
0.8098846 0.5887244 9.362573e-05 
-0.09981409 0.8473304 0.5230083 
0.1612726 -0.5920126 0.7899299 
0.9760221 -0.2230747 0.0001039368 
-0.008946383 0.9795772 0.2050563 
0.8116961 0.5285482 0.2520164 
0.3654864 0.7735124 0.5177953 
-0.4878431 0.5984712 0.6365589 
-0.2618555 -0.3174966 0.9121365 
0.1091441 -0.1390374 0.9870777 
0.0593752 -0.9998606 0.0009583047 
0.8810111 -0.4627575 0.09943273 
0.8353596 -0.5125189 0.2025554 
0.6679626 0.3381098 0.6641616 
-0.5228426 -0.428226 0.7383437 
0.7181543 0.6950493 5.147821e-05 
0.4347094 -0.9013375 0.0001000037 
0.287077 -0.9533323 0.09873971 
0.6128091 0.7864799 0.06687496 
0.918947 0.3830774 0.09919651 
0.2120028 -0.9620091 0.1704759 
-0.38318 0.8174971 0.4336736 
0.7267924 -0.6119205 0.3145618 
0.5793513 0.6865201 0.4428238 
-0.1316518 -0.562899 0.817927 
-0.6929039 -0.08035251 0.7174955 
-0.1030182 -0.5470037 0.8322174 
0.2417062 -0.5403503 0.8078289 
0.170649 0.05123667 0.984685 
0.6450263 -0.1774161 0.7440844 
-0.1847509 -0.2569809 0.9491011 
0.1604611 -0.04342635 0.9870798 
0.931497 -0.355728 0.08555715 
0.8811657 -0.301833 0.3656218 
-0.4908196 -0.871012 0.000124151 
-0.7761807 -0.5838524 0.2394338 
0.3349406 0.8389366 0.4295127 
0.9127987 0.2538255 0.324015 
0.4864478 0.7216796 0.4940945 
0.6870648 -0.4609832 0.5642914 
-0.689551 0.3321669 0.6440634 
0.3019145 -0.6644904 0.6849231 
0.3924959 -0.5868388 0.7088602 
-0.2244086 0.3140967 0.9236729 
0.1772314 -0.4054489 0.8982142 
-0.2300856 0.9699473 0.08616798 
-0.9145921 0.3552869 0.1934064 
-0.3996655 -0.8661178 0.3056778 
-0.6506274 0.6336188 0.4210519 
-0.5568454 0.6584277 0.5082848 
0.8656641 0.2328868 0.4437712 
0.8771979 0.155856 0.4566462 
0.5454898 0.5121034 0.6661161 
-0.2807902 0.6015548 0.7495753 
-0.1007635 0.5794874 0.8108295 
-0.2499953 0.4038237 0.8804578 
0.2850447 0.2238147 0.932829 
-0.9257727 -0.3808985 6.041841e-05 
-0.9920498 -0.1310696 0.0002507763 
-0.991569 -0.1027693 0.08730794 
0.6094784 0.7945944 -4.84729e-05 
0.8901346 0.4480297 0.08559076 
-0.4886824 -0.8549407 0.1804566 
0.2215674 0.9726558 0.07389618 
0.6704158 0.7278648 0.1435973 
-0.8806803 0.3626375 0.3070312 
0.8019756 0.5029625 0.3234642 
-0.8868508 -0.3519308 0.3020177 
-0.9430097 0.05228761 0.3318611 
-0.4202913 0.8498784 0.3207917 
0.6769611 -0.6376972 0.3686472 
-0.6160386 -0.7020946 0.3564321 
-0.7574622 -0.4826642 0.441696 
-0.2859214 0.8543542 0.4336036 
0.3769777 0.8082823 0.4512039 
0.8862857 -0.1047591 0.4520795 
0.8336521 -0.2039961 0.5135828 
-0.7249744 -0.3497779 0.5946676 
0.1322212 -0.7063304 0.697759 
-0.8496262 0.01605504 0.5280471 
-0.1695761 0.7326251 0.6607571 
-0.4541211 -0.5807987 0.6766001 
0.5377426 -0.2339237 0.8109661 
-0.04278951 -0.6262686 0.7778384 
-0.4762534 0.3481812 0.8087325 
-0.1563657 0.477897 0.8657201 
0.4011744 0.5065173 0.7640916 
-0.327099 0.1401218 0.9360064 
0.120582 0.2534743 0.9624541 
-0.2051043 -0.09139794 0.9749961 
0.08601567 0.138673 0.9893593 
0.8351594 0.3637026 0.4141832 
-0.04591624 0.03110917 0.9999238 
-0.1828632 -0.7472897 0.6397374 
-0.961967 0.2626009 0.07906822 
-0.8854296 0.4648398 0.0001322325 
-0.370794 0.9292834 0.000374274 
0.2345075 -0.1602738 0.9602726 
0.9579964 0.03008005 0.2881683 
-0.5068035 0.8381984 0.2054656 
-0.4950338 0.8703114 0.0003888953 
-0.7983741 -0.2291544 0.5583823 
-0.9684902 -0.2479746 -1.094471e-05 
-0.9903964 0.1374962 5.158832e-05 
-0.826985 0.5632241 -4.409817e-06 
0.9594332 0.2741897 0.07658299 
0.01965429 -0.9526366 0.3035436 
0.8315032 0.1046048 0.5474541 
0.4484901 -0.4941747 0.7459549 
0.9276286 0.1436521 0.3459767 
0.2993663 0.9545878 0.0001289108 
1.001288 0.02329222 0.0001368512 
0.9932528 -0.1123917 2.639521e-05 
0.8446432 -0.1077786 0.5247703 
-0.3517712 -0.8236176 0.4472222 
0.2782432 0.4558496 0.8470052 
0.2662327 -0.01835537 0.9648538 
-0.1128385 0.9942703 0.0001173782 
-0.9359584 0.3542014 8.692245e-05 
-0.5358218 0.7784915 0.3295677 
-0.3831303 0.4209172 0.8236312 
-0.6133633 -0.7830294 0.1001904 
0.38376 -0.9192566 0.09718785 
3 219 117 40 
3 47 389 58 
3 222 257 122 
3 225 336 230 
3 34 487 46 
3 430 154 408 
3 156 306 55 
3 328 329 326 
3 472 280 133 
3 521 245 253 
3 114 212 494 
3 184 25 178 
3 469 49 26 
3 336 225 166 
3 272 230 466 
3 129 348 265 
3 14 228 31 
3 173 391 137 
3 507 269 451 
3 273 291 439 
3 314 287 138 
3 173 480 170 
3 453 300 240 
3 294 424 295 
3 299 376 341 
3 299 303 310 
3 375 85 242 
3 149 243 357 
3 22 456 361 
3 339 177 430 
3 308 38 377 
3 244 497 319 
3 270 498 269 
3 276 137 421 
3 325 54 282 
3 16 58 389 
3 209 505 388 
3 499 157 24 
3 258 252 66 
3 435 47 58 
3 221 77 365 
3 129 265 116 
3 470 222 422 
3 167 196 438 
3 350 406 6 
3 59 234 101 
3 501 172 134 
3 174 286 439 
3 385 352 11 
3 85 429 147 
3 483 294 298 
3 176 149 454 
3 458 459 368 
3 371 251 86 
3 190 180 505 
3 412 264 27 
3 41 187 521 
3 29 99 113 
3 194 224 335 
3 491 437 166 
3 271 264 412 
3 327 70 471 
3 52 421 390 
3 272 232 230 
3 172 479 32 
3 57 283 141 
3 301 426 483 
3 202 482 242 
3 459 40 368 
3 503 114 344 
3 0 247 504 
3 510 254 208 
3 108 460 249 
3 399 369 400 
3 332 186 62 
3 494 212 23 
3 26 216 157 
3 464 255 218 
3 446 246 210 
3 115 405 189 
3 28 465 212 
3 258 191 404 
3 365 124 188 
3 259 162 313 
3 336 166 109 
3 347 271 412 
3 5 31 28 
3 126 475 168 
3 195 51 273 
3 100 391 401 
3 134 32 329 
3 230 232 491 
3 232 233 491 
3 78 141 91 
3 18 90 91 
3 200 72 476 
3 439 148 174 
3 72 200 290 
3 359 236 442 
3 392 324 298 
3 316 159 352 
3 383 290 104 
3 45 343 370 
3 370 46 484 
3 46 151 484 
3 202 65 482 
3 204 55 443 
3 155 20 154 
3 307 456 22 
3 398 515 159 
3 318 309 341 
3 516 431 497 
3 99 263 87 
3 163 408 338 
3 475 513 476 
3 426 424 483 
3 301 483 317 
3 516 497 244 
3 355 490 488 
3 516 428 431 
3 323 47 435 
3 467 263 99 
3 14 31 5 
3 273 439 195 
3 35 397 82 
3 162 188 124 
3 475 476 168 
3 60 228 14 
3 396 487 37 
3 333 108 211 
3 130 282 3 
3 276 421 52 
3 14 5 479 
3 237 501 143 
3 299 80 376 
3 296 295 342 
3 81 310 303 
3 37 487 34 
3 215 40 117 
3 0 220 184 
3 371 257 334 
3 217 185 216 
3 498 61 30 
3 51 347 433 
3 31 228 17 
3 42 475 270 
3 304 150 424 
3 320 244 202 
3 517 345 330 
3 178 25 24 
3 253 462 521 
3 1 379 193 
3 1 126 379 
3 193 379 347 
3 275 83 348 
3 473 137 391 
3 17 228 136 
3 78 381 141 
3 493 358 139 
3 142 340 289 
3 60 351 440 
3 201 82 340 
3 300 485 454 
3 353 302 97 
3 153 444 311 
3 343 46 370 
3 464 115 256 
3 52 449 276 
3 316 385 363 
3 419 260 505 
3 92 102 470 
3 283 18 91 
3 299 425 143 
3 402 380 427 
3 21 367 302 
3 20 309 154 
3 249 208 108 
3 165 463 164 
3 522 261 417 
3 192 30 190 
3 465 364 446 
3 230 336 466 
3 169 197 89 
3 77 221 267 
3 277 267 229 
3 77 277 90 
3 474 406 196 
3 476 273 168 
3 139 169 234 
3 286 171 92 
3 73 60 14 
3 18 350 90 
3 281 425 44 
3 239 67 278 
3 373 57 19 
3 238 374 452 
3 431 409 497 
3 260 192 505 
3 420 349 62 
3 123 118 184 
3 167 268 333 
3 423 71 121 
3 436 124 6 
3 140 278 327 
3 228 440 136 
3 272 53 232 
3 198 200 476 
3 143 501 477 
3 282 54 3 
3 240 33 453 
3 80 299 143 
3 374 238 486 
3 318 414 175 
3 304 339 150 
3 409 56 497 
3 245 521 187 
3 16 245 187 
3 110 416 107 
3 500 24 157 
3 111 372 112 
3 258 345 252 
3 264 84 27 
3 522 334 261 
3 215 117 28 
3 405 336 109 
3 119 191 258 
3 221 365 120 
3 70 366 435 
3 468 5 117 
3 17 48 465 
3 118 362 519 
3 196 167 313 
3 467 133 356 
3 167 438 423 
3 125 272 466 
3 270 475 126 
3 70 2 472 
3 356 134 328 
3 71 53 272 
3 168 273 433 
3 438 406 284 
3 391 173 401 
3 277 91 90 
3 158 94 507 
3 476 72 273 
3 173 231 480 
3 288 413 94 
3 142 94 64 
3 198 147 200 
3 43 453 33 
3 142 201 340 
3 33 240 480 
3 383 297 148 
3 424 342 295 
3 296 241 69 
3 69 241 175 
3 35 21 8 
3 408 154 338 
3 398 160 355 
3 177 38 430 
3 430 155 154 
3 396 492 156 
3 519 362 390 
3 455 485 300 
3 308 377 409 
3 398 159 357 
3 214 223 447 
3 226 234 506 
3 172 32 134 
3 449 3 407 
3 515 353 96 
3 8 320 35 
3 12 444 56 
3 490 354 428 
3 354 308 409 
3 334 522 110 
3 125 466 405 
3 394 223 197 
3 78 91 277 
3 289 198 513 
3 136 440 282 
3 278 67 93 
3 147 429 200 
3 429 290 200 
3 363 373 149 
3 85 375 429 
3 105 482 65 
3 160 398 243 
3 306 160 152 
3 344 114 494 
3 518 23 210 
3 4 181 511 
3 256 189 369 
3 4 384 181 
3 181 182 403 
3 372 88 112 
3 113 87 207 
3 165 188 254 
3 115 189 256 
3 86 257 371 
3 39 214 462 
3 120 365 165 
3 218 115 464 
3 189 109 461 
3 411 193 412 
3 122 257 86 
3 263 326 346 
3 405 466 336 
3 109 166 260 
3 465 28 31 
3 262 197 223 
3 50 128 321 
3 448 362 118 
3 71 272 125 
3 514 235 279 
3 131 359 63 
3 281 73 479 
3 452 322 285 
3 72 291 273 
3 235 144 79 
3 407 146 7 
3 380 478 441 
3 478 317 324 
3 402 427 36 
3 81 34 45 
3 242 320 202 
3 485 176 454 
3 455 443 203 
3 203 443 152 
3 203 152 176 
3 21 302 456 
3 307 206 456 
3 177 377 38 
3 183 39 15 
3 308 354 492 
3 464 256 250 
3 40 215 114 
3 254 188 259 
3 348 76 261 
3 48 123 220 
3 123 448 118 
3 225 491 166 
3 470 102 222 
3 348 83 76 
3 31 17 465 
3 423 268 167 
3 401 229 100 
3 277 77 267 
3 129 131 63 
3 129 63 275 
3 73 14 479 
3 3 449 448 
3 401 381 78 
3 90 350 6 
3 288 94 233 
3 283 385 18 
3 57 363 283 
3 283 363 385 
3 452 395 238 
3 383 148 290 
3 351 370 382 
3 103 374 393 
3 311 427 380 
3 242 482 375 
3 360 98 105 
3 98 297 105 
3 38 155 430 
3 111 183 15 
3 434 39 253 
3 250 256 399 
3 461 209 75 
3 461 75 369 
3 209 461 419 
3 388 505 180 
3 27 84 331 
3 251 371 107 
3 164 120 165 
3 214 183 112 
3 183 214 39 
3 23 212 446 
3 74 220 0 
3 25 499 24 
3 345 404 164 
3 208 211 108 
3 4 213 384 
3 62 186 420 
3 112 262 214 
3 207 263 346 
3 446 364 246 
3 405 109 189 
3 419 109 260 
3 182 384 1 
3 1 384 126 
3 412 193 347 
3 334 116 265 
3 417 261 420 
3 335 41 194 
3 219 468 117 
3 212 465 446 
3 364 465 48 
3 220 364 48 
3 25 184 118 
3 26 49 216 
3 333 259 313 
3 498 30 509 
3 264 122 84 
3 261 265 348 
3 435 366 323 
3 117 5 28 
3 469 519 390 
3 217 266 119 
3 405 115 125 
3 126 384 270 
3 76 83 226 
3 467 356 328 
3 390 421 469 
3 437 491 450 
3 498 509 269 
3 509 451 269 
3 126 168 433 
3 271 51 195 
3 129 275 348 
3 127 89 197 
3 394 514 223 
3 447 514 50 
3 194 128 471 
3 329 32 468 
3 390 449 52 
3 77 6 124 
3 470 274 92 
3 131 102 92 
3 135 133 280 
3 448 130 3 
3 137 231 173 
3 229 78 277 
3 438 196 406 
3 131 92 171 
3 135 501 134 
3 401 173 170 
3 42 289 513 
3 139 59 324 
3 280 477 501 
3 350 11 284 
3 158 233 94 
3 94 142 507 
3 439 291 148 
3 171 286 174 
3 171 174 236 
3 324 392 139 
3 235 79 292 
3 278 140 199 
3 479 172 237 
3 407 7 276 
3 170 480 19 
3 198 289 147 
3 291 72 290 
3 442 441 359 
3 359 441 314 
3 67 68 477 
3 231 43 33 
3 413 322 103 
3 293 64 94 
3 287 441 478 
3 414 68 239 
3 67 239 68 
3 44 310 145 
3 440 351 382 
3 480 240 373 
3 297 508 148 
3 95 296 69 
3 146 300 453 
3 240 454 373 
3 352 159 96 
3 442 311 380 
3 424 294 483 
3 296 342 241 
3 414 376 68 
3 34 343 45 
3 45 370 351 
3 159 515 96 
3 374 486 353 
3 150 241 342 
3 241 150 163 
3 81 305 34 
3 520 151 455 
3 163 338 175 
3 151 487 204 
3 485 203 176 
3 204 443 151 
3 443 55 152 
3 176 152 160 
3 205 312 12 
3 160 306 355 
3 21 206 8 
3 8 206 516 
3 489 155 38 
3 409 431 354 
3 499 26 157 
3 491 225 230 
3 95 69 481 
3 334 265 261 
3 324 317 298 
3 238 315 486 
3 319 497 13 
3 396 156 55 
3 396 37 378 
3 156 492 490 
3 30 192 509 
3 69 175 414 
3 145 81 45 
3 35 320 397 
3 204 396 55 
3 87 113 99 
3 29 366 133 
3 29 133 467 
3 365 77 124 
3 328 134 329 
3 448 449 362 
3 135 280 501 
3 480 231 33 
3 104 290 429 
3 402 317 478 
3 298 317 483 
3 96 353 486 
3 520 455 300 
3 311 98 153 
3 98 360 153 
3 455 151 443 
3 302 361 456 
3 202 244 319 
3 202 319 65 
3 65 319 360 
3 12 56 377 
3 396 204 487 
3 55 306 152 
3 488 490 307 
3 489 378 37 
3 56 409 377 
3 495 518 210 
3 143 477 80 
3 369 189 461 
3 255 108 333 
3 237 425 281 
3 254 510 463 
3 211 208 254 
3 41 321 194 
3 507 42 269 
3 232 53 322 
3 245 434 253 
3 268 255 333 
3 121 218 255 
3 498 270 213 
3 266 473 391 
3 266 391 100 
3 53 71 423 
3 509 450 451 
3 234 59 139 
3 287 324 59 
3 276 7 43 
3 291 290 148 
3 375 104 429 
3 301 36 312 
3 178 24 248 
3 127 197 262 
3 104 482 383 
3 250 415 460 
3 270 384 213 
3 222 122 422 
3 191 267 221 
3 11 350 18 
3 38 308 378 
3 207 502 457 
3 331 179 27 
3 499 519 469 
3 379 126 433 
3 263 467 328 
3 70 224 471 
3 473 421 137 
3 327 132 140 
3 350 284 406 
3 236 359 171 
3 19 57 381 
3 381 57 141 
3 413 293 94 
3 442 380 441 
3 520 337 484 
3 442 508 311 
3 357 316 149 
3 303 309 305 
3 515 22 361 
3 305 37 34 
3 155 489 20 
3 505 192 190 
3 384 182 181 
3 411 432 193 
3 219 40 459 
3 211 259 333 
3 217 119 66 
3 422 122 264 
3 50 321 447 
3 102 131 116 
3 131 129 116 
3 227 17 136 
3 227 136 130 
3 436 474 196 
3 269 42 270 
3 472 93 280 
3 397 242 85 
3 82 367 35 
3 0 178 247 
3 84 86 251 
3 418 108 255 
3 418 464 250 
3 106 389 113 
3 74 246 364 
3 74 364 220 
3 252 445 66 
3 404 120 164 
3 165 254 463 
3 113 389 47 
3 66 445 185 
3 211 254 259 
3 191 221 404 
3 127 262 88 
3 313 436 196 
3 422 274 470 
3 491 233 450 
3 233 158 450 
3 433 273 51 
3 101 83 275 
3 394 197 169 
3 436 406 474 
3 274 286 92 
3 42 507 289 
3 131 171 359 
3 2 93 472 
3 141 283 91 
3 93 67 477 
3 440 325 282 
3 325 440 382 
3 147 289 340 
3 287 314 441 
3 477 68 80 
3 148 508 174 
3 351 44 145 
3 54 337 146 
3 382 484 337 
3 146 453 7 
3 352 96 486 
3 311 508 98 
3 242 397 320 
3 341 376 318 
3 149 176 243 
3 309 20 305 
3 160 243 176 
3 323 29 47 
3 353 361 302 
3 318 338 309 
3 206 428 516 
3 268 121 255 
3 234 89 506 
3 311 444 427 
3 36 12 312 
3 517 445 252 
3 410 332 62 
3 407 54 146 
3 294 392 298 
3 403 182 432 
3 192 260 437 
3 372 410 62 
3 100 229 191 
3 237 172 501 
3 238 395 315 
3 382 370 484 
3 340 82 397 
3 81 145 310 
3 36 301 402 
3 301 312 426 
3 353 515 361 
3 360 319 13 
3 488 398 355 
3 20 489 37 
3 308 492 378 
3 113 207 457 
3 150 339 163 
3 477 280 93 
3 227 123 48 
3 223 514 447 
3 312 205 304 
3 12 36 444 
3 56 444 153 
3 378 489 38 
3 469 26 499 
3 438 285 423 
3 312 304 426 
3 40 114 503 
3 411 179 432 
3 420 76 349 
3 127 506 89 
3 330 164 9 
3 403 432 179 
3 411 27 179 
3 521 462 41 
3 182 1 432 
3 87 263 207 
3 133 135 356 
3 281 479 237 
3 80 68 376 
3 341 303 299 
3 398 488 22 
3 377 177 205 
3 355 156 490 
3 246 74 495 
3 511 180 4 
3 32 5 468 
3 436 162 124 
3 322 413 288 
3 354 490 492 
3 82 201 64 
3 372 62 10 
3 358 169 139 
3 206 307 428 
3 372 386 410 
3 416 522 387 
3 387 186 332 
3 187 335 58 
3 471 132 327 
3 144 235 358 
3 258 404 345 
3 100 191 119 
3 66 119 258 
3 506 127 10 
3 271 195 422 
3 170 19 381 
3 425 310 44 
3 315 352 486 
3 157 496 500 
3 522 416 110 
3 455 203 485 
3 399 400 415 
3 309 338 154 
3 460 108 418 
3 459 346 326 
3 118 519 25 
3 222 102 257 
3 101 138 59 
3 407 276 449 
3 337 520 146 
3 393 367 64 
3 517 252 345 
3 181 403 512 
3 215 212 114 
3 261 76 420 
3 305 81 303 
3 341 309 303 
3 20 37 305 
3 445 161 185 
3 496 157 185 
3 256 369 399 
3 461 109 419 
3 29 467 99 
3 448 123 130 
3 195 274 422 
3 101 234 226 
3 514 279 50 
3 42 513 475 
3 287 59 138 
3 476 513 198 
3 43 7 453 
3 340 397 85 
3 425 299 310 
3 520 300 146 
3 97 393 374 
3 367 21 35 
3 13 497 56 
3 191 229 267 
3 243 398 357 
3 13 56 153 
3 314 63 359 
3 407 3 54 
3 144 493 295 
3 442 236 508 
3 334 110 371 
3 365 188 165 
3 326 219 459 
3 216 49 217 
3 435 224 70 
3 218 71 115 
3 437 509 192 
3 48 17 227 
3 227 130 123 
3 70 472 366 
3 514 394 358 
3 274 439 286 
3 292 481 199 
3 199 239 278 
3 142 64 201 
3 95 481 79 
3 408 339 430 
3 16 187 58 
3 74 0 504 
3 400 369 75 
3 210 246 495 
3 180 61 4 
3 61 498 213 
3 411 412 27 
3 349 10 62 
3 76 226 349 
3 127 88 10 
3 271 422 264 
3 285 53 423 
3 451 158 507 
3 43 231 276 
3 79 481 292 
3 297 98 508 
3 383 482 105 
3 383 105 297 
3 434 15 39 
3 16 389 106 
3 113 457 106 
3 502 346 458 
3 459 458 346 
3 250 460 418 
3 250 399 415 
3 331 84 251 
3 185 157 216 
3 112 88 262 
3 0 184 178 
3 61 180 190 
3 84 122 86 
3 186 417 420 
3 10 88 372 
3 435 58 335 
3 29 113 47 
3 187 41 335 
3 10 349 506 
3 321 128 194 
3 266 49 473 
3 50 132 128 
3 471 128 132 
3 390 362 449 
3 234 169 89 
3 134 356 135 
3 158 451 450 
3 229 401 78 
3 381 401 170 
3 395 285 438 
3 232 288 233 
3 140 279 235 
3 2 278 93 
3 285 395 452 
3 285 322 53 
3 232 322 288 
3 287 478 324 
3 493 139 392 
3 199 140 292 
3 440 228 60 
3 480 373 19 
3 237 143 425 
3 44 60 73 
3 54 325 337 
3 11 352 315 
3 11 315 395 
3 294 493 392 
3 482 104 375 
3 145 45 351 
3 424 426 304 
3 241 163 175 
3 151 46 487 
3 177 339 205 
3 21 456 206 
3 428 307 490 
3 378 492 396 
3 121 71 218 
3 8 244 320 
3 300 454 240 
3 12 377 205 
3 167 333 313 
3 323 366 29 
3 194 471 224 
3 293 103 393 
3 380 402 478 
3 301 317 402 
3 428 354 431 
3 493 144 358 
3 100 119 266 
3 268 423 121 
3 195 439 274 
3 149 373 454 
3 414 318 376 
3 164 463 9 
3 257 116 334 
3 120 404 221 
3 159 316 357 
3 495 74 504 
3 345 164 330 
3 223 214 262 
3 328 326 263 
3 49 266 217 
3 138 275 63 
3 138 63 314 
3 395 438 284 
3 69 414 239 
3 353 97 374 
3 508 236 174 
3 446 210 23 
3 166 437 260 
3 144 295 296 
3 144 296 95 
3 386 372 111 
3 371 110 107 
3 329 468 219 
3 123 184 220 
3 366 472 133 
3 44 73 281 
3 343 34 46 
3 488 307 22 
3 502 207 346 
3 494 23 518 
3 387 417 186 
3 253 39 462 
3 436 313 162 
3 279 132 50 
3 275 138 101 
3 235 292 140 
3 11 395 284 
3 452 103 322 
3 413 103 293 
3 393 97 367 
3 520 484 151 
3 368 40 503 
3 4 61 213 
3 215 28 212 
3 190 30 61 
3 329 219 326 
3 115 71 125 
3 327 278 2 
3 44 351 60 
3 57 373 363 
3 342 424 150 
3 247 178 248 
3 185 161 496 
3 9 463 510 
3 180 511 388 
3 181 512 511 
3 417 387 522 
3 66 185 217 
3 432 1 193 
3 335 224 435 
3 116 257 102 
3 321 462 447 
3 447 462 214 
3 433 347 379 
3 347 51 271 
3 421 473 49 
3 6 77 90 
3 327 2 70 
3 5 32 479 
3 282 130 136 
3 6 406 436 
3 137 276 231 
3 235 514 358 
3 289 507 142 
3 316 352 385 
3 239 199 481 
3 337 325 382 
3 103 452 374 
3 147 340 85 
3 316 363 149 
3 360 105 65 
3 175 338 318 
3 302 367 97 
3 153 360 13 
3 161 445 517 
3 464 418 255 
3 248 24 500 
3 355 306 156 
3 518 344 494 
3 169 358 394 
3 505 209 419 
3 188 162 259 
3 95 79 144 
3 64 293 393 
3 427 444 36 
3 22 515 398 
3 304 205 339 
3 49 469 421 
3 437 450 509 
3 462 321 41 
3 226 83 101 
3 481 69 239 
3 163 339 408 
3 516 244 8 
3 25 519 499 
3 279 140 132 
3 64 367 82 
3 349 226 506 
3 18 385 11 
3 295 493 294 
3 112 183 111 
