OFF
523 1000 0
0.51480149640899 0.753175788264007 0
-0.0947464042742249 -0.827042891086813 0
-0.435412187063465 0.411795612215001 0
0.300025526087893 0.441767367791017 0
0.136835927081284 -0.899853944168679 0
-0.00059350019959719 0.630601803230947 0
0.59063401842947 -0.109166311062222 0
0.320087216560428 0.296716728898665 0
0.0438686765255626 -0.191727813475686 0
1 0 0
-0.80505233752397 -0.119279125287124 0
0.431518262774971 -0.132783560186014 0
-0.192395852255648 -0.0599634269590785 0
-0.122271148564769 -0.152320987395692 0
0.0366744039383293 0.549613471714161 0
-0.964952631245912 0.262424121321939 0
-0.765101824073653 0.643909309452168 0
0.183185640946828 0.607095484822607 0
0.483389713804336 -0.077323885280817 0
0.442228925127546 0.107141286313461 0
-0.0920139268088216 0.164578245711694 0
0.0996034396115615 -0.176478848248094 0
0.182713580976487 -0.0803680704956675 0
0.176917474528774 0.914089322211834 0
0.675553971278971 0.623397223766138 0
0.5705681697938 0.562271249625667 0
0.674700052601507 0.435328242070456 0
-0.426180468209999 -0.808483584238399 0
0.0721934738601895 0.737737589424533 0
-0.470591750380751 0.648874091541606 0
0.214663784876484 -0.740787618690655 0
0.0999443198407087 0.649295112958705 0
-0.0929619702768237 0.612029835252876 0
0.37523676018334 0.181355417101046 0
0.0221255887041857 0.237123976026254 0
0.0808852925117958 -0.257861752335497 0
-0.249662299173132 -0.106428063746937 0
-0.0183469448058578 0.150076332582839 0
-0.0889612491668736 0.046249304118636 0
-0.850675162859391 0.287254148752071 0
-0.06853003906434 0.902935255032736 0
-0.700389665846526 0.412057434565992 0
0.08312754965761 -0.57186550498213 0
0.370673863052367 0.263763105320629 0
-0.0142083643022272 0.401739636024768 0
0.0214157936866574 0.319501586435212 0
0.104925147476074 0.248773198415839 0
-0.56010126508702 0.624759772392021 0
0.273827113301153 0.665117230289463 0
0.634012173779799 0.327140154991715 0
-0.624496760127465 0.23832433381685 0
-0.207269630158561 -0.621588890423074 0
0.441126703539635 0.391538304194109 0
0.417141234093342 -0.38727791923569 0
0.251720352642884 0.379865879950061 0
0.109710380986307 0.0968228211799179 0
-0.131606706247723 -0.0888121195375283 0
0.441502345901907 0.0507557460414288 0
-0.67615344737391 0.585430048419015 0
-0.532559208419539 -0.127762676369065 0
0.0529605740756742 0.452384471904185 0
0.16013641269605 -0.835273211335887 0
-0.874814888395517 -0.232533770300567 0
-0.47030694986175 -0.323601249686823 0
0.160045252959044 -0.356115166392123 0
-0.08385970436625 -0.24867556852485 0
0.795961212010668 0.268157784757556 0
-0.327918650318845 0.363123488337265 0
-0.275499303722685 0.330928096868489 0
-0.316262246895027 0.197194820300248 0
-0.503259496977662 0.453195984641153 0
0.520483204996115 -0.420002984761654 0
-0.100521277550458 -0.503034891398828 0
-0.00162012293265283 0.471148748909394 0
0.403549238780505 0.814521925210484 0
0.592245344470697 -0.805757688112739 0
-0.69666739347532 -0.286130328505782 0
0.65480132976224 -0.0292656941429556 0
0.541100292224666 0.0584742399808993 0
-0.432082628101727 0.174968408492058 0
-0.218844835879496 0.376889001672392 0
-0.0384630225489215 0.294961043468875 0
0.0779683829954939 -0.322100997484795 0
-0.62197868260081 -0.276608378255721 0
-0.511791662533952 -0.761263014358973 0
-0.00271110989475101 -0.366994908710008 0
-0.583299200156419 -0.680581087336622 0
-0.384451915818906 0.759446802794588 0
-0.81980235001135 -0.030849929164526 0
-0.682407654678793 -0.0450336171614325 0
0.54600986361315 -0.0605682908880267 0
0.522379268638728 -0.00584984115346937 0
-0.363181129693944 -0.455034643823519 0
-0.359087958249927 0.404638610933734 0
0.19943565886336 -0.427834711815017 0
-0.375502510857741 0.17777225304004 0
0.314451499853534 -0.136135887473243 0
0.205941194867267 -0.217506433813912 0
-0.184339342635481 -0.242494451889705 0
-0.400270894038976 0.693795676435199 0
0.626885427669241 0.192428655915372 0
-0.586562899315008 -0.20277205115873 0
-0.454022621800498 -0.494492255691635 0
0.265917592616079 -0.310733428601068 0
-0.101259654528071 -0.357931233517766 0
-0.139413650033697 -0.280899952667231 0
-0.626202482349965 0.779660471679014 0
-0.738798052346234 -0.673926878711193 0
0.849595566352516 -0.338159588798089 0
0.461835617802566 -0.682982848688544 0
-0.730506252209315 -0.550103003527412 0
-0.997716456445305 0.0675416355903842 0
-0.907359509195215 0.0526293756638468 0
-0.503260111160047 0.743801941623063 0
0.0498089320052224 0.905733369502405 0
0.598749423847387 -0.505463550198421 0
-0.548397141950426 -0.485625141891422 0
-0.0351972105862659 0.773657581229675 0
0.457862750439794 0.553275572585951 0
0.707510468215912 0.244622999704227 0
0.820858144125146 0.0372614526768899 0
0.613245529076737 -0.377769590449639 0
-0.478121037731596 -0.654416106576333 0
0.376698296985121 0.606597581540413 0
0.687485793664373 -0.0926469541902789 0
0.51578205057496 -0.47046224871685 0
-0.0516426604180709 -0.699541835040181 0
-0.721392394122897 -0.0245902883602572 0
-0.619128480284455 0.319236522750941 0
-0.557443064501643 -0.391217429817242 0
0.296196275376258 0.536637805240587 0
-0.449073441414496 -0.408346843180269 0
-0.549590025741474 0.294061633235519 0
-0.386357654801909 0.556609052634191 0
-0.198076941297666 0.593911659529981 0
-0.288597220773326 0.55743558738813 0
0.173700667297641 0.535165156966034 0
0.49136145263977 0.27328659866254 0
-0.523521364586907 -0.210071492384852 0
-0.533125869118543 -0.0132885781379562 0
-0.484920568095968 0.279355268174529 0
0.483572641279475 0.0534196206634952 0
0.118987587545336 -0.455980697496715 0
-0.189206864442012 0.420363875772331 0
-0.433472981457389 0.12306227022203 0
0.00898415657891355 0.34924901768313 0
0.252415500014291 0.275829614377796 0
0.0108327472247192 -0.435979993728674 0
-0.215647478490854 -0.393747295554484 0
0.315591706392494 0.047659837733067 0
-0.26002278454298 0.0892066485517555 0
0.145706713874016 0.202697597313761 0
0.165605139269271 0.0890071165736649 0
-0.178353346277925 -0.167519943308033 0
-0.133128642353703 0.130946790428877 0
-0.101929687895489 0.110630453839787 0
0.0857929765271017 0.0453057548001184 0
0.742466868174035 0.517922220768298 0
0.22695573233036 -0.508097913139158 0
0.316659598152674 -0.0907923580212354 0
0.190685035506729 0.0242693577696232 0
0.912053001765912 0.410072337484241 0
0.705604418398599 -0.146288570712673 0
-0.221834489328124 0.130514523119075 0
0.910753135402517 0.0629808381081988 0
0.849697960398378 -0.0397118453664001 0
0.364812794044354 -0.638484494628523 0
0.633114377651964 -0.269679039035552 0
-0.0664702372214495 -0.634863221545941 0
-0.584496760432777 0.0191063031709889 0
0.478012118271546 0.153846469782535 0
-0.357889336358001 -0.359902300798702 0
-0.154629940110132 0.537552254537264 0
0.492551561412523 0.206405398839476 0
-0.276642052357531 -0.380244440458765 0
-0.26217478994089 0.18108127688577 0
0.230582593824904 0.076989081001469 0
-0.162265851975711 0.0285807114873655 0
0.612458547968304 0.691982855458107 0
-0.313290976911828 -0.949657182242957 0
0.262238309232012 -0.87794937566294 0
0.0375636947129626 -0.93448729811679 0
-0.0714918023007644 -0.909343270980227 0
-0.911122243619748 0.180385800138963 0
0.514315293533685 0.626524674040356 0
0.802456193638558 0.370565765101218 0
-0.859804915970891 -0.314352049504069 0
-0.735868858561774 0.525173889076311 0
0.792071967551227 -0.0859758351886515 0
0.560830600896409 -0.628492837850681 0
0.258931237121536 -0.807227673453123 0
0.721537579114249 0.138110008885968 0
0.304839902710847 -0.748400727174494 0
-0.235787711813152 -0.784805436899426 0
-0.629959481124834 0.400718873789923 0
-0.273445741696894 -0.588504835643391 0
0.593519562588009 -0.206495837124862 0
-0.66065556717326 0.0471700913348757 0
0.00658079438493536 -0.491125492677899 0
-0.406122259843484 0.292376514553777 0
-0.0532093250114151 -0.472986564521838 0
0.1072132497471 -0.374768357134684 0
-0.0342185398392153 -0.252346682927544 0
0.19986143497057 0.110988361740116 0
0.0932519839211205 0.144608056768203 0
-0.198552819475115 -0.00820927274305834 0
0.0636964091677182 -0.140258984317155 0
-0.401187711917563 0.840313384835933 0
0.963253181098008 -0.268595065301969 0
0.492669987153599 -0.870216228162905 0
0.257647893279424 0.854545788181256 0
0.839135859205568 -0.222567833857842 0
0.123922406445525 0.811308825438213 0
0.0727150884613763 -0.794490422595242 0
-0.810373637079158 0.170159400352312 0
0.0223187034919986 0.821997884228897 0
0.737084959935215 0.383179722245752 0
0.700824457196695 0.299679611761111 0
0.636249626299499 -0.431676686785505 0
-0.148137828798551 0.817971529783674 0
0.406886040433317 0.680748758114358 0
0.707774249119182 0.035095820752116 0
-0.473742592571696 -0.57738904789731 0
-0.698168151599456 0.124966934727984 0
-0.56299320498667 0.472719478320564 0
0.364893081480254 -0.572792763513197 0
-0.65878134555126 -0.196715750030373 0
0.273572432989806 0.59729707857107 0
0.0972922443459978 0.527501260404426 0
0.61068422466614 0.108772361532433 0
0.39789195526043 -0.500924541914944 0
0.43173170976745 0.241450915948681 0
0.339104849358001 -0.427372441184778 0
0.264248098407248 -0.485875002255345 0
-0.614931451245058 -0.092646723529585 0
-0.50338384813007 0.176903710252951 0
-0.305811500567017 -0.316559673971138 0
-0.12143802892549 0.469936590733238 0
0.331908666610469 -0.226946493424638 0
-0.337844759249834 0.265417666420002 0
0.342362410638001 0.145156895505058 0
-0.289855506681944 0.155437701902446 0
-0.020842813016748 -0.310829056679589 0
0.245620847065061 0.0160221573787693 0
-0.0200001096717758 -0.189308010736203 0
-0.879967067938858 0.475034692778422 0
0.292955784132766 0.830436537752012 0
0.564699098007924 0.825296873076008 0
0.67768601014277 0.735351393319394 0
0.924333380024849 -0.381585904576988 0
0.772764778355629 -0.552404728456548 0
-0.637829111901966 -0.770177917114188 0
0.883506722619601 0.245538508589481 0
-0.839270414658079 0.35255646834912 0
0.893271142981374 -0.143635651871638 0
0.739287979259602 -0.389698818944314 0
0.671810639230346 -0.583737333401163 0
-0.544758343009773 -0.582992547240612 0
0.790332338307635 0.206605827052709 0
0.778217625614262 -0.166993760124089 0
0.379767152581862 -0.737767613657823 0
-0.718175838639943 -0.388309015743939 0
-0.789242501133869 0.0601506045505418 0
-0.325774478420328 0.742366799406857 0
-0.386907933446193 -0.694226765205002 0
-0.606979746899361 -0.408853256668123 0
0.624903754050256 0.250416068273071 0
0.638825385512068 0.068563944500703 0
0.634975379557331 -0.318989673967014 0
0.126775620099881 -0.630290571265597 0
0.046496665104433 -0.689067091541019 0
-0.283056924907585 -0.66215063245791 0
0.414207025341988 -0.453636082063076 0
-0.161813255844842 -0.559569199098629 0
-0.300236668592719 -0.537500049797229 0
-0.546778565791831 -0.289290752500965 0
0.413871228305189 0.330782052512749 0
0.582502150578491 0.00946553019321479 0
-0.410907913170935 0.33671156519457 0
-0.546955279287156 0.242550772944106 0
-0.312371439741011 0.488183133178576 0
-0.0722766437941252 0.481159285902097 0
0.2152726740846 0.463250909224263 0
0.478558992927072 -0.00424589009808999 0
0.478110705956666 -0.179881678009892 0
0.431930380618245 -0.313354390793667 0
-0.305643141422265 -0.430166501813251 0
-0.454098506877213 -0.168765427793816 0
0.277871350999601 -0.422928355278359 0
0.0616544309427889 -0.5022374544999 0
-0.112117517839436 -0.413589804023667 0
-0.181861654488993 -0.479633141283092 0
-0.451538215979171 0.244970769641783 0
0.206765367880766 -0.335916201008049 0
-0.401079793384119 0.0290264300370038 0
-0.38936666825492 0.0863686081491206 0
-0.335886248120123 0.154660030100235 0
-0.192757843405869 -0.310972334474248 0
-0.406732887095262 -0.0287981596854347 0
-0.157282016426748 0.344318401240666 0
0.255101373297194 0.170730460446795 0
-0.311294565399862 -0.0592397945748383 0
0.182914516989871 -0.182207618608863 0
-0.089673304910618 0.284348994051044 0
-0.250788987726967 0.0370117912752565 0
-0.0416309575526811 0.230500229444358 0
0.145812459699744 0.0634742007176306 0
0.094168041083169 -0.0924468146101838 0
-0.0608888148063354 0.0152203113238064 0
-0.123270189536937 0.210943573723306 0
-0.0734607504824152 0.349111450876903 0
-0.248388558798492 -0.218928245747151 0
-0.256760748116382 -0.0306870714513981 0
0.687185265161681 -0.196682132725593 0
-0.434040629318505 -0.246635387017843 0
0.379717728576406 -0.162732708219517 0
0.388081807665373 -0.0422921906979551 0
-0.358186351165888 -0.0806320522491138 0
-0.215016727656409 0.232932400418294 0
-0.0771291384846732 -0.194282190157339 0
0.0132610292361495 -0.25144136337804 0
-0.701006402246966 0.286500607423166 0
0.32299914669264 -0.349265356825 0
-0.514586150171057 0.580102793954182 0
-0.470691805367593 -0.0677547480856076 0
0.184195422135385 0.382931632190709 0
-0.233343472580395 0.75378061898585 0
-0.514429841400957 0.357794006777417 0
-0.268904050986848 0.677779959867712 0
-0.157830295408861 0.675830279563607 0
0.989647165555295 0.143521732529855 0
-0.512228612509936 -0.858849141890557 0
-0.950535856209846 -0.310614851640123 0
0.747699160609067 -0.27017648608928 0
-0.645024938770387 -0.505828514056598 0
-0.63050022452802 0.507544990624563 0
0.408660509111382 -0.611259236842208 0
0.206198886843091 0.327983976965275 0
-0.190422229258304 0.18552036240836 0
-0.202981566334406 0.0610121420578251 0
0.0567271232065796 -0.402399613709472 0
-0.14820815769372 0.265070174106501 0
-0.320135250416049 0.0976184671654747 0
0.0556032611664125 0.26787423038449 0
0.086684131128088 0.996235846278665 0
0.905098274074486 0.176438868589052 0
-0.292453239460823 0.847250039760927 0
-0.213088523262017 -0.705150522566299 0
-0.637176634897306 -0.334649115736947 0
-0.754387996450478 -0.215614746800205 0
0.498134004846194 -0.128819610615315 0
0.0820612090261812 0.382082526715278 0
0.383205177220734 -0.123996540757894 0
0.25193412988801 -0.178870658181239 0
0.00872100588363774 -0.0270009375057758 0
0.15466675536646 -0.00299992562812962 0
-0.305006131156965 0.598674203134388 0
0.314856370763166 -0.0318287309870631 0
-0.526162133373144 0.0930414581404802 0
-0.384279764971862 -0.32176525807199 0
-0.131255730978339 -0.22103468889727 0
0.19820686734795 -0.131852287706345 0
0.423668208725525 0.501911258037811 0
0.414220122241488 0.00842537229467874 0
0.291567962354207 0.738369364660312 0
0.764441438682557 -0.0373514146807352 0
-0.456896475582466 0.544709276138273 0
0.14304705963353 -0.242874710042733 0
-0.119514968478519 0.99283239890204 0
0.608710818628563 -0.698750680805995 0
0.0909086775031148 0.319251606087301 0
-0.658257680696903 -0.642227257868981 0
-0.908935336958125 -0.102220519329324 0
0.392629617942568 0.0886297771690864 0
0.269424815155267 -0.245302975312944 0
-0.0499196771624329 -0.331357750041492 0
-0.214877890450488 0.301442944847277 0
-0.126203514587384 -0.0230322983027893 0
-0.010920654430462 0.062131912471905 0
-0.136409363452985 -0.766215267160465 0
-0.332691969129321 -0.193033785531142 0
0.486322414692201 0.0931918318111456 0
0.148261723758805 0.364906867050016 0
-0.159673087173242 -0.351662168560732 0
0.00153342660479969 -0.807918595997029 0
0.44386609925143 -0.0660703223770966 0
-0.992707433597253 -0.12054854325439 0
-0.905948915251255 -0.423387013210223 0
0.324816192260909 -0.945777162573259 0
-0.618279765192444 0.686546976174358 0
0.480320533640142 0.427864229571429 0
0.553494981324229 0.221230554497516 0
-0.463555352578416 -0.0285361133045254 0
0.200261612392849 -0.271405720414875 0
-0.619375870346844 0.10484320736142 0
0.42046110303964 -0.216190185277953 0
0.0479176297241062 0.0899207578502929 0
0.0307704639039594 -0.311197742069555 0
0.23336445107342 -0.04088182473352 0
0.693170758708108 -0.636071943864098 0
0.69663419386106 -0.717426511876688 0
0.541212299665333 0.143655843102068 0
-0.314217054029138 -0.135835742090843 0
-0.0824126459824011 -0.996598292082712 0
0.802750581930406 0.122277244021324 0
0.509530213978233 -0.581432608052583 0
0.539022358007243 -0.166045727622986 0
0.31950219852259 0.346826228729764 0
-0.183660571148347 0.112107191836647 0
-0.0612376157701948 -0.0639851240476282 0
-0.979775039701715 -0.200102152855744 0
-0.302113419035917 -0.851714205938159 0
-0.322551151033711 -0.746225996213049 0
0.257902369065649 -0.368220966520075 0
-0.286106918411999 0.26257395919704 0
0.790207865964988 -0.6128389091491 0
-0.829979049432795 -0.557794565680443 0
-0.821188894193182 -0.381270807575574 0
0.811496012025972 -0.464794394960087 0
0.463045295181934 -0.777195148581676 0
-0.788508976419645 -0.296171033065387 0
0.525756985438987 0.34502644996404 0
-0.381799898462314 -0.612150233694664 0
0.527368849838222 -0.329873974592351 0
-0.316230931525641 0.0278993154398429 0
-0.103524614354569 0.392736409942027 0
-0.3031079012626 0.013454416845107 0
-0.276381120767754 -0.174306679642896 0
0.0378544246027576 -0.0812229805744532 0
-0.0480375717101557 -0.379924900000091 0
-0.143808742368705 0.0752396310168951 0
-0.010039123865111 -0.082776373715683 0
-0.202031039970212 -0.8919202970605 0
-0.127153271047452 -0.668439110117767 0
-0.931992213432517 0.362478294662119 0
-0.553722316615912 0.552437121951185 0
0.614335755008142 -0.148717262306988 0
0.287297423656127 -0.654030613379278 0
0.523755656237141 -0.253598164987506 0
-0.229229006540158 -0.475347023463683 0
0.140486684896937 0.443754529417296 0
-0.364671241303327 -0.232978108498362 0
-0.307056979481252 -0.275572676201516 0
0.145153394149454 0.138664699299441 0
-0.197823045201899 -0.122293929437355 0
0.85301267485706 0.336273958721863 0
0.186005754628847 0.801051552637697 0
-0.698498940475122 0.20845539077346 0
0.376155764814251 0.516046339994347 0
0.379643662234336 0.427181849398894 0
0.244636340265422 -0.570299464651218 0
0.190983182430357 -0.580163836970562 0
0.350255598941226 -0.279906933829802 0
0.317501883382314 0.207539388340367 0
0.308797911730753 0.100511851336786 0
0.193763683547284 0.162065501919771 0
0.13568875693777 -0.129209561803439 0
-0.507831558478934 0.861456387876285 0
-0.270335125512427 0.962766285198116 0
-0.223057316741404 0.888533565673394 0
0.871646884216021 -0.490134378753932 0
0.524942367314817 -0.752303944500216 0
-0.775442463943806 0.306628095385277 0
0.9251669316672 -0.0754691230555174 0
0.71302397333428 -0.490338226853714 0
0.178798858804007 0.706335599141608 0
0.461950628633399 -0.545707365370481 0
-0.363741036345111 0.635780451934445 0
-0.0611295515179884 0.706552524825434 0
0.591376455972845 0.40589901442343 0
-0.390834967300927 -0.55498911888492 0
-0.576575126058684 0.376231987682183 0
-0.40520699667021 0.472477118888649 0
0.561837425349561 0.281774485786474 0
0.588637717832513 -0.178206591989311 0
0.0152409758361961 -0.613798448033826 0
-0.0549711252229759 -0.563786286396303 0
-0.281299489447264 0.418684439113178 0
-0.400396010642765 -0.135828589561539 0
-0.068430086123597 0.551830972409985 0
0.422068772130065 0.163375426235706 0
-0.38094636690376 0.218979323764592 0
-0.0853774019147482 -0.31179005724194 0
-0.352063482890113 -0.025972134633163 0
0.153195004849436 0.287905166661912 0
0.241645667193569 0.119345405272128 0
0.316384338996883 -0.184132073138247 0
0.0477138552504592 0.17750155762166 0
0.13646658615748 -0.0422219064611711 0
-0.0604453359969389 0.0963331339581253 0
0.0751431650434586 -0.0327113085864089 0
0.338472398041642 -0.547576304272164 0
0.0122437794964589 0.0250817023248762 0
-0.466442416795262 0.0458859987730151 0
0.114029324830341 0.916624288250985 0
0.334476035351269 0.942404256025882 0
0.866792768838664 0.498668523058157 0
-0.0638091256700849 -0.129728485725587 0
0.128674319996974 -0.731553359124865 0
0.627947347092886 0.51406888735785 0
0.790228979622569 0.612811683769715 0
-0.217945102816616 0.485892163051311 0
-0.3829795466623 0.923756822350092 0
-0.0044456623324733 0.999990117994386 0
0.439916493782518 0.898038684299344 0
0.377423096190193 -0.844052103776161 0
-0.720848205464322 -0.118900350900892 0
0.14336269653089 -0.52136279862314 0
-0.243635961109197 -0.293715144690687 0
0.203249521046414 -0.666478559641315 0
0.986976477164334 -0.160864643487253 0
0.164725066317613 -0.986339521932817 0
0.0295271955093164 -0.999563977304782 0
0.00874795368181122 -0.557860263157414 0
-0.596783088169953 0.159658143604946 0
0.265643203018197 -0.113846200100142 0
0.0100817646836233 -0.135164874972771 0
0.967571126367929 0.252598724104252 0
0.217639337044274 0.976029261329254 0
0.522234483461239 0.481656868215525 0
0.198609667610076 0.240753906617319 0
-0.783409689400726 0.449975052253037 0
-0.778044450866469 -0.464833774245276 0
3 219 117 40
3 47 389 58
3 222 257 122
3 225 336 230
3 34 487 46
3 430 154 408
3 156 306 55
3 328 329 326
3 472 280 133
3 521 245 253
3 114 212 494
3 184 25 178
3 469 49 26
3 336 225 166
3 272 230 466
3 129 348 265
3 14 228 31
3 173 391 137
3 507 269 451
3 273 291 439
3 314 287 138
3 173 480 170
3 453 300 240
3 294 424 295
3 299 376 341
3 299 303 310
3 375 85 242
3 149 243 357
3 22 456 361
3 339 177 430
3 308 38 377
3 244 497 319
3 270 498 269
3 276 137 421
3 325 54 282
3 16 58 389
3 209 505 388
3 499 157 24
3 258 252 66
3 435 47 58
3 221 77 365
3 129 265 116
3 470 222 422
3 167 196 438
3 350 406 6
3 59 234 101
3 501 172 134
3 174 286 439
3 385 352 11
3 85 429 147
3 483 294 298
3 176 149 454
3 458 459 368
3 371 251 86
3 190 180 505
3 412 264 27
3 41 187 521
3 29 99 113
3 194 224 335
3 491 437 166
3 271 264 412
3 327 70 471
3 52 421 390
3 272 232 230
3 172 479 32
3 57 283 141
3 301 426 483
3 202 482 242
3 459 40 368
3 503 114 344
3 0 247 504
3 510 254 208
3 108 460 249
3 399 369 400
3 332 186 62
3 494 212 23
3 26 216 157
3 464 255 218
3 446 246 210
3 115 405 189
3 28 465 212
3 258 191 404
3 365 124 188
3 259 162 313
3 336 166 109
3 347 271 412
3 5 31 28
3 126 475 168
3 195 51 273
3 100 391 401
3 134 32 329
3 230 232 491
3 232 233 491
3 78 141 91
3 18 90 91
3 200 72 476
3 439 148 174
3 72 200 290
3 359 236 442
3 392 324 298
3 316 159 352
3 383 290 104
3 45 343 370
3 370 46 484
3 46 151 484
3 202 65 482
3 204 55 443
3 155 20 154
3 307 456 22
3 398 515 159
3 318 309 341
3 516 431 497
3 99 263 87
3 163 408 338
3 475 513 476
3 426 424 483
3 301 483 317
3 516 497 244
3 355 490 488
3 516 428 431
3 323 47 435
3 467 263 99
3 14 31 5
3 273 439 195
3 35 397 82
3 162 188 124
3 475 476 168
3 60 228 14
3 396 487 37
3 333 108 211
3 130 282 3
3 276 421 52
3 14 5 479
3 237 501 143
3 299 80 376
3 296 295 342
3 81 310 303
3 37 487 34
3 215 40 117
3 0 220 184
3 371 257 334
3 217 185 216
3 498 61 30
3 51 347 433
3 31 228 17
3 42 475 270
3 304 150 424
3 320 244 202
3 517 345 330
3 178 25 24
3 253 462 521
3 1 379 193
3 1 126 379
3 193 379 347
3 275 83 348
3 473 137 391
3 17 228 136
3 78 381 141
3 493 358 139
3 142 340 289
3 60 351 440
3 201 82 340
3 300 485 454
3 353 302 97
3 153 444 311
3 343 46 370
3 464 115 256
3 52 449 276
3 316 385 363
3 419 260 505
3 92 102 470
3 283 18 91
3 299 425 143
3 402 380 427
3 21 367 302
3 20 309 154
3 249 208 108
3 165 463 164
3 522 261 417
3 192 30 190
3 465 364 446
3 230 336 466
3 169 197 89
3 77 221 267
3 277 267 229
3 77 277 90
3 474 406 196
3 476 273 168
3 139 169 234
3 286 171 92
3 73 60 14
3 18 350 90
3 281 425 44
3 239 67 278
3 373 57 19
3 238 374 452
3 431 409 497
3 260 192 505
3 420 349 62
3 123 118 184
3 167 268 333
3 423 71 121
3 436 124 6
3 140 278 327
3 228 440 136
3 272 53 232
3 198 200 476
3 143 501 477
3 282 54 3
3 240 33 453
3 80 299 143
3 374 238 486
3 318 414 175
3 304 339 150
3 409 56 497
3 245 521 187
3 16 245 187
3 110 416 107
3 500 24 157
3 111 372 112
3 258 345 252
3 264 84 27
3 522 334 261
3 215 117 28
3 405 336 109
3 119 191 258
3 221 365 120
3 70 366 435
3 468 5 117
3 17 48 465
3 118 362 519
3 196 167 313
3 467 133 356
3 167 438 423
3 125 272 466
3 270 475 126
3 70 2 472
3 356 134 328
3 71 53 272
3 168 273 433
3 438 406 284
3 391 173 401
3 277 91 90
3 158 94 507
3 476 72 273
3 173 231 480
3 288 413 94
3 142 94 64
3 198 147 200
3 43 453 33
3 142 201 340
3 33 240 480
3 383 297 148
3 424 342 295
3 296 241 69
3 69 241 175
3 35 21 8
3 408 154 338
3 398 160 355
3 177 38 430
3 430 155 154
3 396 492 156
3 519 362 390
3 455 485 300
3 308 377 409
3 398 159 357
3 214 223 447
3 226 234 506
3 172 32 134
3 449 3 407
3 515 353 96
3 8 320 35
3 12 444 56
3 490 354 428
3 354 308 409
3 334 522 110
3 125 466 405
3 394 223 197
3 78 91 277
3 289 198 513
3 136 440 282
3 278 67 93
3 147 429 200
3 429 290 200
3 363 373 149
3 85 375 429
3 105 482 65
3 160 398 243
3 306 160 152
3 344 114 494
3 518 23 210
3 4 181 511
3 256 189 369
3 4 384 181
3 181 182 403
3 372 88 112
3 113 87 207
3 165 188 254
3 115 189 256
3 86 257 371
3 39 214 462
3 120 365 165
3 218 115 464
3 189 109 461
3 411 193 412
3 122 257 86
3 263 326 346
3 405 466 336
3 109 166 260
3 465 28 31
3 262 197 223
3 50 128 321
3 448 362 118
3 71 272 125
3 514 235 279
3 131 359 63
3 281 73 479
3 452 322 285
3 72 291 273
3 235 144 79
3 407 146 7
3 380 478 441
3 478 317 324
3 402 427 36
3 81 34 45
3 242 320 202
3 485 176 454
3 455 443 203
3 203 443 152
3 203 152 176
3 21 302 456
3 307 206 456
3 177 377 38
3 183 39 15
3 308 354 492
3 464 256 250
3 40 215 114
3 254 188 259
3 348 76 261
3 48 123 220
3 123 448 118
3 225 491 166
3 470 102 222
3 348 83 76
3 31 17 465
3 423 268 167
3 401 229 100
3 277 77 267
3 129 131 63
3 129 63 275
3 73 14 479
3 3 449 448
3 401 381 78
3 90 350 6
3 288 94 233
3 283 385 18
3 57 363 283
3 283 363 385
3 452 395 238
3 383 148 290
3 351 370 382
3 103 374 393
3 311 427 380
3 242 482 375
3 360 98 105
3 98 297 105
3 38 155 430
3 111 183 15
3 434 39 253
3 250 256 399
3 461 209 75
3 461 75 369
3 209 461 419
3 388 505 180
3 27 84 331
3 251 371 107
3 164 120 165
3 214 183 112
3 183 214 39
3 23 212 446
3 74 220 0
3 25 499 24
3 345 404 164
3 208 211 108
3 4 213 384
3 62 186 420
3 112 262 214
3 207 263 346
3 446 364 246
3 405 109 189
3 419 109 260
3 182 384 1
3 1 384 126
3 412 193 347
3 334 116 265
3 417 261 420
3 335 41 194
3 219 468 117
3 212 465 446
3 364 465 48
3 220 364 48
3 25 184 118
3 26 49 216
3 333 259 313
3 498 30 509
3 264 122 84
3 261 265 348
3 435 366 323
3 117 5 28
3 469 519 390
3 217 266 119
3 405 115 125
3 126 384 270
3 76 83 226
3 467 356 328
3 390 421 469
3 437 491 450
3 498 509 269
3 509 451 269
3 126 168 433
3 271 51 195
3 129 275 348
3 127 89 197
3 394 514 223
3 447 514 50
3 194 128 471
3 329 32 468
3 390 449 52
3 77 6 124
3 470 274 92
3 131 102 92
3 135 133 280
3 448 130 3
3 137 231 173
3 229 78 277
3 438 196 406
3 131 92 171
3 135 501 134
3 401 173 170
3 42 289 513
3 139 59 324
3 280 477 501
3 350 11 284
3 158 233 94
3 94 142 507
3 439 291 148
3 171 286 174
3 171 174 236
3 324 392 139
3 235 79 292
3 278 140 199
3 479 172 237
3 407 7 276
3 170 480 19
3 198 289 147
3 291 72 290
3 442 441 359
3 359 441 314
3 67 68 477
3 231 43 33
3 413 322 103
3 293 64 94
3 287 441 478
3 414 68 239
3 67 239 68
3 44 310 145
3 440 351 382
3 480 240 373
3 297 508 148
3 95 296 69
3 146 300 453
3 240 454 373
3 352 159 96
3 442 311 380
3 424 294 483
3 296 342 241
3 414 376 68
3 34 343 45
3 45 370 351
3 159 515 96
3 374 486 353
3 150 241 342
3 241 150 163
3 81 305 34
3 520 151 455
3 163 338 175
3 151 487 204
3 485 203 176
3 204 443 151
3 443 55 152
3 176 152 160
3 205 312 12
3 160 306 355
3 21 206 8
3 8 206 516
3 489 155 38
3 409 431 354
3 499 26 157
3 491 225 230
3 95 69 481
3 334 265 261
3 324 317 298
3 238 315 486
3 319 497 13
3 396 156 55
3 396 37 378
3 156 492 490
3 30 192 509
3 69 175 414
3 145 81 45
3 35 320 397
3 204 396 55
3 87 113 99
3 29 366 133
3 29 133 467
3 365 77 124
3 328 134 329
3 448 449 362
3 135 280 501
3 480 231 33
3 104 290 429
3 402 317 478
3 298 317 483
3 96 353 486
3 520 455 300
3 311 98 153
3 98 360 153
3 455 151 443
3 302 361 456
3 202 244 319
3 202 319 65
3 65 319 360
3 12 56 377
3 396 204 487
3 55 306 152
3 488 490 307
3 489 378 37
3 56 409 377
3 495 518 210
3 143 477 80
3 369 189 461
3 255 108 333
3 237 425 281
3 254 510 463
3 211 208 254
3 41 321 194
3 507 42 269
3 232 53 322
3 245 434 253
3 268 255 333
3 121 218 255
3 498 270 213
3 266 473 391
3 266 391 100
3 53 71 423
3 509 450 451
3 234 59 139
3 287 324 59
3 276 7 43
3 291 290 148
3 375 104 429
3 301 36 312
3 178 24 248
3 127 197 262
3 104 482 383
3 250 415 460
3 270 384 213
3 222 122 422
3 191 267 221
3 11 350 18
3 38 308 378
3 207 502 457
3 331 179 27
3 499 519 469
3 379 126 433
3 263 467 328
3 70 224 471
3 473 421 137
3 327 132 140
3 350 284 406
3 236 359 171
3 19 57 381
3 381 57 141
3 413 293 94
3 442 380 441
3 520 337 484
3 442 508 311
3 357 316 149
3 303 309 305
3 515 22 361
3 305 37 34
3 155 489 20
3 505 192 190
3 384 182 181
3 411 432 193
3 219 40 459
3 211 259 333
3 217 119 66
3 422 122 264
3 50 321 447
3 102 131 116
3 131 129 116
3 227 17 136
3 227 136 130
3 436 474 196
3 269 42 270
3 472 93 280
3 397 242 85
3 82 367 35
3 0 178 247
3 84 86 251
3 418 108 255
3 418 464 250
3 106 389 113
3 74 246 364
3 74 364 220
3 252 445 66
3 404 120 164
3 165 254 463
3 113 389 47
3 66 445 185
3 211 254 259
3 191 221 404
3 127 262 88
3 313 436 196
3 422 274 470
3 491 233 450
3 233 158 450
3 433 273 51
3 101 83 275
3 394 197 169
3 436 406 474
3 274 286 92
3 42 507 289
3 131 171 359
3 2 93 472
3 141 283 91
3 93 67 477
3 440 325 282
3 325 440 382
3 147 289 340
3 287 314 441
3 477 68 80
3 148 508 174
3 351 44 145
3 54 337 146
3 382 484 337
3 146 453 7
3 352 96 486
3 311 508 98
3 242 397 320
3 341 376 318
3 149 176 243
3 309 20 305
3 160 243 176
3 323 29 47
3 353 361 302
3 318 338 309
3 206 428 516
3 268 121 255
3 234 89 506
3 311 444 427
3 36 12 312
3 517 445 252
3 410 332 62
3 407 54 146
3 294 392 298
3 403 182 432
3 192 260 437
3 372 410 62
3 100 229 191
3 237 172 501
3 238 395 315
3 382 370 484
3 340 82 397
3 81 145 310
3 36 301 402
3 301 312 426
3 353 515 361
3 360 319 13
3 488 398 355
3 20 489 37
3 308 492 378
3 113 207 457
3 150 339 163
3 477 280 93
3 227 123 48
3 223 514 447
3 312 205 304
3 12 36 444
3 56 444 153
3 378 489 38
3 469 26 499
3 438 285 423
3 312 304 426
3 40 114 503
3 411 179 432
3 420 76 349
3 127 506 89
3 330 164 9
3 403 432 179
3 411 27 179
3 521 462 41
3 182 1 432
3 87 263 207
3 133 135 356
3 281 479 237
3 80 68 376
3 341 303 299
3 398 488 22
3 377 177 205
3 355 156 490
3 246 74 495
3 511 180 4
3 32 5 468
3 436 162 124
3 322 413 288
3 354 490 492
3 82 201 64
3 372 62 10
3 358 169 139
3 206 307 428
3 372 386 410
3 416 522 387
3 387 186 332
3 187 335 58
3 471 132 327
3 144 235 358
3 258 404 345
3 100 191 119
3 66 119 258
3 506 127 10
3 271 195 422
3 170 19 381
3 425 310 44
3 315 352 486
3 157 496 500
3 522 416 110
3 455 203 485
3 399 400 415
3 309 338 154
3 460 108 418
3 459 346 326
3 118 519 25
3 222 102 257
3 101 138 59
3 407 276 449
3 337 520 146
3 393 367 64
3 517 252 345
3 181 403 512
3 215 212 114
3 261 76 420
3 305 81 303
3 341 309 303
3 20 37 305
3 445 161 185
3 496 157 185
3 256 369 399
3 461 109 419
3 29 467 99
3 448 123 130
3 195 274 422
3 101 234 226
3 514 279 50
3 42 513 475
3 287 59 138
3 476 513 198
3 43 7 453
3 340 397 85
3 425 299 310
3 520 300 146
3 97 393 374
3 367 21 35
3 13 497 56
3 191 229 267
3 243 398 357
3 13 56 153
3 314 63 359
3 407 3 54
3 144 493 295
3 442 236 508
3 334 110 371
3 365 188 165
3 326 219 459
3 216 49 217
3 435 224 70
3 218 71 115
3 437 509 192
3 48 17 227
3 227 130 123
3 70 472 366
3 514 394 358
3 274 439 286
3 292 481 199
3 199 239 278
3 142 64 201
3 95 481 79
3 408 339 430
3 16 187 58
3 74 0 504
3 400 369 75
3 210 246 495
3 180 61 4
3 61 498 213
3 411 412 27
3 349 10 62
3 76 226 349
3 127 88 10
3 271 422 264
3 285 53 423
3 451 158 507
3 43 231 276
3 79 481 292
3 297 98 508
3 383 482 105
3 383 105 297
3 434 15 39
3 16 389 106
3 113 457 106
3 502 346 458
3 459 458 346
3 250 460 418
3 250 399 415
3 331 84 251
3 185 157 216
3 112 88 262
3 0 184 178
3 61 180 190
3 84 122 86
3 186 417 420
3 10 88 372
3 435 58 335
3 29 113 47
3 187 41 335
3 10 349 506
3 321 128 194
3 266 49 473
3 50 132 128
3 471 128 132
3 390 362 449
3 234 169 89
3 134 356 135
3 158 451 450
3 229 401 78
3 381 401 170
3 395 285 438
3 232 288 233
3 140 279 235
3 2 278 93
3 285 395 452
3 285 322 53
3 232 322 288
3 287 478 324
3 493 139 392
3 199 140 292
3 440 228 60
3 480 373 19
3 237 143 425
3 44 60 73
3 54 325 337
3 11 352 315
3 11 315 395
3 294 493 392
3 482 104 375
3 145 45 351
3 424 426 304
3 241 163 175
3 151 46 487
3 177 339 205
3 21 456 206
3 428 307 490
3 378 492 396
3 121 71 218
3 8 244 320
3 300 454 240
3 12 377 205
3 167 333 313
3 323 366 29
3 194 471 224
3 293 103 393
3 380 402 478
3 301 317 402
3 428 354 431
3 493 144 358
3 100 119 266
3 268 423 121
3 195 439 274
3 149 373 454
3 414 318 376
3 164 463 9
3 257 116 334
3 120 404 221
3 159 316 357
3 495 74 504
3 345 164 330
3 223 214 262
3 328 326 263
3 49 266 217
3 138 275 63
3 138 63 314
3 395 438 284
3 69 414 239
3 353 97 374
3 508 236 174
3 446 210 23
3 166 437 260
3 144 295 296
3 144 296 95
3 386 372 111
3 371 110 107
3 329 468 219
3 123 184 220
3 366 472 133
3 44 73 281
3 343 34 46
3 488 307 22
3 502 207 346
3 494 23 518
3 387 417 186
3 253 39 462
3 436 313 162
3 279 132 50
3 275 138 101
3 235 292 140
3 11 395 284
3 452 103 322
3 413 103 293
3 393 97 367
3 520 484 151
3 368 40 503
3 4 61 213
3 215 28 212
3 190 30 61
3 329 219 326
3 115 71 125
3 327 278 2
3 44 351 60
3 57 373 363
3 342 424 150
3 247 178 248
3 185 161 496
3 9 463 510
3 180 511 388
3 181 512 511
3 417 387 522
3 66 185 217
3 432 1 193
3 335 224 435
3 116 257 102
3 321 462 447
3 447 462 214
3 433 347 379
3 347 51 271
3 421 473 49
3 6 77 90
3 327 2 70
3 5 32 479
3 282 130 136
3 6 406 436
3 137 276 231
3 235 514 358
3 289 507 142
3 316 352 385
3 239 199 481
3 337 325 382
3 103 452 374
3 147 340 85
3 316 363 149
3 360 105 65
3 175 338 318
3 302 367 97
3 153 360 13
3 161 445 517
3 464 418 255
3 248 24 500
3 355 306 156
3 518 344 494
3 169 358 394
3 505 209 419
3 188 162 259
3 95 79 144
3 64 293 393
3 427 444 36
3 22 515 398
3 304 205 339
3 49 469 421
3 437 450 509
3 462 321 41
3 226 83 101
3 481 69 239
3 163 339 408
3 516 244 8
3 25 519 499
3 279 140 132
3 64 367 82
3 349 226 506
3 18 385 11
3 295 493 294
3 112 183 111
